<?xml version="1.0" standalone="no"?>
<!DOCTYPE svg PUBLIC "-//W3C//DTD SVG 1.1//EN" "http://www.w3.org/Graphics/SVG/1.1/DTD/svg11.dtd" >
<svg xmlns="http://www.w3.org/2000/svg">
<metadata></metadata>
<defs>
<font id="gotham_problack" horiz-adv-x="1034" >
<font-face units-per-em="2048" ascent="1638" descent="-410" />
<missing-glyph horiz-adv-x="572" />
<glyph unicode="&#xfb01;" horiz-adv-x="1455" d="M45 805v308h131v24q0 195 95 290q51 51 121 74t171 23q153 0 256 -30v-278q-75 23 -146 23q-112 0 -112 -106v-26h256v-302h-250v-805h-391v805h-131zM941 1220v290h409v-290h-409zM949 0v1119h393v-1119h-393z" />
<glyph unicode="&#xfb02;" horiz-adv-x="1455" d="M45 805v308h131v24q0 195 95 290q51 51 121 74t171 23q153 0 256 -30v-278q-75 23 -146 23q-112 0 -112 -106v-26h256v-302h-250v-805h-391v805h-131zM949 0v1510h393v-1510h-393z" />
<glyph horiz-adv-x="0" />
<glyph horiz-adv-x="682" />
<glyph unicode=" "  horiz-adv-x="572" />
<glyph unicode="&#x09;" horiz-adv-x="572" />
<glyph unicode="&#xa0;" horiz-adv-x="572" />
<glyph unicode="!" horiz-adv-x="669" d="M112 1273v175h447v-175l-121 -801h-207zM130 0v351h410v-351h-410z" />
<glyph unicode="&#x22;" horiz-adv-x="1109" d="M71 705l45 743h421v-11l-262 -732h-204zM600 705l47 743h423v-11l-263 -732h-207z" />
<glyph unicode="#" horiz-adv-x="1459" d="M60 279v333h219l39 232h-190v333h249l45 271h300l-47 -271h262l46 271h300l-46 -271h161v-333h-219l-40 -232h191v-333h-246l-50 -279h-300l50 279h-263l-47 -279h-300l47 279h-161zM569 604h277l42 248h-276z" />
<glyph unicode="$" horiz-adv-x="1376" d="M52 209l186 275q201 -141 384 -170v249q-130 29 -220 66t-155 90t-96 125.5t-31 169.5q0 185 130 302t364 134v118h215v-124q237 -25 437 -161l-170 -278q-122 85 -277 124v-239q128 -30 217 -67.5t153 -91.5t94 -127t30 -170q0 -186 -131.5 -299.5t-356.5 -134.5v-203 h-215v207q-153 15 -297.5 68t-260.5 137zM484 1040q0 -41 29.5 -67t110.5 -49v224q-140 -11 -140 -108zM817 302q138 15 138 110q0 43 -29.5 68.5t-108.5 48.5v-227z" />
<glyph unicode="%" horiz-adv-x="1859" d="M73 1080q0 79 26.5 150t74.5 124t118.5 84t153.5 31q110 0 196 -53t131.5 -142t45.5 -196t-46.5 -195.5t-133 -141t-195.5 -52.5t-194.5 52.5t-131 141t-45.5 197.5zM231 0l1117 1448h280l-1117 -1448h-280zM325 1078q0 -70 35 -116t86 -46q27 0 49 12.5t38 34t25 52 t9 65.5q0 33 -9.5 63t-25.5 51.5t-39 34t-49 12.5q-35 0 -62.5 -21t-42 -58t-14.5 -84zM1040 371q0 106 45.5 194.5t132 141.5t197.5 53q110 0 195.5 -52.5t131 -141.5t45.5 -197q0 -106 -46.5 -194.5t-132.5 -141.5t-195 -53t-195 53t-132 141.5t-46 196.5zM1293 369 q0 -69 35 -115.5t87 -46.5q53 0 86.5 46t33.5 118q0 69 -34.5 114.5t-87.5 45.5q-56 0 -88 -44.5t-32 -117.5z" />
<glyph unicode="&#x26;" horiz-adv-x="1443" d="M43 397q0 273 294 406q-95 135 -95 281q0 79 32 150t89 125t143.5 86t190.5 32q97 0 178 -28.5t136 -79t85.5 -119.5t30.5 -149q0 -246 -283 -377l161 -157q67 96 136 229l266 -132q-97 -179 -191 -306l195 -192l-272 -195l-148 151q-194 -147 -430 -147 q-149 0 -265.5 49t-184.5 146t-68 227zM444 414q0 -63 48 -103t122 -40q79 0 172 62l-238 242q-104 -62 -104 -161zM581 1070q0 -41 18 -79.5t56 -86.5q79 35 116.5 78.5t37.5 103.5q0 52 -31 84t-81 32q-34 0 -60.5 -16t-41 -46.5t-14.5 -69.5z" />
<glyph unicode="'" horiz-adv-x="586" d="M71 705l45 743h430v-11l-262 -732h-213z" />
<glyph unicode="(" horiz-adv-x="920" d="M91 593.5q0 155.5 39.5 286.5t118 238.5t188 194.5t258.5 166l163 -244q-201 -139 -291.5 -289.5t-90.5 -352t90.5 -352t291.5 -288.5l-163 -245q-149 78 -258.5 165.5t-188 195.5t-118 238.5t-39.5 286z" />
<glyph unicode=")" horiz-adv-x="920" d="M62 -47q201 138 291.5 288.5t90.5 352t-90.5 352t-291.5 289.5l163 244q149 -79 258.5 -166t188.5 -194.5t118 -238.5t39 -286.5t-39 -286t-118 -238.5t-188.5 -195.5t-258.5 -165.5z" />
<glyph unicode="*" horiz-adv-x="878" d="M58 983l262 93l-262 93l112 192l213 -182l-52 273h217l-51 -273l212 182l112 -192l-262 -93l262 -93l-112 -191l-212 183l51 -274h-217l52 274l-213 -183z" />
<glyph unicode="+" horiz-adv-x="1323" d="M132 554v348h350v355h360v-355h350v-348h-350v-355h-360v355h-350z" />
<glyph unicode="," horiz-adv-x="586" d="M41 -190q101 12 154 59.5t53 126.5v8h-159v403h410v-328q0 -113 -29.5 -193.5t-87 -129t-133.5 -71.5t-176 -26z" />
<glyph unicode="-" horiz-adv-x="843" d="M83 474v345h679v-345h-679z" />
<glyph unicode="." horiz-adv-x="586" d="M89 0v403h410v-403h-410z" />
<glyph unicode="/" horiz-adv-x="1105" d="M-79 -265l916 1915h319l-916 -1915h-319z" />
<glyph unicode="0" horiz-adv-x="1509" d="M85 724q0 88 15.5 171t46 157.5t73.5 140t100 117.5t124 89t147 57.5t167 20.5q121 0 227 -38.5t186 -107.5t137.5 -162.5t87 -207t29.5 -237.5q0 -122 -30 -235.5t-88 -207t-138.5 -163.5t-187.5 -108.5t-229 -38.5q-101 0 -192.5 27t-164.5 76t-131.5 118t-97.5 152.5 t-60 180t-21 199.5zM488 724q0 -115 33.5 -205t95 -141t141.5 -51q120 0 192 110.5t72 286.5q0 114 -34 204.5t-95.5 141.5t-140.5 51q-119 0 -191.5 -110t-72.5 -287z" />
<glyph unicode="1" horiz-adv-x="872" d="M16 1338l424 120h292v-1458h-395v1084l-244 -56z" />
<glyph unicode="2" horiz-adv-x="1289" d="M69 0v302l541 414q102 77 144 136t42 125q0 33 -11.5 60.5t-32.5 46.5t-51 29t-66 10q-71 0 -135 -42.5t-153 -143.5l-270 226q61 79 118.5 133.5t127.5 96t154.5 61t188.5 19.5q156 0 277.5 -58.5t189 -164.5t67.5 -243q0 -69 -14.5 -127.5t-40 -106t-69.5 -95 t-92.5 -87.5t-118.5 -90l-249 -174h598v-327h-1145z" />
<glyph unicode="3" horiz-adv-x="1283" d="M37 227l253 253q162 -166 345 -166q86 0 136 41t50 111q0 46 -27 79.5t-80 51t-128 17.5h-170l-58 209l333 300h-555v325h1047v-288l-346 -295q54 -12 100 -29.5t89 -42t76.5 -57.5t58.5 -74.5t38 -94t13 -114.5q0 -144 -72.5 -254.5t-199 -169t-287.5 -58.5 q-384 0 -616 256z" />
<glyph unicode="4" horiz-adv-x="1425" d="M27 565l751 893h405v-877h185v-299h-185v-282h-389v282h-701zM448 579h346v416z" />
<glyph unicode="5" horiz-adv-x="1302" d="M39 201l230 269q61 -52 116.5 -85.5t115 -53t119.5 -19.5q99 0 156 46.5t57 127.5q0 76 -58.5 121.5t-154.5 45.5q-111 0 -231 -72l-237 133l40 734h968v-331h-651l-12 -219q110 51 231 51q80 0 152 -17t135 -54.5t109.5 -91t73 -130.5t26.5 -170q0 -158 -76 -275.5 t-210.5 -178.5t-310.5 -61q-183 0 -325 59t-263 171z" />
<glyph unicode="6" horiz-adv-x="1368" d="M85 683q0 113 18.5 215t55 190.5t93 160t130 122.5t169 78.5t207.5 27.5q147 0 260 -39t221 -120l-189 -284q-73 55 -139 82.5t-147 27.5q-123 0 -191.5 -83t-82.5 -226q69 52 142.5 82t170.5 30q96 0 182 -30t152 -86.5t105 -144t39 -194.5q0 -119 -45.5 -218t-124 -165 t-183 -102t-223.5 -36q-148 0 -254.5 42t-187.5 123q-178 178 -178 547zM484 472q0 -40 14.5 -74t40.5 -59.5t64.5 -40t85.5 -14.5q93 0 147 52.5t54 137.5q0 51 -24.5 93t-72 67.5t-109 25.5t-107.5 -25t-69.5 -67.5t-23.5 -95.5z" />
<glyph unicode="7" horiz-adv-x="1269" d="M95 1111v337h1115v-302l-639 -1146h-443l638 1111h-671z" />
<glyph unicode="8" horiz-adv-x="1302" d="M56 403q0 127 63 211t185 136q-199 110 -199 320q0 114 68 206t193.5 144.5t285 52.5t284.5 -52.5t193.5 -145.5t68.5 -209q0 -206 -199 -316q58 -27 101 -58t77.5 -72.5t52 -96.5t17.5 -122q0 -127 -76 -224.5t-211.5 -149.5t-308.5 -52q-172 0 -307.5 53t-211.5 151 t-76 224zM442 438q0 -68 56.5 -115.5t152.5 -47.5q49 0 89.5 13t66.5 36.5t40 53.5t14 64q0 70 -59 114t-151 44t-150.5 -44.5t-58.5 -117.5zM474 1020q0 -69 49 -114t128 -45q80 0 129 44.5t49 116.5q0 41 -21 75.5t-62 56t-95 21.5q-80 0 -128.5 -44.5t-48.5 -110.5z" />
<glyph unicode="9" horiz-adv-x="1368" d="M89 949q0 157 75 278t205.5 185.5t296.5 64.5q152 0 255 -41.5t190 -128.5q174 -170 174 -539q0 -178 -44.5 -324.5t-128 -252t-211 -163t-287.5 -57.5q-153 0 -275.5 44.5t-228.5 126.5l188 278q75 -60 149.5 -88t160.5 -28q121 0 190 79.5t83 222.5 q-125 -118 -306 -118q-141 0 -251 54.5t-172.5 160t-62.5 246.5zM478 966q0 -84 56.5 -137t150.5 -53q62 0 108.5 25t70.5 68t24 99t-25 100.5t-72.5 70.5t-109.5 26q-94 0 -148.5 -55.5t-54.5 -143.5z" />
<glyph unicode=":" horiz-adv-x="608" d="M99 0v403h410v-403h-410zM99 716v403h410v-403h-410z" />
<glyph unicode=";" horiz-adv-x="608" d="M52 -195q100 12 153.5 60t53.5 127v8h-160v403h410v-328q0 -113 -29.5 -193.5t-87 -129t-133.5 -71.5t-176 -26zM99 716v403h410v-403h-410z" />
<glyph unicode="&#x3c;" horiz-adv-x="1323" d="M134 544v366l1029 410v-367l-677 -225l677 -225v-369z" />
<glyph unicode="=" horiz-adv-x="1323" d="M154 277v345h1015v-345h-1015zM154 833v346h1015v-346h-1015z" />
<glyph unicode="&#x3e;" horiz-adv-x="1323" d="M162 134v367l675 225l-675 225v369l1028 -410v-366z" />
<glyph unicode="?" horiz-adv-x="1116" d="M20 1253q217 218 537 218q151 0 268 -52.5t183 -152.5t66 -234q0 -76 -20.5 -139t-55.5 -108.5t-87 -81t-110 -59t-130 -40.5l-26 -132h-250l-52 345l17 18q118 10 190.5 32.5t103.5 55.5t31 80q0 35 -18 60.5t-53.5 39.5t-84.5 14q-72 0 -150.5 -35.5t-151.5 -100.5z M310 0v351h408v-351h-408z" />
<glyph unicode="@" horiz-adv-x="1995" d="M93 569q0 105 23 206.5t67.5 191t106 168.5t140.5 141.5t169.5 107.5t195 69t214.5 24q126 0 244 -30.5t215.5 -84t178.5 -129t136.5 -164t86.5 -190t31 -206.5q0 -92 -17 -171.5t-47.5 -139.5t-71.5 -107t-90.5 -76.5t-103.5 -45t-111 -15.5q-227 0 -319 157 q-132 -153 -304 -153q-80 0 -149.5 30t-120 83t-79 131t-28.5 171q0 109 36.5 209t98.5 172t146 115t175 43q65 0 120 -21.5t92.5 -54.5t65.5 -78l24 126l321 -49l-95 -533q-9 -47 -9 -91q0 -53 36.5 -88t98.5 -35q105 0 174.5 111t69.5 310q0 81 -19.5 160t-57.5 150 t-91 134t-122 113.5t-148.5 87t-173.5 56.5t-193 20q-177 0 -332 -65t-263.5 -176t-171 -263t-62.5 -321q0 -172 62 -323.5t171 -261t265.5 -173t337.5 -63.5q149 0 266.5 33.5t239.5 104.5l41 -66q-256 -155 -547 -155q-131 0 -253 32t-223.5 90.5t-185 141.5t-141 182.5 t-89 216.5t-31.5 241zM790 563q0 -76 42 -119t109 -43q54 0 100 32t72 86.5t26 119.5q0 72 -42 114.5t-108 42.5q-84 0 -141.5 -68t-57.5 -165z" />
<glyph unicode="A" horiz-adv-x="1644" d="M12 0l617 1458h387l616 -1458h-430l-106 259h-559l-103 -259h-422zM655 571h326l-162 412z" />
<glyph unicode="B" horiz-adv-x="1478" d="M128 0v1448h743q264 0 395 -130q93 -94 93 -238q0 -225 -224 -322q141 -47 214.5 -131t73.5 -228q0 -124 -65 -213.5t-188.5 -137.5t-294.5 -48h-747zM519 322h310q92 0 142.5 35.5t50.5 102.5q0 40 -21 68.5t-65.5 45t-110.5 16.5h-306v-268zM519 871h253q190 0 190 130 q0 39 -20.5 67t-61.5 42.5t-100 14.5h-261v-254z" />
<glyph unicode="C" horiz-adv-x="1509" d="M79 724q0 156 58 295.5t158.5 240t243 159t303.5 58.5q108 0 201 -22.5t167 -65t132 -96t108 -122.5l-294 -228q-65 82 -142 125t-176.5 43t-179 -51.5t-123 -140t-43.5 -195.5q0 -80 25.5 -151.5t70.5 -123.5t110 -82t139 -30q73 0 133.5 23.5t103.5 59.5t91 93 l302 -215q-55 -75 -114.5 -131t-136.5 -102t-175.5 -70t-215.5 -24q-153 0 -290.5 57t-238 155.5t-159 239.5t-58.5 301z" />
<glyph unicode="D" horiz-adv-x="1581" d="M128 0v1448h559q190 0 345 -53t258 -148.5t158.5 -228t55.5 -290.5q0 -157 -56.5 -290t-160.5 -230.5t-260.5 -152.5t-347.5 -55h-551zM529 356h164q183 0 291 97t108 273q0 172 -108.5 271t-290.5 99h-164v-740z" />
<glyph unicode="E" horiz-adv-x="1379" d="M128 0v1448h1165v-341h-768v-219h695v-317h-695v-230h778v-341h-1175z" />
<glyph unicode="F" horiz-adv-x="1340" d="M128 0v1448h1159v-352h-758v-246h685v-333h-685v-517h-401z" />
<glyph unicode="G" horiz-adv-x="1589" d="M79 724q0 156 59 295.5t162 240t248 159t310 58.5q94 0 177.5 -14.5t155.5 -42t134 -65.5t121 -89l-236 -283q-81 68 -164 102t-185 34q-103 0 -188.5 -53t-134 -145t-48.5 -203q0 -115 50 -207t140 -143.5t203 -51.5q140 0 232 61v175h-286v294h667v-651 q-125 -102 -284 -163t-345 -61q-167 0 -313 56t-250.5 154.5t-164.5 239t-60 303.5z" />
<glyph unicode="H" horiz-adv-x="1573" d="M128 0v1448h401v-542h515v542h402v-1448h-402v550h-515v-550h-401z" />
<glyph unicode="I" horiz-adv-x="675" d="M136 0v1448h404v-1448h-404z" />
<glyph unicode="J" horiz-adv-x="1166" d="M8 219l259 245q27 -34 52.5 -57.5t53 -41.5t57 -27t62.5 -9q77 0 121.5 52t44.5 150v917h399v-919q0 -135 -35 -234.5t-108 -172.5q-147 -147 -397 -147q-331 0 -509 244z" />
<glyph unicode="K" horiz-adv-x="1509" d="M128 0v1448h401v-587l499 587h476l-549 -623l567 -825h-482l-363 537l-148 -162v-375h-401z" />
<glyph unicode="L" horiz-adv-x="1273" d="M128 0v1448h401v-1097h702v-351h-1103z" />
<glyph unicode="M" horiz-adv-x="1794" d="M128 0v1448h424l346 -560l345 560h425v-1448h-400v831l-370 -566h-8l-369 562v-827h-393z" />
<glyph unicode="N" horiz-adv-x="1623" d="M128 0v1448h375l595 -765v765h398v-1448h-352l-619 794v-794h-397z" />
<glyph unicode="O" horiz-adv-x="1718" d="M79 724q0 154 60 293t163 240t248.5 160.5t310 59.5t309.5 -59t247.5 -159.5t161.5 -239.5t59 -295q0 -154 -60 -293t-163 -240t-248.5 -160.5t-310 -59.5t-309.5 59t-247.5 159.5t-161.5 240t-59 294.5zM490 724q0 -104 46 -193t132 -143.5t193 -54.5q81 0 150.5 31.5 t117 84.5t74 124.5t26.5 150.5q0 105 -46 194t-132.5 143t-194.5 54q-106 0 -191 -53.5t-130 -142t-45 -195.5z" />
<glyph unicode="P" horiz-adv-x="1391" d="M128 0v1448h620q183 0 318.5 -60t209.5 -176t74 -277q0 -125 -46.5 -224.5t-129.5 -164t-196.5 -98.5t-249.5 -34h-199v-414h-401zM529 728h191q107 0 168 51.5t61 140.5q0 62 -27.5 105t-79.5 64.5t-124 21.5h-189v-383z" />
<glyph unicode="Q" horiz-adv-x="1718" d="M79 724q0 154 60 293t163 240t248.5 160.5t310 59.5t309.5 -59t247.5 -159.5t161.5 -239.5t59 -295q0 -233 -128 -416l148 -126l-202 -225l-159 142q-197 -128 -441 -128q-164 0 -309 59t-247.5 159.5t-161.5 240t-59 294.5zM490 720q0 -105 45.5 -194t131.5 -144 t194 -55q75 0 146 27l-200 171l202 227l197 -177q25 68 25 145q0 106 -46.5 195.5t-133 144.5t-195.5 55q-106 0 -191 -54.5t-130 -144t-45 -196.5z" />
<glyph unicode="R" horiz-adv-x="1486" d="M128 0v1448h685q316 0 472 -155q128 -128 128 -344q0 -160 -79 -272t-219 -172l345 -505h-463l-292 438h-176v-438h-401zM529 752h265q102 0 158.5 47t56.5 130q0 84 -57.5 128t-159.5 44h-263v-349z" />
<glyph unicode="S" horiz-adv-x="1348" d="M18 215l224 267q217 -174 470 -174q53 0 90 12t56 35.5t19 56.5q0 31 -20 52.5t-72.5 42.5t-151.5 43q-73 17 -127.5 32t-114.5 37t-102.5 46.5t-83 58.5t-65 74.5t-39 94t-14.5 116.5q0 100 39 185.5t110.5 147t177 96.5t233.5 35q357 0 596 -192l-201 -284 q-98 69 -203 105.5t-202 36.5q-70 0 -107.5 -26.5t-37.5 -70.5q0 -20 7 -35.5t23 -29t46 -25.5t71 -24t103 -26q88 -19 156.5 -40t131.5 -49t108 -63t78.5 -79.5t50 -100.5t16.5 -124q0 -145 -73.5 -252.5t-205.5 -163t-307 -55.5q-196 0 -371.5 61t-307.5 179z" />
<glyph unicode="T" horiz-adv-x="1364" d="M47 1096v352h1271v-352h-435v-1096h-401v1096h-435z" />
<glyph unicode="U" horiz-adv-x="1567" d="M110 635v813h407v-805q0 -152 71 -230t196 -78q82 0 141 32t92 99.5t33 166.5v815h408v-803q0 -172 -47.5 -301.5t-137.5 -210.5t-213 -120.5t-280 -39.5q-156 0 -279 40t-210.5 120.5t-134 207.5t-46.5 294z" />
<glyph unicode="V" horiz-adv-x="1571" d="M12 1448h450l328 -917l329 917h440l-586 -1458h-373z" />
<glyph unicode="W" horiz-adv-x="2309" d="M31 1448h425l251 -838l280 842h345l279 -842l252 838h417l-484 -1458h-350l-292 833l-289 -833h-350z" />
<glyph unicode="X" horiz-adv-x="1513" d="M23 0l496 736l-476 712h462l257 -408l258 408h451l-476 -708l497 -740h-462l-278 436l-278 -436h-451z" />
<glyph unicode="Y" horiz-adv-x="1494" d="M-4 1448h457l297 -528l300 528h450l-551 -900v-548h-403v542z" />
<glyph unicode="Z" horiz-adv-x="1443" d="M83 0v292l726 817h-702v339h1257v-292l-727 -817h727v-339h-1281z" />
<glyph unicode="[" horiz-adv-x="944" d="M136 -269v1717h716v-267h-364v-1183h364v-267h-716z" />
<glyph unicode="\" horiz-adv-x="1105" d="M-49 1650h318l917 -1915h-319z" />
<glyph unicode="]" horiz-adv-x="944" d="M93 -2h365v1183h-365v267h716v-1717h-716v267z" />
<glyph unicode="^" d="M87 1020l298 426h264l298 -426h-274l-158 200l-157 -200h-271z" />
<glyph unicode="_" horiz-adv-x="1240" d="M-4 -91h1249v-240h-1249v240z" />
<glyph unicode="`" d="M182 1479l366 118l216 -383h-278z" />
<glyph unicode="a" horiz-adv-x="1238" d="M49 325q0 170 118.5 261t320.5 91q73 0 145.5 -12.5t124.5 -31.5v18q0 89 -56.5 135.5t-168.5 46.5q-153 0 -308 -61l-81 276q104 43 211.5 65t242.5 22q290 0 426 -136q63 -61 91.5 -148t28.5 -208v-643h-389v116q-127 -141 -329 -141q-108 0 -192 39.5t-134.5 120 t-50.5 190.5zM428 343q0 -56 38.5 -89t100.5 -33q56 0 100.5 22.5t69.5 64.5t25 97v53q-69 28 -154 28t-132.5 -38.5t-47.5 -104.5z" />
<glyph unicode="b" horiz-adv-x="1397" d="M105 0v1510h394v-539q25 30 48.5 53.5t55.5 47t65 38.5t77 24.5t92 9.5q80 0 154 -25.5t136.5 -76t108.5 -120t72 -162.5t26 -199q0 -133 -40 -244.5t-108 -185.5t-157.5 -115t-189.5 -41q-61 0 -113.5 12.5t-93.5 36.5t-72 50.5t-61 61.5v-136h-394zM490 559 q0 -110 66 -182.5t162 -72.5q98 0 163.5 72t65.5 187q0 109 -66 180.5t-163 71.5q-96 0 -162 -72.5t-66 -183.5z" />
<glyph unicode="c" horiz-adv-x="1176" d="M60 559q0 117 44.5 223.5t122 186t190.5 126t243 46.5q321 0 477 -249l-262 -191q-79 110 -202 110q-70 0 -123 -34t-80.5 -91t-27.5 -127q0 -54 16.5 -101t45.5 -81t71 -53.5t91 -19.5q65 0 112.5 29t98.5 89l267 -193q-54 -80 -120 -135t-162.5 -88t-216.5 -33 q-123 0 -233 46.5t-186.5 125.5t-121 187t-44.5 227z" />
<glyph unicode="d" horiz-adv-x="1397" d="M64 559q0 106 25.5 199.5t71.5 163.5t107.5 120.5t135 76t153.5 25.5q61 0 113.5 -12.5t94 -36.5t73 -50.5t62.5 -61.5v527h393v-1510h-393v148q-32 -38 -63 -66.5t-72.5 -54t-93.5 -39t-112 -13.5q-100 0 -189.5 41t-157.5 114.5t-108 185t-40 243.5zM448 559 q0 -73 31.5 -131.5t84 -91t115.5 -32.5q96 0 161.5 72.5t65.5 186.5q0 108 -66 180t-161 72q-97 0 -164 -72t-67 -184z" />
<glyph unicode="e" horiz-adv-x="1251" d="M60 559q0 121 42 229t115.5 186.5t179 124t227.5 45.5q113 0 207 -32t159.5 -88.5t111 -134t67 -168t21.5 -190.5q0 -53 -2 -81h-750q23 -90 86.5 -136.5t156.5 -46.5q69 0 128 27t120 87l217 -180q-179 -228 -486 -228q-175 0 -311.5 72.5t-212.5 206t-76 307.5z M432 651h389q-11 94 -62.5 148.5t-131.5 54.5q-76 0 -127.5 -55t-67.5 -148z" />
<glyph unicode="f" horiz-adv-x="835" d="M45 805v308h131v24q0 195 95 290q51 51 121 74t171 23q153 0 256 -30v-278q-75 23 -146 23q-112 0 -112 -106v-26h256v-302h-250v-805h-391v805h-131z" />
<glyph unicode="g" horiz-adv-x="1397" d="M64 622q0 118 39 217.5t106 165.5t154.5 102.5t184.5 36.5q80 0 147.5 -22t112.5 -54t92 -81v132h393v-850q0 -154 -35.5 -263.5t-109.5 -183.5q-157 -157 -493 -157q-310 0 -560 128l126 261q95 -53 188.5 -79.5t202.5 -26.5q147 0 220.5 70.5t73.5 204.5v44 q-68 -78 -150 -123t-195 -45q-59 0 -114.5 12t-105 35t-92 56.5t-77 77.5t-58.5 96t-37 115t-13 131zM448 616q0 -93 65 -154t166 -61q99 0 163 62.5t64 158.5q0 94 -64 154.5t-163 60.5q-101 0 -166 -62.5t-65 -158.5z" />
<glyph unicode="h" horiz-adv-x="1310" d="M105 0v1510h394v-544q140 178 334 178q178 0 279.5 -110t101.5 -302v-732h-393v606q0 90 -43 139t-114 49q-74 0 -119.5 -49.5t-45.5 -138.5v-606h-394z" />
<glyph unicode="i" horiz-adv-x="620" d="M105 1220v290h410v-290h-410zM114 0v1119h393v-1119h-393z" />
<glyph unicode="j" horiz-adv-x="624" d="M-54 -62q17 -2 52 -2q59 0 87.5 30t28.5 101v1052h393v-1070q0 -105 -26.5 -179.5t-78.5 -120t-124.5 -66t-170.5 -20.5q-18 0 -35 0.5t-35 2.5t-30.5 3.5t-32 4.5t-28.5 4v260zM105 1220v290h410v-290h-410z" />
<glyph unicode="k" horiz-adv-x="1246" d="M105 0v1510h394v-766l304 375h444l-389 -448l399 -671h-432l-225 381l-101 -118v-263h-394z" />
<glyph unicode="l" horiz-adv-x="620" d="M114 0v1510h393v-1510h-393z" />
<glyph unicode="m" horiz-adv-x="2007" d="M105 0v1119h394v-153q140 178 332 178q111 0 195 -47.5t128 -134.5q51 58 104 97t122 62t148 23q180 0 281.5 -107.5t101.5 -302.5v-734h-393v608q0 90 -40.5 138t-111.5 48q-73 0 -117.5 -48.5t-44.5 -137.5v-608h-393v608q0 90 -41 138t-112 48q-48 0 -83 -20.5 t-55.5 -63t-20.5 -102.5v-608h-394z" />
<glyph unicode="n" horiz-adv-x="1310" d="M105 0v1119h394v-157q30 38 61.5 68t72.5 57.5t92 42t108 14.5q178 0 279.5 -110t101.5 -302v-732h-393v606q0 90 -43 139t-114 49q-74 0 -119.5 -49.5t-45.5 -138.5v-606h-394z" />
<glyph unicode="o" horiz-adv-x="1356" d="M60 559q0 118 47 225.5t128 186.5t197.5 126t248.5 47q131 0 246.5 -46.5t196 -125t127 -186.5t46.5 -227t-47 -226t-128 -186.5t-197 -126.5t-248 -47t-247.5 46.5t-196 125.5t-127 186.5t-46.5 227.5zM442 559q0 -68 30.5 -126t85.5 -92.5t123 -34.5q69 0 123 34.5 t82 91.5t28 127q0 104 -67.5 178t-169.5 74q-70 0 -124 -34.5t-82.5 -91.5t-28.5 -126z" />
<glyph unicode="p" horiz-adv-x="1397" d="M105 -331v1450h394v-148q25 30 48.5 53.5t55.5 47t65 38.5t77 24.5t92 9.5q80 0 154 -25.5t136.5 -76t108.5 -120t72 -162.5t26 -199q0 -133 -40 -244.5t-108 -185.5t-157.5 -115t-189.5 -41q-61 0 -113.5 12.5t-93.5 36.5t-72 50.5t-61 61.5v-467h-394zM490 559 q0 -110 66 -182.5t162 -72.5q98 0 163.5 72t65.5 187q0 109 -66 180.5t-163 71.5q-96 0 -162 -72.5t-66 -183.5z" />
<glyph unicode="q" horiz-adv-x="1397" d="M64 559q0 106 25.5 199.5t71.5 163.5t107.5 120.5t135 76t153.5 25.5q61 0 113.5 -12.5t94 -36.5t73 -50.5t62.5 -61.5v136h393v-1450h-393v479q-32 -38 -63 -66.5t-72.5 -54t-93.5 -39t-112 -13.5q-100 0 -189.5 41t-157.5 114.5t-108 185t-40 243.5zM448 559 q0 -73 31.5 -131.5t84 -91t115.5 -32.5q96 0 161.5 72.5t65.5 186.5q0 108 -66 180t-161 72q-97 0 -164 -72t-67 -184z" />
<glyph unicode="r" horiz-adv-x="884" d="M105 0v1119h394v-225q33 80 79 134q44 53 114 83q61 26 139 26h21v-413h-33q-320 0 -320 -377v-347h-394z" />
<glyph unicode="s" horiz-adv-x="1062" d="M20 140l148 239q94 -63 194.5 -96t189.5 -33q52 0 75.5 15.5t23.5 48.5q0 31 -40.5 50.5t-138.5 45.5q-53 14 -92.5 27t-83 31t-74.5 37.5t-60.5 46.5t-47.5 58.5t-28.5 72t-10.5 89.5q0 116 58.5 200.5t159 126.5t230.5 42q123 0 244.5 -34t217.5 -96l-135 -247 q-87 47 -175.5 75t-155.5 28q-44 0 -67.5 -15.5t-23.5 -42.5q0 -11 5 -20t16.5 -17.5t24.5 -15.5t37 -15.5t44 -15t55 -16.5q53 -15 92.5 -28.5t83 -32t74.5 -38t60 -46.5t47 -57.5t29 -70.5t11 -87q0 -120 -57.5 -205.5t-159.5 -127t-240 -41.5q-143 0 -279 41.5 t-251 123.5z" />
<glyph unicode="t" horiz-adv-x="890" d="M41 803v316h133v284h393v-284h260v-316h-260v-379q0 -58 26.5 -85t81.5 -27q72 0 148 37v-308q-116 -64 -273 -64q-183 0 -279.5 88.5t-96.5 281.5v456h-133z" />
<glyph unicode="u" horiz-adv-x="1310" d="M97 387v732h393v-606q0 -90 43.5 -139t115.5 -49q73 0 118.5 49.5t45.5 138.5v606h393v-1119h-393v154q-140 -179 -335 -179q-118 0 -204.5 49.5t-131.5 142.5t-45 220z" />
<glyph unicode="v" horiz-adv-x="1292" d="M20 1119h414l215 -653l216 653h408l-448 -1127h-357z" />
<glyph unicode="w" horiz-adv-x="1780" d="M25 1119h385l147 -562l171 566h324l174 -571l152 567h378l-345 -1127h-339l-182 581l-187 -581h-337z" />
<glyph unicode="x" horiz-adv-x="1218" d="M16 0l377 565l-370 554h423l166 -275l166 275h416l-369 -552l377 -567h-422l-174 288l-176 -288h-414z" />
<glyph unicode="y" horiz-adv-x="1294" d="M23 1119h411l224 -675l211 675h404l-410 -1092q-50 -134 -105 -211.5t-132.5 -115t-189.5 -37.5q-186 0 -359 97l122 275q46 -28 92.5 -44t79.5 -16q30 0 51 10t40 35z" />
<glyph unicode="z" horiz-adv-x="1164" d="M67 0v259l517 548h-499v312h1020v-258l-519 -549h519v-312h-1038z" />
<glyph unicode="{" horiz-adv-x="1013" d="M71 464v260h32q127 0 185.5 44.5t58.5 158.5q0 18 -3 78t-3 75q0 87 27.5 151t91 114t168.5 82.5t260 51.5l59 -230q-83 -18 -133 -38t-77.5 -49t-36.5 -61.5t-9 -84.5q0 -17 3 -70t3 -75q0 -112 -57.5 -178.5t-173.5 -98.5q57 -16 99.5 -40t72 -58t44.5 -78.5t15 -101.5 q0 -23 -3 -75.5t-3 -68.5q0 -52 9 -84.5t36.5 -61.5t77.5 -49t133 -39l-59 -230q-155 19 -260 51t-168.5 82t-91 114t-27.5 152q0 15 3 75t3 79q0 113 -58.5 158t-185.5 45h-32z" />
<glyph unicode="|" horiz-adv-x="734" d="M217 -265v1915h300v-1915h-300z" />
<glyph unicode="}" horiz-adv-x="1013" d="M67 -62q83 19 133 39t77.5 49t36 61.5t8.5 84.5q0 16 -3 68.5t-3 75.5q0 112 58 179t174 99q-116 32 -174 98.5t-58 178.5q0 22 3 75t3 70q0 41 -5.5 69t-20.5 54t-44 44.5t-74 34.5t-111 31l59 230q155 -19 260 -51.5t168.5 -82.5t91 -114t27.5 -151q0 -15 -3.5 -75 t-3.5 -78q0 -58 15 -98t46.5 -63t75.5 -32.5t107 -9.5h33v-260h-33q-127 0 -185.5 -45t-58.5 -158q0 -19 3.5 -79t3.5 -75q0 -88 -27.5 -152t-91 -114t-168.5 -82t-260 -51z" />
<glyph unicode="~" horiz-adv-x="1044" d="M85 507q35 159 94.5 233.5t161.5 74.5q54 0 120 -20t121 -40.5t82 -20.5q40 0 61.5 21.5t44.5 73.5l190 -51q-36 -159 -95.5 -233.5t-161.5 -74.5q-53 0 -119.5 20t-122 40t-82.5 20q-41 0 -61.5 -21t-42.5 -73z" />
<glyph unicode="&#xa1;" horiz-adv-x="669" d="M112 0v176l119 801h207l121 -801v-176h-447zM130 1096v352h410v-352h-410z" />
<glyph unicode="&#xa2;" horiz-adv-x="1188" d="M67 734q0 96 27 183.5t78.5 158.5t122.5 124t163 83.5t195 32.5l26 144h237l-30 -179q167 -62 260 -201l-240 -184q-47 57 -97 83l-95 -521q110 14 196 117l238 -174q-162 -237 -463 -245l-30 -168h-237l35 202q-173 60 -279.5 207.5t-106.5 336.5zM407 734 q0 -82 30 -145t86 -97l93 524q-62 -9 -110 -49.5t-73.5 -101.5t-25.5 -131z" />
<glyph unicode="&#xa3;" horiz-adv-x="1321" d="M91 0v238l155 60v246h-155v281h155v106q0 125 36.5 227.5t106.5 171.5q142 143 395 143q295 0 482 -209l-244 -267q-48 59 -99 88.5t-112 29.5q-77 0 -121.5 -49t-44.5 -135v-106h447v-281h-447v-228h606v-316h-1160z" />
<glyph unicode="&#xa5;" horiz-adv-x="1463" d="M8 1448h456l272 -475l273 475h447l-432 -656h287v-248h-380v-104h380v-248h-380v-192h-398v192h-379v248h379v104h-379v248h284z" />
<glyph unicode="&#xa7;" horiz-adv-x="1294" d="M87 705q0 161 188 228q-97 75 -97 208q0 70 30.5 130t88.5 105.5t150 72t208 26.5q149 0 279 -45.5t212 -118.5l-159 -225q-79 57 -168 89.5t-172 32.5q-112 0 -112 -67q0 -28 44.5 -49t156.5 -46q62 -13 108.5 -24.5t98 -28t88.5 -33t72 -39.5t57 -48.5t35 -58.5t13 -72 q0 -160 -188 -227q46 -35 71.5 -88.5t25.5 -118.5q0 -70 -30 -130t-88 -106.5t-150.5 -72.5t-209.5 -26q-148 0 -278 45.5t-213 117.5l160 226q78 -57 167 -89.5t172 -32.5q113 0 113 66q0 29 -46.5 50t-154.5 45q-61 13 -108.5 25t-98.5 28t-88.5 33t-72 40t-56.5 49 t-35 58.5t-13 70.5zM387 758q0 -22 27 -41t69.5 -34t112.5 -32q146 -37 205 -37q48 0 76.5 19.5t28.5 57.5q0 32 -51 55.5t-158 49.5q-144 37 -205 37q-48 0 -76.5 -19t-28.5 -56z" />
<glyph unicode="&#xa8;" d="M120 1214v296h342v-296h-342zM573 1214v296h341v-296h-341z" />
<glyph unicode="&#xa9;" horiz-adv-x="1715" d="M110 724q0 151 59 289.5t158.5 240t239 162.5t294 61t293.5 -60t238 -161.5t157 -240.5t58 -291q0 -150 -59 -289t-158.5 -241t-239 -162.5t-294 -60.5t-293.5 60t-238 161.5t-157 240.5t-58 291zM197 720q0 -108 32 -209t92 -183.5t140.5 -144.5t182.5 -95.5t212 -33.5 q140 0 263.5 53.5t211 144t138.5 215t51 261.5q0 136 -50.5 258.5t-137.5 212t-210 142.5t-261 53q-140 0 -263.5 -53.5t-211 -144t-138.5 -215t-51 -261.5zM453 734q0 113 52.5 206.5t149.5 149.5t220 56q116 0 196 -42.5t139 -120.5l-168 -133q-37 46 -78 69.5t-95 23.5 q-82 0 -134 -60.5t-52 -150.5q0 -58 23 -105t66 -74.5t97 -27.5q57 0 97 24t80 71l170 -119q-64 -86 -145.5 -132.5t-201.5 -46.5q-119 0 -214.5 54t-148.5 148.5t-53 209.5z" />
<glyph unicode="&#xaa;" horiz-adv-x="805" d="M85 559v159h618v-159h-618zM91 1014q0 94 65.5 143t176.5 49q79 0 147 -23v9q0 101 -124 101q-73 0 -170 -36l-44 154q115 47 249 47q159 0 236 -76q66 -63 66 -196v-353h-215v67q-69 -79 -180 -79q-92 0 -149.5 50.5t-57.5 142.5zM300 1024q0 -30 21 -48.5t54 -18.5 q46 0 76.5 28.5t30.5 73.5v27q-50 17 -85 17q-30 0 -52 -10t-33.5 -27.5t-11.5 -41.5z" />
<glyph unicode="&#xab;" horiz-adv-x="1304" d="M62 505v99l331 442l284 -138l-270 -354l270 -351l-284 -141zM598 546v17l364 483l281 -138l-268 -354l268 -351l-281 -141z" />
<glyph unicode="&#xac;" horiz-adv-x="1323" d="M154 833v346h1015v-701h-360v355h-655z" />
<glyph unicode="&#xad;" horiz-adv-x="843" d="M83 474v345h679v-345h-679z" />
<glyph unicode="&#xae;" horiz-adv-x="1715" d="M110 724q0 151 59 289.5t158.5 240t239 162.5t294 61t293.5 -60t238 -161.5t157 -240.5t58 -291q0 -150 -59 -289t-158.5 -241t-239 -162.5t-294 -60.5t-293.5 60t-238 161.5t-157 240.5t-58 291zM197 720q0 -108 32 -209t92 -183.5t140.5 -144.5t182.5 -95.5t212 -33.5 q140 0 263.5 53.5t211 144t138.5 215t51 261.5q0 136 -50.5 258.5t-137.5 212t-210 142.5t-261 53q-140 0 -263.5 -53.5t-211 -144t-138.5 -215t-51 -261.5zM529 347v797h371q179 0 269 -90q68 -68 68 -185q0 -60 -20.5 -108.5t-56.5 -82t-86 -54.5l190 -277h-255l-165 243 h-94v-243h-221zM750 762h146q38 0 65 11t41 33t14 52q0 32 -15 53.5t-42 31.5t-65 10h-144v-191z" />
<glyph unicode="&#xaf;" d="M128 1224v240h778v-240h-778z" />
<glyph unicode="&#xb0;" horiz-adv-x="975" d="M112 1096q0 98 51.5 183.5t138.5 135t186 49.5q73 0 142.5 -29.5t120.5 -79t82.5 -119t31.5 -144.5q0 -74 -30.5 -141.5t-81.5 -116t-120.5 -77.5t-144.5 -29q-100 0 -186.5 49t-138 133.5t-51.5 185.5zM314 1092q0 -47 22.5 -87t62.5 -63.5t88.5 -23.5t88.5 23.5 t63 64.5t23 90q0 73 -51.5 125t-122.5 52q-73 0 -123.5 -52.5t-50.5 -128.5z" />
<glyph unicode="&#xb1;" horiz-adv-x="1323" d="M132 699v347h350v274h360v-274h350v-347h-350v-273h-360v273h-350zM158 -33v325h1015v-325h-1015z" />
<glyph unicode="&#xb4;" d="M271 1214l215 383l366 -118l-304 -265h-277z" />
<glyph unicode="&#xb5;" horiz-adv-x="1319" d="M105 -331v1450h394v-606q0 -90 43 -139t116 -49q72 0 117.5 49.5t45.5 138.5v606h393v-1119h-393v154q-120 -158 -275 -158q-15 0 -47 4v-331h-394z" />
<glyph unicode="&#xb6;" horiz-adv-x="1232" d="M45 949.5q0 118.5 43.5 213t123 157t191 95.5t248.5 33h454v-1448h-404v456h-43q-134 0 -246 32t-193.5 93t-127.5 155.5t-46 213z" />
<glyph unicode="&#xb7;" horiz-adv-x="586" d="M89 444v404h410v-404h-410z" />
<glyph unicode="&#xb8;" d="M225 -225l191 256h259l-138 -389z" />
<glyph unicode="&#xba;" horiz-adv-x="805" d="M69 1137q0 135 95.5 228t240.5 93q143 0 238 -92.5t95 -228.5q0 -134 -96 -227t-241 -93q-143 0 -237.5 92.5t-94.5 227.5zM105 559v159h596v-159h-596zM279 1137q0 -58 35.5 -97t90.5 -39t88.5 38t33.5 98q0 59 -35.5 99.5t-90.5 40.5t-88.5 -39.5t-33.5 -100.5z" />
<glyph unicode="&#xbb;" horiz-adv-x="1304" d="M62 201l269 353l-269 352l283 140l362 -483v-17l-362 -484zM631 201l269 353l-269 352l281 140l331 -442v-99l-331 -443z" />
<glyph unicode="&#xbf;" horiz-adv-x="1116" d="M45 416q0 76 20.5 139t55 108.5t86.5 81t110.5 59t130.5 40.5l24 133h250l54 -346l-18 -19q-175 -15 -250.5 -56t-75.5 -112q0 -26 11 -47t31 -35.5t49.5 -22.5t66.5 -8q71 0 149 35.5t151 101.5l208 -273q-218 -218 -537 -218q-151 0 -267.5 52.5t-182.5 152.5t-66 234z M399 1096v352h410v-352h-410z" />
<glyph unicode="&#xc0;" horiz-adv-x="1644" d="M12 0l617 1458h387l616 -1458h-430l-106 259h-559l-103 -259h-422zM405 1810l367 118l215 -383h-278zM655 571h326l-162 412z" />
<glyph unicode="&#xc1;" horiz-adv-x="1644" d="M12 0l617 1458h387l616 -1458h-430l-106 259h-559l-103 -259h-422zM655 571h326l-162 412zM660 1545l215 383l366 -118l-304 -265h-277z" />
<glyph unicode="&#xc2;" horiz-adv-x="1644" d="M12 0l617 1458h387l616 -1458h-430l-106 259h-559l-103 -259h-422zM399 1545l265 342h319l264 -342h-252l-174 127l-174 -127h-248zM655 571h326l-162 412z" />
<glyph unicode="&#xc3;" horiz-adv-x="1644" d="M12 0l617 1458h387l616 -1458h-430l-106 259h-559l-103 -259h-422zM387 1583q33 158 92.5 233t163.5 75q54 0 120 -20.5t121 -40.5t82 -20q40 0 61.5 21.5t44.5 73.5l187 -52q-33 -158 -92.5 -233t-163.5 -75q-42 0 -93 13t-89.5 28t-78.5 27.5t-61 12.5 q-41 0 -62.5 -21.5t-43.5 -73.5zM655 571h326l-162 412z" />
<glyph unicode="&#xc4;" horiz-adv-x="1644" d="M12 0l617 1458h387l616 -1458h-430l-106 259h-559l-103 -259h-422zM426 1545v296h342v-296h-342zM655 571h326l-162 412zM879 1545v296h341v-296h-341z" />
<glyph unicode="&#xc5;" horiz-adv-x="1644" d="M12 0l600 1421q-64 70 -64 164q0 69 38 129.5t101.5 95.5t135.5 35q110 0 191.5 -78t81.5 -186q0 -90 -64 -160l600 -1421h-430l-106 259h-559l-103 -259h-422zM655 571h326l-162 412zM685 1581q0 -57 40.5 -97t97.5 -40q37 0 68.5 18.5t50 51t18.5 71.5q0 54 -40.5 94 t-96.5 40q-57 0 -97.5 -40.5t-40.5 -97.5z" />
<glyph unicode="&#xc6;" horiz-adv-x="2198" d="M-10 0l765 1448h1355v-341h-722v-219h649v-317h-649v-230h732v-341h-1123v259h-468l-134 -259h-405zM691 571h306v548h-24z" />
<glyph unicode="&#xc7;" horiz-adv-x="1509" d="M79 724q0 156 58 295.5t158.5 240t243 159t303.5 58.5q397 0 614 -302l-302 -234q-66 83 -142 126.5t-175 43.5t-178.5 -51.5t-123 -140t-43.5 -195.5q0 -80 25.5 -151.5t70.5 -123.5t110 -82t139 -30q73 0 133.5 23.5t103.5 59.5t91 93l302 -215q-50 -68 -103.5 -120.5 t-121.5 -96.5t-153.5 -71t-184.5 -35l-116 -333l-312 133l161 219q-120 30 -222.5 96.5t-177 160t-116.5 215.5t-42 258z" />
<glyph unicode="&#xc8;" horiz-adv-x="1379" d="M128 0v1448h1165v-341h-768v-219h695v-317h-695v-230h778v-341h-1175zM343 1810l366 118l215 -383h-277z" />
<glyph unicode="&#xc9;" horiz-adv-x="1379" d="M128 0v1448h1165v-341h-768v-219h695v-317h-695v-230h778v-341h-1175zM521 1545l215 383l367 -118l-304 -265h-278z" />
<glyph unicode="&#xca;" horiz-adv-x="1379" d="M128 0v1448h1165v-341h-768v-219h695v-317h-695v-230h778v-341h-1175zM290 1545l264 342h319l264 -342h-251l-174 127l-175 -127h-247z" />
<glyph unicode="&#xcb;" horiz-adv-x="1379" d="M128 0v1448h1165v-341h-768v-219h695v-317h-695v-230h778v-341h-1175zM316 1545v296h342v-296h-342zM770 1545v296h341v-296h-341z" />
<glyph unicode="&#xcc;" horiz-adv-x="675" d="M-85 1810l367 118l215 -383h-278zM136 0v1448h404v-1448h-404z" />
<glyph unicode="&#xcd;" horiz-adv-x="675" d="M136 0v1448h404v-1448h-404zM180 1545l215 383l367 -118l-304 -265h-278z" />
<glyph unicode="&#xce;" horiz-adv-x="675" d="M-87 1545l265 342h319l265 -342h-253l-174 127l-173 -127h-249zM136 0v1448h404v-1448h-404z" />
<glyph unicode="&#xcf;" horiz-adv-x="675" d="M-60 1545v296h342v-296h-342zM136 0v1448h404v-1448h-404zM393 1545v296h341v-296h-341z" />
<glyph unicode="&#xd0;" horiz-adv-x="1685" d="M64 571v317h165v560h559q190 0 345 -53t258 -148.5t158.5 -228t55.5 -290.5q0 -157 -56.5 -290t-160.5 -230.5t-260.5 -152.5t-347.5 -55h-551v571h-165zM618 345h176q186 0 293 100.5t107 280.5q0 176 -107.5 276.5t-292.5 100.5h-176v-215h247v-317h-247v-226z" />
<glyph unicode="&#xd1;" horiz-adv-x="1623" d="M128 0v1448h375l595 -765v765h398v-1448h-352l-619 794v-794h-397zM377 1583q33 158 92.5 233t163.5 75q54 0 120 -20.5t121 -40.5t81 -20q41 0 62.5 21.5t44.5 73.5l187 -52q-33 -158 -92.5 -233t-163.5 -75q-54 0 -120 20.5t-121 40.5t-81 20q-41 0 -62.5 -21.5 t-43.5 -73.5z" />
<glyph unicode="&#xd2;" horiz-adv-x="1718" d="M79 724q0 154 60 293t163 240t248.5 160.5t310 59.5t309.5 -59t247.5 -159.5t161.5 -239.5t59 -295q0 -154 -60 -293t-163 -240t-248.5 -160.5t-310 -59.5t-309.5 59t-247.5 159.5t-161.5 240t-59 294.5zM422 1810l366 118l215 -383h-277zM490 724q0 -104 46 -193 t132 -143.5t193 -54.5q81 0 150.5 31.5t117 84.5t74 124.5t26.5 150.5q0 105 -46 194t-132.5 143t-194.5 54q-106 0 -191 -53.5t-130 -142t-45 -195.5z" />
<glyph unicode="&#xd3;" horiz-adv-x="1718" d="M79 724q0 154 60 293t163 240t248.5 160.5t310 59.5t309.5 -59t247.5 -159.5t161.5 -239.5t59 -295q0 -154 -60 -293t-163 -240t-248.5 -160.5t-310 -59.5t-309.5 59t-247.5 159.5t-161.5 240t-59 294.5zM490 724q0 -104 46 -193t132 -143.5t193 -54.5q81 0 150.5 31.5 t117 84.5t74 124.5t26.5 150.5q0 105 -46 194t-132.5 143t-194.5 54q-106 0 -191 -53.5t-130 -142t-45 -195.5zM718 1545l215 383l366 -118l-304 -265h-277z" />
<glyph unicode="&#xd4;" horiz-adv-x="1718" d="M79 724q0 154 60 293t163 240t248.5 160.5t310 59.5t309.5 -59t247.5 -159.5t161.5 -239.5t59 -295q0 -154 -60 -293t-163 -240t-248.5 -160.5t-310 -59.5t-309.5 59t-247.5 159.5t-161.5 240t-59 294.5zM436 1541l265 342h319l265 -342h-253l-174 127l-173 -127h-249z M490 724q0 -104 46 -193t132 -143.5t193 -54.5q81 0 150.5 31.5t117 84.5t74 124.5t26.5 150.5q0 105 -46 194t-132.5 143t-194.5 54q-106 0 -191 -53.5t-130 -142t-45 -195.5z" />
<glyph unicode="&#xd5;" horiz-adv-x="1718" d="M79 724q0 154 60 293t163 240t248.5 160.5t310 59.5t309.5 -59t247.5 -159.5t161.5 -239.5t59 -295q0 -154 -60 -293t-163 -240t-248.5 -160.5t-310 -59.5t-309.5 59t-247.5 159.5t-161.5 240t-59 294.5zM424 1583q34 158 93.5 233t163.5 75q53 0 119.5 -20.5 t121.5 -40.5t81 -20q41 0 62.5 21.5t43.5 73.5l188 -52q-17 -79 -38.5 -135t-52.5 -95.5t-72 -58.5t-94 -19t-119.5 20.5t-121.5 40.5t-81 20q-40 0 -62 -21.5t-44 -73.5zM490 724q0 -104 46 -193t132 -143.5t193 -54.5q81 0 150.5 31.5t117 84.5t74 124.5t26.5 150.5 q0 105 -46 194t-132.5 143t-194.5 54q-106 0 -191 -53.5t-130 -142t-45 -195.5z" />
<glyph unicode="&#xd6;" horiz-adv-x="1718" d="M79 724q0 154 60 293t163 240t248.5 160.5t310 59.5t309.5 -59t247.5 -159.5t161.5 -239.5t59 -295q0 -154 -60 -293t-163 -240t-248.5 -160.5t-310 -59.5t-309.5 59t-247.5 159.5t-161.5 240t-59 294.5zM464 1545v296h341v-296h-341zM490 724q0 -104 46 -193t132 -143.5 t193 -54.5q81 0 150.5 31.5t117 84.5t74 124.5t26.5 150.5q0 105 -46 194t-132.5 143t-194.5 54q-106 0 -191 -53.5t-130 -142t-45 -195.5zM916 1545v296h341v-296h-341z" />
<glyph unicode="&#xd8;" horiz-adv-x="1718" d="M62 -10l207 231q-92 101 -141 229t-49 274q0 154 60 293t163 240t248.5 160.5t310.5 59.5q229 0 409 -109l80 90h304l-204 -234q91 -99 139.5 -226.5t48.5 -273.5q0 -154 -60 -293t-163 -240t-248.5 -160.5t-310.5 -59.5q-226 0 -410 110l-80 -91h-304zM484 724 q0 -112 49 -201l491 561q-74 39 -168 39q-108 0 -194 -54.5t-132 -145t-46 -199.5zM693 364q75 -39 168 -39q82 0 153 32t119 86t75 127t27 154q0 112 -49 200z" />
<glyph unicode="&#xd9;" horiz-adv-x="1567" d="M110 635v813h407v-805q0 -152 71 -230t196 -78q82 0 141 32t92 99.5t33 166.5v815h408v-803q0 -172 -47.5 -301.5t-137.5 -210.5t-213 -120.5t-280 -39.5q-156 0 -279 40t-210.5 120.5t-134 207.5t-46.5 294zM364 1800l366 117l215 -382h-276z" />
<glyph unicode="&#xda;" horiz-adv-x="1567" d="M110 635v813h407v-805q0 -152 71 -230t196 -78q82 0 141 32t92 99.5t33 166.5v815h408v-803q0 -172 -47.5 -301.5t-137.5 -210.5t-213 -120.5t-280 -39.5q-156 0 -279 40t-210.5 120.5t-134 207.5t-46.5 294zM622 1535l215 382l367 -117l-304 -265h-278z" />
<glyph unicode="&#xdb;" horiz-adv-x="1567" d="M110 635v813h407v-805q0 -152 71 -230t196 -78q82 0 141 32t92 99.5t33 166.5v815h408v-803q0 -172 -47.5 -301.5t-137.5 -210.5t-213 -120.5t-280 -39.5q-156 0 -279 40t-210.5 120.5t-134 207.5t-46.5 294zM360 1545l264 342h319l265 -342h-253l-173 127l-174 -127 h-248z" />
<glyph unicode="&#xdc;" horiz-adv-x="1567" d="M110 635v813h407v-805q0 -152 71 -230t196 -78q82 0 141 32t92 99.5t33 166.5v815h408v-803q0 -172 -47.5 -301.5t-137.5 -210.5t-213 -120.5t-280 -39.5q-156 0 -279 40t-210.5 120.5t-134 207.5t-46.5 294zM387 1545v296h341v-296h-341zM839 1545v296h342v-296h-342z " />
<glyph unicode="&#xdd;" horiz-adv-x="1494" d="M-4 1448h457l297 -528l300 528h450l-551 -900v-548h-403v542zM581 1541l215 383l367 -118l-305 -265h-277z" />
<glyph unicode="&#xde;" horiz-adv-x="1409" d="M128 0v1448h401v-207h219q184 0 319 -58.5t209 -173t74 -275.5q0 -101 -30 -185t-85 -145t-132.5 -103.5t-171.5 -63t-203 -20.5h-199v-217h-401zM529 537h191q107 0 168 52t61 141q0 92 -60.5 140t-170.5 48h-189v-381z" />
<glyph unicode="&#xdf;" horiz-adv-x="1313" d="M105 0v991q0 121 37 220t107.5 169.5t177.5 109t242 38.5q118 0 216 -34t163.5 -92.5t101.5 -138.5t36 -171q0 -120 -59.5 -205.5t-155.5 -134.5q56 -18 103.5 -46.5t90.5 -70.5t67.5 -103.5t24.5 -134.5q0 -126 -71 -218.5t-196.5 -139.5t-290.5 -47q-40 0 -64 2v281 q74 4 126 25t80 58t28 88q0 73 -63 116t-171 52v209q76 38 123 94.5t47 130.5q0 69 -40 110.5t-103 41.5q-75 0 -120 -53t-45 -148v-999h-392z" />
<glyph unicode="&#xe0;" horiz-adv-x="1238" d="M49 325q0 170 118.5 261t320.5 91q73 0 145.5 -12.5t124.5 -31.5v18q0 89 -56.5 135.5t-168.5 46.5q-153 0 -308 -61l-81 276q104 43 211.5 65t242.5 22q290 0 426 -136q63 -61 91.5 -148t28.5 -208v-643h-389v116q-127 -141 -329 -141q-108 0 -192 39.5t-134.5 120 t-50.5 190.5zM217 1483l367 118l215 -383h-278zM428 343q0 -56 38.5 -89t100.5 -33q56 0 100.5 22.5t69.5 64.5t25 97v53q-69 28 -154 28t-132.5 -38.5t-47.5 -104.5z" />
<glyph unicode="&#xe1;" horiz-adv-x="1238" d="M49 325q0 170 118.5 261t320.5 91q73 0 145.5 -12.5t124.5 -31.5v18q0 89 -56.5 135.5t-168.5 46.5q-153 0 -308 -61l-81 276q104 43 211.5 65t242.5 22q290 0 426 -136q63 -61 91.5 -148t28.5 -208v-643h-389v116q-127 -141 -329 -141q-108 0 -192 39.5t-134.5 120 t-50.5 190.5zM428 343q0 -56 38.5 -89t100.5 -33q56 0 100.5 22.5t69.5 64.5t25 97v53q-69 28 -154 28t-132.5 -38.5t-47.5 -104.5zM446 1218l216 383l366 -118l-304 -265h-278z" />
<glyph unicode="&#xe2;" horiz-adv-x="1238" d="M49 325q0 170 118.5 261t320.5 91q73 0 145.5 -12.5t124.5 -31.5v18q0 89 -56.5 135.5t-168.5 46.5q-153 0 -308 -61l-81 276q104 43 211.5 65t242.5 22q290 0 426 -136q63 -61 91.5 -148t28.5 -208v-643h-389v116q-127 -141 -329 -141q-108 0 -192 39.5t-134.5 120 t-50.5 190.5zM190 1214l266 341h318l264 -341h-252l-174 126l-174 -126h-248zM428 343q0 -56 38.5 -89t100.5 -33q56 0 100.5 22.5t69.5 64.5t25 97v53q-69 28 -154 28t-132.5 -38.5t-47.5 -104.5z" />
<glyph unicode="&#xe3;" horiz-adv-x="1238" d="M49 325q0 170 118.5 261t320.5 91q73 0 145.5 -12.5t124.5 -31.5v18q0 89 -56.5 135.5t-168.5 46.5q-153 0 -308 -61l-81 276q104 43 211.5 65t242.5 22q290 0 426 -136q63 -61 91.5 -148t28.5 -208v-643h-389v116q-127 -141 -329 -141q-108 0 -192 39.5t-134.5 120 t-50.5 190.5zM182 1251q33 159 92.5 233.5t163.5 74.5q54 0 120.5 -20t121.5 -40t82 -20q40 0 61 21.5t44 74.5l187 -53q-22 -106 -53.5 -172t-81.5 -101t-120 -35q-42 0 -93.5 12.5t-90 28t-78.5 28t-61 12.5q-22 0 -37 -5.5t-27.5 -18.5t-21 -29t-19.5 -42zM428 343 q0 -56 38.5 -89t100.5 -33q56 0 100.5 22.5t69.5 64.5t25 97v53q-69 28 -154 28t-132.5 -38.5t-47.5 -104.5z" />
<glyph unicode="&#xe4;" horiz-adv-x="1238" d="M49 325q0 170 118.5 261t320.5 91q73 0 145.5 -12.5t124.5 -31.5v18q0 89 -56.5 135.5t-168.5 46.5q-153 0 -308 -61l-81 276q104 43 211.5 65t242.5 22q290 0 426 -136q63 -61 91.5 -148t28.5 -208v-643h-389v116q-127 -141 -329 -141q-108 0 -192 39.5t-134.5 120 t-50.5 190.5zM217 1218v296h342v-296h-342zM428 343q0 -56 38.5 -89t100.5 -33q56 0 100.5 22.5t69.5 64.5t25 97v53q-69 28 -154 28t-132.5 -38.5t-47.5 -104.5zM671 1218v296h340v-296h-340z" />
<glyph unicode="&#xe5;" horiz-adv-x="1238" d="M49 325q0 170 118.5 261t320.5 91q73 0 145.5 -12.5t124.5 -31.5v18q0 89 -56.5 135.5t-168.5 46.5q-153 0 -308 -61l-81 276q104 43 211.5 65t242.5 22q290 0 426 -136q63 -61 91.5 -148t28.5 -208v-643h-389v116q-127 -141 -329 -141q-108 0 -192 39.5t-134.5 120 t-50.5 190.5zM339 1490q0 69 38.5 129.5t102 95.5t134.5 35t135 -35.5t102.5 -97t38.5 -132.5q0 -69 -38.5 -130t-102.5 -97t-135 -36t-134.5 36.5t-102 98.5t-38.5 133zM428 343q0 -56 38.5 -89t100.5 -33q56 0 100.5 22.5t69.5 64.5t25 97v53q-69 28 -154 28t-132.5 -38.5 t-47.5 -104.5zM476 1485q0 -57 40.5 -97t97.5 -40q58 0 98 41.5t40 100.5q0 55 -40.5 94.5t-97.5 39.5t-97.5 -41t-40.5 -98z" />
<glyph unicode="&#xe6;" horiz-adv-x="1944" d="M49 325q0 170 118.5 261t320.5 91q73 0 145.5 -12.5t124.5 -31.5v18q0 89 -56.5 135.5t-168.5 46.5q-153 0 -308 -61l-81 276q104 43 211.5 65t242.5 22q252 0 379 -126q141 135 349 135q110 0 201.5 -32t156.5 -88.5t110.5 -134t67 -168t21.5 -190.5q0 -26 -4 -81h-750 q25 -90 88 -136.5t155 -46.5q47 0 88.5 12t80 37t79.5 65l217 -180q-179 -228 -485 -228q-133 0 -245.5 43.5t-192.5 123.5q-218 -165 -448 -165q-87 0 -162 22t-132 65t-90 110.5t-33 152.5zM428 343q0 -54 40.5 -86t104.5 -32q112 0 226 91q-31 75 -39 142q-69 28 -152 28 q-85 0 -132.5 -38.5t-47.5 -104.5zM1125 651h389q-11 94 -63.5 148.5t-132.5 54.5q-76 0 -127.5 -55t-65.5 -148z" />
<glyph unicode="&#xe7;" horiz-adv-x="1176" d="M60 559q0 117 44.5 223.5t122 186t190.5 126t243 46.5q321 0 477 -249l-266 -199q-43 59 -92 88.5t-117 29.5q-62 0 -112.5 -33.5t-79 -91.5t-28.5 -127q0 -54 16.5 -101t45.5 -81t71 -53.5t91 -19.5q66 0 115.5 29t99.5 87l263 -191q-75 -110 -176 -174.5t-246 -77.5 l-118 -335l-312 133l168 227q-180 58 -290 210t-110 347z" />
<glyph unicode="&#xe8;" horiz-adv-x="1251" d="M60 559q0 121 42 229t115.5 186.5t179 124t227.5 45.5q113 0 207 -32t159.5 -88.5t111 -134t67 -168t21.5 -190.5q0 -53 -2 -81h-750q23 -90 86.5 -136.5t156.5 -46.5q69 0 128 27t120 87l217 -180q-179 -228 -486 -228q-175 0 -311.5 72.5t-212.5 206t-76 307.5z M201 1483l366 118l215 -383h-277zM432 651h389q-11 94 -62.5 148.5t-131.5 54.5q-76 0 -127.5 -55t-67.5 -148z" />
<glyph unicode="&#xe9;" horiz-adv-x="1251" d="M60 559q0 121 42 229t115.5 186.5t179 124t227.5 45.5q113 0 207 -32t159.5 -88.5t111 -134t67 -168t21.5 -190.5q0 -53 -2 -81h-750q23 -90 86.5 -136.5t156.5 -46.5q69 0 128 27t120 87l217 -180q-179 -228 -486 -228q-175 0 -311.5 72.5t-212.5 206t-76 307.5z M432 651h389q-11 94 -62.5 148.5t-131.5 54.5q-76 0 -127.5 -55t-67.5 -148zM472 1218l215 383l365 -118l-304 -265h-276z" />
<glyph unicode="&#xea;" horiz-adv-x="1251" d="M60 559q0 121 42 229t115.5 186.5t179 124t227.5 45.5q113 0 207 -32t159.5 -88.5t111 -134t67 -168t21.5 -190.5q0 -53 -2 -81h-750q23 -90 86.5 -136.5t156.5 -46.5q69 0 128 27t120 87l217 -180q-179 -228 -486 -228q-175 0 -311.5 72.5t-212.5 206t-76 307.5z M203 1210l265 341h318l264 -341h-251l-175 126l-174 -126h-247zM432 651h389q-11 94 -62.5 148.5t-131.5 54.5q-76 0 -127.5 -55t-67.5 -148z" />
<glyph unicode="&#xeb;" horiz-adv-x="1251" d="M60 559q0 121 42 229t115.5 186.5t179 124t227.5 45.5q113 0 207 -32t159.5 -88.5t111 -134t67 -168t21.5 -190.5q0 -53 -2 -81h-750q23 -90 86.5 -136.5t156.5 -46.5q69 0 128 27t120 87l217 -180q-179 -228 -486 -228q-175 0 -311.5 72.5t-212.5 206t-76 307.5z M229 1214v296h342v-296h-342zM432 651h389q-11 94 -62.5 148.5t-131.5 54.5q-76 0 -127.5 -55t-67.5 -148zM683 1214v296h341v-296h-341z" />
<glyph unicode="&#xec;" horiz-adv-x="620" d="M-107 1479l366 118l215 -383h-277zM114 0v1119h393v-1119h-393z" />
<glyph unicode="&#xed;" horiz-adv-x="620" d="M114 0v1119h393v-1119h-393zM152 1214l214 383l366 -118l-304 -265h-276z" />
<glyph unicode="&#xee;" horiz-adv-x="620" d="M-112 1214l266 341h318l264 -341h-252l-174 126l-174 -126h-248zM114 0v1119h393v-1119h-393z" />
<glyph unicode="&#xef;" horiz-adv-x="620" d="M-85 1214v296h342v-296h-342zM114 0v1119h393v-1119h-393zM369 1214v296h340v-296h-340z" />
<glyph unicode="&#xf0;" horiz-adv-x="1356" d="M67 519q0 97 35 183t98 149t155.5 99.5t203.5 36.5q132 0 223 -56l-166 221l-237 -90l-135 183l242 83l-132 182h418l43 -62l205 76l132 -184l-213 -72l133 -186q111 -162 156 -280t45 -267q0 -93 -27.5 -178t-80.5 -154.5t-126 -121t-169.5 -80t-205.5 -28.5 q-130 0 -241.5 42t-189.5 115t-122 174t-44 215zM444 515q0 -43 17 -82t47 -68t72.5 -46t92.5 -17q101 0 161 61t60 154q0 88 -63.5 149.5t-161.5 61.5q-102 0 -163.5 -60.5t-61.5 -152.5z" />
<glyph unicode="&#xf1;" horiz-adv-x="1310" d="M105 0v1119h394v-157q30 38 61.5 68t72.5 57.5t92 42t108 14.5q178 0 279.5 -110t101.5 -302v-732h-393v606q0 90 -43 139t-114 49q-74 0 -119.5 -49.5t-45.5 -138.5v-606h-394zM229 1251q34 159 93.5 233.5t163.5 74.5q53 0 119.5 -20t122 -40t81.5 -20q17 0 30.5 4 t23.5 11t19 19.5t16 26t16 35.5l189 -53q-34 -159 -93.5 -233.5t-163.5 -74.5q-53 0 -119.5 20t-122 40.5t-81.5 20.5q-40 0 -61 -21.5t-44 -73.5z" />
<glyph unicode="&#xf2;" horiz-adv-x="1356" d="M60 559q0 118 47 225.5t128 186.5t197.5 126t248.5 47q131 0 246.5 -46.5t196 -125t127 -186.5t46.5 -227t-47 -226t-128 -186.5t-197 -126.5t-248 -47t-247.5 46.5t-196 125.5t-127 186.5t-46.5 227.5zM248 1483l366 118l215 -383h-277zM442 559q0 -68 30.5 -126 t85.5 -92.5t123 -34.5q69 0 123 34.5t82 91.5t28 127q0 104 -67.5 178t-169.5 74q-70 0 -124 -34.5t-82.5 -91.5t-28.5 -126z" />
<glyph unicode="&#xf3;" horiz-adv-x="1356" d="M60 559q0 118 47 225.5t128 186.5t197.5 126t248.5 47q131 0 246.5 -46.5t196 -125t127 -186.5t46.5 -227t-47 -226t-128 -186.5t-197 -126.5t-248 -47t-247.5 46.5t-196 125.5t-127 186.5t-46.5 227.5zM442 559q0 -68 30.5 -126t85.5 -92.5t123 -34.5q69 0 123 34.5 t82 91.5t28 127q0 104 -67.5 178t-169.5 74q-70 0 -124 -34.5t-82.5 -91.5t-28.5 -126zM527 1218l215 383l367 -118l-304 -265h-278z" />
<glyph unicode="&#xf4;" horiz-adv-x="1356" d="M60 559q0 118 47 225.5t128 186.5t197.5 126t248.5 47q131 0 246.5 -46.5t196 -125t127 -186.5t46.5 -227t-47 -226t-128 -186.5t-197 -126.5t-248 -47t-247.5 46.5t-196 125.5t-127 186.5t-46.5 227.5zM255 1210l264 341h318l266 -341h-253l-173 126l-174 -126h-248z M442 559q0 -68 30.5 -126t85.5 -92.5t123 -34.5q69 0 123 34.5t82 91.5t28 127q0 104 -67.5 178t-169.5 74q-70 0 -124 -34.5t-82.5 -91.5t-28.5 -126z" />
<glyph unicode="&#xf5;" horiz-adv-x="1356" d="M60 559q0 118 47 225.5t128 186.5t197.5 126t248.5 47q131 0 246.5 -46.5t196 -125t127 -186.5t46.5 -227t-47 -226t-128 -186.5t-197 -126.5t-248 -47t-247.5 46.5t-196 125.5t-127 186.5t-46.5 227.5zM242 1251q34 159 93.5 233.5t163.5 74.5q53 0 119.5 -20t121.5 -40 t81 -20q41 0 62.5 21.5t43.5 74.5l188 -53q-34 -159 -93.5 -233.5t-163.5 -74.5q-53 0 -119.5 20t-122 40.5t-81.5 20.5q-40 0 -61 -21.5t-44 -73.5zM442 559q0 -68 30.5 -126t85.5 -92.5t123 -34.5q69 0 123 34.5t82 91.5t28 127q0 104 -67.5 178t-169.5 74 q-70 0 -124 -34.5t-82.5 -91.5t-28.5 -126z" />
<glyph unicode="&#xf6;" horiz-adv-x="1356" d="M60 559q0 118 47 225.5t128 186.5t197.5 126t248.5 47q131 0 246.5 -46.5t196 -125t127 -186.5t46.5 -227t-47 -226t-128 -186.5t-197 -126.5t-248 -47t-247.5 46.5t-196 125.5t-127 186.5t-46.5 227.5zM282 1214v296h340v-296h-340zM442 559q0 -68 30.5 -126t85.5 -92.5 t123 -34.5q69 0 123 34.5t82 91.5t28 127q0 104 -67.5 178t-169.5 74q-70 0 -124 -34.5t-82.5 -91.5t-28.5 -126zM734 1214v296h342v-296h-342z" />
<glyph unicode="&#xf7;" horiz-adv-x="1323" d="M154 561v345h1015v-345h-1015zM472 71v361h367v-361h-367zM472 1034v362h367v-362h-367z" />
<glyph unicode="&#xf8;" horiz-adv-x="1356" d="M29 -10l172 190q-45 51 -76.5 110.5t-48 127.5t-16.5 141q0 118 47 225.5t128 186.5t197.5 126t248.5 47q170 0 312 -78l59 63h276q-130 -142 -172 -190q141 -159 141 -380q0 -119 -47 -226t-128 -186.5t-197 -126.5t-248 -47q-171 0 -315 79l-58 -62h-275zM426 559 q0 -53 20 -109l324 359q-41 18 -93 18q-111 0 -181 -78t-70 -190zM590 306q43 -16 91 -16q111 0 180.5 78t69.5 191q0 48 -21 107z" />
<glyph unicode="&#xf9;" horiz-adv-x="1310" d="M97 387v732h393v-606q0 -90 43.5 -139t115.5 -49q73 0 118.5 49.5t45.5 138.5v606h393v-1119h-393v154q-140 -179 -335 -179q-118 0 -204.5 49.5t-131.5 142.5t-45 220zM259 1479l365 118l215 -383h-276z" />
<glyph unicode="&#xfa;" horiz-adv-x="1310" d="M97 387v732h393v-606q0 -90 43.5 -139t115.5 -49q73 0 118.5 49.5t45.5 138.5v606h393v-1119h-393v154q-140 -179 -335 -179q-118 0 -204.5 49.5t-131.5 142.5t-45 220zM472 1214l215 383l365 -118l-304 -265h-276z" />
<glyph unicode="&#xfb;" horiz-adv-x="1310" d="M97 387v732h393v-606q0 -90 43.5 -139t115.5 -49q73 0 118.5 49.5t45.5 138.5v606h393v-1119h-393v154q-140 -179 -335 -179q-118 0 -204.5 49.5t-131.5 142.5t-45 220zM231 1214l266 341h318l265 -341h-253l-174 126l-173 -126h-249z" />
<glyph unicode="&#xfc;" horiz-adv-x="1310" d="M97 387v732h393v-606q0 -90 43.5 -139t115.5 -49q73 0 118.5 49.5t45.5 138.5v606h393v-1119h-393v154q-140 -179 -335 -179q-118 0 -204.5 49.5t-131.5 142.5t-45 220zM259 1214v296h341v-296h-341zM712 1214v296h340v-296h-340z" />
<glyph unicode="&#xfd;" horiz-adv-x="1294" d="M23 1119h411l224 -675l211 675h404l-410 -1092q-50 -134 -105 -211.5t-132.5 -115t-189.5 -37.5q-186 0 -359 97l122 275q46 -28 92.5 -44t79.5 -16q30 0 51 10t40 35zM468 1214l215 383l365 -118l-304 -265h-276z" />
<glyph unicode="&#xfe;" horiz-adv-x="1397" d="M105 -331v1841h394v-539q25 30 48.5 53.5t55.5 47t65 38.5t77 24.5t92 9.5q80 0 154 -25.5t136.5 -76t108.5 -120t72 -162.5t26 -199q0 -133 -40 -244.5t-108 -185.5t-157.5 -115t-189.5 -41q-61 0 -113.5 12.5t-93.5 36.5t-72 50.5t-61 61.5v-467h-394zM490 559 q0 -110 66 -182.5t162 -72.5q98 0 163.5 72t65.5 187q0 109 -66 180.5t-163 71.5q-96 0 -162 -72.5t-66 -183.5z" />
<glyph unicode="&#xff;" horiz-adv-x="1294" d="M23 1119h411l224 -675l211 675h404l-410 -1092q-50 -134 -105 -211.5t-132.5 -115t-189.5 -37.5q-186 0 -359 97l122 275q46 -28 92.5 -44t79.5 -16q30 0 51 10t40 35zM248 1214v296h342v-296h-342zM701 1214v296h341v-296h-341z" />
<glyph unicode="&#x131;" horiz-adv-x="620" d="M114 0v1119h393v-1119h-393z" />
<glyph unicode="&#x152;" horiz-adv-x="2229" d="M79 720q0 158 56 291.5t160 230.5t260.5 151.5t348.5 54.5h1237v-341h-722v-219h649v-317h-649v-230h732v-341h-1255q-190 0 -344.5 53t-258 148.5t-159 228t-55.5 290.5zM490 722q0 -170 109 -271.5t287 -101.5h136v749h-136q-180 0 -288 -100t-108 -276z" />
<glyph unicode="&#x153;" horiz-adv-x="2094" d="M60 559q0 117 47 225t128 187t195 126t241 47q124 0 230.5 -44t182.5 -123q72 80 172.5 123.5t218.5 43.5q110 0 202.5 -32t157.5 -88.5t110 -134t66.5 -168t21.5 -190.5q0 -26 -4 -81h-746q23 -90 85 -136.5t154 -46.5q71 0 130 27t121 87l217 -180q-185 -228 -480 -228 q-67 0 -129 11.5t-116 33t-100.5 52.5t-84.5 70q-78 -79 -186 -123t-232.5 -44t-236.5 46.5t-192 125t-126.5 187t-46.5 227.5zM442 559q0 -104 66.5 -178.5t166.5 -74.5q102 0 165.5 73t63.5 180q0 104 -66.5 178t-166.5 74q-102 0 -165.5 -73.5t-63.5 -178.5zM1277 651 h388q-10 94 -62 148.5t-132 54.5q-52 0 -92.5 -25t-66 -70.5t-35.5 -107.5z" />
<glyph unicode="&#x178;" horiz-adv-x="1494" d="M-4 1448h457l297 -528l300 528h450l-551 -900v-548h-403v542zM351 1545v296h342v-296h-342zM805 1545v296h341v-296h-341z" />
<glyph unicode="&#x192;" horiz-adv-x="1143" d="M52 0v286q64 -13 96 -13q67 0 98.5 29.5t45.5 104.5l47 274h-126v298h178l27 134q33 182 142 269t309 87q130 0 227 -28v-289q-74 19 -139 19q-49 0 -81.5 -13.5t-52 -42t-27.5 -75.5l-10 -61h236v-298h-290l-57 -325q-36 -205 -139 -290.5t-307 -85.5q-87 0 -177 20z " />
<glyph unicode="&#x2c6;" d="M93 1214l265 341h319l264 -341h-252l-174 126l-174 -126h-248z" />
<glyph unicode="&#x2c7;" d="M93 1555h252l174 -126l174 126h248l-264 -341h-319z" />
<glyph unicode="&#x2d8;" d="M110 1555h229q21 -58 63 -89t115.5 -31t115.5 31t62 89h229q-13 -162 -123 -253.5t-284 -91.5q-86 0 -158 23.5t-125 67t-85 108.5t-39 146z" />
<glyph unicode="&#x2d9;" d="M341 1214v296h352v-296h-352z" />
<glyph unicode="&#x2da;" d="M242 1490q0 69 38.5 129.5t102 95.5t134.5 35q53 0 103.5 -21t88 -56.5t60.5 -85t23 -102.5q0 -69 -38.5 -130t-102 -97t-134.5 -36t-134.5 36.5t-102 98.5t-38.5 133zM379 1485q0 -57 40.5 -97t97.5 -40q58 0 98 41.5t40 100.5q0 55 -40.5 94.5t-97.5 39.5t-97.5 -41 t-40.5 -98z" />
<glyph unicode="&#x2db;" d="M327 -120q0 73 39 140h252q-10 -39 -10 -69q0 -118 180 -121v-169q-62 -6 -113 -6q-169 0 -258.5 59t-89.5 166z" />
<glyph unicode="&#x2dc;" d="M81 1251q33 159 92.5 233.5t163.5 74.5q54 0 120 -20t121 -40t82 -20q40 0 61.5 21.5t44.5 74.5l187 -53q-33 -159 -92.5 -233.5t-163.5 -74.5q-53 0 -119.5 20t-121.5 40.5t-81 20.5q-41 0 -62.5 -21.5t-43.5 -73.5z" />
<glyph unicode="&#x2dd;" d="M62 1216l205 381l323 -112l61 112l344 -118l-296 -263h-255l123 223l-249 -223h-256z" />
<glyph unicode="&#x3a9;" horiz-adv-x="1608" d="M105 0v300h359v39q-117 31 -199.5 110t-121 183.5t-38.5 225.5q0 102 25 189.5t71.5 154.5t110.5 119.5t142 86.5t167 51.5t186 17.5q113 0 216.5 -25.5t191 -77t151.5 -124.5t100 -173t36 -216q0 -87 -23 -170.5t-66 -156t-112.5 -125t-156.5 -70.5v-39h356v-300h-625 v501q66 10 118 43.5t82.5 82t46 104.5t15.5 115q0 89 -38 162.5t-115 119t-179 45.5q-78 0 -141.5 -28t-104.5 -74.5t-63 -107t-22 -128.5q0 -58 15.5 -112.5t45.5 -101t80.5 -78.5t114.5 -42v-501h-625z" />
<glyph unicode="&#x3c0;" d="M0 0v1448h1034v-1448h-1034zM101 199l355 525l-355 525v-1050zM168 101h701l-352 528zM168 1344l349 -527l352 527h-701zM577 724l354 -525v1050z" />
<glyph unicode="&#x401;" horiz-adv-x="1379" d="M128 0v1448h1165v-341h-768v-219h695v-317h-695v-230h778v-341h-1175zM329 1545v296h342v-296h-342zM782 1545v296h341v-296h-341z" />
<glyph unicode="&#x402;" horiz-adv-x="1778" d="M47 1096v352h1271v-352h-497v-238q73 43 165 68t185 25q111 0 202 -31.5t159.5 -95.5t106 -168.5t37.5 -241.5q0 -138 -38 -244.5t-106 -173.5t-159 -100.5t-202 -33.5q-47 0 -120 8t-114 18l44 347q25 -4 81 -4q195 0 195 174q0 81 -52.5 128.5t-150.5 47.5 q-69 0 -133 -22.5t-100 -55.5v-503h-401v1096h-373z" />
<glyph unicode="&#x403;" horiz-adv-x="1212" d="M128 0v1448h1043v-352h-642v-1096h-401zM428 1545l215 383l366 -118l-304 -265h-277z" />
<glyph unicode="&#x404;" horiz-adv-x="1509" d="M79 724q0 156 58 295.5t158.5 240t243 159t303.5 58.5q358 0 581 -271l-271 -231q-128 144 -315 144q-117 0 -204.5 -68t-125.5 -178h470v-283h-476q35 -119 123.5 -191t212.5 -72q100 0 177 40.5t144 116.5l292 -207q-35 -46 -71.5 -84.5t-81 -74t-95 -62t-108 -46 t-125.5 -29.5t-144 -10q-153 0 -290.5 57t-238 155.5t-159 239.5t-58.5 301z" />
<glyph unicode="&#x405;" horiz-adv-x="1348" d="M18 215l224 267q217 -174 470 -174q53 0 90 12t56 35.5t19 56.5q0 31 -20 52.5t-72.5 42.5t-151.5 43q-73 17 -127.5 32t-114.5 37t-102.5 46.5t-83 58.5t-65 74.5t-39 94t-14.5 116.5q0 100 39 185.5t110.5 147t177 96.5t233.5 35q357 0 596 -192l-201 -284 q-98 69 -203 105.5t-202 36.5q-70 0 -107.5 -26.5t-37.5 -70.5q0 -20 7 -35.5t23 -29t46 -25.5t71 -24t103 -26q88 -19 156.5 -40t131.5 -49t108 -63t78.5 -79.5t50 -100.5t16.5 -124q0 -145 -73.5 -252.5t-205.5 -163t-307 -55.5q-196 0 -371.5 61t-307.5 179z" />
<glyph unicode="&#x406;" horiz-adv-x="675" d="M136 0v1448h404v-1448h-404z" />
<glyph unicode="&#x407;" horiz-adv-x="675" d="M-58 1545v296h342v-296h-342zM136 0v1448h404v-1448h-404zM395 1545v296h341v-296h-341z" />
<glyph unicode="&#x408;" horiz-adv-x="1166" d="M8 219l259 245q27 -34 52.5 -57.5t53 -41.5t57 -27t62.5 -9q77 0 121.5 52t44.5 150v917h399v-919q0 -135 -35 -234.5t-108 -172.5q-147 -147 -397 -147q-331 0 -509 244z" />
<glyph unicode="&#x409;" horiz-adv-x="2287" d="M-29 12l27 308q36 -8 93 -8q28 0 48.5 5.5t45 27t41.5 59.5t34.5 107.5t28 167t17 241.5t6.5 327v201h1113v-455h219q132 0 241 -31.5t190 -91.5t126 -154.5t45 -214.5q0 -233 -157 -367t-424 -134h-641v1096h-337v-56q0 -163 -9 -298.5t-26.5 -239.5t-41 -185t-56 -138 t-68.5 -96t-81.5 -61.5t-91.5 -32t-102 -9.5q-70 0 -139 11t-101 21zM1425 337h209q101 0 156 44.5t55 129.5q0 38 -14.5 69t-41 53t-66 34t-87.5 12h-211v-342z" />
<glyph unicode="&#x40a;" horiz-adv-x="2307" d="M128 0v1448h401v-509h515v509h402v-509h240q127 0 232.5 -29t183.5 -86t121.5 -146.5t43.5 -203.5q0 -223 -151 -348.5t-409 -125.5h-663v584h-515v-584h-401zM1446 337h230q90 0 139.5 39.5t49.5 113.5q0 67 -50 107t-137 40h-232v-300z" />
<glyph unicode="&#x40b;" horiz-adv-x="1778" d="M47 1096v352h1271v-352h-497v-238q73 43 165 68t185 25q109 0 201.5 -31.5t160 -90.5t105.5 -149t38 -202v-478h-401v310q0 135 -47.5 203t-151.5 68q-168 0 -255 -78v-503h-401v1096h-373z" />
<glyph unicode="&#x40c;" horiz-adv-x="1509" d="M128 0v1448h401v-587l499 587h476l-549 -623l567 -825h-482l-363 537l-148 -162v-375h-401zM608 1545l215 383l367 -118l-304 -265h-278z" />
<glyph unicode="&#x40e;" horiz-adv-x="1522" d="M0 1448h446l330 -680l310 680h436l-565 -1105q-50 -98 -100.5 -165.5t-110 -112.5t-127 -65t-151.5 -20q-185 0 -348 97l157 289q73 -50 163 -50q72 0 127 63zM412 1857l219 40q22 -61 56 -92.5t89 -31.5q38 0 66.5 16t47 42t32.5 66l219 -40q-23 -150 -119 -233 t-246 -83t-245 83t-119 233z" />
<glyph unicode="&#x40f;" horiz-adv-x="1553" d="M128 0v1448h401v-1097h495v1097h401v-1448h-461v-290h-385v290h-451z" />
<glyph unicode="&#x410;" horiz-adv-x="1644" d="M12 0l617 1458h387l616 -1458h-430l-106 259h-559l-103 -259h-422zM655 571h326l-162 412z" />
<glyph unicode="&#x411;" horiz-adv-x="1447" d="M128 0v1448h1165v-341h-764v-168h280q127 0 232.5 -29t183.5 -86t121.5 -146.5t43.5 -203.5q0 -223 -151 -348.5t-410 -125.5h-701zM529 337h270q91 0 140.5 39.5t49.5 113.5q0 44 -22 77.5t-65 51.5t-101 18h-272v-300z" />
<glyph unicode="&#x412;" horiz-adv-x="1478" d="M128 0v1448h743q264 0 395 -130q93 -94 93 -238q0 -225 -224 -322q141 -47 214.5 -131t73.5 -228q0 -124 -65 -213.5t-188.5 -137.5t-294.5 -48h-747zM519 322h310q92 0 142.5 35.5t50.5 102.5q0 40 -21 68.5t-65.5 45t-110.5 16.5h-306v-268zM519 871h253q190 0 190 130 q0 39 -20.5 67t-61.5 42.5t-100 14.5h-261v-254z" />
<glyph unicode="&#x413;" horiz-adv-x="1212" d="M128 0v1448h1043v-352h-642v-1096h-401z" />
<glyph unicode="&#x414;" horiz-adv-x="1591" d="M20 -290v641h128q52 141 82.5 273t48 326.5t17.5 460.5v37h1102v-1097h163l-45 -641h-339v290h-770l-26 -290h-361zM569 351h428v745h-314v-14q0 -224 -29.5 -394t-84.5 -337z" />
<glyph unicode="&#x415;" horiz-adv-x="1379" d="M128 0v1448h1165v-341h-768v-219h695v-317h-695v-230h778v-341h-1175z" />
<glyph unicode="&#x416;" horiz-adv-x="2266" d="M-12 0l533 837l-515 611h470l457 -587v587h401v-587l458 587h468l-514 -611l534 -837h-476l-331 546l-139 -161v-385h-401v385l-139 161l-330 -546h-476z" />
<glyph unicode="&#x417;" horiz-adv-x="1323" d="M23 215l208 267q172 -172 408 -172q37 0 68.5 5t55.5 14t42.5 21.5t30.5 29t18.5 35t6.5 38.5q0 41 -24.5 69t-76.5 43.5t-131 15.5h-151v298h146q104 0 154.5 35.5t50.5 96.5q0 57 -49 91.5t-133 34.5q-61 0 -130.5 -18t-133.5 -50.5t-108 -73.5l-198 236 q249 246 606 246q119 0 220 -29.5t171.5 -81.5t110 -124.5t39.5 -155.5q0 -122 -57 -201t-160 -127q118 -40 186 -123t68 -213q0 -77 -25 -145.5t-74.5 -124t-118.5 -96t-160 -62t-196 -21.5q-121 0 -219.5 17t-178 51.5t-139.5 75t-127 98.5z" />
<glyph unicode="&#x418;" horiz-adv-x="1587" d="M128 0v1448h397v-815l561 815h374v-1448h-396v815l-561 -815h-375z" />
<glyph unicode="&#x419;" horiz-adv-x="1587" d="M128 0v1448h397v-815l561 815h374v-1448h-396v815l-561 -815h-375zM442 1857l220 40q22 -60 56 -92t89 -32q38 0 67 16t47 42t32 66l220 -40q-24 -150 -119.5 -233t-246.5 -83q-150 0 -245.5 83t-119.5 233z" />
<glyph unicode="&#x41a;" horiz-adv-x="1509" d="M128 0v1448h401v-587l499 587h476l-549 -623l567 -825h-482l-363 537l-148 -162v-375h-401z" />
<glyph unicode="&#x41b;" horiz-adv-x="1553" d="M-29 12l27 308q36 -8 93 -8q28 0 48.5 5.5t45 27t41.5 59.5t34.5 107.5t28 167t17 241.5t6.5 327v201h1113v-1448h-401v1096h-337v-56q0 -163 -9 -298.5t-26.5 -239.5t-41 -185t-56 -138t-68.5 -96t-81.5 -61.5t-91.5 -32t-102 -9.5q-70 0 -139 11t-101 21z" />
<glyph unicode="&#x41c;" horiz-adv-x="1794" d="M128 0v1448h424l346 -560l345 560h425v-1448h-400v831l-370 -566h-8l-369 562v-827h-393z" />
<glyph unicode="&#x41d;" horiz-adv-x="1573" d="M128 0v1448h401v-542h515v542h402v-1448h-402v550h-515v-550h-401z" />
<glyph unicode="&#x41e;" horiz-adv-x="1718" d="M79 724q0 154 60 293t163 240t248.5 160.5t310 59.5t309.5 -59t247.5 -159.5t161.5 -239.5t59 -295q0 -154 -60 -293t-163 -240t-248.5 -160.5t-310 -59.5t-309.5 59t-247.5 159.5t-161.5 240t-59 294.5zM490 724q0 -104 46 -193t132 -143.5t193 -54.5q81 0 150.5 31.5 t117 84.5t74 124.5t26.5 150.5q0 105 -46 194t-132.5 143t-194.5 54q-106 0 -191 -53.5t-130 -142t-45 -195.5z" />
<glyph unicode="&#x41f;" horiz-adv-x="1553" d="M128 0v1448h1297v-1448h-401v1096h-495v-1096h-401z" />
<glyph unicode="&#x420;" horiz-adv-x="1391" d="M128 0v1448h620q183 0 318.5 -60t209.5 -176t74 -277q0 -125 -46.5 -224.5t-129.5 -164t-196.5 -98.5t-249.5 -34h-199v-414h-401zM529 728h191q107 0 168 51.5t61 140.5q0 62 -27.5 105t-79.5 64.5t-124 21.5h-189v-383z" />
<glyph unicode="&#x421;" horiz-adv-x="1509" d="M79 724q0 156 58 295.5t158.5 240t243 159t303.5 58.5q108 0 201 -22.5t167 -65t132 -96t108 -122.5l-294 -228q-65 82 -142 125t-176.5 43t-179 -51.5t-123 -140t-43.5 -195.5q0 -80 25.5 -151.5t70.5 -123.5t110 -82t139 -30q73 0 133.5 23.5t103.5 59.5t91 93 l302 -215q-55 -75 -114.5 -131t-136.5 -102t-175.5 -70t-215.5 -24q-153 0 -290.5 57t-238 155.5t-159 239.5t-58.5 301z" />
<glyph unicode="&#x422;" horiz-adv-x="1364" d="M47 1096v352h1271v-352h-435v-1096h-401v1096h-435z" />
<glyph unicode="&#x423;" horiz-adv-x="1522" d="M0 1448h446l330 -680l310 680h436l-565 -1105q-50 -98 -100.5 -165.5t-110 -112.5t-127 -65t-151.5 -20q-185 0 -348 97l157 289q73 -50 163 -50q72 0 127 63z" />
<glyph unicode="&#x424;" horiz-adv-x="1978" d="M54 748q0 139 49.5 255t142 200t231.5 131.5t311 47.5v128h404v-128q171 0 310.5 -47.5t232 -131.5t142 -200t49.5 -255q0 -140 -49 -258.5t-141 -205.5t-232 -136t-312 -49v-161h-404v161q-139 0 -257 31.5t-205 89.5t-149 138.5t-92.5 179.5t-30.5 210zM466 742 q0 -136 88 -211t234 -75v570q-145 0 -233.5 -75.5t-88.5 -208.5zM1192 456q146 0 234 75t88 211q0 133 -88.5 208.5t-233.5 75.5v-570z" />
<glyph unicode="&#x425;" horiz-adv-x="1513" d="M23 0l496 736l-476 712h462l257 -408l258 408h451l-476 -708l497 -740h-462l-278 436l-278 -436h-451z" />
<glyph unicode="&#x426;" horiz-adv-x="1596" d="M128 0v1448h401v-1097h495v1097h401v-1097h164l-46 -641h-339v290h-1076z" />
<glyph unicode="&#x427;" horiz-adv-x="1470" d="M87 898v550h401v-437q0 -79 20 -128.5t64 -74t115 -24.5q74 0 140.5 20t113.5 59v585h401v-1448h-401v507q-47 -27 -109.5 -48.5t-130.5 -33t-130 -11.5q-228 0 -356 128t-128 356z" />
<glyph unicode="&#x428;" horiz-adv-x="2282" d="M128 0v1448h401v-1097h412v1097h401v-1097h412v1097h401v-1448h-2027z" />
<glyph unicode="&#x429;" horiz-adv-x="2327" d="M128 0v1448h401v-1097h412v1097h401v-1097h412v1097h401v-1097h164l-45 -641h-340v290h-1806z" />
<glyph unicode="&#x42a;" horiz-adv-x="1633" d="M41 1096v352h731v-455h219q131 0 240.5 -31.5t190.5 -91.5t126 -154.5t45 -214.5q0 -116 -41.5 -210t-117 -158t-183.5 -98.5t-240 -34.5h-640v1096h-330zM772 337h209q100 0 155.5 44.5t55.5 129.5q0 76 -56 122t-153 46h-211v-342z" />
<glyph unicode="&#x42b;" horiz-adv-x="2049" d="M128 0v1448h401v-455h219q132 0 241.5 -31.5t190 -91.5t125.5 -154.5t45 -214.5q0 -233 -157 -367t-423 -134h-642zM529 337h209q101 0 156 44.5t55 129.5q0 76 -56 122t-153 46h-211v-342zM1520 0v1448h402v-1448h-402z" />
<glyph unicode="&#x42c;" horiz-adv-x="1391" d="M128 0v1448h401v-455h219q132 0 241.5 -31.5t190 -91.5t125.5 -154.5t45 -214.5q0 -233 -157 -367t-423 -134h-642zM529 337h209q101 0 156 44.5t55 129.5q0 76 -56 122t-153 46h-211v-342z" />
<glyph unicode="&#x42d;" horiz-adv-x="1509" d="M58 277l291 207q68 -76 145 -116.5t177 -40.5q122 0 210.5 72t123.5 191h-474v283h470q-39 110 -126 178t-204 68q-187 0 -315 -144l-271 231q222 271 581 271q161 0 303.5 -58.5t243 -159t158.5 -240t58 -295.5q0 -160 -58.5 -301t-159 -239.5t-238 -155.5t-290.5 -57 q-113 0 -208 22t-171 64.5t-134.5 95.5t-111.5 124z" />
<glyph unicode="&#x42e;" horiz-adv-x="2233" d="M128 0v1448h401v-542h170q29 123 93.5 227.5t156.5 180.5t213.5 119.5t256.5 43.5q159 0 296.5 -59t233 -160.5t150 -240t54.5 -293.5q0 -123 -34.5 -237t-100.5 -207t-155 -163t-204.5 -108t-243.5 -38q-137 0 -259 43.5t-213.5 121t-155.5 184t-90 230.5h-168v-550 h-401zM1090 724q0 -108 40.5 -197.5t116.5 -142.5t172 -53q72 0 134 30.5t104 83t65.5 125t23.5 154.5q0 108 -41 197.5t-117.5 142.5t-172.5 53q-95 0 -170 -52t-115 -141.5t-40 -199.5z" />
<glyph unicode="&#x42f;" horiz-adv-x="1522" d="M62 0l345 505q-140 60 -218.5 172.5t-78.5 275.5q0 84 21.5 155t61 125t93.5 95t121.5 67.5t143 39.5t158.5 13h685v-1448h-401v438h-176l-292 -438h-463zM513 924q0 -52 25 -92t74 -63t116 -23h265v361h-263q-102 0 -159.5 -47.5t-57.5 -135.5z" />
<glyph unicode="&#x430;" horiz-adv-x="1238" d="M49 325q0 170 118.5 261t320.5 91q73 0 145.5 -12.5t124.5 -31.5v18q0 89 -56.5 135.5t-168.5 46.5q-153 0 -308 -61l-81 276q104 43 211.5 65t242.5 22q290 0 426 -136q63 -61 91.5 -148t28.5 -208v-643h-389v116q-127 -141 -329 -141q-108 0 -192 39.5t-134.5 120 t-50.5 190.5zM428 343q0 -56 38.5 -89t100.5 -33q56 0 100.5 22.5t69.5 64.5t25 97v53q-69 28 -154 28t-132.5 -38.5t-47.5 -104.5z" />
<glyph unicode="&#x431;" horiz-adv-x="1356" d="M99 666q0 58 2.5 109.5t10 110t19.5 108t32.5 101.5t47 94.5t64.5 82.5t84 70t107 53t132 34l571 93l47 -304l-587 -107q-57 -11 -102.5 -33t-71.5 -46.5t-44 -53.5t-24.5 -51t-7.5 -41q9 15 28 34.5t54 43t76.5 42.5t101.5 31.5t125 12.5q106 0 202.5 -36.5t170 -101 t117 -161t43.5 -209.5q0 -115 -45.5 -220t-124 -182t-191 -122t-239.5 -45q-298 0 -448 175.5t-150 517.5zM484 537q0 -96 62 -163.5t155 -67.5q96 0 154.5 66.5t58.5 164.5q0 63 -27.5 116t-77.5 85t-112 32q-96 0 -154.5 -67t-58.5 -166z" />
<glyph unicode="&#x432;" horiz-adv-x="1259" d="M105 0v1119h665q205 0 306 -101q72 -69 72 -183q0 -173 -173 -249q107 -36 160 -101t53 -177q0 -144 -112.5 -226t-311.5 -82h-659zM488 255h161q46 0 79 13t49.5 36.5t16.5 55.5q0 44 -38.5 74t-110.5 30h-157v-209zM488 675h132q67 0 104.5 26.5t37.5 72.5 q0 42 -35.5 68.5t-99.5 26.5h-139v-194z" />
<glyph unicode="&#x433;" horiz-adv-x="969" d="M105 0v1119h844v-316h-450v-803h-394z" />
<glyph unicode="&#x434;" horiz-adv-x="1350" d="M20 -227v543h104q52 150 75.5 313t23.5 437v53h997v-803h130l-37 -543h-334v227h-586l-20 -227h-353zM525 316h300v491h-227v-19q-5 -248 -73 -472z" />
<glyph unicode="&#x435;" horiz-adv-x="1251" d="M60 559q0 121 42 229t115.5 186.5t179 124t227.5 45.5q113 0 207 -32t159.5 -88.5t111 -134t67 -168t21.5 -190.5q0 -53 -2 -81h-750q23 -90 86.5 -136.5t156.5 -46.5q69 0 128 27t120 87l217 -180q-179 -228 -486 -228q-175 0 -311.5 72.5t-212.5 206t-76 307.5z M432 651h389q-11 94 -62.5 148.5t-131.5 54.5q-76 0 -127.5 -55t-67.5 -148z" />
<glyph unicode="&#x436;" horiz-adv-x="1889" d="M-10 0l393 660l-383 459h444l304 -416v416h393v-416l305 416h445l-385 -459l395 -660h-432l-228 383l-100 -120v-263h-393v263l-101 120l-225 -383h-432z" />
<glyph unicode="&#x437;" horiz-adv-x="1123" d="M10 126l156 245q63 -50 164 -81t171 -31q83 0 121 22t38 66q0 18 -6.5 33t-22.5 29.5t-48 22.5t-78 8h-141v247h139q71 0 100.5 28t29.5 67q0 31 -35 53.5t-99 22.5q-75 0 -161.5 -32.5t-140.5 -79.5l-158 216q93 86 222 134t287 48q225 0 348.5 -85t123.5 -220 q0 -176 -178 -253q208 -72 208 -261q0 -77 -32 -140.5t-96.5 -112t-170.5 -75t-246 -26.5q-167 0 -273.5 33.5t-221.5 121.5z" />
<glyph unicode="&#x438;" horiz-adv-x="1325" d="M105 0v1119h381v-560l372 560h362v-1119h-381v561l-371 -561h-363z" />
<glyph unicode="&#x439;" horiz-adv-x="1325" d="M105 0v1119h381v-560l372 560h362v-1119h-381v561l-371 -561h-363zM331 1518l204 37q21 -58 53.5 -89t84 -31t84 31t52.5 89l205 -37q-22 -147 -111.5 -227.5t-229.5 -80.5t-230 80.5t-112 227.5z" />
<glyph unicode="&#x43a;" horiz-adv-x="1246" d="M105 0v1119h394v-416l304 416h444l-382 -459l392 -660h-432l-213 358l-113 -137v-221h-394z" />
<glyph unicode="&#x43b;" horiz-adv-x="1319" d="M20 2l17 304q44 -6 64 -6q18 0 30.5 3t29.5 16.5t28 37t23.5 68.5t19.5 107.5t11.5 157t4.5 214.5v215h966v-1119h-393v807h-207v-29q0 -143 -11 -257t-30 -196t-49 -142.5t-63.5 -98t-78.5 -60t-88.5 -30.5t-98.5 -8q-80 0 -175 16z" />
<glyph unicode="&#x43c;" horiz-adv-x="1528" d="M105 0v1119h400l259 -387l260 387h399v-1119h-393v552l-272 -380l-266 372v-544h-387z" />
<glyph unicode="&#x43d;" horiz-adv-x="1319" d="M105 0v1119h394v-397h322v397h393v-1119h-393v405h-322v-405h-394z" />
<glyph unicode="&#x43e;" horiz-adv-x="1356" d="M60 559q0 118 47 225.5t128 186.5t197.5 126t248.5 47q131 0 246.5 -46.5t196 -125t127 -186.5t46.5 -227t-47 -226t-128 -186.5t-197 -126.5t-248 -47t-247.5 46.5t-196 125.5t-127 186.5t-46.5 227.5zM442 559q0 -68 30.5 -126t85.5 -92.5t123 -34.5q69 0 123 34.5 t82 91.5t28 127q0 104 -67.5 178t-169.5 74q-70 0 -124 -34.5t-82.5 -91.5t-28.5 -126z" />
<glyph unicode="&#x43f;" horiz-adv-x="1302" d="M105 0v1119h1093v-1119h-393v803h-306v-803h-394z" />
<glyph unicode="&#x440;" horiz-adv-x="1397" d="M105 -331v1450h394v-148q25 30 48.5 53.5t55.5 47t65 38.5t77 24.5t92 9.5q80 0 154 -25.5t136.5 -76t108.5 -120t72 -162.5t26 -199q0 -133 -40 -244.5t-108 -185.5t-157.5 -115t-189.5 -41q-61 0 -113.5 12.5t-93.5 36.5t-72 50.5t-61 61.5v-467h-394zM490 559 q0 -110 66 -182.5t162 -72.5q98 0 163.5 72t65.5 187q0 109 -66 180.5t-163 71.5q-96 0 -162 -72.5t-66 -183.5z" />
<glyph unicode="&#x441;" horiz-adv-x="1176" d="M60 559q0 117 44.5 223.5t122 186t190.5 126t243 46.5q321 0 477 -249l-262 -191q-79 110 -202 110q-70 0 -123 -34t-80.5 -91t-27.5 -127q0 -54 16.5 -101t45.5 -81t71 -53.5t91 -19.5q65 0 112.5 29t98.5 89l267 -193q-54 -80 -120 -135t-162.5 -88t-216.5 -33 q-123 0 -233 46.5t-186.5 125.5t-121 187t-44.5 227z" />
<glyph unicode="&#x442;" horiz-adv-x="1087" d="M20 803v316h1048v-316h-328v-803h-393v803h-327z" />
<glyph unicode="&#x443;" horiz-adv-x="1294" d="M23 1119h411l224 -675l211 675h404l-410 -1092q-50 -134 -105 -211.5t-132.5 -115t-189.5 -37.5q-186 0 -359 97l122 275q46 -28 92.5 -44t79.5 -16q30 0 51 10t40 35z" />
<glyph unicode="&#x444;" horiz-adv-x="1857" d="M62 565q0 131 33.5 239.5t94 181t144 112t183.5 39.5q61 0 117 -23t98 -57v391h393v-391q40 33 96.5 56.5t118.5 23.5q80 0 150 -25t126 -74t96 -118t62 -161t22 -198q0 -90 -15.5 -169.5t-43.5 -143t-68.5 -113.5t-91 -84t-110 -51.5t-125.5 -17.5q-62 0 -119 20.5 t-98 49.5v-383h-393v383q-105 -70 -217 -70q-99 0 -182.5 39.5t-143.5 113t-93.5 184t-33.5 246.5zM448 559q0 -119 48 -190t141 -71q53 0 95 20v481q-46 22 -95 22q-62 0 -105 -34.5t-63.5 -92.5t-20.5 -135zM1125 318q42 -20 95 -20q93 0 141 71.5t48 193.5q0 75 -20 132 t-63.5 91.5t-105.5 34.5q-49 0 -95 -22v-481z" />
<glyph unicode="&#x445;" horiz-adv-x="1218" d="M16 0l377 565l-370 554h423l166 -275l166 275h416l-369 -552l377 -567h-422l-174 288l-176 -288h-414z" />
<glyph unicode="&#x446;" horiz-adv-x="1327" d="M105 0v1119h394v-803h306v803h393v-803h130l-37 -543h-336v227h-850z" />
<glyph unicode="&#x447;" horiz-adv-x="1267" d="M95 685v434h395v-316q0 -58 11 -95t37.5 -57t69.5 -20q105 0 162 44v444h393v-1119h-393v360q-49 -23 -131.5 -36.5t-146.5 -13.5q-115 0 -204 43t-141 129t-52 203z" />
<glyph unicode="&#x448;" horiz-adv-x="1940" d="M105 0v1119h394v-803h275v803h393v-803h274v803h394v-1119h-1730z" />
<glyph unicode="&#x449;" horiz-adv-x="1964" d="M105 0v1119h394v-803h275v803h393v-803h274v803h394v-803h130l-37 -543h-335v227h-1488z" />
<glyph unicode="&#x44a;" horiz-adv-x="1366" d="M10 803v316h665v-351h190q134 0 236.5 -42t163.5 -129t61 -210q0 -181 -120.5 -284t-324.5 -103h-599v803h-272zM675 277h121q72 0 111.5 31t39.5 91q0 55 -40 85.5t-111 30.5h-121v-238z" />
<glyph unicode="&#x44b;" horiz-adv-x="1774" d="M105 0v1119h394v-351h190q134 0 237 -42t163.5 -129t60.5 -210q0 -181 -120 -284t-325 -103h-600zM499 277h121q72 0 112 31t40 91q0 55 -40.5 85.5t-111.5 30.5h-121v-238zM1277 0v1119h393v-1119h-393z" />
<glyph unicode="&#x44c;" horiz-adv-x="1190" d="M105 0v1119h394v-351h190q134 0 237 -42t163.5 -129t60.5 -210q0 -181 -120 -284t-325 -103h-600zM499 277h121q72 0 112 31t40 91q0 55 -40.5 85.5t-111.5 30.5h-121v-238z" />
<glyph unicode="&#x44d;" horiz-adv-x="1153" d="M20 215l245 180q50 -57 102 -84t121 -27q78 0 137.5 43.5t86.5 116.5h-302v227h302q-13 35 -35 64.5t-50.5 51t-63 33t-71.5 11.5q-75 0 -129.5 -27t-97.5 -84l-234 192q158 229 463 229q129 0 242 -46.5t191 -126t122.5 -186t44.5 -223.5q0 -119 -44.5 -227t-121 -187 t-186 -125.5t-233.5 -46.5q-170 0 -288 63t-201 179z" />
<glyph unicode="&#x44e;" horiz-adv-x="1869" d="M105 0v1119h394v-405h140q21 74 57.5 139t89 118.5t117.5 92t145 59.5t168 21q66 0 128 -12t115.5 -34t101.5 -54t86.5 -71.5t69 -87t51 -99.5t31.5 -109.5t11 -117.5q0 -119 -43.5 -226t-120 -186.5t-189.5 -126.5t-245 -47q-112 0 -209 33t-169.5 92.5t-123.5 140 t-75 175.5h-136v-414h-394zM1001 559q0 -108 57.5 -180.5t157.5 -72.5q102 0 156.5 71.5t54.5 181.5q0 107 -57.5 179.5t-157.5 72.5q-102 0 -156.5 -71.5t-54.5 -180.5z" />
<glyph unicode="&#x44f;" horiz-adv-x="1279" d="M27 0l263 389q-207 98 -207 339q0 171 103 267q118 124 366 124h623v-1119h-395v322h-89l-215 -322h-449zM480 707q0 -53 37.5 -82t106.5 -29h156v227h-156q-45 0 -77.5 -13t-49.5 -39t-17 -64z" />
<glyph unicode="&#x451;" horiz-adv-x="1251" d="M60 559q0 121 42 229t115.5 186.5t179 124t227.5 45.5q113 0 207 -32t159.5 -88.5t111 -134t67 -168t21.5 -190.5q0 -53 -2 -81h-750q23 -90 86.5 -136.5t156.5 -46.5q69 0 128 27t120 87l217 -180q-179 -228 -486 -228q-175 0 -311.5 72.5t-212.5 206t-76 307.5z M227 1214v296h342v-296h-342zM432 651h389q-11 94 -62.5 148.5t-131.5 54.5q-76 0 -127.5 -55t-67.5 -148zM681 1214v296h341v-296h-341z" />
<glyph unicode="&#x452;" horiz-adv-x="1310" d="M-25 1119v265h130v126h394v-126h324v-265h-324v-256q139 177 334 177q179 0 280 -109.5t101 -301.5v-246q0 -192 -101.5 -302t-279.5 -110q-38 0 -83.5 5t-80.5 11.5t-57 12.5l21 316q10 -2 31 -2q71 0 114 49.5t43 139.5t-43 139t-114 49q-74 0 -119.5 -49.5 t-45.5 -138.5v-503h-394v1119h-130z" />
<glyph unicode="&#x453;" horiz-adv-x="969" d="M105 0v1119h844v-316h-450v-803h-394zM298 1214l215 383l366 -118l-304 -265h-277z" />
<glyph unicode="&#x454;" horiz-adv-x="1153" d="M60 559q0 117 44.5 223.5t122 186t190.5 126t243 46.5q306 0 463 -229l-233 -192q-44 57 -99 84t-129 27q-76 0 -134.5 -43.5t-87.5 -116.5h304v-227h-304q18 -48 50.5 -84t77.5 -56t98 -20q69 0 121 27.5t103 83.5l243 -180q-83 -116 -200.5 -179t-287.5 -63 q-123 0 -233 46.5t-186.5 125.5t-121 187t-44.5 227z" />
<glyph unicode="&#x455;" horiz-adv-x="1062" d="M20 140l148 239q94 -63 194.5 -96t189.5 -33q52 0 75.5 15.5t23.5 48.5q0 31 -40.5 50.5t-138.5 45.5q-53 14 -92.5 27t-83 31t-74.5 37.5t-60.5 46.5t-47.5 58.5t-28.5 72t-10.5 89.5q0 116 58.5 200.5t159 126.5t230.5 42q123 0 244.5 -34t217.5 -96l-135 -247 q-87 47 -175.5 75t-155.5 28q-44 0 -67.5 -15.5t-23.5 -42.5q0 -11 5 -20t16.5 -17.5t24.5 -15.5t37 -15.5t44 -15t55 -16.5q53 -15 92.5 -28.5t83 -32t74.5 -38t60 -46.5t47 -57.5t29 -70.5t11 -87q0 -120 -57.5 -205.5t-159.5 -127t-240 -41.5q-143 0 -279 41.5 t-251 123.5z" />
<glyph unicode="&#x456;" horiz-adv-x="620" d="M105 1220v290h410v-290h-410zM114 0v1119h393v-1119h-393z" />
<glyph unicode="&#x457;" horiz-adv-x="620" d="M-87 1214v296h342v-296h-342zM114 0v1119h393v-1119h-393zM366 1214v296h341v-296h-341z" />
<glyph unicode="&#x458;" horiz-adv-x="624" d="M-54 -62q17 -2 52 -2q59 0 87.5 30t28.5 101v1052h393v-1070q0 -105 -26.5 -179.5t-78.5 -120t-124.5 -66t-170.5 -20.5q-18 0 -35 0.5t-35 2.5t-30.5 3.5t-32 4.5t-28.5 4v260zM105 1220v290h410v-290h-410z" />
<glyph unicode="&#x459;" horiz-adv-x="1906" d="M20 2l17 304q44 -6 64 -6q18 0 30.5 3t29.5 16.5t28 37t23.5 68.5t19.5 107.5t11.5 157t4.5 214.5v215h966v-351h191q134 0 236.5 -42t163 -129t60.5 -210q0 -181 -120 -284t-324 -103h-600v807h-207v-29q0 -143 -11 -257t-30 -196t-49 -142.5t-63.5 -98t-78.5 -60 t-88.5 -30.5t-98.5 -8q-80 0 -175 16zM1214 277h122q72 0 112 31t40 91q0 55 -40.5 85.5t-111.5 30.5h-122v-238z" />
<glyph unicode="&#x45a;" horiz-adv-x="1906" d="M105 0v1119h394v-355h322v355h393v-355h180q103 0 188 -23.5t149 -69t99 -118.5t35 -168q0 -183 -122 -284t-332 -101h-590v468h-322v-468h-394zM1214 282h122q74 0 113 26t39 85q0 106 -152 106h-122v-217z" />
<glyph unicode="&#x45b;" horiz-adv-x="1310" d="M-25 1119v265h130v126h394v-126h324v-265h-324v-256q139 177 334 177q179 0 280 -109.5t101 -301.5v-629h-393v503q0 90 -43 139t-114 49q-74 0 -119.5 -49.5t-45.5 -138.5v-503h-394v1119h-130z" />
<glyph unicode="&#x45c;" horiz-adv-x="1246" d="M105 0v1119h394v-416l304 416h444l-382 -459l392 -660h-432l-213 358l-113 -137v-221h-394zM436 1214l215 383l367 -118l-304 -265h-278z" />
<glyph unicode="&#x45e;" horiz-adv-x="1294" d="M23 1119h411l224 -675l211 675h404l-410 -1092q-50 -134 -105 -211.5t-132.5 -115t-189.5 -37.5q-186 0 -359 97l122 275q46 -28 92.5 -44t79.5 -16q30 0 51 10t40 35zM316 1518l205 37q10 -28 22 -49t28.5 -37.5t38 -25t48.5 -8.5q51 0 83.5 31t52.5 89l205 -37 q-22 -147 -112 -227.5t-229.5 -80.5t-229.5 80.5t-112 227.5z" />
<glyph unicode="&#x45f;" horiz-adv-x="1302" d="M105 0v1119h394v-803h306v803h393v-1119h-363v-227h-371v227h-359z" />
<glyph unicode="&#x490;" horiz-adv-x="1212" d="M128 0v1448h658v289h339l46 -641h-642v-1096h-401z" />
<glyph unicode="&#x491;" horiz-adv-x="969" d="M105 0v1119h472v227h335l37 -543h-450v-803h-394z" />
<glyph unicode="&#x2000;" horiz-adv-x="964" />
<glyph unicode="&#x2001;" horiz-adv-x="1928" />
<glyph unicode="&#x2002;" horiz-adv-x="964" />
<glyph unicode="&#x2003;" horiz-adv-x="1928" />
<glyph unicode="&#x2004;" horiz-adv-x="642" />
<glyph unicode="&#x2005;" horiz-adv-x="482" />
<glyph unicode="&#x2006;" horiz-adv-x="321" />
<glyph unicode="&#x2007;" horiz-adv-x="321" />
<glyph unicode="&#x2008;" horiz-adv-x="241" />
<glyph unicode="&#x2009;" horiz-adv-x="385" />
<glyph unicode="&#x200a;" horiz-adv-x="107" />
<glyph unicode="&#x2010;" horiz-adv-x="843" d="M83 474v345h679v-345h-679z" />
<glyph unicode="&#x2011;" horiz-adv-x="843" d="M83 474v345h679v-345h-679z" />
<glyph unicode="&#x2012;" horiz-adv-x="843" d="M83 474v345h679v-345h-679z" />
<glyph unicode="&#x2013;" horiz-adv-x="1091" d="M83 478v337h926v-337h-926z" />
<glyph unicode="&#x2014;" horiz-adv-x="1857" d="M83 478v337h1692v-337h-1692z" />
<glyph unicode="&#x2018;" horiz-adv-x="586" d="M83 709v329q0 113 29 193.5t86.5 129t133 71.5t175.5 26l33 -151q-100 -12 -153.5 -58.5t-53.5 -123.5v-12h157v-404h-407z" />
<glyph unicode="&#x2019;" horiz-adv-x="586" d="M47 850q100 11 154 58t54 124v12h-158v404h408v-329q0 -90 -19.5 -160t-55 -117.5t-89 -79t-117 -46.5t-143.5 -17z" />
<glyph unicode="&#x201a;" horiz-adv-x="586" d="M41 -195q101 12 154 60t53 127v8h-159v403h410v-328q0 -113 -29.5 -193.5t-87 -129t-133.5 -71.5t-176 -26z" />
<glyph unicode="&#x201c;" horiz-adv-x="1131" d="M83 709v329q0 111 28.5 191t84.5 129t131.5 73t175.5 27l30 -151q-200 -24 -200 -180v-14h153v-404h-403zM631 709v329q0 111 29 191t85 129t131 73t174 27l34 -151q-203 -24 -203 -184v-10h153v-404h-403z" />
<glyph unicode="&#x201d;" horiz-adv-x="1131" d="M47 850q101 11 152 58t51 126v10h-153v404h404v-329q0 -111 -29 -191.5t-85 -129t-131 -72.5t-175 -27zM598 850q100 11 151.5 58t51.5 126v10h-156v404h403v-329q0 -111 -28.5 -191.5t-84 -129t-130.5 -72.5t-174 -27z" />
<glyph unicode="&#x201e;" horiz-adv-x="1129" d="M41 -195q100 12 150.5 58t50.5 123v14h-153v403h403v-328q0 -111 -28.5 -191.5t-84.5 -129.5t-131 -72.5t-175 -26.5zM592 -195q200 24 200 181v14h-153v403h403v-328q0 -90 -19 -159.5t-54 -117t-87.5 -79.5t-116 -47t-143.5 -17z" />
<glyph unicode="&#x2020;" horiz-adv-x="847" d="M83 993v215l256 -27l-31 267h232l-31 -267l257 27v-215l-259 27l20 -558h-207l21 558z" />
<glyph unicode="&#x2021;" horiz-adv-x="888" d="M103 240v216l261 -28l-27 296l27 296l-261 -27v215l257 -27l-31 267h232l-32 -267l257 27v-215l-261 27l27 -296l-27 -296l261 28v-216l-257 27l32 -267h-232l31 267z" />
<glyph unicode="&#x2022;" d="M168 730q0 95 47 175t127.5 126.5t174.5 46.5q71 0 135.5 -27.5t111.5 -74.5t75 -112t28 -138q0 -70 -28 -134.5t-75 -111t-111.5 -74t-135.5 -27.5q-95 0 -175 46.5t-127 127.5t-47 177z" />
<glyph unicode="&#x2026;" horiz-adv-x="1737" d="M89 0v397h401v-397h-401zM669 0v397h401v-397h-401zM1247 0v397h401v-397h-401z" />
<glyph unicode="&#x202f;" horiz-adv-x="385" />
<glyph unicode="&#x2030;" horiz-adv-x="2678" d="M73 1080q0 79 26.5 150t74.5 124t118.5 84t153.5 31q110 0 196 -53t131.5 -142t45.5 -196t-46.5 -195.5t-133 -141t-195.5 -52.5t-194.5 52.5t-131 141t-45.5 197.5zM231 0l1117 1448h280l-1117 -1448h-280zM325 1078q0 -70 35 -116t86 -46q27 0 49 12.5t38 34t25 52 t9 65.5q0 33 -9.5 63t-25.5 51.5t-39 34t-49 12.5q-35 0 -62.5 -21t-42 -58t-14.5 -84zM1040 371q0 106 45.5 194.5t132 141.5t197.5 53q110 0 195.5 -52.5t131 -141.5t45.5 -197q0 -106 -46.5 -194.5t-132.5 -141.5t-195 -53t-195 53t-132 141.5t-46 196.5zM1293 369 q0 -69 35 -115.5t87 -46.5q53 0 86.5 46t33.5 118q0 69 -34.5 114.5t-87.5 45.5q-56 0 -88 -44.5t-32 -117.5zM1859 371q0 106 46 194.5t132 141.5t197 53q110 0 195.5 -52.5t131 -141.5t45.5 -197q0 -79 -27.5 -150t-75.5 -124t-118.5 -84t-152.5 -31q-109 0 -195 53 t-132 141.5t-46 196.5zM2112 369q0 -69 35.5 -115.5t86.5 -46.5q35 0 62.5 21t42.5 58.5t15 84.5q0 46 -15.5 82.5t-43.5 57t-63 20.5q-55 0 -87.5 -44.5t-32.5 -117.5z" />
<glyph unicode="&#x2039;" horiz-adv-x="738" d="M62 505v99l331 442l284 -138l-270 -354l270 -351l-284 -141z" />
<glyph unicode="&#x203a;" horiz-adv-x="738" d="M62 201l269 353l-269 352l283 140l332 -442v-99l-332 -443z" />
<glyph unicode="&#x2044;" horiz-adv-x="1036" d="M-152 -203l965 1771h326l-961 -1771h-330z" />
<glyph unicode="&#x205f;" horiz-adv-x="482" />
<glyph unicode="&#x20ac;" horiz-adv-x="1409" d="M77 462v215h140q-2 14 -2 47q0 38 2 56h-140v215h173q22 82 61 154t95 132.5t125.5 103.5t156.5 67.5t185 24.5q314 0 497 -234l-255 -238q-100 128 -240 128q-51 0 -94.5 -17t-76.5 -49.5t-55 -77.5h324v-209h-369q-2 -16 -2 -56q0 -31 2 -47h369v-209h-328 q74 -154 238 -154q74 0 131 34.5t113 101.5l249 -233q-190 -246 -505 -246q-124 0 -229.5 35.5t-183.5 101t-132.5 155t-81.5 199.5h-167z" />
<glyph unicode="&#x2122;" horiz-adv-x="1437" d="M33 1293v155h559v-155h-191v-482h-178v482h-190zM691 811v637h188l151 -246l153 246h187v-637h-176v372l-162 -252h-6l-161 252v-372h-174z" />
<glyph unicode="&#x2202;" d="M0 0v1448h1034v-1448h-1034zM101 199l355 525l-355 525v-1050zM168 101h701l-352 528zM168 1344l349 -527l352 527h-701zM577 724l354 -525v1050z" />
<glyph unicode="&#x2206;" horiz-adv-x="1571" d="M12 0l588 1448h373l586 -1448h-1547zM588 351h405l-203 606z" />
<glyph unicode="&#x220f;" d="M0 0v1448h1034v-1448h-1034zM101 199l355 525l-355 525v-1050zM168 101h701l-352 528zM168 1344l349 -527l352 527h-701zM577 724l354 -525v1050z" />
<glyph unicode="&#x2211;" d="M0 0v1448h1034v-1448h-1034zM101 199l355 525l-355 525v-1050zM168 101h701l-352 528zM168 1344l349 -527l352 527h-701zM577 724l354 -525v1050z" />
<glyph unicode="&#x221a;" horiz-adv-x="1232" d="M-6 462v243h362l198 -383l555 1328h277l-802 -1915l-371 727h-219z" />
<glyph unicode="&#x221e;" horiz-adv-x="1838" d="M93 736q0 129 48.5 228.5t145 157t226.5 57.5q57 0 107 -14t88.5 -35t77.5 -57.5t67.5 -70.5t64.5 -84q44 63 81.5 105.5t86.5 80.5t108.5 56.5t131.5 18.5q98 0 178 -33t132.5 -92t81 -140.5t28.5 -177.5t-28 -179.5t-80.5 -145.5t-132.5 -97t-179 -35q-65 0 -124 18.5 t-109.5 53t-91.5 76t-83 96.5q-41 -56 -79.5 -96.5t-87 -76t-106 -53.5t-122.5 -18q-131 0 -229.5 60t-149.5 163.5t-51 233.5zM366 728q0 -71 40.5 -117t110.5 -46q125 0 238 161q-29 42 -63.5 77.5t-83.5 64t-93 28.5q-67 0 -108 -49t-41 -119zM1082 726 q114 -161 240 -161q72 0 111.5 46.5t39.5 118.5q0 47 -19.5 84.5t-55.5 59.5t-82 22q-114 0 -234 -170z" />
<glyph unicode="&#x222b;" d="M0 0v1448h1034v-1448h-1034zM101 199l355 525l-355 525v-1050zM168 101h701l-352 528zM168 1344l349 -527l352 527h-701zM577 724l354 -525v1050z" />
<glyph unicode="&#x2248;" horiz-adv-x="1323" d="M75 306q5 45 17.5 90.5t32 89.5t47 82.5t61 67.5t75.5 46t89 17q54 0 128 -19t135 -42t126.5 -42t103.5 -19q50 0 86 31t52 79l205 -52q-8 -55 -23.5 -108.5t-43 -106t-63 -92t-85.5 -64t-108 -24.5q-62 0 -167.5 31t-200.5 62t-132 31q-29 0 -56.5 -16.5t-46.5 -41.5 t-28 -54zM75 825q6 54 22.5 108.5t44.5 106t64 91t85.5 63.5t105.5 24q54 0 128 -19t135 -42t126.5 -42t103.5 -19q50 0 86 31t52 79l205 -52q-8 -55 -23.5 -108.5t-43 -106t-63 -92t-85.5 -63.5t-108 -24q-62 0 -167.5 30.5t-200.5 61.5t-132 31q-44 0 -80.5 -33.5 t-50.5 -77.5z" />
<glyph unicode="&#x2260;" horiz-adv-x="1321" d="M154 277v345h284l104 211h-388v346h558l149 300l283 -141l-78 -159h103v-346h-273l-104 -211h377v-345h-547l-146 -300l-286 141l79 159h-115z" />
<glyph unicode="&#x2264;" horiz-adv-x="1323" d="M158 -33v325h1015v-325h-1015zM160 689v365l1011 349v-367l-677 -163l677 -164v-368z" />
<glyph unicode="&#x2265;" horiz-adv-x="1323" d="M160 -33v325h1015v-325h-1015zM162 341v368l675 164l-675 163v367l1011 -349v-365z" />
<glyph unicode="&#x25ca;" horiz-adv-x="1323" d="M112 736l405 809h290l405 -809l-405 -809h-294zM444 736l218 -477l215 477l-215 478z" />
<glyph unicode="&#x25fc;" horiz-adv-x="1116" d="M0 0v1117h1117v-1117h-1117z" />
<glyph unicode="&#xf8ff;" d="M0 0v1448h1034v-1448h-1034zM101 199l355 525l-355 525v-1050zM168 101h701l-352 528zM168 1344l349 -527l352 527h-701zM577 724l354 -525v1050z" />
</font>
</defs>
</svg>
