<?xml version="1.0" standalone="no"?>
<!DOCTYPE svg PUBLIC "-//W3C//DTD SVG 1.1//EN" "http://www.w3.org/Graphics/SVG/1.1/DTD/svg11.dtd" >
<svg xmlns="http://www.w3.org/2000/svg">
<metadata></metadata>
<defs>
<font id="gotham_prolight" horiz-adv-x="1095" >
<font-face units-per-em="2048" ascent="1638" descent="-410" />
<missing-glyph horiz-adv-x="656" />
<glyph unicode="&#xfb01;" horiz-adv-x="1338" d="M107 1019v98h163v110q0 193 98 291q88 88 234 88q92 0 167 -26v-101q-94 29 -167 29q-57 0 -99.5 -17.5t-70.5 -52.5t-41.5 -88t-13.5 -125v-108h390v-98h-390v-1019h-107v1019h-163zM999 1409v147h134v-147h-134zM1012 0v1117h108v-1117h-108z" />
<glyph unicode="&#xfb02;" horiz-adv-x="1338" d="M107 1019v98h163v110q0 193 98 291q88 88 234 88q92 0 167 -26v-101q-94 29 -167 29q-57 0 -99.5 -17.5t-70.5 -52.5t-41.5 -88t-13.5 -125v-108h390v-98h-390v-1019h-107v1019h-163zM1012 0v1600h108v-1600h-108z" />
<glyph horiz-adv-x="0" />
<glyph horiz-adv-x="682" />
<glyph unicode=" "  horiz-adv-x="656" />
<glyph unicode="&#x09;" horiz-adv-x="656" />
<glyph unicode="&#xa0;" horiz-adv-x="656" />
<glyph unicode="!" horiz-adv-x="552" d="M203 0v186h146v-186h-146zM213 1380v154h126v-154l-32 -979h-62z" />
<glyph unicode="&#x22;" horiz-adv-x="897" d="M149 977l77 557h142v-11l-155 -546h-64zM544 977l77 557h142v-11l-156 -546h-63z" />
<glyph unicode="#" horiz-adv-x="1533" d="M107 410v103h284l89 517h-285v103h303l67 401h106l-69 -401h454l69 401h104l-68 -401h263v-103h-280l-90 -517h282v-103h-299l-71 -410h-105l70 410h-454l-69 -410h-105l69 410h-265zM495 513h454l90 517h-454z" />
<glyph unicode="$" horiz-adv-x="1384" d="M132 236l71 86q107 -100 215 -154t237 -65v622q-247 55 -356 152t-109 263q0 108 59 197t164.5 141.5t237.5 55.5v127h105v-131q122 -9 221.5 -53t201.5 -127l-73 -85q-161 143 -355 166v-616q249 -53 361.5 -150.5t112.5 -261.5q0 -113 -59.5 -203t-166 -142.5 t-243.5 -57.5v-215h-105v217q-148 13 -274 70.5t-245 163.5zM303 1144q0 -57 15 -99t53.5 -81t108.5 -70t175 -57v598q-104 -2 -185 -41t-124 -104.5t-43 -145.5zM751 98q163 5 262.5 89t99.5 212q0 59 -16 102t-56.5 81t-111.5 67.5t-178 53.5v-605z" />
<glyph unicode="%" horiz-adv-x="1805" d="M121 1159q0 103 41.5 192.5t120.5 145t177 55.5t175.5 -55.5t118.5 -144.5t41 -193t-41.5 -193t-120.5 -144t-177 -55t-175.5 54.5t-118.5 143.5t-41 194zM234 1159q0 -128 66 -213t160 -85q97 0 159.5 85t62.5 213q0 127 -66.5 212.5t-159.5 85.5q-64 0 -115 -40 t-79 -108t-28 -150zM280 0l1127 1534h118l-1126 -1534h-119zM1010 374q0 78 25 149t68.5 125t108 86.5t138.5 32.5q98 0 175.5 -55t118.5 -144.5t41 -193t-42 -192.5t-120.5 -144t-177.5 -55q-98 0 -175.5 54.5t-118.5 143.5t-41 193zM1125 374q0 -128 66 -212.5t159 -84.5 q97 0 159 85t62 212t-66.5 213t-159.5 86q-96 0 -158 -86.5t-62 -212.5z" />
<glyph unicode="&#x26;" horiz-adv-x="1524" d="M107 408q0 152 103 265.5t294 183.5q-61 68 -97 121.5t-55 111t-19 122.5q0 149 108.5 248.5t275.5 99.5q98 0 179 -44.5t127 -122t46 -170.5q0 -266 -377 -397l404 -414q103 145 199 372l103 -41q-116 -259 -227 -408l282 -291l-90 -75l-265 274q-226 -264 -519 -264 q-134 0 -241.5 53.5t-169 152t-61.5 223.5zM221 408q0 -141 101.5 -236t258.5 -95q238 0 444 241l-453 468q-176 -60 -263.5 -159.5t-87.5 -218.5zM447 1212q0 -49 16.5 -93.5t54.5 -96.5t107 -125q331 106 331 326q0 102 -70 171.5t-173 69.5q-116 0 -191 -72t-75 -180z " />
<glyph unicode="'" horiz-adv-x="503" d="M149 977l77 557h142v-11l-155 -546h-64z" />
<glyph unicode="(" horiz-adv-x="941" d="M155 629q0 294 157.5 532.5t450.5 404.5l46 -71q-539 -331 -539 -865.5t539 -865.5l-46 -73q-293 167 -450.5 405.5t-157.5 532.5z" />
<glyph unicode=")" horiz-adv-x="941" d="M134 -236q539 331 539 865.5t-539 865.5l46 71q293 -166 449.5 -404.5t156.5 -532.5t-156.5 -532.5t-449.5 -405.5z" />
<glyph unicode="*" horiz-adv-x="941" d="M165 1091l258 123l-258 122l48 82l232 -158l-20 279h92l-19 -279l232 158l48 -82l-259 -122l259 -123l-48 -81l-232 158l19 -279h-92l20 279l-232 -158z" />
<glyph unicode="+" horiz-adv-x="1401" d="M171 719v105h475v471h110v-471h476v-105h-476v-472h-110v472h-475z" />
<glyph unicode="," horiz-adv-x="503" d="M117 -180q66 33 94 69.5t28 91.5v19h-59v186h144v-161q0 -103 -41.5 -162.5t-140.5 -96.5z" />
<glyph unicode="-" horiz-adv-x="893" d="M153 590v123h587v-123h-587z" />
<glyph unicode="." horiz-adv-x="503" d="M180 0v186h144v-186h-144z" />
<glyph unicode="/" d="M-40 -280l1035 2028h107l-1035 -2028h-107z" />
<glyph unicode="0" horiz-adv-x="1555" d="M142 767q0 90 15 177t43.5 165.5t69.5 147.5t95 124.5t117.5 95.5t139.5 61.5t158 21.5q115 0 215.5 -41t176.5 -115t130.5 -173t82.5 -217.5t28 -246.5q0 -126 -28 -244.5t-83.5 -217.5t-132 -173.5t-178 -116.5t-215.5 -42q-83 0 -158.5 21.5t-138.5 61.5t-116.5 95.5 t-94 124t-69 147.5t-43 166t-14.5 178zM261 767q0 -106 23 -207.5t68.5 -188.5t107.5 -153t144.5 -103.5t175.5 -37.5t175.5 37t143.5 102.5t105.5 152.5t67.5 188.5t23 209.5q0 107 -23.5 209t-68.5 189t-107 152.5t-144.5 102.5t-175.5 37t-175.5 -36.5t-143.5 -102 t-106 -152t-67.5 -188.5t-22.5 -211z" />
<glyph unicode="1" horiz-adv-x="734" d="M65 1416l351 129h88v-1545h-111v1426l-297 -100z" />
<glyph unicode="2" horiz-adv-x="1292" d="M105 0v86l572 516q190 174 264.5 288.5t74.5 236.5q0 96 -48 172t-126.5 116t-170.5 40q-95 0 -175 -34t-144 -94t-131 -156l-85 56q53 82 104.5 138.5t116.5 101.5t145.5 67t179.5 22q128 0 232.5 -55.5t163.5 -152.5t59 -217q0 -63 -14.5 -120t-41.5 -109.5t-76 -112 t-106.5 -118t-144.5 -136.5l-469 -426h867v-109h-1047z" />
<glyph unicode="3" horiz-adv-x="1336" d="M119 249l88 73q194 -245 477 -245q105 0 191 43t137 122t51 179q0 105 -62.5 181t-169 114t-246.5 38h-83l-29 63l529 609h-805v108h960v-81l-519 -594q81 -5 155.5 -22.5t146.5 -52t124.5 -82.5t84.5 -120.5t32 -160.5q0 -98 -40.5 -182.5t-109.5 -142t-159.5 -90.5 t-189.5 -33q-180 0 -322 74t-241 202z" />
<glyph unicode="4" horiz-adv-x="1454" d="M105 460l877 1085h103v-1072h249v-99h-249v-374h-110v374h-831zM243 473h732v907z" />
<glyph unicode="5" horiz-adv-x="1325" d="M125 221l82 82q107 -107 224 -166.5t236 -59.5t213.5 51.5t146.5 140.5t52 198q0 159 -118.5 261t-303.5 102q-98 0 -180 -25t-166 -71l-87 57l44 743h861v-110h-761l-37 -573q54 26 101 43t109 28t130 11q147 0 266.5 -58t189 -165t69.5 -243q0 -143 -69 -256 t-191 -175.5t-275 -62.5q-148 0 -288 69t-248 179z" />
<glyph unicode="6" horiz-adv-x="1405" d="M140 730q0 138 28 263.5t82.5 228.5t129.5 179t174 117.5t211 41.5q85 0 163.5 -22.5t143 -60t135.5 -95.5l-72 -87q-61 54 -119 89t-123.5 54t-136.5 19q-112 0 -205.5 -55.5t-158.5 -154.5t-101 -240t-36 -308v-38q168 286 479 286q104 0 200 -35t168.5 -95.5 t116.5 -149t44 -190.5q0 -106 -42 -200t-113.5 -160.5t-171 -105t-211.5 -38.5q-115 0 -217 41.5t-173 112.5q-67 67 -108 142t-64 189t-23 272zM301 462q0 -65 21 -124t60 -106t92.5 -82t120 -54t139.5 -19q121 0 215 54t144.5 145t50.5 201q0 159 -117.5 264t-298.5 105 q-92 0 -173 -33t-136 -86.5t-86.5 -123t-31.5 -141.5z" />
<glyph unicode="7" horiz-adv-x="1286" d="M149 1424v110h1017v-83l-699 -1451h-126l698 1424h-890z" />
<glyph unicode="8" horiz-adv-x="1380" d="M121 414q0 130 94 229.5t245 149.5q-60 24 -109 56.5t-90 76.5t-64.5 102.5t-23.5 126.5q0 69 28.5 132.5t77.5 111.5t114 84t141.5 54.5t155.5 18.5q99 0 192.5 -30t165.5 -81.5t115.5 -128.5t43.5 -166q0 -44 -10.5 -85t-30.5 -75t-46 -63.5t-58.5 -54.5t-67.5 -44 t-74 -35q152 -50 246 -150t94 -233q0 -125 -75 -224t-205 -153t-290 -54t-289.5 54t-204.5 154t-75 227zM239 406q0 -66 31 -124.5t88 -103t143 -71t189 -26.5q69 0 131.5 12t111.5 34t88.5 52t66 66.5t40.5 78.5t14 86q0 93 -61 168.5t-164 117.5t-227 42t-227 -42 t-163.5 -118.5t-60.5 -171.5zM291 1150q0 -92 54.5 -164.5t145.5 -111.5t199 -39q81 0 154 23t127 64t86 101.5t32 131.5q0 85 -53 153.5t-144 106.5t-202 38t-202 -38t-144 -108t-53 -157z" />
<glyph unicode="9" horiz-adv-x="1405" d="M144 1045q0 106 40 200t109.5 163.5t171 110.5t219.5 41q80 0 153.5 -20t131.5 -54t105 -81q95 -95 144 -237.5t49 -365.5q0 -178 -47.5 -332.5t-130.5 -263t-199 -171t-248 -62.5q-91 0 -177 27t-150.5 66.5t-134.5 98.5l73 88q98 -90 193 -133t198 -43q148 0 264 93.5 t180 262t64 382.5v53q-34 -63 -78 -113.5t-102 -93t-134 -66t-163 -23.5q-114 0 -213 36.5t-168.5 99.5t-109.5 150.5t-40 186.5zM263 1045q0 -161 117.5 -266.5t298.5 -105.5q95 0 176.5 34t135.5 89.5t84.5 126t30.5 144.5q0 80 -32.5 152t-89 124.5t-138 83t-175.5 30.5 q-92 0 -170 -33.5t-129.5 -90.5t-80 -131.5t-28.5 -156.5z" />
<glyph unicode=":" horiz-adv-x="525" d="M190 0v186h145v-186h-145zM190 931v186h145v-186h-145z" />
<glyph unicode=";" horiz-adv-x="525" d="M127 -180q66 33 94 69.5t28 91.5v19h-59v186h145v-161q0 -103 -42 -162.5t-140 -96.5zM190 931v186h145v-186h-145z" />
<glyph unicode="&#x3c;" horiz-adv-x="1401" d="M160 728v87l1017 528v-118l-884 -451l884 -456v-119z" />
<glyph unicode="=" horiz-adv-x="1401" d="M203 469v112h995v-112h-995zM203 962v112h995v-112h-995z" />
<glyph unicode="&#x3e;" horiz-adv-x="1401" d="M226 199v119l883 451l-883 456v118l1016 -528v-87z" />
<glyph unicode="?" horiz-adv-x="1169" d="M75 1293q49 61 99.5 106.5t112.5 81.5t135.5 54.5t158.5 18.5q106 0 195.5 -34t150.5 -92.5t95 -137t34 -168.5q0 -79 -24 -147t-66 -118.5t-101 -88.5t-127.5 -60.5t-145.5 -32.5l-20 -274h-70l-29 355l12 11q216 5 336 99t120 256q0 54 -16.5 103.5t-48 91t-75 72 t-101.5 47.5t-123 17q-241 0 -424 -226zM464 0v186h145v-186h-145z" />
<glyph unicode="@" horiz-adv-x="2147" d="M117 600q0 129 34 252.5t95 229t149.5 194.5t193.5 151.5t230 97.5t257 35q100 0 195.5 -18.5t180.5 -52t162.5 -82t141 -108t115 -130t87 -147t54.5 -160.5t19 -170q0 -108 -23.5 -198.5t-63 -151t-91.5 -102.5t-107.5 -61t-112.5 -19q-114 0 -192 54.5t-107 149.5 q-36 -46 -72.5 -79.5t-82.5 -63t-101.5 -45.5t-117.5 -16q-106 0 -194.5 48.5t-141 138.5t-52.5 203q0 114 45.5 217t118 174t164 113t183.5 42q64 0 118 -16.5t93.5 -45.5t67 -61.5t47.5 -71.5l31 164l105 -13l-81 -462q-20 -116 -20 -159q0 -62 23.5 -105t67.5 -65 t106 -22q60 0 114.5 27t100.5 79.5t73.5 142.5t27.5 204q0 100 -30.5 199t-85.5 187t-135.5 164t-176.5 131t-212.5 86.5t-240.5 31.5t-240.5 -32.5t-213.5 -90t-178 -140t-136.5 -180t-86.5 -212.5t-31 -236t30.5 -235.5t86.5 -212t137 -178.5t180 -138t219.5 -89 t250.5 -32q159 0 287.5 36.5t259.5 112.5l34 -54q-272 -165 -581 -165q-138 0 -267 34.5t-236 96.5t-196 150.5t-150 193.5t-94.5 228t-33.5 252zM686 559q0 -92 37 -159.5t102.5 -102t151.5 -34.5q75 0 148 36t127 94.5t87 136t33 156.5q0 130 -82 217.5t-207 87.5 q-74 0 -146 -33.5t-127.5 -90.5t-89.5 -138t-34 -170z" />
<glyph unicode="A" horiz-adv-x="1730" d="M96 0l715 1545h109l715 -1545h-125l-195 429h-905l-195 -429h-119zM458 533h809l-404 887z" />
<glyph unicode="B" horiz-adv-x="1581" d="M228 0v1534h633q149 0 262 -46.5t174.5 -133.5t61.5 -202q0 -74 -22.5 -136.5t-62 -105.5t-82.5 -72t-94 -49q73 -20 132.5 -49t109 -72.5t77 -107t27.5 -142.5q0 -126 -68 -221.5t-192.5 -146t-288.5 -50.5h-667zM341 105h558q198 0 313.5 85t115.5 233 q0 142 -120.5 220t-346.5 78h-520v-616zM341 826h508q116 0 204 36t138.5 109t50.5 175q0 129 -101 205.5t-282 76.5h-518v-602z" />
<glyph unicode="C" horiz-adv-x="1616" d="M160 767q0 161 58 307t158.5 253t244 170t306.5 63q99 0 183.5 -18t156.5 -54.5t128 -77.5t121 -101l-74 -77q-53 52 -105.5 90.5t-116 70t-138 48t-158.5 16.5q-135 0 -255.5 -53t-206 -145t-135 -220t-49.5 -272q0 -143 50.5 -271t136.5 -219.5t206.5 -145.5t255.5 -54 q159 0 282 59t246 180l77 -75q-65 -64 -126.5 -110.5t-136 -83.5t-161 -55.5t-186.5 -18.5q-161 0 -303 62t-242.5 168t-158.5 252.5t-58 311.5z" />
<glyph unicode="D" horiz-adv-x="1713" d="M228 0v1534h510q178 0 330.5 -58.5t259 -160.5t166.5 -244t60 -304q0 -160 -60.5 -301.5t-166 -244t-258.5 -162t-331 -59.5h-510zM341 105h397q157 0 288.5 51.5t220.5 140.5t138.5 210.5t49.5 259.5q0 136 -49.5 257t-138 210.5t-220.5 141.5t-289 52h-397v-1323z" />
<glyph unicode="E" horiz-adv-x="1468" d="M228 0v1534h1091v-106h-978v-602h880v-105h-880v-616h989v-105h-1102z" />
<glyph unicode="F" horiz-adv-x="1437" d="M228 0v1534h1081v-106h-968v-628h868v-106h-868v-694h-113z" />
<glyph unicode="G" horiz-adv-x="1717" d="M160 767q0 124 34.5 241.5t101 217t157.5 174.5t211 117.5t254 42.5q122 0 223 -24.5t179 -67t159 -109.5l-74 -86q-49 43 -96.5 74t-107.5 57t-132.5 39.5t-156.5 13.5q-137 0 -256 -55t-201.5 -149t-129.5 -220.5t-47 -265.5q0 -148 45.5 -275t129 -219.5t207.5 -145 t275 -52.5q139 0 269.5 49.5t219.5 124.5v441h-512v105h622v-592q-113 -100 -270 -165t-333 -65q-142 0 -265.5 40.5t-215.5 113.5t-157.5 172t-99 218t-33.5 250z" />
<glyph unicode="H" horiz-adv-x="1664" d="M228 0v1534h113v-710h983v710h113v-1534h-113v719h-983v-719h-113z" />
<glyph unicode="I" horiz-adv-x="600" d="M243 0v1534h114v-1534h-114z" />
<glyph unicode="J" horiz-adv-x="1202" d="M81 265l94 59q74 -125 160.5 -184t216.5 -59q71 0 131.5 27t105.5 77.5t70.5 129t25.5 176.5v1043h114v-1034q0 -130 -37 -231.5t-103 -167.5q-122 -122 -313 -122q-305 0 -465 286z" />
<glyph unicode="K" horiz-adv-x="1566" d="M228 0v1534h113v-1008l978 1008h155l-669 -677l698 -857h-148l-632 776l-382 -385v-391h-113z" />
<glyph unicode="L" horiz-adv-x="1355" d="M228 0v1534h113v-1429h901v-105h-1014z" />
<glyph unicode="M" horiz-adv-x="1901" d="M228 0v1534h107l616 -907l615 907h109v-1534h-115v1332l-607 -883h-8l-608 883v-1332h-109z" />
<glyph unicode="N" horiz-adv-x="1730" d="M228 0v1534h107l1059 -1335v1335h109v-1534h-85l-1081 1363v-1363h-109z" />
<glyph unicode="O" horiz-adv-x="1861" d="M160 767q0 125 35.5 243t103.5 217t161 174t215 117t258 42q114 0 218 -29.5t188 -82t152.5 -126.5t114.5 -161.5t71 -188t25 -205.5q0 -125 -35 -243t-103.5 -217.5t-161.5 -174t-215 -117t-258 -42.5t-258 42t-214 116.5t-159.5 173.5t-102.5 217.5t-35 244.5zM278 767 q0 -140 49.5 -267t135.5 -220t208.5 -148t261.5 -55t261 54.5t207.5 147t134.5 219.5t49 269q0 141 -50 268t-136 220t-208.5 147.5t-261.5 54.5t-261 -54t-207 -147t-134 -220t-49 -269z" />
<glyph unicode="P" horiz-adv-x="1463" d="M228 0v1534h556q169 0 297.5 -55t201 -163t72.5 -256q0 -94 -31.5 -174t-87 -137t-131 -97.5t-164 -60t-185.5 -19.5h-415v-572h-113zM341 677h422q215 0 346 104t131 277q0 90 -33.5 160.5t-95 116.5t-146.5 69.5t-189 23.5h-435v-751z" />
<glyph unicode="Q" horiz-adv-x="1861" d="M160 767q0 125 35.5 243t103.5 217t161 174t215 117t258 42q114 0 218 -29.5t188 -82t152.5 -126.5t114.5 -161.5t71 -188t25 -205.5q0 -76 -13 -150t-38.5 -142.5t-63 -131.5t-86.5 -117l220 -184l-82 -88l-215 195q-208 -176 -495 -176q-136 0 -258 42t-214 116.5 t-159.5 173.5t-102.5 217.5t-35 244.5zM278 767q0 -140 49.5 -267t135.5 -220t208.5 -148t261.5 -55q236 0 408 144l-298 254l82 90l293 -266q80 93 123.5 213.5t43.5 254.5q0 141 -50 268t-136 220t-208.5 147.5t-261.5 54.5t-261 -54t-207 -147t-134 -220t-49 -269z" />
<glyph unicode="R" horiz-adv-x="1583" d="M228 0v1534h644q138 0 249.5 -40.5t182.5 -111.5q55 -55 85.5 -129.5t30.5 -158.5q0 -95 -33.5 -172t-94.5 -131t-142 -88.5t-180 -47.5l507 -655h-145l-489 636h-502v-636h-113zM341 738h518q129 0 229.5 41.5t159 122.5t58.5 192q0 155 -116.5 244.5t-323.5 89.5h-525 v-690z" />
<glyph unicode="S" horiz-adv-x="1401" d="M129 224l74 85q130 -119 258 -173.5t293 -54.5q114 0 202.5 40t137 110t48.5 160q0 64 -19 110t-67 86.5t-133 72t-215 57.5q-276 56 -397 157t-121 278q0 85 37.5 159.5t102.5 128t157 85t197 31.5q67 0 125.5 -7.5t110.5 -22t101.5 -37.5t94.5 -52t93 -67l-72 -90 q-105 91 -216 132t-242 41q-166 0 -270 -84t-104 -210q0 -52 11.5 -91t41 -75.5t79.5 -65.5t128 -55t186 -48q267 -55 386 -155.5t119 -271.5q0 -122 -65.5 -217.5t-181.5 -148t-262 -52.5q-181 0 -329 59.5t-289 185.5z" />
<glyph unicode="T" horiz-adv-x="1419" d="M119 1428v106h1183v-106h-535v-1428h-114v1428h-534z" />
<glyph unicode="U" horiz-adv-x="1664" d="M203 638v896h115v-886q0 -270 137.5 -419.5t381.5 -149.5q238 0 374.5 143t136.5 416v896h114v-883q0 -163 -46 -291.5t-129.5 -212.5t-198.5 -128t-256 -44q-138 0 -253 44t-199 126.5t-130.5 208.5t-46.5 284z" />
<glyph unicode="V" horiz-adv-x="1643" d="M96 1534h128l600 -1411l602 1411h121l-675 -1545h-101z" />
<glyph unicode="W" horiz-adv-x="2413" d="M109 1534h127l483 -1365l449 1370h88l449 -1370l482 1365h118l-557 -1545h-92l-449 1332l-448 -1332h-92z" />
<glyph unicode="X" horiz-adv-x="1581" d="M111 0l612 782l-589 752h136l523 -675l522 675h134l-588 -750l609 -784h-136l-545 708l-544 -708h-134z" />
<glyph unicode="Y" horiz-adv-x="1568" d="M71 1534h142l573 -824l577 824h136l-658 -925v-609h-113v607z" />
<glyph unicode="Z" horiz-adv-x="1507" d="M149 0v63l1049 1368h-1012v103h1175v-64l-1050 -1367h1050v-103h-1212z" />
<glyph unicode="[" horiz-adv-x="941" d="M215 -285v1819h598v-83h-497v-1652h497v-84h-598z" />
<glyph unicode="\" d="M-6 1748h107l1034 -2028h-107z" />
<glyph unicode="]" horiz-adv-x="941" d="M129 -201h498v1652h-498v83h599v-1819h-599v84z" />
<glyph unicode="^" d="M153 1081l347 460h96l347 -460h-117l-280 366l-281 -366h-112z" />
<glyph unicode="_" horiz-adv-x="1313" d="M-4 -255h1323v-96h-1323v96z" />
<glyph unicode="`" d="M345 1530l132 65l194 -291h-92z" />
<glyph unicode="a" horiz-adv-x="1257" d="M111 328q0 114 62.5 197t172 125t254.5 42q192 0 370 -48v48q0 167 -96.5 255t-271.5 88q-173 0 -349 -90l-40 94q102 47 195.5 71.5t200.5 24.5q230 0 353 -123q114 -114 114 -315v-697h-106v186q-30 -43 -69.5 -79t-91.5 -67t-120.5 -49t-144.5 -18q-64 0 -125.5 14 t-117 43.5t-98 70.5t-67.5 100t-25 127zM226 331q0 -79 45.5 -138t118.5 -88.5t160 -29.5q114 0 210 43t154.5 122t58.5 178v128q-193 50 -379 50q-117 0 -200.5 -33t-125.5 -92.5t-42 -139.5z" />
<glyph unicode="b" horiz-adv-x="1445" d="M203 0v1600h108v-732q182 276 460 276q82 0 160.5 -25t148 -75.5t122 -119.5t83 -163.5t30.5 -201.5q0 -77 -16 -147.5t-44.5 -128.5t-68.5 -107.5t-87.5 -86.5t-101 -63t-111 -39.5t-115.5 -13.5q-284 0 -460 268v-241h-108zM305 556q0 -104 38.5 -195t102 -152.5 t146 -96.5t169.5 -35q91 0 170.5 33t139 93t93.5 152t34 204q0 107 -35.5 198.5t-95 153t-139.5 96t-167 34.5t-169.5 -35.5t-146 -98t-102 -154t-38.5 -197.5z" />
<glyph unicode="c" horiz-adv-x="1250" d="M127 559q0 118 44.5 226t120 186.5t181.5 125.5t224 47q61 0 117.5 -11.5t101.5 -30t87 -46t74.5 -56.5t64.5 -65l-75 -76q-32 33 -60 57.5t-64.5 49.5t-73 41t-81.5 26t-94 10q-91 0 -174.5 -38.5t-144 -103t-96.5 -154.5t-36 -188q0 -57 12 -112t34.5 -102.5 t53.5 -89.5t71 -75t85.5 -56.5t97.5 -36t106 -12.5q200 0 371 190l78 -70q-93 -107 -201.5 -164.5t-253.5 -57.5q-119 0 -225 46.5t-181.5 125.5t-119.5 187t-44 227z" />
<glyph unicode="d" horiz-adv-x="1445" d="M132 559q0 106 30.5 200t83 163.5t121.5 120t148 76t160 25.5q285 0 460 -268v724h107v-1600h-107v249q-181 -276 -460 -276q-81 0 -160 25t-148 75.5t-121.5 119.5t-83 163.5t-30.5 202.5zM247 559q0 -108 35.5 -199t96 -152.5t140 -96t167.5 -34.5q87 0 169 35.5 t145.5 97.5t102.5 154t39 197q0 104 -39 195t-102.5 153t-145.5 97t-169 35q-91 0 -171 -33t-139.5 -93.5t-94 -152.5t-34.5 -203z" />
<glyph unicode="e" horiz-adv-x="1279" d="M127 561q0 120 40.5 227.5t110.5 185.5t169 124t210 46q115 0 212 -45t162.5 -123.5t102.5 -186t37 -230.5q0 -27 -3 -44h-927q4 -68 23.5 -129t50 -109t70.5 -86.5t87.5 -63.5t100 -38.5t106.5 -13.5q122 0 214.5 46t169.5 128l74 -65q-61 -66 -122.5 -110t-149 -72.5 t-190.5 -28.5q-109 0 -209 43t-175 118t-119.5 186.5t-44.5 240.5zM241 611h813q-5 69 -23 132t-51 118.5t-79 96t-109.5 64t-138.5 23.5q-109 0 -200 -56.5t-147 -156t-65 -221.5z" />
<glyph unicode="f" horiz-adv-x="792" d="M107 1019v98h163v110q0 193 98 291q88 88 234 88q92 0 167 -26v-101q-94 29 -167 29q-57 0 -99.5 -17.5t-70.5 -52.5t-41.5 -88t-13.5 -125v-108h390v-98h-390v-1019h-107v1019h-163z" />
<glyph unicode="g" horiz-adv-x="1445" d="M132 613q0 94 29.5 178.5t81.5 148t120 110t146.5 70.5t159.5 24t153.5 -20t130 -56t102 -78.5t80.5 -94.5v222h107v-944q0 -237 -142 -380q-48 -47 -111 -80.5t-137.5 -50.5t-157.5 -17q-281 0 -512 171l63 88q206 -159 452 -159q130 0 227.5 48t154 147.5t56.5 239.5 v161q-180 -258 -466 -258q-81 0 -159.5 24t-146.5 70t-120 109t-81.5 148t-29.5 179zM247 613q0 -92 35.5 -172.5t94.5 -136t138 -87t164 -31.5q88 0 171 31t148 86t104.5 136.5t39.5 175.5t-39.5 175.5t-104.5 135.5t-148 84.5t-171 30.5q-87 0 -165.5 -30t-138 -84 t-94 -135.5t-34.5 -178.5z" />
<glyph unicode="h" horiz-adv-x="1342" d="M203 0v1600h108v-690q134 234 404 234q138 0 240 -59.5t154 -163t52 -237.5v-684h-107v664q0 175 -94 278t-261 103q-109 0 -197.5 -50.5t-139.5 -142.5t-51 -206v-646h-108z" />
<glyph unicode="i" horiz-adv-x="544" d="M207 1409v147h132v-147h-132zM219 0v1117h107v-1117h-107z" />
<glyph unicode="j" horiz-adv-x="544" d="M-2 -255q40 -6 88 -6q61 0 97 40t36 116v1222h107v-1215q0 -129 -63.5 -194t-174.5 -65q-46 0 -90 8v94zM207 1409v147h132v-147h-132z" />
<glyph unicode="k" horiz-adv-x="1226" d="M203 0v1600h108v-1199l693 716h142l-489 -494l504 -623h-136l-442 546l-272 -274v-272h-108z" />
<glyph unicode="l" horiz-adv-x="544" d="M219 0v1600h107v-1600h-107z" />
<glyph unicode="m" horiz-adv-x="2083" d="M203 0v1117h108v-199q31 49 62.5 85.5t76 70.5t103.5 52t131 18q137 0 231.5 -67t144.5 -174q140 241 404 241q197 0 313 -127.5t116 -339.5v-677h-107v664q0 181 -87.5 281t-243.5 100q-71 0 -134.5 -27t-112.5 -76t-77.5 -125t-28.5 -166v-651h-107v671 q0 173 -88 273.5t-238 100.5q-74 0 -140 -31t-114 -84.5t-76 -128t-28 -157.5v-644h-108z" />
<glyph unicode="n" horiz-adv-x="1342" d="M203 0v1117h108v-207q134 234 404 234q138 0 240 -59.5t154 -163t52 -237.5v-684h-107v664q0 175 -94 278t-261 103q-109 0 -197.5 -50.5t-139.5 -142.5t-51 -206v-646h-108z" />
<glyph unicode="o" horiz-adv-x="1401" d="M127 559q0 77 20 151.5t55.5 139t88 119t115.5 93t139 60.5t158 22q121 0 228.5 -47t182.5 -126.5t118 -187t43 -224.5t-43.5 -224t-119 -187t-183.5 -127.5t-230 -47.5t-229 47t-181.5 126.5t-118 187t-43.5 225.5zM243 559q0 -100 35.5 -189.5t97 -154t147 -102.5 t180.5 -38q91 0 175 38t145.5 103t98.5 154.5t37 188.5t-36.5 189t-98.5 154.5t-147 102.5t-178 38t-177.5 -38.5t-145.5 -103t-97 -154.5t-36 -188z" />
<glyph unicode="p" horiz-adv-x="1445" d="M203 -351v1468h108v-249q182 276 460 276q82 0 160.5 -25t148 -75.5t122 -119.5t83 -163.5t30.5 -201.5q0 -77 -16 -147.5t-44.5 -128.5t-68.5 -107.5t-87.5 -86.5t-101 -63t-111 -39.5t-115.5 -13.5q-284 0 -460 268v-592h-108zM305 556q0 -104 38.5 -195t102 -152.5 t146 -96.5t169.5 -35q91 0 170.5 33t139 93t93.5 152t34 204q0 107 -35.5 198.5t-95 153t-139.5 96t-167 34.5t-169.5 -35.5t-146 -98t-102 -154t-38.5 -197.5z" />
<glyph unicode="q" horiz-adv-x="1445" d="M132 559q0 106 30.5 200t83 163.5t121.5 120t148 76t160 25.5q285 0 460 -268v241h107v-1468h-107v600q-181 -276 -460 -276q-81 0 -160 25t-148 75.5t-121.5 119.5t-83 163.5t-30.5 202.5zM247 559q0 -108 35.5 -199t96 -152.5t140 -96t167.5 -34.5q87 0 169 35.5 t145.5 97.5t102.5 154t39 197q0 104 -39 195t-102.5 153t-145.5 97t-169 35q-91 0 -171 -33t-139.5 -93.5t-94 -152.5t-34.5 -203z" />
<glyph unicode="r" horiz-adv-x="876" d="M203 0v1117h108v-317q68 154 201 248q124 87 273 87h22v-119h-12q-78 0 -149.5 -22.5t-132.5 -69t-106 -112.5t-70.5 -157t-25.5 -197v-458h-108z" />
<glyph unicode="s" horiz-adv-x="1088" d="M107 140l64 86q192 -147 401 -147q116 0 192.5 59t76.5 157q0 32 -10.5 59t-32.5 48t-46 37.5t-61.5 31.5t-68.5 25t-76 23q-2 1 -6 2q-52 15 -79 23t-74 25.5t-72.5 32t-59 38.5t-50.5 50t-29.5 62t-12.5 78q0 136 102.5 223t265.5 87q99 0 205.5 -33.5t190.5 -90.5 l-57 -89q-171 112 -344 112q-114 0 -184 -56t-70 -144q0 -26 9.5 -49t23 -40.5t40 -34t48 -27.5t59.5 -24.5t62.5 -21t68.5 -19.5q45 -13 77.5 -23.5t73.5 -26.5t70 -33t58.5 -41.5t47.5 -51.5t29.5 -63.5t11.5 -78.5q0 -97 -51.5 -172t-139 -114.5t-195.5 -39.5 q-121 0 -244.5 44t-213.5 117z" />
<glyph unicode="t" horiz-adv-x="876" d="M101 1019v98h162v357h107v-357h393v-98h-393v-720q0 -218 224 -218q78 0 165 40v-102q-82 -38 -182 -38q-67 0 -123 18t-99 54.5t-67.5 96t-24.5 137.5v732h-162z" />
<glyph unicode="u" horiz-adv-x="1342" d="M182 434v683h107v-663q0 -175 94 -278t261 -103q109 0 197.5 50.5t140 142t51.5 205.5v646h107v-1117h-107v209q-134 -236 -404 -236q-138 0 -240.5 60t-154.5 163.5t-52 237.5z" />
<glyph unicode="v" horiz-adv-x="1274" d="M90 1117h125l423 -996l427 996h121l-502 -1126h-92z" />
<glyph unicode="w" horiz-adv-x="1886" d="M107 1117h121l337 -981l338 986h86l337 -986l337 981h116l-409 -1126h-92l-333 958l-336 -958h-92z" />
<glyph unicode="x" horiz-adv-x="1248" d="M98 0l458 569l-439 548h132l378 -473l377 473h129l-441 -545l458 -572h-134l-393 498l-395 -498h-130z" />
<glyph unicode="y" horiz-adv-x="1288" d="M86 1117h125l464 -998l404 998h117l-483 -1157q-49 -116 -106 -186.5t-121 -100.5t-147 -30q-62 0 -112 11t-108 37l36 94q46 -23 88.5 -32.5t103.5 -9.5q88 0 151 59.5t125 203.5z" />
<glyph unicode="z" horiz-adv-x="1213" d="M127 0v61l806 960h-776v96h937v-61l-807 -960h807v-96h-967z" />
<glyph unicode="{" horiz-adv-x="1051" d="M129 587v84h57q76 0 128 19t81.5 56.5t41.5 86.5t12 116v173q0 52 5 93t18 82t35.5 72.5t57.5 62t83.5 54t114 44.5t149.5 36l15 -69q-64 -16 -112.5 -32t-87 -34t-65.5 -36t-46 -41.5t-30.5 -47t-18 -56.5t-9 -64.5t-2.5 -76.5v-164q0 -58 -10.5 -104t-29.5 -79.5 t-48 -59.5t-62.5 -43t-77.5 -30q59 -19 98.5 -42.5t70 -60t45 -89t14.5 -123.5v-165q0 -61 4.5 -100.5t18 -79t37.5 -65.5t66 -52.5t101 -47.5t144 -43l-15 -70q-84 16 -149.5 36.5t-114 44t-83.5 54t-57.5 62.5t-35.5 73t-18 82t-5 93v173q0 68 -12 116.5t-41.5 86.5 t-81.5 56.5t-128 18.5h-57z" />
<glyph unicode="|" horiz-adv-x="625" d="M265 -280v2028h97v-2028h-97z" />
<glyph unicode="}" horiz-adv-x="1051" d="M125 -239q64 17 112.5 32.5t87 33.5t65 36t46 41.5t31 46.5t18 56t8.5 65t2 77v165q0 71 16 125t47 90.5t71 60t94 39.5q-58 19 -97.5 42.5t-70.5 60t-45.5 89t-14.5 124.5v164q0 45 -2 76.5t-8.5 64.5t-18 56.5t-31 47t-46 41.5t-65 36t-87 34t-112.5 32l15 69 q97 -18 170.5 -42t124 -55.5t84 -66t51.5 -80.5t25 -92.5t7 -107.5v-173q0 -67 12.5 -116t41.5 -86.5t81.5 -56.5t128.5 -19h56v-84h-56q-44 0 -80 -6.5t-63 -18.5t-47.5 -30.5t-34.5 -41t-22.5 -51.5t-12.5 -60.5t-4 -69.5v-173q0 -52 -5 -93t-18 -82t-35 -73t-57 -62.5 t-83.5 -54t-114 -44t-149.5 -36.5z" />
<glyph unicode="~" horiz-adv-x="1007" d="M180 550q20 78 47 123t59 63t78 18q28 0 68.5 -14t75 -30.5t73 -31t63.5 -14.5q39 0 62 23.5t48 86.5l74 -20q-30 -114 -73 -159t-111 -45q-35 0 -89.5 22.5t-107 45t-83.5 22.5q-39 0 -61.5 -23t-47.5 -86z" />
<glyph unicode="&#xa1;" horiz-adv-x="552" d="M203 1348v186h146v-186h-146zM213 0v153l32 980h62l32 -980v-153h-126z" />
<glyph unicode="&#xa2;" horiz-adv-x="1272" d="M136 778q0 116 44.5 223.5t120 187t181.5 127t223 47.5h33l36 184h109l-40 -199q64 -16 122 -46.5t100 -64.5t87 -80l-76 -78q-40 42 -75.5 71.5t-84 56.5t-99.5 40l-181 -946q43 -8 77 -8q206 0 374 187l74 -66q-93 -106 -201.5 -163.5t-254.5 -57.5q-41 0 -84 6 l-42 -212h-110l48 239q-84 29 -155 84t-120.5 126.5t-77.5 159.5t-28 182zM253 778q0 -153 80 -275.5t211 -176.5l179 937h-20q-125 0 -228.5 -64.5t-162.5 -175.5t-59 -245z" />
<glyph unicode="&#xa3;" horiz-adv-x="1410" d="M153 0v55l188 43v571h-188v105h188v259q0 81 17 154.5t49 134t78 106.5q127 128 328 128q83 0 153 -17.5t125.5 -50.5t98.5 -72.5t83 -91.5l-87 -68q-30 37 -56.5 64t-61.5 53.5t-71.5 43t-84 26.5t-101.5 10q-154 0 -248 -94q-109 -109 -109 -324v-261h652v-105h-652 v-566h819v-103h-1120z" />
<glyph unicode="&#xa5;" horiz-adv-x="1502" d="M71 1534h138l545 -817l548 817h131l-590 -848h430v-99h-466v-215h466v-98h-466v-274h-110v274h-467v98h467v215h-467v99h427z" />
<glyph unicode="&#xa7;" horiz-adv-x="1384" d="M142 800q0 97 88 163t237 85q-58 25 -99.5 59t-65.5 79t-24 96q0 123 106 198.5t280 75.5q143 0 273 -56.5t224 -151.5l-82 -79q-80 82 -190 131t-236 49q-84 0 -142.5 -23.5t-85 -61.5t-26.5 -89q0 -72 90 -125t311 -107q244 -59 343 -129t99 -180q0 -96 -87.5 -162.5 t-236.5 -84.5q88 -39 138 -98.5t50 -135.5q0 -124 -105.5 -199t-279.5 -75q-142 0 -273 56t-224 151l83 79q80 -81 189.5 -130t235.5 -49q125 0 190 47.5t65 125.5q0 72 -90 125.5t-312 106.5q-164 40 -260 83.5t-139.5 97.5t-43.5 128zM257 805q0 -32 15.5 -58.5t53 -53.5 t106 -53t168.5 -50q136 -36 246 -36q83 0 148.5 25t100 64.5t34.5 86.5q0 25 -9.5 46.5t-33 44t-62.5 42.5t-99 41t-141 41q-134 34 -245 34q-124 0 -203 -51.5t-79 -122.5z" />
<glyph unicode="&#xa8;" d="M293 1304v175h152v-175h-152zM651 1304v175h151v-175h-151z" />
<glyph unicode="&#xa9;" horiz-adv-x="1817" d="M117 767q0 159 62 305.5t167.5 253.5t253.5 170.5t311.5 63.5t311 -63t252 -169.5t166 -253t61.5 -307.5q0 -159 -62 -305.5t-167.5 -253.5t-253.5 -171t-311.5 -64t-311 63t-252 170t-166 253.5t-61.5 307.5zM182 763q0 -149 55.5 -283t151.5 -231.5t231 -155.5t287 -58 q153 0 289.5 58.5t232.5 157.5t152 234.5t56 285.5q0 149 -55.5 283t-151.5 232t-231 155.5t-287 57.5q-123 0 -235.5 -37.5t-201.5 -105.5t-155.5 -158.5t-102 -202.5t-35.5 -232zM519 780q0 111 52.5 206t145.5 151.5t203 56.5q99 0 169.5 -34t139.5 -100l-66 -67 q-117 113 -245 113q-85 0 -154.5 -44t-109 -119t-39.5 -165q0 -66 24 -126t65 -104t97.5 -70t118.5 -26q76 0 133.5 27t119.5 86l61 -61q-72 -70 -144 -105t-172 -35q-83 0 -157.5 33t-127 88.5t-83.5 132.5t-31 162z" />
<glyph unicode="&#xaa;" horiz-adv-x="853" d="M136 642v88h552v-88h-552zM142 1102q0 96 75 150t197 54q86 0 182 -24v11q0 82 -48.5 125.5t-133.5 43.5q-49 0 -93 -13t-100 -40l-28 74q61 29 113 43.5t112 14.5q127 0 197 -71q62 -62 62 -175v-381h-81v90q-37 -49 -92.5 -76t-122.5 -27q-63 0 -116 21.5t-88 68.5 t-35 111zM230 1102q0 -38 21.5 -66.5t56.5 -42.5t77 -14q56 0 104 21t77.5 60t29.5 88v59q-83 25 -186 25q-31 0 -61 -7t-57.5 -21.5t-44.5 -41t-17 -60.5z" />
<glyph unicode="&#xab;" horiz-adv-x="1127" d="M111 550v17l351 458l82 -52l-301 -412l301 -417l-82 -52zM559 550v17l351 458l81 -52l-301 -412l301 -417l-81 -52z" />
<glyph unicode="&#xac;" horiz-adv-x="1401" d="M203 962v112h995v-507h-109v395h-886z" />
<glyph unicode="&#xad;" horiz-adv-x="893" d="M153 590v123h587v-123h-587z" />
<glyph unicode="&#xae;" horiz-adv-x="1817" d="M117 767q0 159 62 305.5t167.5 253.5t253.5 170.5t311.5 63.5t311 -63t252 -169.5t166 -253t61.5 -307.5q0 -159 -62 -305.5t-167.5 -253.5t-253.5 -171t-311.5 -64t-311 63t-252 170t-166 253.5t-61.5 307.5zM182 763q0 -149 55.5 -283t151.5 -231.5t231 -155.5t287 -58 q153 0 289.5 58.5t232.5 157.5t152 234.5t56 285.5q0 149 -55.5 283t-151.5 232t-231 155.5t-287 57.5q-123 0 -235.5 -37.5t-201.5 -105.5t-155.5 -158.5t-102 -202.5t-35.5 -232zM605 387v803h359q73 0 134.5 -21.5t99.5 -59.5q62 -63 62 -153q0 -94 -59 -152.5 t-160 -78.5l268 -338h-123l-259 323h-228v-323h-94zM699 797h250q94 0 153 41t59 118q0 43 -24 75.5t-69.5 50.5t-107.5 18h-261v-303z" />
<glyph unicode="&#xaf;" d="M219 1315v116h657v-116h-657z" />
<glyph unicode="&#xb0;" horiz-adv-x="985" d="M163 1227q0 84 46 158.5t122.5 118t162 43.5t161.5 -44t122.5 -119t46.5 -161q0 -50 -17.5 -98.5t-49 -88t-72.5 -70t-91 -47t-101 -16.5q-85 0 -161.5 44t-122.5 119.5t-46 160.5zM272 1223q0 -90 64 -157t157 -67q94 0 158 68t64 160q0 90 -64 157t-158 67 q-62 0 -113 -31.5t-79.5 -84t-28.5 -112.5z" />
<glyph unicode="&#xb1;" horiz-adv-x="1401" d="M157 48v105h1090v-105h-1090zM157 644v105h487v388h117v-388h486v-105h-486v-389h-117v389h-487z" />
<glyph unicode="&#xb4;" d="M425 1304l193 291l133 -65l-234 -226h-92z" />
<glyph unicode="&#xb6;" horiz-adv-x="1051" d="M117 1074q0 141 72.5 246t200.5 159.5t294 54.5h162v-1534h-116v607h-13q-127 0 -236 31t-190.5 89t-127.5 147.5t-46 199.5z" />
<glyph unicode="&#xb7;" horiz-adv-x="503" d="M180 559v186h144v-186h-144z" />
<glyph unicode="&#xb8;" d="M355 -268l197 289h94l-171 -345z" />
<glyph unicode="&#xba;" horiz-adv-x="853" d="M111 642v88h632v-88h-632zM111 1223q0 86 40.5 160t114 118t163.5 44q67 0 125.5 -25.5t99.5 -69.5t65 -103t24 -124q0 -64 -24 -123t-66 -103t-101.5 -70t-126.5 -26q-89 0 -161.5 44t-112.5 117.5t-40 160.5zM207 1223q0 -99 63.5 -167.5t158.5 -68.5q48 0 89 18.5 t69.5 50t44.5 75t16 92.5q0 99 -64 167.5t-159 68.5q-96 0 -157 -68t-61 -168z" />
<glyph unicode="&#xbb;" horiz-adv-x="1127" d="M138 144l301 412l-301 417l81 52l350 -458v-17l-350 -458zM585 144l300 412l-300 417l82 52l349 -458v-17l-349 -458z" />
<glyph unicode="&#xbf;" horiz-adv-x="1169" d="M113 412q0 99 36.5 179.5t101.5 135t147.5 87.5t180.5 45l19 274h71l28 -355l-11 -11q-216 -5 -336 -99t-120 -256q0 -67 26 -127.5t72 -105.5t115 -71.5t151 -26.5q127 0 230 58t192 168l80 -66q-50 -62 -100.5 -107t-112 -81t-135.5 -54t-158 -18q-106 0 -196 34 t-151 92t-95.5 137t-34.5 168zM561 1348v186h144v-186h-144z" />
<glyph unicode="&#xc0;" horiz-adv-x="1730" d="M96 0l715 1545h109l715 -1545h-125l-195 429h-905l-195 -429h-119zM458 533h809l-404 887zM577 1902l133 66l193 -291h-92z" />
<glyph unicode="&#xc1;" horiz-adv-x="1730" d="M96 0l715 1545h109l715 -1545h-125l-195 429h-905l-195 -429h-119zM458 533h809l-404 887zM828 1677l193 291l134 -66l-235 -225h-92z" />
<glyph unicode="&#xc2;" horiz-adv-x="1730" d="M96 0l715 1545h109l715 -1545h-125l-195 429h-905l-195 -429h-119zM458 533h809l-404 887zM602 1665l220 267h88l219 -267h-104l-162 150l-162 -150h-99z" />
<glyph unicode="&#xc3;" horiz-adv-x="1730" d="M96 0l715 1545h109l715 -1545h-125l-195 429h-905l-195 -429h-119zM458 533h809l-404 887zM541 1677q31 114 73.5 158.5t110.5 44.5q28 0 68.5 -14t75 -31t73.5 -31t64 -14q39 0 61.5 23.5t47.5 86.5l75 -20q-16 -59 -34 -98.5t-41 -62.5t-49 -32.5t-60 -9.5 q-28 0 -68.5 14t-75 30.5t-73.5 31t-64 14.5q-38 0 -61.5 -23.5t-48.5 -87.5z" />
<glyph unicode="&#xc4;" horiz-adv-x="1730" d="M96 0l715 1545h109l715 -1545h-125l-195 429h-905l-195 -429h-119zM458 533h809l-404 887zM611 1677v175h152v-175h-152zM968 1677v175h152v-175h-152z" />
<glyph unicode="&#xc5;" horiz-adv-x="1730" d="M96 0l686 1483q-58 26 -94.5 78t-36.5 116q0 82 64.5 142.5t150.5 60.5q56 0 105.5 -27t79.5 -75.5t30 -105.5q0 -40 -17.5 -77.5t-47 -65t-67.5 -43.5l686 -1486h-125l-195 429h-905l-195 -429h-119zM458 533h809l-404 887zM730 1672q0 -54 40.5 -93.5t95.5 -39.5 q27 0 51.5 10.5t43 29t30 44t11.5 54.5q0 54 -40 93.5t-96 39.5q-57 0 -96.5 -40t-39.5 -98z" />
<glyph unicode="&#xc6;" horiz-adv-x="2289" d="M44 0l929 1534h1168v-106h-945v-602h847v-105h-847v-616h956v-105h-1069v429h-658l-258 -429h-123zM487 533h596v898h-58z" />
<glyph unicode="&#xc7;" horiz-adv-x="1616" d="M160 767q0 161 58 307t158.5 253t244 170t306.5 63q99 0 184.5 -17t158 -52t131 -76t122.5 -100l-81 -83q-53 52 -105.5 90.5t-116 70t-138 48t-158.5 16.5q-135 0 -255.5 -53t-206 -145t-135 -220t-49.5 -272q0 -143 50.5 -271t136.5 -219.5t206.5 -145.5t255.5 -54 q159 0 282 59t246 180l77 -75q-49 -49 -95.5 -86.5t-102 -71.5t-113 -56.5t-126 -36.5t-144.5 -17l-146 -297l-121 56l167 243q-149 14 -277.5 81t-219 171.5t-142.5 244.5t-52 295z" />
<glyph unicode="&#xc8;" horiz-adv-x="1468" d="M228 0v1534h1091v-106h-978v-602h880v-105h-880v-616h989v-105h-1102zM531 1902l133 66l193 -291h-92z" />
<glyph unicode="&#xc9;" horiz-adv-x="1468" d="M228 0v1534h1091v-106h-978v-602h880v-105h-880v-616h989v-105h-1102zM677 1677l193 291l134 -66l-235 -225h-92z" />
<glyph unicode="&#xca;" horiz-adv-x="1468" d="M228 0v1534h1091v-106h-978v-602h880v-105h-880v-616h989v-105h-1102zM502 1677l219 267h88l219 -267h-104l-161 148l-163 -148h-98z" />
<glyph unicode="&#xcb;" horiz-adv-x="1468" d="M228 0v1534h1091v-106h-978v-602h880v-105h-880v-616h989v-105h-1102zM510 1677v175h151v-175h-151zM868 1677v175h151v-175h-151z" />
<glyph unicode="&#xcc;" horiz-adv-x="600" d="M15 1902l134 66l192 -291h-92zM243 0v1534h114v-1534h-114z" />
<glyph unicode="&#xcd;" horiz-adv-x="600" d="M243 0v1534h114v-1534h-114zM259 1677l193 291l133 -66l-234 -225h-92z" />
<glyph unicode="&#xce;" horiz-adv-x="600" d="M40 1677l219 267h88l218 -267h-103l-161 148l-163 -148h-98zM243 0v1534h114v-1534h-114z" />
<glyph unicode="&#xcf;" horiz-adv-x="600" d="M48 1677v175h151v-175h-151zM243 0v1534h114v-1534h-114zM406 1677v175h150v-175h-150z" />
<glyph unicode="&#xd0;" horiz-adv-x="1778" d="M129 719v105h164v710h512q177 0 329.5 -58.5t258.5 -160.5t166 -244t60 -304q0 -160 -60 -301.5t-165.5 -244t-258.5 -162t-330 -59.5h-512v719h-164zM408 105h397q156 0 288 51.5t220.5 140.5t138 210.5t49.5 259.5q0 136 -49.5 257t-138 210.5t-220.5 141.5t-288 52 h-397v-604h508v-105h-508v-614z" />
<glyph unicode="&#xd1;" horiz-adv-x="1730" d="M228 0v1534h107l1059 -1335v1335h109v-1534h-85l-1081 1363v-1363h-109zM541 1677q31 114 73.5 158.5t110.5 44.5q28 0 68.5 -14t75 -31t73.5 -31t64 -14q39 0 61.5 23.5t47.5 86.5l75 -20q-16 -59 -34 -98.5t-41 -62.5t-49 -32.5t-60 -9.5q-28 0 -68.5 14t-75 30.5 t-73.5 31t-64 14.5q-38 0 -61.5 -23.5t-48.5 -87.5z" />
<glyph unicode="&#xd2;" horiz-adv-x="1861" d="M160 767q0 125 35.5 243t103.5 217t161 174t215 117t258 42q114 0 218 -29.5t188 -82t152.5 -126.5t114.5 -161.5t71 -188t25 -205.5q0 -125 -35 -243t-103.5 -217.5t-161.5 -174t-215 -117t-258 -42.5t-258 42t-214 116.5t-159.5 173.5t-102.5 217.5t-35 244.5zM278 767 q0 -140 49.5 -267t135.5 -220t208.5 -148t261.5 -55t261 54.5t207.5 147t134.5 219.5t49 269q0 141 -50 268t-136 220t-208.5 147.5t-261.5 54.5t-261 -54t-207 -147t-134 -220t-49 -269zM640 1902l134 66l192 -291h-92z" />
<glyph unicode="&#xd3;" horiz-adv-x="1861" d="M160 767q0 125 35.5 243t103.5 217t161 174t215 117t258 42q114 0 218 -29.5t188 -82t152.5 -126.5t114.5 -161.5t71 -188t25 -205.5q0 -125 -35 -243t-103.5 -217.5t-161.5 -174t-215 -117t-258 -42.5t-258 42t-214 116.5t-159.5 173.5t-102.5 217.5t-35 244.5zM278 767 q0 -140 49.5 -267t135.5 -220t208.5 -148t261.5 -55t261 54.5t207.5 147t134.5 219.5t49 269q0 141 -50 268t-136 220t-208.5 147.5t-261.5 54.5t-261 -54t-207 -147t-134 -220t-49 -269zM897 1677l192 291l134 -66l-234 -225h-92z" />
<glyph unicode="&#xd4;" horiz-adv-x="1861" d="M160 767q0 125 35.5 243t103.5 217t161 174t215 117t258 42q114 0 218 -29.5t188 -82t152.5 -126.5t114.5 -161.5t71 -188t25 -205.5q0 -125 -35 -243t-103.5 -217.5t-161.5 -174t-215 -117t-258 -42.5t-258 42t-214 116.5t-159.5 173.5t-102.5 217.5t-35 244.5zM278 767 q0 -140 49.5 -267t135.5 -220t208.5 -148t261.5 -55t261 54.5t207.5 147t134.5 219.5t49 269q0 141 -50 268t-136 220t-208.5 147.5t-261.5 54.5t-261 -54t-207 -147t-134 -220t-49 -269zM669 1677l218 267h88l219 -267h-103l-162 148l-162 -148h-98z" />
<glyph unicode="&#xd5;" horiz-adv-x="1861" d="M160 767q0 125 35.5 243t103.5 217t161 174t215 117t258 42q114 0 218 -29.5t188 -82t152.5 -126.5t114.5 -161.5t71 -188t25 -205.5q0 -125 -35 -243t-103.5 -217.5t-161.5 -174t-215 -117t-258 -42.5t-258 42t-214 116.5t-159.5 173.5t-102.5 217.5t-35 244.5zM278 767 q0 -140 49.5 -267t135.5 -220t208.5 -148t261.5 -55t261 54.5t207.5 147t134.5 219.5t49 269q0 141 -50 268t-136 220t-208.5 147.5t-261.5 54.5t-261 -54t-207 -147t-134 -220t-49 -269zM607 1677q30 114 72.5 158.5t111.5 44.5q35 0 89.5 -22.5t107 -45t83.5 -22.5 q27 0 45 10.5t33 33.5t32 66l75 -20q-20 -77 -47 -122.5t-59.5 -63t-78.5 -17.5q-28 0 -68.5 14t-75 30.5t-73 31t-63.5 14.5q-27 0 -45 -11t-32.5 -33.5t-31.5 -66.5z" />
<glyph unicode="&#xd6;" horiz-adv-x="1861" d="M160 767q0 125 35.5 243t103.5 217t161 174t215 117t258 42q114 0 218 -29.5t188 -82t152.5 -126.5t114.5 -161.5t71 -188t25 -205.5q0 -125 -35 -243t-103.5 -217.5t-161.5 -174t-215 -117t-258 -42.5t-258 42t-214 116.5t-159.5 173.5t-102.5 217.5t-35 244.5zM278 767 q0 -140 49.5 -267t135.5 -220t208.5 -148t261.5 -55t261 54.5t207.5 147t134.5 219.5t49 269q0 141 -50 268t-136 220t-208.5 147.5t-261.5 54.5t-261 -54t-207 -147t-134 -220t-49 -269zM677 1677v175h151v-175h-151zM1035 1677v175h151v-175h-151z" />
<glyph unicode="&#xd8;" horiz-adv-x="1861" d="M142 -11l220 232q-98 109 -150 249.5t-52 296.5q0 125 35.5 243t103.5 217t161 174t215 117t258 42q98 0 189 -22t168 -62t143 -98l156 167h132l-220 -232q98 -109 149.5 -249.5t51.5 -296.5q0 -125 -35 -243t-103.5 -217.5t-161.5 -174t-215 -117t-258 -42.5 q-146 0 -273 47t-227 133l-155 -164h-132zM278 767q0 -130 42.5 -248.5t120.5 -211.5l918 986q-85 78 -195.5 121t-234.5 43q-139 0 -261 -54t-207 -147t-134 -220t-49 -269zM504 241q85 -79 194.5 -121.5t234.5 -42.5q139 0 261 54.5t207.5 147t134.5 219.5t49 269 q0 130 -42.5 248.5t-120.5 211.5z" />
<glyph unicode="&#xd9;" horiz-adv-x="1664" d="M203 638v896h115v-886q0 -270 137.5 -419.5t381.5 -149.5q238 0 374.5 143t136.5 416v896h114v-883q0 -163 -46 -291.5t-129.5 -212.5t-198.5 -128t-256 -44q-138 0 -253 44t-199 126.5t-130.5 208.5t-46.5 284zM561 1891l133 66l193 -292h-92z" />
<glyph unicode="&#xda;" horiz-adv-x="1664" d="M203 638v896h115v-886q0 -270 137.5 -419.5t381.5 -149.5q238 0 374.5 143t136.5 416v896h114v-883q0 -163 -46 -291.5t-129.5 -212.5t-198.5 -128t-256 -44q-138 0 -253 44t-199 126.5t-130.5 208.5t-46.5 284zM778 1665l192 292l134 -66l-234 -226h-92z" />
<glyph unicode="&#xdb;" horiz-adv-x="1664" d="M203 638v896h115v-886q0 -270 137.5 -419.5t381.5 -149.5q238 0 374.5 143t136.5 416v896h114v-883q0 -163 -46 -291.5t-129.5 -212.5t-198.5 -128t-256 -44q-138 0 -253 44t-199 126.5t-130.5 208.5t-46.5 284zM569 1665l220 267h87l220 -267h-103l-163 150l-161 -150 h-100z" />
<glyph unicode="&#xdc;" horiz-adv-x="1664" d="M203 638v896h115v-886q0 -270 137.5 -419.5t381.5 -149.5q238 0 374.5 143t136.5 416v896h114v-883q0 -163 -46 -291.5t-129.5 -212.5t-198.5 -128t-256 -44q-138 0 -253 44t-199 126.5t-130.5 208.5t-46.5 284zM579 1665v175h151v-175h-151zM935 1665v175h152v-175h-152 z" />
<glyph unicode="&#xdd;" horiz-adv-x="1568" d="M71 1534h142l573 -824l577 824h136l-658 -925v-609h-113v607zM745 1665l193 292l133 -66l-234 -226h-92z" />
<glyph unicode="&#xde;" horiz-adv-x="1474" d="M228 0v1534h113v-278h443q169 0 297.5 -55t201 -163t72.5 -256q0 -94 -31.5 -174t-87 -138t-131 -98.5t-164 -60.5t-185.5 -20h-415v-291h-113zM341 397h422q214 0 345.5 105t131.5 278q0 90 -33.5 160.5t-95 116t-146.5 69.5t-189 24h-435v-753z" />
<glyph unicode="&#xdf;" horiz-adv-x="1357" d="M203 0v1096q0 113 34.5 209t96.5 164.5t152.5 107t199.5 38.5q97 0 179 -30t138 -81.5t87.5 -123t31.5 -153.5q0 -76 -29 -145t-79 -120.5t-109.5 -89t-126.5 -61.5q72 -12 134.5 -33t120 -54.5t98.5 -76.5t65.5 -103t24.5 -130q0 -196 -157.5 -307t-430.5 -111v94 q147 3 251 39.5t162 108.5t58 176q0 144 -123.5 227.5t-347.5 107.5v90q84 25 150 60t117 82t78.5 109.5t27.5 136.5q0 126 -91.5 206.5t-235.5 80.5q-106 0 -189 -50.5t-131 -146t-48 -221.5v-1096h-108z" />
<glyph unicode="&#xe0;" horiz-adv-x="1257" d="M111 328q0 114 62.5 197t172 125t254.5 42q192 0 370 -48v48q0 167 -96.5 255t-271.5 88q-173 0 -349 -90l-40 94q102 47 195.5 71.5t200.5 24.5q230 0 353 -123q114 -114 114 -315v-697h-106v186q-30 -43 -69.5 -79t-91.5 -67t-120.5 -49t-144.5 -18q-64 0 -125.5 14 t-117 43.5t-98 70.5t-67.5 100t-25 127zM226 331q0 -79 45.5 -138t118.5 -88.5t160 -29.5q114 0 210 43t154.5 122t58.5 178v128q-193 50 -379 50q-117 0 -200.5 -33t-125.5 -92.5t-42 -139.5zM345 1530l132 65l194 -291h-92z" />
<glyph unicode="&#xe1;" horiz-adv-x="1257" d="M111 328q0 114 62.5 197t172 125t254.5 42q192 0 370 -48v48q0 167 -96.5 255t-271.5 88q-173 0 -349 -90l-40 94q102 47 195.5 71.5t200.5 24.5q230 0 353 -123q114 -114 114 -315v-697h-106v186q-30 -43 -69.5 -79t-91.5 -67t-120.5 -49t-144.5 -18q-64 0 -125.5 14 t-117 43.5t-98 70.5t-67.5 100t-25 127zM226 331q0 -79 45.5 -138t118.5 -88.5t160 -29.5q114 0 210 43t154.5 122t58.5 178v128q-193 50 -379 50q-117 0 -200.5 -33t-125.5 -92.5t-42 -139.5zM561 1304l193 291l133 -65l-234 -226h-92z" />
<glyph unicode="&#xe2;" horiz-adv-x="1257" d="M111 328q0 114 62.5 197t172 125t254.5 42q192 0 370 -48v48q0 167 -96.5 255t-271.5 88q-173 0 -349 -90l-40 94q102 47 195.5 71.5t200.5 24.5q230 0 353 -123q114 -114 114 -315v-697h-106v186q-30 -43 -69.5 -79t-91.5 -67t-120.5 -49t-144.5 -18q-64 0 -125.5 14 t-117 43.5t-98 70.5t-67.5 100t-25 127zM226 331q0 -79 45.5 -138t118.5 -88.5t160 -29.5q114 0 210 43t154.5 122t58.5 178v128q-193 50 -379 50q-117 0 -200.5 -33t-125.5 -92.5t-42 -139.5zM372 1304l220 267h87l220 -267h-104l-162 149l-162 -149h-99z" />
<glyph unicode="&#xe3;" horiz-adv-x="1257" d="M111 328q0 114 62.5 197t172 125t254.5 42q192 0 370 -48v48q0 167 -96.5 255t-271.5 88q-173 0 -349 -90l-40 94q102 47 195.5 71.5t200.5 24.5q230 0 353 -123q114 -114 114 -315v-697h-106v186q-30 -43 -69.5 -79t-91.5 -67t-120.5 -49t-144.5 -18q-64 0 -125.5 14 t-117 43.5t-98 70.5t-67.5 100t-25 127zM226 331q0 -79 45.5 -138t118.5 -88.5t160 -29.5q114 0 210 43t154.5 122t58.5 178v128q-193 50 -379 50q-117 0 -200.5 -33t-125.5 -92.5t-42 -139.5zM311 1304q31 114 73.5 159t110.5 45q28 0 68.5 -14t75 -31t73.5 -31t64 -14 q26 0 44 10t33 33t32 66l75 -19q-30 -115 -73 -159.5t-111 -44.5q-28 0 -68.5 14t-75 31t-73.5 31t-64 14q-26 0 -44.5 -10.5t-33.5 -33.5t-32 -66z" />
<glyph unicode="&#xe4;" horiz-adv-x="1257" d="M111 328q0 114 62.5 197t172 125t254.5 42q192 0 370 -48v48q0 167 -96.5 255t-271.5 88q-173 0 -349 -90l-40 94q102 47 195.5 71.5t200.5 24.5q230 0 353 -123q114 -114 114 -315v-697h-106v186q-30 -43 -69.5 -79t-91.5 -67t-120.5 -49t-144.5 -18q-64 0 -125.5 14 t-117 43.5t-98 70.5t-67.5 100t-25 127zM226 331q0 -79 45.5 -138t118.5 -88.5t160 -29.5q114 0 210 43t154.5 122t58.5 178v128q-193 50 -379 50q-117 0 -200.5 -33t-125.5 -92.5t-42 -139.5zM381 1304v175h152v-175h-152zM738 1304v175h151v-175h-151z" />
<glyph unicode="&#xe5;" horiz-adv-x="1257" d="M111 328q0 114 62.5 197t172 125t254.5 42q192 0 370 -48v48q0 167 -96.5 255t-271.5 88q-173 0 -349 -90l-40 94q102 47 195.5 71.5t200.5 24.5q230 0 353 -123q114 -114 114 -315v-697h-106v186q-30 -43 -69.5 -79t-91.5 -67t-120.5 -49t-144.5 -18q-64 0 -125.5 14 t-117 43.5t-98 70.5t-67.5 100t-25 127zM226 331q0 -79 45.5 -138t118.5 -88.5t160 -29.5q114 0 210 43t154.5 122t58.5 178v128q-193 50 -379 50q-117 0 -200.5 -33t-125.5 -92.5t-42 -139.5zM421 1508q0 82 64.5 142.5t150.5 60.5t150.5 -60.5t64.5 -147.5 q0 -83 -65 -143.5t-150 -60.5q-87 0 -151 61t-64 148zM500 1503q0 -54 40.5 -93.5t95.5 -39.5t95 40t40 98q0 54 -39.5 93.5t-95.5 39.5q-37 0 -68.5 -18t-49.5 -50t-18 -70z" />
<glyph unicode="&#xe6;" horiz-adv-x="2089" d="M111 328q0 114 61.5 197t169 125t248.5 42q101 0 181 -12t170 -36v48q0 168 -92 255.5t-262 87.5q-63 0 -123 -12.5t-107.5 -30.5t-103.5 -47l-40 94q104 49 190.5 72.5t190.5 23.5q168 0 276.5 -71t145.5 -209q68 132 187.5 210.5t264.5 78.5q115 0 212 -45 t162.5 -123.5t102 -186t36.5 -230.5q0 -27 -3 -44h-926q5 -82 31.5 -152.5t68 -123t95.5 -90t116 -56t128 -18.5q121 0 213.5 46t169.5 128l74 -65q-61 -66 -122.5 -110t-148.5 -72.5t-191 -28.5q-137 0 -257 65.5t-194 180.5q-215 -246 -502 -246q-63 0 -123.5 14 t-114.5 43.5t-95 70.5t-65 100t-24 127zM226 331q0 -79 43 -138t113.5 -88.5t156.5 -29.5q136 0 248.5 63t199.5 171q-46 114 -49 239q-64 15 -105 23t-112.5 16.5t-137.5 8.5q-170 0 -263.5 -71.5t-93.5 -193.5zM1052 611h813q-5 69 -23 132t-51 118.5t-79 96t-109.5 64 t-138.5 23.5q-82 0 -155 -33t-127 -91t-88.5 -138t-41.5 -172z" />
<glyph unicode="&#xe7;" horiz-adv-x="1250" d="M127 559q0 115 44.5 222.5t120 187.5t181.5 127.5t224 47.5q76 0 142.5 -16t121.5 -46.5t97 -64t86 -79.5l-77 -79q-32 33 -60 57.5t-64.5 49.5t-73 41t-81.5 26t-94 10q-125 0 -228.5 -64t-163 -175.5t-59.5 -244.5q0 -57 12 -112t34.5 -102.5t53.5 -89.5t71 -75 t85.5 -56.5t97.5 -36t106 -12.5q208 0 376 186l73 -66q-34 -39 -68 -70t-75 -59t-84 -47t-94.5 -31t-107.5 -15l-146 -297l-121 56l167 247q-140 18 -254 100t-178 208.5t-64 271.5z" />
<glyph unicode="&#xe8;" horiz-adv-x="1279" d="M127 561q0 120 40.5 227.5t110.5 185.5t169 124t210 46q115 0 212 -45t162.5 -123.5t102.5 -186t37 -230.5q0 -27 -3 -44h-927q4 -68 23.5 -129t50 -109t70.5 -86.5t87.5 -63.5t100 -38.5t106.5 -13.5q122 0 214.5 46t169.5 128l74 -65q-61 -66 -122.5 -110t-149 -72.5 t-190.5 -28.5q-109 0 -209 43t-175 118t-119.5 186.5t-44.5 240.5zM241 611h813q-5 69 -23 132t-51 118.5t-79 96t-109.5 64t-138.5 23.5q-109 0 -200 -56.5t-147 -156t-65 -221.5zM393 1530l133 65l193 -291h-92z" />
<glyph unicode="&#xe9;" horiz-adv-x="1279" d="M127 561q0 120 40.5 227.5t110.5 185.5t169 124t210 46q115 0 212 -45t162.5 -123.5t102.5 -186t37 -230.5q0 -27 -3 -44h-927q4 -68 23.5 -129t50 -109t70.5 -86.5t87.5 -63.5t100 -38.5t106.5 -13.5q122 0 214.5 46t169.5 128l74 -65q-61 -66 -122.5 -110t-149 -72.5 t-190.5 -28.5q-109 0 -209 43t-175 118t-119.5 186.5t-44.5 240.5zM241 611h813q-5 69 -23 132t-51 118.5t-79 96t-109.5 64t-138.5 23.5q-109 0 -200 -56.5t-147 -156t-65 -221.5zM563 1304l193 291l133 -65l-234 -226h-92z" />
<glyph unicode="&#xea;" horiz-adv-x="1279" d="M127 561q0 120 40.5 227.5t110.5 185.5t169 124t210 46q115 0 212 -45t162.5 -123.5t102.5 -186t37 -230.5q0 -27 -3 -44h-927q4 -68 23.5 -129t50 -109t70.5 -86.5t87.5 -63.5t100 -38.5t106.5 -13.5q122 0 214.5 46t169.5 128l74 -65q-61 -66 -122.5 -110t-149 -72.5 t-190.5 -28.5q-109 0 -209 43t-175 118t-119.5 186.5t-44.5 240.5zM241 611h813q-5 69 -23 132t-51 118.5t-79 96t-109.5 64t-138.5 23.5q-109 0 -200 -56.5t-147 -156t-65 -221.5zM387 1304l220 267h87l220 -267h-103l-163 149l-161 -149h-100z" />
<glyph unicode="&#xeb;" horiz-adv-x="1279" d="M127 561q0 120 40.5 227.5t110.5 185.5t169 124t210 46q115 0 212 -45t162.5 -123.5t102.5 -186t37 -230.5q0 -27 -3 -44h-927q4 -68 23.5 -129t50 -109t70.5 -86.5t87.5 -63.5t100 -38.5t106.5 -13.5q122 0 214.5 46t169.5 128l74 -65q-61 -66 -122.5 -110t-149 -72.5 t-190.5 -28.5q-109 0 -209 43t-175 118t-119.5 186.5t-44.5 240.5zM241 611h813q-5 69 -23 132t-51 118.5t-79 96t-109.5 64t-138.5 23.5q-109 0 -200 -56.5t-147 -156t-65 -221.5zM397 1304v175h151v-175h-151zM754 1304v175h151v-175h-151z" />
<glyph unicode="&#xec;" horiz-adv-x="544" d="M-11 1530l134 65l193 -291h-92zM219 0v1117h107v-1117h-107z" />
<glyph unicode="&#xed;" horiz-adv-x="544" d="M219 0v1117h107v-1117h-107zM230 1304l193 291l133 -65l-234 -226h-92z" />
<glyph unicode="&#xee;" horiz-adv-x="544" d="M9 1304l219 267h88l219 -267h-104l-161 149l-163 -149h-98zM219 0v1117h107v-1117h-107z" />
<glyph unicode="&#xef;" horiz-adv-x="544" d="M17 1304v175h152v-175h-152zM219 0v1117h107v-1117h-107zM374 1304v175h152v-175h-152z" />
<glyph unicode="&#xf0;" horiz-adv-x="1376" d="M127 537q0 115 43.5 215t116 168t168 106.5t198.5 38.5q122 0 213 -36.5t175 -101.5l-322 455l-292 -148l-63 79l300 146l-99 141h138l60 -90l214 109l62 -78l-224 -110l239 -352q93 -139 141.5 -264t48.5 -274q0 -112 -40.5 -215t-113 -181.5t-180 -125t-233.5 -46.5 q-115 0 -218 45.5t-175.5 122t-114.5 180t-42 216.5zM243 526q0 -68 21 -134.5t61 -123.5t94 -100.5t123.5 -68t145.5 -24.5q96 0 179.5 37.5t140 100.5t89 147t32.5 175q0 87 -36 167t-97 138.5t-147 93t-182 34.5q-128 0 -225.5 -58.5t-148 -158.5t-50.5 -225z" />
<glyph unicode="&#xf1;" horiz-adv-x="1342" d="M203 0v1117h108v-207q134 234 404 234q138 0 240 -59.5t154 -163t52 -237.5v-684h-107v664q0 175 -94 278t-261 103q-109 0 -197.5 -50.5t-139.5 -142.5t-51 -206v-646h-108zM357 1304q31 114 73.5 159t110.5 45q35 0 89.5 -22.5t107.5 -45t84 -22.5q39 0 61.5 23 t47.5 86l75 -19q-30 -115 -73 -159.5t-111 -44.5q-28 0 -68.5 14t-75 31t-73.5 31t-64 14q-38 0 -61.5 -23.5t-48.5 -86.5z" />
<glyph unicode="&#xf2;" horiz-adv-x="1401" d="M127 559q0 77 20 151.5t55.5 139t88 119t115.5 93t139 60.5t158 22q121 0 228.5 -47t182.5 -126.5t118 -187t43 -224.5t-43.5 -224t-119 -187t-183.5 -127.5t-230 -47.5t-229 47t-181.5 126.5t-118 187t-43.5 225.5zM243 559q0 -100 35.5 -189.5t97 -154t147 -102.5 t180.5 -38q91 0 175 38t145.5 103t98.5 154.5t37 188.5t-36.5 189t-98.5 154.5t-147 102.5t-178 38t-177.5 -38.5t-145.5 -103t-97 -154.5t-36 -188zM418 1530l134 65l193 -291h-92z" />
<glyph unicode="&#xf3;" horiz-adv-x="1401" d="M127 559q0 77 20 151.5t55.5 139t88 119t115.5 93t139 60.5t158 22q121 0 228.5 -47t182.5 -126.5t118 -187t43 -224.5t-43.5 -224t-119 -187t-183.5 -127.5t-230 -47.5t-229 47t-181.5 126.5t-118 187t-43.5 225.5zM243 559q0 -100 35.5 -189.5t97 -154t147 -102.5 t180.5 -38q91 0 175 38t145.5 103t98.5 154.5t37 188.5t-36.5 189t-98.5 154.5t-147 102.5t-178 38t-177.5 -38.5t-145.5 -103t-97 -154.5t-36 -188zM657 1304l194 291l133 -65l-235 -226h-92z" />
<glyph unicode="&#xf4;" horiz-adv-x="1401" d="M127 559q0 77 20 151.5t55.5 139t88 119t115.5 93t139 60.5t158 22q121 0 228.5 -47t182.5 -126.5t118 -187t43 -224.5t-43.5 -224t-119 -187t-183.5 -127.5t-230 -47.5t-229 47t-181.5 126.5t-118 187t-43.5 225.5zM243 559q0 -100 35.5 -189.5t97 -154t147 -102.5 t180.5 -38q91 0 175 38t145.5 103t98.5 154.5t37 188.5t-36.5 189t-98.5 154.5t-147 102.5t-178 38t-177.5 -38.5t-145.5 -103t-97 -154.5t-36 -188zM439 1304l218 267h88l219 -267h-103l-162 149l-162 -149h-98z" />
<glyph unicode="&#xf5;" horiz-adv-x="1401" d="M127 559q0 77 20 151.5t55.5 139t88 119t115.5 93t139 60.5t158 22q121 0 228.5 -47t182.5 -126.5t118 -187t43 -224.5t-43.5 -224t-119 -187t-183.5 -127.5t-230 -47.5t-229 47t-181.5 126.5t-118 187t-43.5 225.5zM243 559q0 -100 35.5 -189.5t97 -154t147 -102.5 t180.5 -38q91 0 175 38t145.5 103t98.5 154.5t37 188.5t-36.5 189t-98.5 154.5t-147 102.5t-178 38t-177.5 -38.5t-145.5 -103t-97 -154.5t-36 -188zM377 1304q30 114 72.5 159t111.5 45q28 0 68.5 -14t75 -31t73 -31t63.5 -14q39 0 62 23t48 86l74 -19q-21 -78 -47.5 -123 t-58.5 -63t-78 -18q-28 0 -68.5 14t-75 31t-73 31t-63.5 14q-39 0 -61.5 -23t-47.5 -87z" />
<glyph unicode="&#xf6;" horiz-adv-x="1401" d="M127 559q0 77 20 151.5t55.5 139t88 119t115.5 93t139 60.5t158 22q121 0 228.5 -47t182.5 -126.5t118 -187t43 -224.5t-43.5 -224t-119 -187t-183.5 -127.5t-230 -47.5t-229 47t-181.5 126.5t-118 187t-43.5 225.5zM243 559q0 -100 35.5 -189.5t97 -154t147 -102.5 t180.5 -38q91 0 175 38t145.5 103t98.5 154.5t37 188.5t-36.5 189t-98.5 154.5t-147 102.5t-178 38t-177.5 -38.5t-145.5 -103t-97 -154.5t-36 -188zM447 1304v175h151v-175h-151zM805 1304v175h151v-175h-151z" />
<glyph unicode="&#xf7;" horiz-adv-x="1401" d="M203 719v111h995v-111h-995zM629 282v187h145v-187h-145zM629 1081v186h145v-186h-145z" />
<glyph unicode="&#xf8;" horiz-adv-x="1401" d="M94 -11l174 180q-67 78 -104 178.5t-37 211.5q0 77 20 151.5t55.5 139t88 119t115.5 93t139 60.5t158 22q105 0 198.5 -35t167.5 -99l114 123h126l-176 -184q45 -52 77 -113.5t48.5 -132t16.5 -144.5q0 -117 -43.5 -224t-119 -187t-183.5 -127.5t-230 -47.5 q-105 0 -198.5 34.5t-167.5 97.5l-114 -116h-125zM243 559q0 -174 104 -310l652 678q-130 116 -300 116q-130 0 -235 -65t-163 -176t-58 -243zM403 188q127 -113 300 -113q130 0 235 65t163 175.5t58 243.5q0 173 -103 309z" />
<glyph unicode="&#xf9;" horiz-adv-x="1342" d="M182 434v683h107v-663q0 -175 94 -278t261 -103q109 0 197.5 50.5t140 142t51.5 205.5v646h107v-1117h-107v209q-134 -236 -404 -236q-138 0 -240.5 60t-154.5 163.5t-52 237.5zM399 1518l134 67l192 -292h-92z" />
<glyph unicode="&#xfa;" horiz-adv-x="1342" d="M182 434v683h107v-663q0 -175 94 -278t261 -103q109 0 197.5 50.5t140 142t51.5 205.5v646h107v-1117h-107v209q-134 -236 -404 -236q-138 0 -240.5 60t-154.5 163.5t-52 237.5zM607 1293l193 292l133 -67l-234 -225h-92z" />
<glyph unicode="&#xfb;" horiz-adv-x="1342" d="M182 434v683h107v-663q0 -175 94 -278t261 -103q109 0 197.5 50.5t140 142t51.5 205.5v646h107v-1117h-107v209q-134 -236 -404 -236q-138 0 -240.5 60t-154.5 163.5t-52 237.5zM412 1304l219 267h88l219 -267h-103l-162 149l-163 -149h-98z" />
<glyph unicode="&#xfc;" horiz-adv-x="1342" d="M182 434v683h107v-663q0 -175 94 -278t261 -103q109 0 197.5 50.5t140 142t51.5 205.5v646h107v-1117h-107v209q-134 -236 -404 -236q-138 0 -240.5 60t-154.5 163.5t-52 237.5zM421 1304v175h151v-175h-151zM778 1304v175h151v-175h-151z" />
<glyph unicode="&#xfd;" horiz-adv-x="1288" d="M86 1117h125l464 -998l404 998h117l-483 -1157q-49 -116 -106 -186.5t-121 -100.5t-147 -30q-62 0 -112 11t-108 37l36 94q46 -23 88.5 -32.5t103.5 -9.5q88 0 151 59.5t125 203.5zM615 1293l194 292l134 -67l-235 -225h-93z" />
<glyph unicode="&#xfe;" horiz-adv-x="1445" d="M203 -351v1951h108v-732q182 276 460 276q82 0 160.5 -25t148 -75.5t122 -119.5t83 -163.5t30.5 -201.5q0 -77 -16 -147.5t-44.5 -128.5t-68.5 -107.5t-87.5 -86.5t-101 -63t-111 -39.5t-115.5 -13.5q-284 0 -460 268v-592h-108zM305 556q0 -104 38.5 -195t102 -152.5 t146 -96.5t169.5 -35q91 0 170.5 33t139 93t93.5 152t34 204q0 107 -35.5 198.5t-95 153t-139.5 96t-167 34.5t-169.5 -35.5t-146 -98t-102 -154t-38.5 -197.5z" />
<glyph unicode="&#xff;" horiz-adv-x="1288" d="M86 1117h125l464 -998l404 998h117l-483 -1157q-49 -116 -106 -186.5t-121 -100.5t-147 -30q-62 0 -112 11t-108 37l36 94q46 -23 88.5 -32.5t103.5 -9.5q88 0 151 59.5t125 203.5zM391 1304v175h150v-175h-150zM747 1304v175h152v-175h-152z" />
<glyph unicode="&#x131;" horiz-adv-x="544" d="M219 0v1117h107v-1117h-107z" />
<glyph unicode="&#x152;" horiz-adv-x="2524" d="M160 767q0 160 60 301.5t166 244t258.5 162t330.5 59.5h1400v-106h-944v-602h846v-105h-846v-616h955v-105h-1411q-119 0 -228 26.5t-198 75t-162 118.5t-123 154.5t-77 184.5t-27 208zM278 767q0 -136 49.5 -257t138 -210.5t220.5 -142t289 -52.5h342v1323h-342 q-157 0 -288.5 -51t-220.5 -140t-138.5 -210.5t-49.5 -259.5z" />
<glyph unicode="&#x153;" horiz-adv-x="2311" d="M127 559q0 116 44 223t119.5 187t182.5 127.5t228 47.5q173 0 310.5 -94t202.5 -248q63 156 189.5 249t288.5 93q114 0 210.5 -45t161.5 -123.5t101.5 -186t36.5 -230.5q0 -27 -2 -44h-927q6 -82 32 -152.5t67.5 -123t95 -90t115.5 -56t128 -18.5q221 0 384 174l75 -65 q-94 -102 -202.5 -156.5t-256.5 -54.5q-164 0 -298.5 93t-198.5 252q-66 -154 -204.5 -249.5t-312.5 -95.5q-120 0 -226.5 47t-181.5 126.5t-118.5 187t-43.5 225.5zM243 559q0 -100 35.5 -189.5t97 -154t147 -102.5t180.5 -38q130 0 235 65t163 175.5t58 243t-60.5 244 t-166.5 176t-233 64.5q-130 0 -235 -65t-163 -176t-58 -243zM1273 611h813q-2 38 -8.5 74.5t-18 71.5t-26.5 67t-35.5 61t-44.5 53.5t-53 44.5t-62 33.5t-72 21t-81 7.5q-109 0 -200 -56.5t-146.5 -156t-65.5 -221.5z" />
<glyph unicode="&#x178;" horiz-adv-x="1568" d="M71 1534h142l573 -824l577 824h136l-658 -925v-609h-113v607zM531 1665v175h151v-175h-151zM887 1665v175h152v-175h-152z" />
<glyph unicode="&#x192;" horiz-adv-x="1108" d="M90 -2v96q44 -8 100 -8q149 0 180 179l107 576h-238v100h256l57 297q31 162 106 234.5t208 72.5q86 0 164 -22v-97q-91 23 -154 23q-90 0 -138 -50.5t-69 -166.5l-56 -291h340v-100h-357l-109 -582q-27 -137 -97 -203.5t-193 -66.5q-49 0 -107 9z" />
<glyph unicode="&#x2c6;" d="M285 1304l219 267h88l219 -267h-103l-162 149l-163 -149h-98z" />
<glyph unicode="&#x2c7;" d="M285 1571h102l163 -149l163 149h98l-219 -267h-88z" />
<glyph unicode="&#x2d8;" d="M257 1571h84q44 -160 207 -160t206 160h85q-5 -84 -43.5 -146t-102.5 -94t-145 -32q-124 0 -203.5 72.5t-87.5 199.5z" />
<glyph unicode="&#x2d9;" d="M469 1304v177h158v-177h-158z" />
<glyph unicode="&#x2da;" d="M333 1508q0 82 64.5 142.5t150.5 60.5t150.5 -60.5t64.5 -147.5q0 -83 -64.5 -143.5t-150.5 -60.5t-150.5 61t-64.5 148zM412 1503q0 -54 40.5 -93.5t95.5 -39.5t95.5 40t40.5 98q0 54 -40 93.5t-96 39.5t-96 -40t-40 -98z" />
<glyph unicode="&#x2db;" d="M410 -125q0 71 31 146h94q-14 -64 -14 -122q0 -177 259 -190v-69h-29q-166 0 -253.5 65t-87.5 170z" />
<glyph unicode="&#x2dc;" d="M224 1304q30 114 72.5 159t111.5 45q28 0 68.5 -14t74.5 -31t73 -31t64 -14q39 0 61.5 23t47.5 86l75 -19q-30 -115 -73 -159.5t-111 -44.5q-28 0 -68.5 14t-75 31t-73 31t-63.5 14q-39 0 -61.5 -23t-47.5 -87z" />
<glyph unicode="&#x2dd;" d="M224 1304l194 291l121 -63l-221 -228h-94zM556 1304l195 291l121 -63l-221 -228h-95z" />
<glyph unicode="&#x3a9;" horiz-adv-x="1735" d="M186 0v103h432v198q-132 35 -231.5 125.5t-150 212.5t-50.5 260q0 139 55 261t148 207t218 133.5t263 48.5q136 0 260 -48.5t216 -133t146.5 -206t54.5 -258.5q0 -140 -49.5 -262t-148 -212.5t-232.5 -127.5v-198h432v-103h-526v385q198 34 303 170.5t105 343.5 q0 117 -44.5 219t-120.5 173t-180 111t-220 40t-219.5 -40.5t-179 -111t-120 -172t-44.5 -217.5q0 -77 17 -149t51 -134.5t82.5 -111t115 -80.5t144.5 -41v-385h-527z" />
<glyph unicode="&#x3c0;" d="M0 0v1534h1096v-1534h-1096zM107 211l376 556l-376 557v-1113zM178 107h742l-372 560zM178 1424l370 -558l372 558h-742zM611 767l376 -556v1113z" />
<glyph unicode="&#x401;" horiz-adv-x="1468" d="M228 0v1534h1091v-106h-978v-602h880v-105h-880v-616h989v-105h-1102zM523 1677v175h152v-175h-152zM881 1677v175h152v-175h-152z" />
<glyph unicode="&#x402;" horiz-adv-x="1875" d="M119 1428v106h1183v-106h-601v-613q123 98 249.5 146.5t281.5 48.5q110 0 203.5 -34.5t161 -98.5t105.5 -161t38 -216q0 -98 -24.5 -182t-69.5 -147t-107 -107.5t-139 -67.5t-164 -23q-63 0 -113.5 11.5t-108.5 36.5l38 96q30 -15 57.5 -23.5t59 -12.5t73.5 -4 q43 0 86 9.5t87 29t81.5 53.5t67 79t46 109t16.5 141q0 182 -107.5 295.5t-280.5 113.5q-161 0 -286 -51t-251 -164v-692h-114v1428h-468z" />
<glyph unicode="&#x403;" horiz-adv-x="1292" d="M228 0v1534h958v-106h-845v-1428h-113zM592 1677l192 291l134 -66l-234 -225h-92z" />
<glyph unicode="&#x404;" horiz-adv-x="1616" d="M160 763q0 163 58 309.5t158.5 254t244 170.5t306.5 63q99 0 183 -17.5t155.5 -54t127.5 -77t121 -100.5l-72 -79q-53 52 -105.5 90.5t-116 70t-138 48t-158.5 16.5q-129 0 -244.5 -48t-200 -132t-137.5 -201t-62 -250h826v-105h-828q9 -136 62.5 -255.5t139 -205 t201.5 -134.5t246 -49q159 0 282 59t246 180l77 -80q-126 -129 -271 -196t-339 -67q-129 0 -247 39.5t-211 112t-161.5 169.5t-105.5 217.5t-37 251.5z" />
<glyph unicode="&#x405;" horiz-adv-x="1401" d="M129 224l74 85q130 -119 258 -173.5t293 -54.5q114 0 202.5 40t137 110t48.5 160q0 64 -19 110t-67 86.5t-133 72t-215 57.5q-276 56 -397 157t-121 278q0 85 37.5 159.5t102.5 128t157 85t197 31.5q67 0 125.5 -7.5t110.5 -22t101.5 -37.5t94.5 -52t93 -67l-72 -90 q-105 91 -216 132t-242 41q-166 0 -270 -84t-104 -210q0 -52 11.5 -91t41 -75.5t79.5 -65.5t128 -55t186 -48q267 -55 386 -155.5t119 -271.5q0 -122 -65.5 -217.5t-181.5 -148t-262 -52.5q-181 0 -329 59.5t-289 185.5z" />
<glyph unicode="&#x406;" horiz-adv-x="600" d="M243 0v1534h114v-1534h-114z" />
<glyph unicode="&#x407;" horiz-adv-x="600" d="M46 1677v175h151v-175h-151zM243 0v1534h114v-1534h-114zM403 1677v175h151v-175h-151z" />
<glyph unicode="&#x408;" horiz-adv-x="1202" d="M81 265l94 59q74 -125 160.5 -184t216.5 -59q71 0 131.5 27t105.5 77.5t70.5 129t25.5 176.5v1043h114v-1034q0 -130 -37 -231.5t-103 -167.5q-122 -122 -313 -122q-305 0 -465 286z" />
<glyph unicode="&#x409;" horiz-adv-x="2580" d="M0 21l35 96q22 -11 64.5 -19t82.5 -8q23 0 43 3.5t47 17.5t50 37.5t49 67t46.5 102t40 146.5t32.5 196.5t21 257t8 322.5v294h940v-616h454q74 0 142.5 -11t131.5 -33t114.5 -58t90 -84t59.5 -113t21 -142q0 -145 -69 -254t-193 -166t-286 -57h-579v1428h-716v-192 q0 -182 -8 -335.5t-22 -270.5t-36 -212t-46.5 -161t-56 -115.5t-62.5 -79t-68.5 -47.5t-71.5 -24t-74 -6q-41 0 -96 11.5t-88 24.5zM1459 105h446q211 0 330 93t119 275q0 84 -32.5 149t-93 107t-145.5 63t-192 21h-432v-708z" />
<glyph unicode="&#x40a;" horiz-adv-x="2559" d="M228 0v1534h113v-660h983v660h113v-660h476q89 0 168 -15t147 -48t117 -81t77 -118t28 -156q0 -207 -141.5 -331.5t-384.5 -124.5h-600v769h-983v-769h-113zM1437 105h468q207 0 317 89t110 258q0 154 -114 235.5t-327 81.5h-454v-664z" />
<glyph unicode="&#x40b;" horiz-adv-x="1921" d="M119 1428v106h1183v-106h-601v-646q123 98 249.5 146.5t281.5 48.5q111 0 203.5 -28t160.5 -82.5t106 -138.5t38 -191v-537h-114v548q0 97 -49 171.5t-137 114.5t-202 40q-161 0 -286 -51t-251 -164v-659h-114v1428h-468z" />
<glyph unicode="&#x40c;" horiz-adv-x="1566" d="M228 0v1534h113v-1008l978 1008h155l-669 -677l698 -857h-148l-632 776l-382 -385v-391h-113zM664 1677l193 291l134 -66l-235 -225h-92z" />
<glyph unicode="&#x40e;" horiz-adv-x="1592" d="M96 1534h134l616 -1067l526 1067h125l-610 -1223q-30 -60 -64.5 -109.5t-70.5 -86.5t-74 -64.5t-77.5 -44t-78.5 -25t-79 -8.5q-74 0 -129.5 13t-116.5 41l44 98q24 -12 45.5 -20t45.5 -13.5t50.5 -8t60.5 -2.5q98 0 187 64t159 204zM550 1924l90 20q21 -76 72.5 -118 t133.5 -42q162 0 206 160l90 -20q-21 -110 -101.5 -181t-194.5 -71t-194.5 71.5t-101.5 180.5z" />
<glyph unicode="&#x40f;" horiz-adv-x="1643" d="M228 0v1534h113v-1429h961v1429h114v-1534h-524v-351h-118v351h-546z" />
<glyph unicode="&#x410;" horiz-adv-x="1730" d="M96 0l715 1545h109l715 -1545h-125l-195 429h-905l-195 -429h-119zM458 533h809l-404 887z" />
<glyph unicode="&#x411;" horiz-adv-x="1550" d="M228 0v1534h1069v-106h-956v-543h518q81 0 152.5 -11t133.5 -32.5t111 -56.5t84.5 -82t54 -109.5t18.5 -137.5q0 -220 -141 -338t-396 -118h-648zM341 105h514q440 0 440 351q0 160 -117.5 242t-334.5 82h-502v-675z" />
<glyph unicode="&#x412;" horiz-adv-x="1581" d="M228 0v1534h633q149 0 262 -46.5t174.5 -133.5t61.5 -202q0 -74 -22.5 -136.5t-62 -105.5t-82.5 -72t-94 -49q73 -20 132.5 -49t109 -72.5t77 -107t27.5 -142.5q0 -126 -68 -221.5t-192.5 -146t-288.5 -50.5h-667zM341 105h558q198 0 313.5 85t115.5 233 q0 142 -120.5 220t-346.5 78h-520v-616zM341 826h508q116 0 204 36t138.5 109t50.5 175q0 129 -101 205.5t-282 76.5h-518v-602z" />
<glyph unicode="&#x413;" horiz-adv-x="1292" d="M228 0v1534h958v-106h-845v-1428h-113z" />
<glyph unicode="&#x414;" horiz-adv-x="1645" d="M21 105h165q118 165 181.5 454.5t63.5 649.5v325h941v-1429h208l-22 -456h-96v351h-1322l-21 -351h-98v456zM318 105h940v1323h-714v-301q0 -312 -60.5 -590t-165.5 -432z" />
<glyph unicode="&#x415;" horiz-adv-x="1468" d="M228 0v1534h1091v-106h-978v-602h880v-105h-880v-616h989v-105h-1102z" />
<glyph unicode="&#x416;" horiz-adv-x="2348" d="M50 0l647 874l-603 660h145l878 -978v978h115v-978l878 978h144l-602 -660l646 -874h-142l-583 789l-341 -375v-414h-115v414l-343 375l-581 -789h-143z" />
<glyph unicode="&#x417;" horiz-adv-x="1369" d="M88 219l75 86q129 -119 259 -173.5t295 -54.5q112 0 201.5 40t142 115.5t52.5 173.5q0 148 -120 232.5t-334 84.5h-166v101h168q117 0 209 37.5t146.5 111.5t54.5 175q0 133 -107.5 220t-273.5 87q-253 0 -464 -173l-69 88q120 96 247 142t290 46q146 0 259 -53 t175 -146.5t62 -210.5q0 -76 -25 -138.5t-68 -105.5t-91.5 -71.5t-106.5 -48.5q73 -21 132 -53.5t104.5 -79t71 -109.5t25.5 -139q0 -58 -17.5 -113.5t-49 -103t-78 -87t-103.5 -67.5t-126.5 -43.5t-144.5 -15.5q-182 0 -334 60.5t-291 185.5z" />
<glyph unicode="&#x418;" horiz-adv-x="1677" d="M228 0v1534h113v-1369l998 1369h112v-1534h-115v1370l-995 -1370h-113z" />
<glyph unicode="&#x419;" horiz-adv-x="1677" d="M228 0v1534h113v-1369l998 1369h112v-1534h-115v1370l-995 -1370h-113zM546 1913l90 19q43 -159 205 -159q163 0 207 159l89 -19q-20 -109 -101 -180.5t-195 -71.5t-194.5 71.5t-100.5 180.5z" />
<glyph unicode="&#x41a;" horiz-adv-x="1566" d="M228 0v1534h113v-1008l978 1008h155l-669 -677l698 -857h-148l-632 776l-382 -385v-391h-113z" />
<glyph unicode="&#x41b;" horiz-adv-x="1686" d="M0 21l35 96q22 -11 64.5 -19t82.5 -8q23 0 43 3.5t47 17.5t50 37.5t49 67t46.5 102t40 146.5t32.5 196.5t21 257t8 322.5v294h940v-1534h-114v1428h-716v-192q0 -182 -8 -335.5t-22 -270.5t-36 -212t-46.5 -161t-56 -115.5t-62.5 -79t-68.5 -47.5t-71.5 -24t-74 -6 q-41 0 -96 11.5t-88 24.5z" />
<glyph unicode="&#x41c;" horiz-adv-x="1901" d="M228 0v1534h107l616 -907l615 907h109v-1534h-115v1332l-607 -883h-8l-608 883v-1332h-109z" />
<glyph unicode="&#x41d;" horiz-adv-x="1664" d="M228 0v1534h113v-710h983v710h113v-1534h-113v719h-983v-719h-113z" />
<glyph unicode="&#x41e;" horiz-adv-x="1861" d="M160 767q0 125 35.5 243t103.5 217t161 174t215 117t258 42q114 0 218 -29.5t188 -82t152.5 -126.5t114.5 -161.5t71 -188t25 -205.5q0 -125 -35 -243t-103.5 -217.5t-161.5 -174t-215 -117t-258 -42.5t-258 42t-214 116.5t-159.5 173.5t-102.5 217.5t-35 244.5zM278 767 q0 -140 49.5 -267t135.5 -220t208.5 -148t261.5 -55t261 54.5t207.5 147t134.5 219.5t49 269q0 141 -50 268t-136 220t-208.5 147.5t-261.5 54.5t-261 -54t-207 -147t-134 -220t-49 -269z" />
<glyph unicode="&#x41f;" horiz-adv-x="1643" d="M228 0v1534h1188v-1534h-114v1428h-961v-1428h-113z" />
<glyph unicode="&#x420;" horiz-adv-x="1463" d="M228 0v1534h556q169 0 297.5 -55t201 -163t72.5 -256q0 -94 -31.5 -174t-87 -137t-131 -97.5t-164 -60t-185.5 -19.5h-415v-572h-113zM341 677h422q215 0 346 104t131 277q0 90 -33.5 160.5t-95 116.5t-146.5 69.5t-189 23.5h-435v-751z" />
<glyph unicode="&#x421;" horiz-adv-x="1616" d="M160 767q0 161 58 307t158.5 253t244 170t306.5 63q99 0 183.5 -18t156.5 -54.5t128 -77.5t121 -101l-74 -77q-53 52 -105.5 90.5t-116 70t-138 48t-158.5 16.5q-135 0 -255.5 -53t-206 -145t-135 -220t-49.5 -272q0 -143 50.5 -271t136.5 -219.5t206.5 -145.5t255.5 -54 q159 0 282 59t246 180l77 -75q-65 -64 -126.5 -110.5t-136 -83.5t-161 -55.5t-186.5 -18.5q-161 0 -303 62t-242.5 168t-158.5 252.5t-58 311.5z" />
<glyph unicode="&#x422;" horiz-adv-x="1419" d="M119 1428v106h1183v-106h-535v-1428h-114v1428h-534z" />
<glyph unicode="&#x423;" horiz-adv-x="1592" d="M96 1534h134l616 -1067l526 1067h125l-610 -1223q-30 -60 -64.5 -109.5t-70.5 -86.5t-74 -64.5t-77.5 -44t-78.5 -25t-79 -8.5q-74 0 -129.5 13t-116.5 41l44 98q24 -12 45.5 -20t45.5 -13.5t50.5 -8t60.5 -2.5q98 0 187 64t159 204z" />
<glyph unicode="&#x424;" horiz-adv-x="1888" d="M109 769q0 108 30 206.5t89.5 180.5t143.5 142.5t197.5 94t245.5 33.5h72v157h115v-157h72q111 0 208.5 -23.5t174.5 -66.5t138 -103.5t101.5 -133.5t61.5 -156.5t21 -173.5q0 -108 -29.5 -206t-89 -180t-143.5 -142t-197.5 -94t-245.5 -34h-72v-170h-115v170h-72 q-132 0 -245.5 34t-197.5 94t-143.5 142t-89.5 180t-30 206zM228 769.5q0 -120.5 39 -221t113 -173.5t185 -114t250 -44h72v1107h-72q-139 -3 -250 -44.5t-185 -114.5t-113 -174t-39 -221.5zM1002 217h72q139 3 250.5 44t185 114t112.5 173t39 221t-39 222t-112.5 174 t-185 114.5t-250.5 44.5h-72v-1107z" />
<glyph unicode="&#x425;" horiz-adv-x="1581" d="M111 0l612 782l-589 752h136l523 -675l522 675h134l-588 -750l609 -784h-136l-545 708l-544 -708h-134z" />
<glyph unicode="&#x426;" horiz-adv-x="1689" d="M228 0v1534h113v-1429h961v1429h114v-1429h208l-22 -456h-97v351h-1277z" />
<glyph unicode="&#x427;" horiz-adv-x="1511" d="M175 964v570h114v-581q0 -149 97.5 -237.5t268.5 -88.5q119 0 257 47t259 117v743h113v-1534h-113v684q-106 -58 -250.5 -109.5t-259.5 -51.5q-226 0 -356 113.5t-130 327.5z" />
<glyph unicode="&#x428;" horiz-adv-x="2409" d="M228 0v1534h113v-1429h807v1429h115v-1429h805v1429h115v-1534h-1955z" />
<glyph unicode="&#x429;" horiz-adv-x="2455" d="M228 0v1534h113v-1429h807v1429h115v-1429h805v1429h115v-1429h207l-21 -456h-96v351h-2045z" />
<glyph unicode="&#x42a;" horiz-adv-x="1761" d="M109 1428v106h531v-616h454q89 0 169.5 -15t152 -49.5t123.5 -84.5t82.5 -125t30.5 -167q0 -145 -69 -254t-192.5 -166t-286.5 -57h-578v1428h-417zM640 105h445q212 0 330.5 93t118.5 275q0 167 -122.5 253.5t-340.5 86.5h-431v-708z" />
<glyph unicode="&#x42b;" horiz-adv-x="1905" d="M228 0v1534h113v-616h454q90 0 170.5 -15t152 -49.5t124 -84.5t83 -125t30.5 -167q0 -145 -69 -254t-193 -166t-286 -57h-579zM341 105h445q212 0 331 93t119 275q0 168 -122 254t-340 86h-433v-708zM1564 0v1534h115v-1534h-115z" />
<glyph unicode="&#x42c;" horiz-adv-x="1463" d="M228 0v1534h113v-616h454q90 0 170.5 -15t152 -49.5t124 -84.5t83 -125t30.5 -167q0 -145 -69 -254t-193 -166t-286 -57h-579zM341 105h445q212 0 331 93t119 275q0 168 -122 254t-340 86h-433v-708z" />
<glyph unicode="&#x42d;" horiz-adv-x="1616" d="M86 236l77 80q123 -122 245.5 -180.5t281.5 -58.5q130 0 246 49t201 134.5t138.5 205t60.5 255.5h-826v105h826q-9 133 -62.5 250t-137.5 201t-199 132t-245 48q-67 0 -129 -11t-113.5 -30.5t-101 -49t-90 -61.5t-83.5 -73l-72 79q42 39 79 68.5t81.5 59.5t89.5 51 t97.5 37.5t112.5 24.5t127 8q163 0 306.5 -63t244 -170.5t158.5 -254.5t58 -309q0 -163 -58 -309t-158.5 -251.5t-242.5 -167.5t-304 -62q-193 0 -337.5 67t-270.5 196z" />
<glyph unicode="&#x42e;" horiz-adv-x="2273" d="M228 0v1534h113v-710h345q9 154 65 289.5t148 234t222.5 155.5t281.5 57q157 0 290.5 -61t225.5 -167t143.5 -251.5t51.5 -311t-52 -312t-145 -253.5t-227.5 -169t-291.5 -62q-101 0 -194.5 26t-170 73.5t-139.5 115t-107 150t-70 179.5t-31 202h-345v-719h-113zM805 767 q0 -145 44.5 -272.5t123 -219.5t190 -145t240 -53t239.5 52.5t188.5 144t122 219.5t44.5 274q0 116 -28.5 221.5t-82 190.5t-126.5 147.5t-166 96.5t-196 34q-128 0 -239 -52.5t-188.5 -144t-121.5 -219t-44 -274.5z" />
<glyph unicode="&#x42f;" horiz-adv-x="1583" d="M105 0l489 633q-199 28 -315 145.5t-116 308.5q0 95 38 176.5t108 142t173.5 94.5t227.5 34h645v-1534h-115v613h-519l-472 -613h-144zM276 1079q0 -82 34 -150t93.5 -114.5t142 -72t177.5 -25.5h517v711h-523q-206 0 -323.5 -95t-117.5 -254z" />
<glyph unicode="&#x430;" horiz-adv-x="1257" d="M111 328q0 114 62.5 197t172 125t254.5 42q192 0 370 -48v48q0 167 -96.5 255t-271.5 88q-173 0 -349 -90l-40 94q102 47 195.5 71.5t200.5 24.5q230 0 353 -123q114 -114 114 -315v-697h-106v186q-30 -43 -69.5 -79t-91.5 -67t-120.5 -49t-144.5 -18q-88 0 -165 23 t-137.5 66t-95.5 111.5t-35 154.5zM228 331q0 -121 87.5 -188.5t234.5 -67.5q114 0 210 43t154.5 122t58.5 178v128q-193 50 -379 50q-175 0 -270.5 -71.5t-95.5 -193.5z" />
<glyph unicode="&#x431;" horiz-adv-x="1405" d="M153 587q0 95 2 159t11 147.5t25 141t45.5 121.5t71 107.5t103.5 80t141 57.5l636 159l31 -96l-614 -162q-177 -47 -253.5 -146.5t-92.5 -296.5q158 263 484 263q108 0 207.5 -46t171.5 -123t115 -182.5t43 -218.5q0 -92 -27 -179.5t-78 -159t-120 -126t-156.5 -84.5 t-183.5 -30q-121 0 -224.5 44t-178 123t-117 194.5t-42.5 252.5zM270 548q0 -130 59 -238.5t162.5 -171.5t227.5 -63q127 0 229 63.5t158.5 171.5t56.5 238q0 97 -35 184.5t-94.5 151t-142.5 100.5t-176 37q-95 0 -178.5 -37.5t-141.5 -101t-91.5 -150.5t-33.5 -184z" />
<glyph unicode="&#x432;" horiz-adv-x="1270" d="M203 0v1117h512q164 0 262.5 -75t98.5 -203q0 -54 -16 -97.5t-45.5 -73.5t-59.5 -49.5t-68 -35.5q53 -14 96.5 -36.5t79.5 -56t56.5 -81t20.5 -104.5q0 -139 -110 -222t-292 -83h-535zM311 96h414q140 0 221.5 60.5t81.5 163.5q0 98 -85 153.5t-244 55.5h-388v-433z M311 618h388q78 0 138 24t94.5 73t34.5 117q0 86 -68.5 137.5t-192.5 51.5h-394v-403z" />
<glyph unicode="&#x433;" horiz-adv-x="1007" d="M203 0v1117h740v-96h-632v-1021h-108z" />
<glyph unicode="&#x434;" horiz-adv-x="1336" d="M31 96h147q163 271 163 785v236h750v-1021h180l-22 -412h-88v316h-1019l-21 -316h-90v412zM295 96h689v925h-539v-201q0 -220 -41 -415t-109 -309z" />
<glyph unicode="&#x435;" horiz-adv-x="1279" d="M127 561q0 120 40.5 227.5t110.5 185.5t169 124t210 46q115 0 212 -45t162.5 -123.5t102.5 -186t37 -230.5q0 -27 -3 -44h-927q4 -68 23.5 -129t50 -109t70.5 -86.5t87.5 -63.5t100 -38.5t106.5 -13.5q122 0 214.5 46t169.5 128l74 -65q-61 -66 -122.5 -110t-149 -72.5 t-190.5 -28.5q-109 0 -209 43t-175 118t-119.5 186.5t-44.5 240.5zM241 611h813q-5 69 -23 132t-51 118.5t-79 96t-109.5 64t-138.5 23.5q-109 0 -200 -56.5t-147 -156t-65 -221.5z" />
<glyph unicode="&#x436;" horiz-adv-x="1829" d="M57 0l474 633l-445 484h135l640 -711v711h107v-711l640 711h136l-447 -484l476 -633h-132l-412 556l-261 -282v-274h-107v274l-261 285l-412 -559h-131z" />
<glyph unicode="&#x437;" d="M98 144l67 88q91 -77 184 -115t201 -38q77 0 146.5 29t114 83t44.5 118q0 99 -83 156.5t-228 57.5h-153v98h155q121 0 199.5 58.5t78.5 159.5q0 89 -77 143.5t-193 54.5q-58 0 -116.5 -11.5t-120 -38t-110.5 -65.5l-65 86q87 64 193.5 96.5t220.5 32.5q175 0 281 -83 t106 -215q0 -98 -50.5 -161.5t-129.5 -96.5q207 -73 207 -274q0 -65 -30 -125t-83.5 -105t-132.5 -71.5t-170 -26.5q-252 0 -456 165z" />
<glyph unicode="&#x438;" horiz-adv-x="1380" d="M203 0v1117h108v-975l758 975h108v-1117h-108v975l-758 -975h-108z" />
<glyph unicode="&#x439;" horiz-adv-x="1380" d="M203 0v1117h108v-975l758 975h108v-1117h-108v975l-758 -975h-108zM395 1552l90 19q43 -160 205 -160q163 0 207 160l90 -19q-10 -54 -36 -100t-64 -80t-89 -53.5t-108 -19.5q-76 0 -139 33.5t-103 90.5t-53 129z" />
<glyph unicode="&#x43a;" horiz-adv-x="1217" d="M203 0v1117h108v-716l693 716h142l-489 -494l504 -623h-136l-442 546l-272 -274v-272h-108z" />
<glyph unicode="&#x43b;" horiz-adv-x="1336" d="M9 0l20 98q52 -15 84 -15q28 0 48.5 3.5t44 15t40.5 32.5t35 57t30.5 86.5t24.5 124t19 167t12 217t5 272.5v59h761v-1117h-108v1021h-550v-30q0 -153 -5.5 -278.5t-14.5 -222t-24 -172t-31.5 -128.5t-40.5 -91t-47 -60.5t-54.5 -35t-59.5 -16.5t-66 -4q-61 0 -123 17z " />
<glyph unicode="&#x43c;" horiz-adv-x="1511" d="M203 0v1117h98l455 -642l456 642h97v-1117h-108v931l-450 -617l-444 617v-931h-104z" />
<glyph unicode="&#x43d;" horiz-adv-x="1364" d="M203 0v1117h108v-496h743v496h107v-1117h-107v523h-743v-523h-108z" />
<glyph unicode="&#x43e;" horiz-adv-x="1401" d="M127 559q0 77 20 151.5t55.5 139t88 119t115.5 93t139 60.5t158 22q121 0 228.5 -47t182.5 -126.5t118 -187t43 -224.5t-43.5 -224t-119 -187t-183.5 -127.5t-230 -47.5t-229 47t-181.5 126.5t-118 187t-43.5 225.5zM243 559q0 -100 35.5 -189.5t97 -154t147 -102.5 t180.5 -38q91 0 175 38t145.5 103t98.5 154.5t37 188.5t-36.5 189t-98.5 154.5t-147 102.5t-178 38t-177.5 -38.5t-145.5 -103t-97 -154.5t-36 -188z" />
<glyph unicode="&#x43f;" horiz-adv-x="1336" d="M203 0v1117h930v-1117h-108v1021h-714v-1021h-108z" />
<glyph unicode="&#x440;" horiz-adv-x="1445" d="M203 -351v1468h108v-249q182 276 460 276q82 0 160.5 -25t148 -75.5t122 -119.5t83 -163.5t30.5 -201.5q0 -77 -16 -147.5t-44.5 -128.5t-68.5 -107.5t-87.5 -86.5t-101 -63t-111 -39.5t-115.5 -13.5q-284 0 -460 268v-592h-108zM305 556q0 -104 38.5 -195t102 -152.5 t146 -96.5t169.5 -35q91 0 170.5 33t139 93t93.5 152t34 204q0 107 -35.5 198.5t-95 153t-139.5 96t-167 34.5t-169.5 -35.5t-146 -98t-102 -154t-38.5 -197.5z" />
<glyph unicode="&#x441;" horiz-adv-x="1250" d="M127 559q0 118 44.5 226t120 186.5t181.5 125.5t224 47q61 0 117.5 -11.5t101.5 -30t87 -46t74.5 -56.5t64.5 -65l-75 -76q-32 33 -60 57.5t-64.5 49.5t-73 41t-81.5 26t-94 10q-91 0 -174.5 -38.5t-144 -103t-96.5 -154.5t-36 -188q0 -57 12 -112t34.5 -102.5 t53.5 -89.5t71 -75t85.5 -56.5t97.5 -36t106 -12.5q200 0 371 190l78 -70q-93 -107 -201.5 -164.5t-253.5 -57.5q-119 0 -225 46.5t-181.5 125.5t-119.5 187t-44 227z" />
<glyph unicode="&#x442;" horiz-adv-x="1075" d="M65 1021v96h945v-96h-418v-1021h-107v1021h-420z" />
<glyph unicode="&#x443;" horiz-adv-x="1288" d="M86 1117h125l464 -998l404 998h117l-483 -1157q-49 -116 -106 -186.5t-121 -100.5t-147 -30q-62 0 -112 11t-108 37l36 94q46 -23 88.5 -32.5t103.5 -9.5q88 0 151 59.5t125 203.5z" />
<glyph unicode="&#x444;" horiz-adv-x="1873" d="M132 563q0 134 33 243.5t93 183.5t144.5 114t184.5 40q93 0 159 -33.5t137 -98.5v522h108v-522q68 65 134.5 98.5t160.5 33.5q101 0 185 -40t144 -114.5t93.5 -185t33.5 -245.5q0 -270 -125.5 -428t-330.5 -158q-53 0 -96 9.5t-80.5 30.5t-59.5 38t-59 50v-452h-108v452 q-73 -62 -139 -95t-157 -33q-100 0 -184.5 41t-144.5 116t-93 186t-33 247zM247 554q0 -231 86.5 -354t264.5 -123q161 0 285 134v696q-124 134 -285 134q-172 0 -261.5 -129t-89.5 -358zM991 211q124 -134 284 -134q179 0 265 123.5t86 358.5q0 148 -38 255t-118 167 t-195 60q-160 0 -284 -134v-696z" />
<glyph unicode="&#x445;" horiz-adv-x="1248" d="M98 0l458 569l-439 548h132l378 -473l377 473h129l-441 -545l458 -572h-134l-393 498l-395 -498h-130z" />
<glyph unicode="&#x446;" horiz-adv-x="1378" d="M203 0v1117h108v-1021h714v1021h108v-1021h180l-23 -412h-87v316h-1000z" />
<glyph unicode="&#x447;" horiz-adv-x="1226" d="M151 699v418h108v-420q0 -103 67 -163.5t184 -60.5q101 0 214 34.5t192 88.5v521h107v-1117h-107v489q-77 -43 -189 -79t-212 -36q-83 0 -150 21t-114.5 61t-73.5 101.5t-26 141.5z" />
<glyph unicode="&#x448;" horiz-adv-x="1965" d="M203 0v1117h108v-1021h618v1021h108v-1021h617v1021h108v-1117h-1559z" />
<glyph unicode="&#x449;" horiz-adv-x="2006" d="M203 0v1117h108v-1021h618v1021h108v-1021h617v1021h108v-1021h180l-22 -412h-88v316h-1629z" />
<glyph unicode="&#x44a;" horiz-adv-x="1355" d="M44 1021v96h464v-429h333q89 0 165 -19.5t135.5 -58t93.5 -103t34 -147.5q0 -163 -112 -261.5t-296 -98.5h-460v1021h-357zM508 96h335q71 0 128 17.5t97.5 50.5t62 81.5t21.5 109.5q0 112 -85 174.5t-232 62.5h-327v-496z" />
<glyph unicode="&#x44b;" horiz-adv-x="1606" d="M203 0v1117h108v-429h333q89 0 165 -19.5t135.5 -58t93 -103t33.5 -147.5q0 -163 -111.5 -261.5t-295.5 -98.5h-461zM311 96h335q143 0 226.5 68.5t83.5 190.5q0 112 -85.5 174.5t-232.5 62.5h-327v-496zM1295 0v1117h108v-1117h-108z" />
<glyph unicode="&#x44c;" horiz-adv-x="1158" d="M203 0v1117h108v-429h333q89 0 165 -19.5t135.5 -58t93 -103t33.5 -147.5q0 -163 -111.5 -261.5t-295.5 -98.5h-461zM311 96h335q143 0 226.5 68.5t83.5 190.5q0 112 -85.5 174.5t-232.5 62.5h-327v-496z" />
<glyph unicode="&#x44d;" horiz-adv-x="1250" d="M98 195l80 68q169 -188 370 -188q90 0 171.5 34t142 93.5t99 142.5t45.5 178h-588v98h586q-14 117 -77 214t-161 152.5t-210 55.5q-115 0 -202 -48t-170 -136l-73 74q45 47 85.5 80t95 65.5t121 49t141.5 16.5q121 0 227.5 -47.5t181.5 -128t118.5 -188.5t43.5 -226 q0 -93 -28.5 -180.5t-80.5 -159.5t-121.5 -126.5t-157.5 -84.5t-183 -30q-147 0 -257.5 57.5t-198.5 164.5z" />
<glyph unicode="&#x44e;" horiz-adv-x="1796" d="M203 0v1117h108v-506h276q8 109 50.5 205.5t111 169.5t168 115.5t214.5 42.5q121 0 223.5 -47t171 -126.5t106.5 -186.5t38 -225t-38.5 -224t-107.5 -186.5t-172.5 -128t-224.5 -47.5q-117 0 -215.5 42.5t-166.5 115.5t-109 171t-49 211h-276v-513h-108zM703 559 q0 -135 52.5 -245t151 -174.5t224.5 -64.5q97 0 177.5 38t133.5 103.5t82.5 153.5t29.5 189q0 80 -19.5 153.5t-57 133.5t-88.5 104t-118.5 68.5t-143.5 24.5q-97 0 -178 -38t-134 -104t-82.5 -154t-29.5 -188z" />
<glyph unicode="&#x44f;" horiz-adv-x="1257" d="M113 0l354 445q-91 17 -162.5 60.5t-116 116t-44.5 162.5q0 150 110 241.5t300 91.5h500v-1117h-107v429h-368l-334 -429h-132zM261 778q0 -115 88 -183.5t226 -68.5h372v495h-378q-144 0 -226 -66t-82 -177z" />
<glyph unicode="&#x451;" horiz-adv-x="1279" d="M127 561q0 120 40.5 227.5t110.5 185.5t169 124t210 46q115 0 212 -45t162.5 -123.5t102.5 -186t37 -230.5q0 -27 -3 -44h-927q4 -68 23.5 -129t50 -109t70.5 -86.5t87.5 -63.5t100 -38.5t106.5 -13.5q122 0 214.5 46t169.5 128l74 -65q-61 -66 -122.5 -110t-149 -72.5 t-190.5 -28.5q-109 0 -209 43t-175 118t-119.5 186.5t-44.5 240.5zM241 611h813q-5 69 -23 132t-51 118.5t-79 96t-109.5 64t-138.5 23.5q-109 0 -200 -56.5t-147 -156t-65 -221.5zM397 1304v175h151v-175h-151zM754 1304v175h151v-175h-151z" />
<glyph unicode="&#x452;" horiz-adv-x="1342" d="M21 1271v99h182v230h108v-230h502v-99h-502v-361q134 234 404 234q138 0 240 -59.5t154 -163t52 -237.5v-250q0 -134 -52 -237.5t-154 -163.5t-240 -60q-63 0 -113.5 11.5t-108.5 36.5l38 96q46 -23 88 -32.5t102 -9.5q145 0 239 104t94 275v210q0 175 -94 278t-261 103 q-109 0 -197.5 -50.5t-139.5 -142.5t-51 -206v-646h-108v1271h-182z" />
<glyph unicode="&#x453;" horiz-adv-x="1007" d="M203 0v1117h740v-96h-632v-1021h-108zM452 1304l192 291l134 -65l-234 -226h-92z" />
<glyph unicode="&#x454;" horiz-adv-x="1250" d="M127 554q0 118 43.5 226t118 188.5t181 128t227.5 47.5q75 0 141.5 -16.5t121 -49t95 -65.5t85.5 -80l-73 -74q-83 88 -170 136t-203 48q-111 0 -209 -55.5t-162 -152.5t-78 -214h587v-98h-589q9 -126 72 -229t165 -161t223 -58q202 0 371 188l78 -68 q-87 -107 -197.5 -164.5t-257.5 -57.5q-119 0 -225 47t-181 126t-119.5 185.5t-44.5 222.5z" />
<glyph unicode="&#x455;" horiz-adv-x="1088" d="M107 140l64 86q192 -147 401 -147q116 0 192.5 59t76.5 157q0 32 -10.5 59t-32.5 48t-46 37.5t-61.5 31.5t-68.5 25t-76 23q-2 1 -6 2q-52 15 -79 23t-74 25.5t-72.5 32t-59 38.5t-50.5 50t-29.5 62t-12.5 78q0 136 102.5 223t265.5 87q99 0 205.5 -33.5t190.5 -90.5 l-57 -89q-171 112 -344 112q-114 0 -184 -56t-70 -144q0 -26 9.5 -49t23 -40.5t40 -34t48 -27.5t59.5 -24.5t62.5 -21t68.5 -19.5q45 -13 77.5 -23.5t73.5 -26.5t70 -33t58.5 -41.5t47.5 -51.5t29.5 -63.5t11.5 -78.5q0 -97 -51.5 -172t-139 -114.5t-195.5 -39.5 q-121 0 -244.5 44t-213.5 117z" />
<glyph unicode="&#x456;" horiz-adv-x="544" d="M207 1409v147h132v-147h-132zM219 0v1117h107v-1117h-107z" />
<glyph unicode="&#x457;" horiz-adv-x="544" d="M19 1304v175h152v-175h-152zM219 0v1117h107v-1117h-107zM377 1304v175h152v-175h-152z" />
<glyph unicode="&#x458;" horiz-adv-x="544" d="M-2 -255q40 -6 88 -6q61 0 97 40t36 116v1222h107v-1215q0 -129 -63.5 -194t-174.5 -65q-46 0 -90 8v94zM207 1409v147h132v-147h-132z" />
<glyph unicode="&#x459;" horiz-adv-x="1980" d="M9 0l20 98q52 -15 84 -15q28 0 48.5 3.5t44 15t40.5 32.5t35 57t30.5 86.5t24.5 124t19 167t12 217t5 272.5v59h761v-429h333q89 0 165 -19.5t135 -58t93 -103t34 -147.5q0 -163 -111.5 -261.5t-295.5 -98.5h-461v1021h-550v-30q0 -153 -5.5 -278.5t-14.5 -222t-24 -172 t-31.5 -128.5t-40.5 -91t-47 -60.5t-54.5 -35t-59.5 -16.5t-66 -4q-61 0 -123 17zM1133 96h335q70 0 127.5 17.5t98 50.5t62 81.5t21.5 109.5q0 75 -38.5 128.5t-110 81t-169.5 27.5h-326v-496z" />
<glyph unicode="&#x45a;" horiz-adv-x="2009" d="M203 0v1117h108v-460h743v460h107v-460h334q72 0 133.5 -10t116.5 -33.5t93.5 -59t61 -89t22.5 -120.5q0 -162 -111 -253.5t-297 -91.5h-460v561h-743v-561h-108zM1161 96h336q145 0 227 61.5t82 181.5q0 111 -83.5 166.5t-234.5 55.5h-327v-465z" />
<glyph unicode="&#x45b;" horiz-adv-x="1342" d="M21 1271v99h182v230h108v-230h502v-99h-502v-361q134 234 404 234q138 0 240 -59.5t154 -163t52 -237.5v-684h-107v664q0 175 -94 278t-261 103q-109 0 -197.5 -50.5t-139.5 -142.5t-51 -206v-646h-108v1271h-182z" />
<glyph unicode="&#x45c;" horiz-adv-x="1217" d="M203 0v1117h108v-716l693 716h142l-489 -494l504 -623h-136l-442 546l-272 -274v-272h-108zM489 1304l193 291l133 -65l-234 -226h-92z" />
<glyph unicode="&#x45e;" horiz-adv-x="1288" d="M86 1117h125l464 -998l404 998h117l-483 -1157q-49 -116 -106 -186.5t-121 -100.5t-147 -30q-62 0 -112 11t-108 37l36 94q46 -23 88.5 -32.5t103.5 -9.5q88 0 151 59.5t125 203.5zM379 1552l90 19q43 -160 206 -160q162 0 206 160l89 -19q-20 -110 -100.5 -181.5 t-194.5 -71.5t-195 71.5t-101 181.5z" />
<glyph unicode="&#x45f;" horiz-adv-x="1349" d="M203 0v1117h108v-1019h714v1019h108v-1117h-401v-316h-109v316h-420z" />
<glyph unicode="&#x490;" horiz-adv-x="1292" d="M228 0v1534h839v350h96l23 -456h-845v-1428h-113z" />
<glyph unicode="&#x491;" horiz-adv-x="1007" d="M203 0v1117h629v316h88l23 -412h-632v-1021h-108z" />
<glyph unicode="&#x2000;" horiz-adv-x="984" />
<glyph unicode="&#x2001;" horiz-adv-x="1968" />
<glyph unicode="&#x2002;" horiz-adv-x="984" />
<glyph unicode="&#x2003;" horiz-adv-x="1968" />
<glyph unicode="&#x2004;" horiz-adv-x="656" />
<glyph unicode="&#x2005;" horiz-adv-x="492" />
<glyph unicode="&#x2006;" horiz-adv-x="328" />
<glyph unicode="&#x2007;" horiz-adv-x="328" />
<glyph unicode="&#x2008;" horiz-adv-x="246" />
<glyph unicode="&#x2009;" horiz-adv-x="393" />
<glyph unicode="&#x200a;" horiz-adv-x="109" />
<glyph unicode="&#x2010;" horiz-adv-x="893" d="M153 590v123h587v-123h-587z" />
<glyph unicode="&#x2011;" horiz-adv-x="893" d="M153 590v123h587v-123h-587z" />
<glyph unicode="&#x2012;" horiz-adv-x="893" d="M153 590v123h587v-123h-587z" />
<glyph unicode="&#x2013;" horiz-adv-x="1156" d="M153 594v114h851v-114h-851z" />
<glyph unicode="&#x2014;" horiz-adv-x="1967" d="M153 594v114h1662v-114h-1662z" />
<glyph unicode="&#x2018;" horiz-adv-x="503" d="M169 1125v161q0 102 41.5 161.5t140.5 97.5l26 -54q-66 -34 -94 -70.5t-28 -90.5v-19h59v-186h-145z" />
<glyph unicode="&#x2019;" horiz-adv-x="503" d="M127 1168q67 34 94.5 70t27.5 90v20h-59v186h145v-162q0 -102 -42 -162t-140 -97z" />
<glyph unicode="&#x201a;" horiz-adv-x="503" d="M117 -180q66 33 94 69.5t28 91.5v19h-59v186h144v-161q0 -103 -41.5 -162.5t-140.5 -96.5z" />
<glyph unicode="&#x201c;" horiz-adv-x="897" d="M169 1125v161q0 102 41.5 161.5t140.5 97.5l26 -54q-66 -34 -94 -70.5t-28 -90.5v-19h59v-186h-145zM563 1125v161q0 69 18 117t57.5 82.5t106.5 59.5l26 -54q-66 -34 -94.5 -70.5t-28.5 -90.5v-19h60v-186h-145z" />
<glyph unicode="&#x201d;" horiz-adv-x="897" d="M127 1168q67 34 94.5 70t27.5 90v20h-59v186h145v-162q0 -102 -42 -162t-140 -97zM521 1168q45 23 71.5 45.5t39 50t12.5 64.5v20h-59v186h145v-162q0 -102 -42 -162t-140 -97z" />
<glyph unicode="&#x201e;" horiz-adv-x="897" d="M117 -180q66 33 94 69.5t28 91.5v19h-59v186h144v-161q0 -103 -41.5 -162.5t-140.5 -96.5zM510 -180q45 23 71.5 45.5t39 50.5t12.5 65v19h-58v186h144v-161q0 -103 -41.5 -162.5t-140.5 -96.5z" />
<glyph unicode="&#x2020;" horiz-adv-x="897" d="M138 1133v99l272 -15l-15 317h109l-15 -317l272 15v-99l-274 15l11 -627h-97l11 627z" />
<glyph unicode="&#x2021;" horiz-adv-x="941" d="M160 303v98l274 -16l-11 382l11 381l-274 -15v99l271 -15l-15 317h110l-16 -317l272 15v-99l-274 15l11 -381l-11 -382l274 16v-98l-272 15l16 -318h-110l15 318z" />
<glyph unicode="&#x2022;" horiz-adv-x="1029" d="M243 774q0 72 38 134.5t100.5 98.5t133.5 36q69 0 131.5 -36t101 -99.5t38.5 -138.5q0 -111 -80 -190t-191 -79q-74 0 -136.5 36t-99 99.5t-36.5 138.5z" />
<glyph unicode="&#x2026;" horiz-adv-x="1489" d="M180 0v182h140v-182h-140zM675 0v182h140v-182h-140zM1171 0v182h140v-182h-140z" />
<glyph unicode="&#x202f;" horiz-adv-x="393" />
<glyph unicode="&#x2030;" horiz-adv-x="2628" d="M121 1159q0 103 41.5 192.5t120.5 145t177 55.5t175.5 -55.5t118.5 -144.5t41 -193t-41.5 -193t-120.5 -144t-177 -55t-175.5 54.5t-118.5 143.5t-41 194zM234 1159q0 -128 66 -213t160 -85q97 0 159.5 85t62.5 213q0 127 -66.5 212.5t-159.5 85.5q-64 0 -115 -40 t-79 -108t-28 -150zM280 0l1127 1534h118l-1126 -1534h-119zM1010 374q0 78 25 149t68.5 125t108 86.5t138.5 32.5q98 0 175.5 -55t118.5 -144.5t41 -193t-42 -192.5t-120.5 -144t-177.5 -55q-98 0 -175.5 54.5t-118.5 143.5t-41 193zM1125 374q0 -128 66 -212.5t159 -84.5 q97 0 159 85t62 212t-66.5 213t-159.5 86q-96 0 -158 -86.5t-62 -212.5zM1834 374q0 78 25 149t68.5 125t108 86.5t138.5 32.5q98 0 175.5 -55t118.5 -144.5t41 -193t-41.5 -192.5t-120 -144t-177.5 -55q-98 0 -175.5 54.5t-119 143.5t-41.5 193zM1948 374q0 -128 66 -212.5 t160 -84.5q97 0 159 85t62 212q0 128 -66 213.5t-159 85.5q-96 0 -159 -86.5t-63 -212.5z" />
<glyph unicode="&#x2039;" horiz-adv-x="680" d="M111 550v17l351 458l82 -52l-301 -412l301 -417l-82 -52z" />
<glyph unicode="&#x203a;" horiz-adv-x="680" d="M138 144l301 412l-301 417l81 52l350 -458v-17l-350 -458z" />
<glyph unicode="&#x2044;" horiz-adv-x="897" d="M-147 -215l1025 1876h119l-1026 -1876h-118z" />
<glyph unicode="&#x205f;" horiz-adv-x="492" />
<glyph unicode="&#x20ac;" horiz-adv-x="1577" d="M129 537v105h182q-6 59 -6 125q0 75 11 145h-187v104h206q30 118 86 217.5t131 172t170.5 113.5t199.5 41q94 0 173.5 -22.5t143.5 -66t113.5 -96t96.5 -122.5l-88 -59q-47 68 -90.5 114.5t-96.5 82t-116 52t-140 16.5q-163 0 -289 -122t-182 -321h622v-104h-642 q-11 -66 -11 -145q0 -62 7 -125h646v-105h-626q51 -209 186 -335.5t316 -126.5q69 0 130.5 20t113.5 58t95 87.5t86 114.5l83 -54q-48 -74 -97.5 -129.5t-112 -102t-140 -71.5t-165.5 -25q-149 0 -275.5 71.5t-212.5 198.5t-124 294h-197z" />
<glyph unicode="&#x2122;" horiz-adv-x="1511" d="M57 1459v75h520v-75h-222v-600h-77v600h-221zM730 859v675h81l263 -401l262 401h80v-675h-77v539l-260 -390h-12l-260 390v-539h-77z" />
<glyph unicode="&#x2202;" d="M0 0v1534h1096v-1534h-1096zM107 211l376 556l-376 557v-1113zM178 107h742l-372 560zM178 1424l370 -558l372 558h-742zM611 767l376 -556v1113z" />
<glyph unicode="&#x2206;" horiz-adv-x="1730" d="M119 0l692 1545h109l692 -1545h-1493zM282 105h1160l-579 1315z" />
<glyph unicode="&#x220f;" d="M0 0v1534h1096v-1534h-1096zM107 211l376 556l-376 557v-1113zM178 107h742l-372 560zM178 1424l370 -558l372 558h-742zM611 767l376 -556v1113z" />
<glyph unicode="&#x2211;" d="M0 0v1534h1096v-1534h-1096zM107 211l376 556l-376 557v-1113zM178 107h742l-372 560zM178 1424l370 -558l372 558h-742zM611 767l376 -556v1113z" />
<glyph unicode="&#x221a;" horiz-adv-x="1053" d="M-15 328l193 95l363 -758l425 2058h108l-461 -2192h-120l-368 758l-98 -48z" />
<glyph unicode="&#x221e;" horiz-adv-x="1581" d="M88 776q0 84 34.5 154t100 112.5t149.5 42.5q31 0 62.5 -7t58 -16.5t57 -27.5t52.5 -33t52 -39.5t47.5 -40t47.5 -43t44 -39.5q26 22 70.5 64t75.5 68t73.5 55.5t89 44t96.5 14.5q130 0 213.5 -89t83.5 -220q0 -134 -78.5 -217.5t-211.5 -83.5q-48 0 -96.5 14.5t-87 35 t-83.5 54.5t-74.5 60t-70.5 66q-19 -15 -61.5 -51.5t-65 -54.5t-63 -46t-71 -42t-72.5 -25t-83 -11q-130 0 -209.5 85t-79.5 216zM193 776q0 -87 50 -141t136 -54q135 0 340 195q-17 13 -48 39t-54.5 45.5t-57 43t-61.5 39t-61.5 26t-64.5 10.5q-53 0 -95 -29t-63 -75 t-21 -99zM866 776q9 -8 32 -28.5t34.5 -30.5t34 -28.5t37.5 -28.5t37 -24.5t40.5 -22.5t40 -16.5t43.5 -12t44 -3.5q83 0 131.5 56t48.5 139q0 91 -48.5 147t-137.5 56q-36 0 -76 -14.5t-71 -33t-72 -51.5t-62 -52t-56 -52z" />
<glyph unicode="&#x222b;" d="M0 0v1534h1096v-1534h-1096zM107 211l376 556l-376 557v-1113zM178 107h742l-372 560zM178 1424l370 -558l372 558h-742zM611 767l376 -556v1113z" />
<glyph unicode="&#x2248;" horiz-adv-x="1401" d="M129 441q8 47 20 86t32.5 77.5t47.5 64.5t67.5 42.5t90.5 16.5q65 0 155.5 -25.5t165 -56t160 -56t142.5 -25.5q76 0 122 50t60 128h81q-6 -56 -24.5 -105.5t-49 -90t-78.5 -64t-107 -23.5q-66 0 -156 25.5t-164 56t-158.5 56t-140.5 25.5q-75 0 -123.5 -52.5 t-58.5 -129.5h-84zM129 793q8 47 20 86.5t32.5 78t47.5 64.5t67.5 42.5t90.5 16.5q64 0 154 -25.5t165 -56t161 -56t143 -25.5q76 0 122 50t60 128h81q-4 -45 -16 -85.5t-34 -77t-50.5 -63t-69.5 -42t-89 -15.5q-65 0 -155 25.5t-165 55.5t-159.5 55.5t-139.5 25.5 q-75 0 -123.5 -52.5t-58.5 -129.5h-84z" />
<glyph unicode="&#x2260;" horiz-adv-x="1401" d="M203 469v112h328l203 381h-531v112h590l148 271l92 -48l-121 -223h286v-112h-345l-205 -381h550v-112h-611l-135 -256l-92 50l109 206h-266z" />
<glyph unicode="&#x2264;" horiz-adv-x="1401" d="M157 11v106h1090v-106h-1090zM157 636v118l1090 423v-119l-944 -364l944 -363v-118z" />
<glyph unicode="&#x2265;" horiz-adv-x="1401" d="M155 11v106h1089v-106h-1089zM155 213v118l943 363l-943 364v119l1089 -423v-118z" />
<glyph unicode="&#x25ca;" horiz-adv-x="1401" d="M276 780l366 857h117l370 -857l-370 -857h-117zM395 780l306 -734l311 734l-311 734z" />
<glyph unicode="&#x25fc;" horiz-adv-x="1117" d="M0 0v1117h1117v-1117h-1117z" />
<glyph unicode="&#xf8ff;" d="M0 0v1534h1096v-1534h-1096zM107 211l376 556l-376 557v-1113zM178 107h742l-372 560zM178 1424l370 -558l372 558h-742zM611 767l376 -556v1113z" />
</font>
</defs>
</svg>
