<?xml version="1.0" standalone="no"?>
<!DOCTYPE svg PUBLIC "-//W3C//DTD SVG 1.1//EN" "http://www.w3.org/Graphics/SVG/1.1/DTD/svg11.dtd" >
<svg xmlns="http://www.w3.org/2000/svg">
<metadata></metadata>
<defs>
<font id="gotham_proregular" horiz-adv-x="1075" >
<font-face units-per-em="2048" ascent="1638" descent="-410" />
<missing-glyph horiz-adv-x="644" />
<glyph unicode="&#xfb01;" horiz-adv-x="1356" d="M94 966v144h154v96q0 189 96 286q86 86 239 86q105 0 182 -27v-145q-101 28 -161 28q-193 0 -193 -236v-90h352v-142h-350v-966h-165v966h-154zM979 1354v183h189v-183h-189zM991 0v1112h164v-1112h-164z" />
<glyph unicode="&#xfb02;" horiz-adv-x="1356" d="M94 966v144h154v96q0 189 96 286q86 86 239 86q105 0 182 -27v-145q-101 28 -161 28q-193 0 -193 -236v-90h352v-142h-350v-966h-165v966h-154zM991 0v1570h164v-1570h-164z" />
<glyph horiz-adv-x="2048" />
<glyph horiz-adv-x="2048" />
<glyph unicode="&#xd;" horiz-adv-x="2048" />
<glyph unicode=" "  horiz-adv-x="644" />
<glyph unicode="&#x09;" horiz-adv-x="644" />
<glyph unicode="&#xa0;" horiz-adv-x="644" />
<glyph unicode="!" horiz-adv-x="582" d="M193 0v226h199v-226h-199zM195 1383v123h195v-123l-52 -957h-93z" />
<glyph unicode="&#x22;" horiz-adv-x="946" d="M140 921l65 585h199v-12l-174 -573h-90zM559 921l67 585h197v-12l-174 -573h-90z" />
<glyph unicode="#" horiz-adv-x="1504" d="M97 380v149h260l80 456h-256v148h279l65 373h150l-62 -373h409l64 373h151l-63 -373h232v-148h-257l-80 -456h254v-149h-278l-66 -380h-152l65 380h-408l-67 -380h-150l64 380h-234zM509 529h409l77 456h-408z" />
<glyph unicode="$" horiz-adv-x="1367" d="M121 226l96 129q102 -92 201 -142.5t216 -62.5v538q-241 57 -349.5 155t-108.5 267q0 109 57.5 197.5t160.5 140t234 58.5v124h137v-128q117 -11 214.5 -53.5t196.5 -119.5l-92 -129q-146 125 -325 154v-529q245 -56 354.5 -155.5t109.5 -265.5q0 -171 -126.5 -281 t-331.5 -123v-211h-137v215q-278 25 -507 222zM342 1116q0 -48 13 -83.5t44.5 -68.5t89.5 -59.5t145 -48.5v505q-88 -3 -155 -36t-102 -87t-35 -122zM759 144q137 6 218 76t81 178q0 50 -13 86.5t-46.5 69t-92 58t-147.5 46.5v-514z" />
<glyph unicode="%" horiz-adv-x="1793" d="M111 1137q0 103 42.5 190.5t122 141t180.5 53.5q98 0 176.5 -53t120 -140.5t41.5 -191.5q0 -102 -42.5 -189.5t-121.5 -141t-178.5 -53.5t-178 53t-120.5 140.5t-42 190.5zM256 1137q0 -74 26.5 -134.5t72.5 -95t101 -34.5q86 0 141 76t55 188t-59 188.5t-141 76.5 q-88 0 -142 -76.5t-54 -188.5zM267 0l1105 1506h153l-1104 -1506h-154zM1000 368q0 102 42 189.5t121.5 141.5t178.5 54t177 -53.5t119 -141t41 -190.5t-41.5 -190.5t-120.5 -141t-179 -53.5q-99 0 -177 53t-119.5 140.5t-41.5 191.5zM1141 368q0 -74 27 -135t73 -95.5 t101 -34.5q87 0 141 75.5t54 189.5q0 112 -57.5 188t-141.5 76q-86 0 -141.5 -76.5t-55.5 -187.5z" />
<glyph unicode="&#x26;" horiz-adv-x="1496" d="M97 404q0 147 93.5 256.5t269.5 178.5q-80 94 -115 169.5t-35 165.5q0 73 29 138.5t80 114t126 76.5t163 28q103 0 187 -46t131 -125t47 -174q0 -264 -355 -390l345 -351q99 145 180 335l140 -64q-112 -241 -217 -378l262 -269l-129 -99l-236 243q-218 -234 -493 -234 q-135 0 -242.5 52.5t-169 150t-61.5 222.5zM269 406q0 -122 88 -202.5t226 -80.5q199 0 376 195l-403 415q-144 -53 -215.5 -138.5t-71.5 -188.5zM474 1170q0 -66 32 -125.5t118 -152.5q145 49 217.5 120t72.5 170q0 91 -60.5 150t-152.5 59q-100 0 -163.5 -62.5 t-63.5 -158.5z" />
<glyph unicode="'" horiz-adv-x="526" d="M140 921l65 585h201v-12l-174 -573h-92z" />
<glyph unicode="(" horiz-adv-x="932" d="M146 617.5q0 293.5 152.5 525t443.5 394.5l71 -109q-250 -160 -374.5 -358.5t-124.5 -452.5t124.5 -452.5t374.5 -357.5l-71 -110q-291 163 -443.5 395t-152.5 525.5z" />
<glyph unicode=")" horiz-adv-x="932" d="M121 -193q249 159 374 357.5t125 452.5t-125 452.5t-374 358.5l70 109q291 -163 444 -394.5t153 -525t-153 -525.5t-444 -395z" />
<glyph unicode="*" horiz-adv-x="924" d="M148 1067l250 113l-250 117l59 98l221 -154l-22 269h113l-22 -269l221 154l58 -98l-249 -117l249 -113l-58 -101l-221 156l22 -268h-113l22 268l-221 -156z" />
<glyph unicode="+" horiz-adv-x="1375" d="M162 679v156h447v443h159v-443h447v-156h-447v-443h-159v443h-447z" />
<glyph unicode="," horiz-adv-x="526" d="M99 -187q74 28 109 67.5t35 98.5v21h-77v226h197v-193q0 -130 -57 -199t-181 -96z" />
<glyph unicode="-" horiz-adv-x="876" d="M140 559v174h597v-174h-597z" />
<glyph unicode="." horiz-adv-x="526" d="M166 0v226h197v-226h-197z" />
<glyph unicode="/" horiz-adv-x="1092" d="M-45 -275l997 1991h154l-999 -1991h-152z" />
<glyph unicode="0" horiz-adv-x="1537" d="M133 753q0 126 29 242.5t85 213.5t132.5 169t177.5 112.5t215 40.5t214 -40t176 -111.5t130.5 -168.5t83 -214t28.5 -244q0 -126 -28.5 -242.5t-84 -214t-132 -169.5t-177.5 -112.5t-214 -40.5q-115 0 -215.5 40t-176.5 111.5t-131 168.5t-83.5 214t-28.5 245zM310 753 q0 -98 20.5 -191t61 -171t96 -137t128.5 -92t156 -33q41 0 80.5 8.5t74.5 24.5t67 39t59.5 52t51.5 63.5t43 73t34 81.5t25 89t15 94.5t5 98.5q0 98 -20.5 190.5t-61 171t-95.5 137t-128 92t-154 33.5q-103 0 -190 -50.5t-145 -136t-90.5 -199t-32.5 -238.5z" />
<glyph unicode="1" horiz-adv-x="769" d="M60 1389l368 127h124v-1516h-167v1340l-284 -88z" />
<glyph unicode="2" horiz-adv-x="1287" d="M103 0v131l546 482q176 156 245.5 258.5t69.5 214.5q0 85 -42 152t-110.5 101.5t-151.5 34.5q-84 0 -155 -30.5t-128 -84.5t-121 -143l-125 90q54 81 105.5 137t116.5 99t144 64t176 21q134 0 240.5 -55.5t166 -153.5t59.5 -222q0 -65 -15 -123.5t-42 -109.5 t-76.5 -109.5t-105 -112.5t-141.5 -130l-402 -357h798v-154h-1052z" />
<glyph unicode="3" horiz-adv-x="1317" d="M107 243l123 110q90 -110 198 -167t243 -57q91 0 165.5 36t119 104.5t44.5 156.5q0 138 -115.5 214t-305.5 76h-97l-35 101l476 535h-736v154h962v-125l-474 -525q81 -7 152.5 -26t135.5 -53.5t110 -82.5t72.5 -116t26.5 -150q0 -131 -67.5 -235.5t-182 -161.5 t-253.5 -57q-182 0 -323.5 71.5t-238.5 197.5z" />
<glyph unicode="4" horiz-adv-x="1442" d="M92 480l852 1036h148v-1017h235v-142h-235v-357h-163v357h-794zM297 499h632v776z" />
<glyph unicode="5" horiz-adv-x="1315" d="M114 213l112 122q212 -206 428 -206q161 0 262 95t101 242q0 140 -104.5 228t-269.5 88q-158 0 -316 -85l-114 75l43 734h866v-158h-718l-32 -482q75 34 142.5 50.5t154.5 16.5t166 -20t143.5 -60t112 -95.5t73.5 -129.5t26 -160q0 -145 -69 -258t-191 -174.5t-278 -61.5 q-153 0 -291 65t-247 174z" />
<glyph unicode="6" horiz-adv-x="1391" d="M131 714q0 114 19.5 219.5t55.5 196t90.5 164.5t123 126.5t154.5 81.5t183 29q129 0 234.5 -43.5t210.5 -128.5l-98 -132q-89 75 -173 112.5t-182 37.5q-134 0 -234.5 -84.5t-153.5 -233.5t-53 -341v-6q156 230 427 230q105 0 199.5 -33t166 -92.5t113.5 -148t42 -192.5 q0 -143 -71 -258t-194.5 -179.5t-274.5 -64.5q-104 0 -191 25t-160.5 81.5t-125 141.5t-80 210t-28.5 282zM338 462q0 -144 107.5 -240.5t272.5 -96.5q82 0 150.5 27t115 74t72.5 111t26 137q0 139 -103 230.5t-265 91.5q-82 0 -153.5 -28t-119.5 -74.5t-75.5 -107 t-27.5 -124.5z" />
<glyph unicode="7" horiz-adv-x="1281" d="M146 1350v156h1022v-127l-684 -1379h-189l679 1350h-828z" />
<glyph unicode="8" horiz-adv-x="1354" d="M111 408q0 130 84 225t226 145q-257 118 -257 351q0 113 71 205t188 142.5t254 50.5q138 0 255 -50.5t188.5 -143.5t71.5 -208q0 -64 -20.5 -118.5t-57 -97t-81 -74.5t-100.5 -57q142 -53 226 -147t84 -225q0 -125 -74.5 -223t-203 -151t-288 -53t-288.5 53.5t-203.5 152 t-74.5 223.5zM284 408q0 -118 106.5 -199.5t286.5 -81.5q181 0 287.5 81.5t106.5 204.5q0 82 -52.5 148t-142.5 102t-199 36t-198.5 -36t-142 -103t-52.5 -152zM333 1114q0 -80 46 -143.5t124.5 -97.5t174 -34t173.5 34.5t124.5 98.5t46.5 146q0 111 -99 186t-246 75 t-245.5 -75t-98.5 -190z" />
<glyph unicode="9" horiz-adv-x="1391" d="M135 1020q0 106 40 200t110.5 162.5t172.5 108.5t219 40q102 0 188 -25t160 -80.5t125.5 -140.5t80.5 -210.5t29 -284.5q0 -178 -46 -329.5t-127.5 -258.5t-198 -167.5t-254.5 -60.5q-136 0 -246.5 48.5t-217.5 137.5l99 130q94 -82 182.5 -121.5t186.5 -39.5 q99 0 182.5 48t141.5 132t91 203t33 258v20q-68 -109 -173.5 -175.5t-252.5 -66.5q-114 0 -212 35t-166.5 97t-107.5 150t-39 190zM310 1024q0 -144 103 -236.5t266 -92.5q57 0 108 13t92 36.5t74 56t55 70.5t34 80.5t12 86.5q0 95 -48 173.5t-136 124t-199 45.5 q-82 0 -151 -29t-114.5 -78t-70.5 -113.5t-25 -136.5z" />
<glyph unicode=":" horiz-adv-x="548" d="M176 0v226h198v-226h-198zM176 886v226h198v-226h-198z" />
<glyph unicode=";" horiz-adv-x="548" d="M109 -187q75 28 110 67.5t35 98.5v21h-78v226h198v-193q0 -130 -57 -199t-182 -96zM176 886v226h198v-226h-198z" />
<glyph unicode="&#x3c;" horiz-adv-x="1375" d="M154 686v141l1009 502v-166l-828 -404l828 -406v-168z" />
<glyph unicode="=" horiz-adv-x="1375" d="M193 426v159h989v-159h-989zM193 929v159h989v-159h-989z" />
<glyph unicode="&#x3e;" horiz-adv-x="1375" d="M213 185v166l828 404l-828 406v168l1008 -502v-141z" />
<glyph unicode="?" horiz-adv-x="1153" d="M64 1275q65 78 135 131t165 86t206 33q143 0 253 -55.5t169 -153.5t59 -222q0 -79 -23 -145t-63.5 -114.5t-97.5 -85t-122.5 -58.5t-140.5 -33l-21 -232h-109l-33 348l11 11q207 5 317.5 86t110.5 221q0 58 -22 109t-62 89t-99.5 60t-130.5 22q-78 0 -148.5 -24.5 t-128.5 -68.5t-115 -109zM428 0v226h198v-226h-198z" />
<glyph unicode="@" horiz-adv-x="2107" d="M114 589q0 127 33.5 248t93.5 224.5t147 191t190 148.5t226 95.5t252 34.5q130 0 252.5 -32t225 -89t188.5 -136.5t145.5 -173.5t92.5 -202t33 -219q0 -106 -23 -194.5t-61.5 -149t-90.5 -102.5t-109 -61.5t-117 -19.5q-115 0 -192.5 49t-109.5 132 q-71 -84 -156.5 -132.5t-197.5 -48.5q-106 0 -193.5 48t-140 138.5t-52.5 205.5q0 89 28.5 172.5t77 148.5t111.5 113.5t135.5 74.5t144.5 26q212 0 314 -178l28 148l144 -19l-86 -488q-15 -84 -15 -131q0 -83 48 -129t135 -46q59 0 111.5 27t95.5 79.5t68.5 139.5t25.5 197 q0 98 -29.5 195t-83.5 183t-132.5 160t-172 127.5t-207.5 83.5t-235 30t-235 -31t-209 -87.5t-173.5 -136.5t-133 -176t-84.5 -208t-30 -230q0 -119 29.5 -230.5t84 -207t134 -174.5t176 -134.5t214 -86.5t244.5 -31q106 0 198.5 16.5t172 48t165.5 81.5l34 -58 q-266 -162 -570 -162q-135 0 -261.5 34t-231.5 95t-192.5 147.5t-147 190t-93 224t-33.5 247.5zM706 554q0 -125 72.5 -196.5t189.5 -71.5q54 0 107 20.5t96.5 57.5t77.5 85t52.5 106t18.5 118q0 58 -20 109t-54.5 87t-83 56.5t-104.5 20.5q-67 0 -131 -30.5t-113 -82 t-78.5 -125t-29.5 -154.5z" />
<glyph unicode="A" horiz-adv-x="1697" d="M84 0l686 1516h159l686 -1516h-183l-176 398h-819l-179 -398h-174zM503 550h687l-343 768z" />
<glyph unicode="B" horiz-adv-x="1551" d="M213 0v1506h641q85 0 159 -15.5t133 -45.5t101 -73q97 -100 97 -245q0 -71 -20 -129.5t-55.5 -100t-75 -70t-87.5 -49.5q322 -97 322 -367q0 -128 -68 -221t-191 -141.5t-287 -48.5h-669zM380 152h506q114 0 197 32.5t128 94.5t45 147q0 124 -102.5 191t-297.5 67h-476 v-532zM380 835h445q104 0 181 30t121.5 92t44.5 151q0 113 -87 178.5t-246 65.5h-459v-517z" />
<glyph unicode="C" horiz-adv-x="1586" d="M146 753q0 158 57 301t156.5 248t242.5 167t305 62q80 0 151.5 -12t128.5 -32t112 -52t99 -66.5t92 -80.5l-111 -120q-105 99 -217.5 152.5t-256.5 53.5q-123 0 -231 -48t-185 -130.5t-122 -198t-45 -244.5t45 -244t122.5 -198t185.5 -131.5t230 -48.5q147 0 258.5 53.5 t227.5 164.5l113 -119q-84 -84 -166.5 -138t-193 -86t-243.5 -32q-160 0 -301 60.5t-240 164.5t-156.5 248t-57.5 306z" />
<glyph unicode="D" horiz-adv-x="1681" d="M213 0v1506h522q174 0 324 -58t254 -158t163 -239t59 -298q0 -157 -59 -296t-163 -239.5t-254 -159t-324 -58.5h-522zM383 158h352q112 0 210.5 29t173.5 83t129.5 127t82.5 164t28 192q0 124 -44.5 233t-124.5 189.5t-197.5 126.5t-257.5 46h-352v-1190z" />
<glyph unicode="E" horiz-adv-x="1440" d="M213 0v1506h1088v-156h-918v-513h821v-156h-821v-527h928v-154h-1098z" />
<glyph unicode="F" horiz-adv-x="1410" d="M213 0v1506h1082v-158h-912v-537h815v-155h-815v-656h-170z" />
<glyph unicode="G" horiz-adv-x="1685" d="M146 753q0 102 25 200.5t70.5 184.5t113 158.5t150 124.5t184 81t212.5 29q182 0 312 -49t250 -151l-111 -129q-97 85 -202.5 128.5t-254.5 43.5q-123 0 -230 -49.5t-182 -133.5t-118 -198t-43 -240q0 -134 42 -249t118.5 -198.5t188.5 -131t247 -47.5q123 0 238 42 t196 108v375h-457v152h621v-599q-74 -66 -162 -116t-204.5 -82.5t-238.5 -32.5q-139 0 -260.5 39t-213.5 110t-158 167.5t-99.5 214.5t-33.5 248z" />
<glyph unicode="H" horiz-adv-x="1633" d="M213 0v1506h170v-669h869v669h170v-1506h-170v677h-869v-677h-170z" />
<glyph unicode="I" horiz-adv-x="624" d="M228 0v1506h170v-1506h-170z" />
<glyph unicode="J" horiz-adv-x="1188" d="M66 245l123 106q73 -111 152 -163.5t192 -52.5q132 0 213 94t81 268v1009h173v-1007q0 -259 -138 -396q-127 -124 -331 -124q-160 0 -274.5 70.5t-190.5 195.5z" />
<glyph unicode="K" horiz-adv-x="1545" d="M213 0v1506h170v-899l864 899h220l-646 -659l673 -847h-212l-578 729l-321 -325v-404h-170z" />
<glyph unicode="L" horiz-adv-x="1330" d="M213 0v1506h170v-1348h847v-158h-1017z" />
<glyph unicode="M" horiz-adv-x="1865" d="M213 0v1506h172l548 -822l549 822h172v-1506h-170v1219l-548 -806h-9l-549 804v-1217h-165z" />
<glyph unicode="N" horiz-adv-x="1697" d="M213 0v1506h159l948 -1207v1207h166v-1506h-136l-972 1235v-1235h-165z" />
<glyph unicode="O" horiz-adv-x="1827" d="M146 753q0 88 18.5 173.5t54 162t86 144.5t116.5 122.5t142 93.5t166 60.5t187 21.5q134 0 254.5 -40.5t213 -113t160 -169.5t103 -213.5t35.5 -241.5q0 -124 -35.5 -240.5t-104 -213.5t-161.5 -170t-214 -114t-255.5 -41t-255 40.5t-212.5 113t-160 169.5t-103 214 t-35 242zM322 753q0 -127 45 -241.5t122.5 -198t188.5 -133t237.5 -49.5t237 49t187.5 132t121.5 197.5t44.5 243.5q0 101 -28.5 195.5t-82 171.5t-126 134t-164.5 88.5t-193.5 31.5t-193.5 -31t-163.5 -88t-124 -133.5t-80.5 -171t-28 -197.5z" />
<glyph unicode="P" horiz-adv-x="1436" d="M213 0v1506h563q170 0 297 -57.5t197 -167t70 -257.5q0 -80 -21.5 -149.5t-60.5 -123t-93.5 -95.5t-120.5 -69t-140.5 -41.5t-154.5 -14.5h-366v-531h-170zM383 686h372q187 0 300 92t113 244q0 158 -109 242t-296 84h-380v-662z" />
<glyph unicode="Q" horiz-adv-x="1827" d="M146 753q0 88 18.5 173.5t54 162t86 144.5t116.5 122.5t142 93.5t166 60.5t187 21.5q134 0 254.5 -40.5t213 -113t160 -169.5t103 -213.5t35.5 -241.5q0 -142 -46.5 -272t-133.5 -233l199 -166l-117 -127l-197 180q-204 -161 -476 -161q-134 0 -254.5 40.5t-212.5 113 t-160 169.5t-103 214t-35 242zM322 753q0 -127 45 -241.5t122.5 -198t188.5 -133t238 -49.5q199 0 346 114l-279 239l113 127l278 -252q132 168 132 394q0 101 -28.5 195.5t-82 171.5t-126 134t-164.5 88.5t-193.5 31.5t-193.5 -31t-163.5 -88t-124 -133.5t-80.5 -171 t-28 -197.5z" />
<glyph unicode="R" horiz-adv-x="1554" d="M213 0v1506h647q91 0 172 -18.5t145 -52t111 -81.5q116 -115 116 -300q0 -91 -30.5 -167t-85.5 -130t-129 -89.5t-164 -52.5l463 -615h-208l-437 585h-430v-585h-170zM383 737h462q173 0 280.5 84.5t107.5 229.5q0 139 -102 218t-284 79h-464v-611z" />
<glyph unicode="S" horiz-adv-x="1375" d="M114 219l105 125q123 -110 243.5 -161.5t272.5 -51.5q151 0 243.5 73t92.5 188q0 55 -17 94.5t-60.5 75t-120 63.5t-194.5 52q-134 30 -225.5 65.5t-156 87.5t-94 122t-29.5 164q0 117 64 211t177 147t254 53q161 0 286.5 -45.5t242.5 -139.5l-99 -131q-200 163 -434 163 q-144 0 -232.5 -70.5t-88.5 -176.5q0 -56 17.5 -96t63 -76t125 -65t203.5 -55q255 -56 372.5 -157t117.5 -274q0 -127 -66 -224t-182.5 -149t-265.5 -52q-178 0 -328 59t-287 181z" />
<glyph unicode="T" horiz-adv-x="1393" d="M105 1348v158h1183v-158h-506v-1348h-171v1348h-506z" />
<glyph unicode="U" horiz-adv-x="1631" d="M189 630v876h170v-866q0 -242 121.5 -374.5t338.5 -132.5q212 0 333 127.5t121 369.5v876h170v-863q0 -130 -29.5 -238t-84 -187t-131.5 -133.5t-173.5 -81.5t-209.5 -27q-140 0 -255 42.5t-197.5 124t-128 206t-45.5 281.5z" />
<glyph unicode="V" horiz-adv-x="1612" d="M84 1506h189l535 -1297l538 1297h183l-647 -1516h-151z" />
<glyph unicode="W" horiz-adv-x="2380" d="M97 1506h184l431 -1254l413 1258h139l413 -1258l430 1254h179l-538 -1516h-144l-412 1221l-416 -1221h-142z" />
<glyph unicode="X" horiz-adv-x="1558" d="M99 0l578 768l-556 738h199l462 -616l459 616h197l-556 -736l579 -770h-203l-482 647l-481 -647h-196z" />
<glyph unicode="Y" horiz-adv-x="1539" d="M58 1506h207l507 -753l512 753h198l-626 -909v-597h-172v595z" />
<glyph unicode="Z" horiz-adv-x="1489" d="M144 0v114l974 1238h-942v154h1174v-115l-976 -1239h976v-152h-1206z" />
<glyph unicode="[" horiz-adv-x="943" d="M203 -279v1785h614v-129h-458v-1527h458v-129h-614z" />
<glyph unicode="\" horiz-adv-x="1092" d="M-13 1716h153l997 -1991h-152z" />
<glyph unicode="]" horiz-adv-x="943" d="M127 -150h460v1527h-460v129h615v-1785h-615v129z" />
<glyph unicode="^" d="M140 1060l334 450h128l334 -450h-146l-254 331l-255 -331h-141z" />
<glyph unicode="_" horiz-adv-x="1289" d="M-4 -209h1299v-135h-1299v135z" />
<glyph unicode="`" d="M310 1512l172 80l204 -312h-134z" />
<glyph unicode="a" horiz-adv-x="1244" d="M101 327q0 116 60.5 199t166.5 123.5t248 40.5q175 0 340 -47v34q0 98 -39 166t-112 102t-178 34q-92 0 -172 -20.5t-165 -59.5l-50 135q103 47 196.5 71t207.5 24q237 0 360 -123q115 -116 115 -327v-679h-163v166q-150 -190 -399 -190q-64 0 -124 14t-113 43t-93 69.5 t-63 98.5t-23 126zM269 331q0 -68 38.5 -119t101.5 -77t139 -26q102 0 186 37.5t134 106.5t50 155v103q-161 48 -325 48q-153 0 -238.5 -62t-85.5 -166z" />
<glyph unicode="b" horiz-adv-x="1426" d="M185 0v1570h166v-682q167 247 425 247q80 0 157.5 -24.5t145 -74t118.5 -118t80.5 -162.5t29.5 -202q0 -106 -29 -199t-80 -161.5t-118.5 -118t-145 -74.5t-158.5 -25q-262 0 -425 237v-213h-166zM344 554q0 -94 34 -175.5t90 -136.5t128.5 -86t150.5 -31q80 0 151 29.5 t124.5 83.5t84 136.5t30.5 181.5q0 96 -31.5 178t-84.5 136.5t-124 85.5t-150 31q-78 0 -150.5 -31.5t-128.5 -87t-90 -138t-34 -176.5z" />
<glyph unicode="c" horiz-adv-x="1227" d="M117 554q0 117 43.5 223.5t118.5 185t181.5 125.5t225.5 47q76 0 143 -15t121 -43.5t96.5 -61.5t84.5 -77l-105 -113q-74 78 -156 121t-186 43q-111 0 -202.5 -57.5t-143.5 -157.5t-52 -220q0 -118 53.5 -217t147.5 -156.5t208 -57.5q99 0 180.5 44t154.5 123l109 -101 q-92 -103 -199.5 -159t-253.5 -56q-119 0 -225.5 46.5t-181.5 125t-118.5 185t-43.5 223.5z" />
<glyph unicode="d" horiz-adv-x="1426" d="M121 556q0 89 20.5 169t57.5 143t87.5 114t109.5 84t124 51t132 18q263 0 425 -236v671h166v-1570h-166v224q-168 -248 -425 -248q-80 0 -157.5 24.5t-145 74t-118.5 117.5t-80.5 162.5t-29.5 201.5zM290 554q0 -96 31.5 -177.5t85 -136t124.5 -85t150 -30.5 q78 0 150.5 31.5t128.5 87t90 138t34 177.5q0 93 -34 174t-90 136t-128.5 86.5t-150.5 31.5q-80 0 -151.5 -29.5t-124.5 -84t-84 -137t-31 -182.5z" />
<glyph unicode="e" horiz-adv-x="1272" d="M117 554q0 120 40 227t110 185t169.5 123.5t212.5 45.5q120 0 219 -46t164 -126t100.5 -187t35.5 -230q0 -32 -2 -58h-882q11 -114 68 -199t140.5 -127.5t182.5 -42.5q109 0 194 40t157 116l103 -92q-91 -102 -199.5 -155.5t-258.5 -53.5q-114 0 -215.5 42.5 t-176.5 117.5t-118.5 184t-43.5 236zM284 622h716q-8 77 -33.5 143.5t-68.5 118.5t-108 81.5t-145 29.5q-142 0 -242.5 -105t-118.5 -268z" />
<glyph unicode="f" horiz-adv-x="788" d="M94 966v144h154v96q0 189 96 286q86 86 239 86q105 0 182 -27v-145q-101 28 -161 28q-193 0 -193 -236v-90h352v-142h-350v-966h-165v966h-154z" />
<glyph unicode="g" horiz-adv-x="1426" d="M121 611q0 79 20 151t56 129t85.5 103.5t107.5 77t122.5 47t130.5 16.5q267 0 434 -224v201h166v-919q0 -251 -142 -393q-73 -73 -181.5 -111t-242.5 -38q-281 0 -505 156l76 129q196 -143 427 -143q188 0 296 102t108 294v131q-175 -234 -436 -234q-101 0 -194.5 37 t-166.5 103t-117 166.5t-44 218.5zM290 611q0 -82 31 -153.5t83.5 -120.5t123 -77t147.5 -28q53 0 104 12.5t96 35.5t83.5 57.5t66 75.5t43.5 92.5t16 107.5q0 83 -34.5 154.5t-91 119.5t-130.5 75t-153 27q-106 0 -193 -45.5t-139.5 -132.5t-52.5 -200z" />
<glyph unicode="h" horiz-adv-x="1324" d="M185 0v1570h166v-652q132 217 380 217q199 0 312.5 -122t113.5 -323v-690h-166v649q0 156 -81 246t-226 90t-239 -97t-94 -252v-636h-166z" />
<glyph unicode="i" horiz-adv-x="564" d="M189 1354v183h189v-183h-189zM200 0v1112h165v-1112h-165z" />
<glyph unicode="j" horiz-adv-x="564" d="M-8 -205q39 -6 82 -6q58 0 92 37t34 112v1174h165v-1176q0 -143 -70.5 -215t-200.5 -72q-56 0 -102 11v135zM189 1354v183h189v-183h-189z" />
<glyph unicode="k" horiz-adv-x="1223" d="M185 0v1570h166v-1084l599 626h207l-467 -478l482 -634h-198l-398 519l-225 -229v-290h-166z" />
<glyph unicode="l" horiz-adv-x="564" d="M200 0v1570h165v-1570h-165z" />
<glyph unicode="m" horiz-adv-x="2044" d="M185 0v1112h166v-187q31 46 62 80t74 65.5t99.5 48t123.5 16.5q128 0 218.5 -60.5t138.5 -160.5q144 221 391 221q192 0 302.5 -120t110.5 -327v-688h-166v649q0 161 -75.5 248.5t-211.5 87.5q-64 0 -119.5 -23.5t-97.5 -66.5t-66.5 -108.5t-24.5 -146.5v-640h-164v654 q0 156 -76.5 243.5t-209.5 87.5t-221 -99t-88 -252v-634h-166z" />
<glyph unicode="n" horiz-adv-x="1324" d="M185 0v1112h166v-194q132 217 380 217q199 0 312.5 -122t113.5 -323v-690h-166v649q0 156 -81 246t-226 90t-239 -97t-94 -252v-636h-166z" />
<glyph unicode="o" horiz-adv-x="1389" d="M117 554q0 117 44 223.5t120 185t184.5 125.5t231.5 47q122 0 230 -46t184 -124.5t120 -185.5t44 -225q0 -116 -44.5 -222.5t-121 -185.5t-185.5 -125.5t-232 -46.5q-122 0 -230 46t-183 124.5t-118.5 185t-43.5 224.5zM286 554q0 -117 53.5 -216t148 -157t209.5 -58 q118 0 212 58t145.5 156.5t51.5 216.5t-54 218t-149.5 158.5t-210.5 58.5q-117 0 -211 -59t-144.5 -158t-50.5 -218z" />
<glyph unicode="p" horiz-adv-x="1426" d="M185 -344v1456h166v-224q167 247 425 247q80 0 157.5 -24.5t145 -74t118.5 -118t80.5 -162.5t29.5 -202q0 -106 -29 -199t-80 -161.5t-118.5 -118t-145 -74.5t-158.5 -25q-262 0 -425 237v-557h-166zM344 554q0 -94 34 -175.5t90 -136.5t128.5 -86t150.5 -31 q80 0 151 29.5t124.5 83.5t84 136.5t30.5 181.5q0 96 -31.5 178t-84.5 136.5t-124 85.5t-150 31q-78 0 -150.5 -31.5t-128.5 -87t-90 -138t-34 -176.5z" />
<glyph unicode="q" horiz-adv-x="1426" d="M121 556q0 89 20.5 169t57.5 143t87.5 114t109.5 84t124 51t132 18q263 0 425 -236v213h166v-1456h-166v568q-168 -248 -425 -248q-80 0 -157.5 24.5t-145 74t-118.5 117.5t-80.5 162.5t-29.5 201.5zM290 554q0 -96 31.5 -177.5t85 -136t124.5 -85t150 -30.5 q78 0 150.5 31.5t128.5 87t90 138t34 177.5q0 93 -34 174t-90 136t-128.5 86.5t-150.5 31.5q-80 0 -151.5 -29.5t-124.5 -84t-84 -137t-31 -182.5z" />
<glyph unicode="r" horiz-adv-x="870" d="M185 0v1112h166v-291q65 145 183 231q111 80 250 79h20v-179h-12q-92 0 -171.5 -33t-140 -95.5t-95 -160.5t-34.5 -220v-443h-166z" />
<glyph unicode="s" horiz-adv-x="1069" d="M92 142l84 118q190 -141 386 -141q101 0 165.5 49t64.5 131q0 27 -10 50t-31 41.5t-43 32.5t-58 27.5t-64.5 22.5t-72.5 22q-46 13 -75.5 22t-72.5 25.5t-70 32.5t-58.5 40.5t-49 51.5t-29.5 64.5t-12 81.5q0 94 49 166.5t135 112t195 39.5q67 0 138 -14.5t138 -42 t124 -65.5l-76 -125q-78 51 -163.5 79t-164.5 28q-49 0 -89.5 -12.5t-68 -34t-42.5 -52.5t-15 -67q0 -17 5.5 -32.5t12.5 -28t23 -25.5t28 -21.5t36.5 -19.5t39 -17.5t45.5 -16.5t46 -14.5t49 -15.5q44 -13 74.5 -23t71 -27t68 -34t57 -41.5t47 -52t28.5 -64.5t11 -80 q0 -103 -53 -179.5t-142 -115t-201 -38.5q-119 0 -242.5 43.5t-217.5 119.5z" />
<glyph unicode="t" horiz-adv-x="868" d="M88 966v146h155v335h165v-335h353v-146h-353v-650q0 -185 187 -185q83 0 162 39v-142q-90 -47 -201 -47q-68 0 -124 17.5t-99 54.5t-66.5 98.5t-23.5 143.5v671h-155z" />
<glyph unicode="u" horiz-adv-x="1324" d="M168 421v691h165v-650q0 -156 81 -245.5t226 -89.5q95 0 170.5 43t119.5 123t44 183v636h163v-1112h-163v193q-136 -217 -381 -217q-198 0 -311.5 122t-113.5 323z" />
<glyph unicode="v" horiz-adv-x="1262" d="M76 1112h182l374 -923l377 923h177l-482 -1120h-148z" />
<glyph unicode="w" horiz-adv-x="1851" d="M90 1112h177l292 -893l299 897h137l302 -897l292 893h172l-391 -1120h-145l-298 876l-301 -876h-146z" />
<glyph unicode="x" horiz-adv-x="1233" d="M84 0l437 566l-420 546h189l330 -431l328 431h185l-421 -542l439 -570h-192l-344 454l-346 -454h-185z" />
<glyph unicode="y" horiz-adv-x="1270" d="M74 1112h182l404 -927l357 927h177l-467 -1149q-48 -115 -101.5 -184t-118 -99.5t-150.5 -30.5q-122 0 -236 56l55 131q78 -41 175 -41q75 0 127 46.5t101 162.5z" />
<glyph unicode="z" horiz-adv-x="1194" d="M121 0v105l737 867h-712v140h938v-106l-740 -866h740v-140h-963z" />
<glyph unicode="{" horiz-adv-x="1038" d="M121 552v129h55q140 0 197 63.5t57 195.5q0 19 -1 83.5t-1 80.5q0 59 8 105t27 90.5t53 78.5t85.5 64.5t124.5 54t169 40.5l26 -109q-65 -17 -113.5 -34t-85 -34.5t-60.5 -40t-39.5 -45t-23.5 -54t-11 -63t-3 -75.5q0 -22 1 -80t1 -81q0 -129 -56.5 -199t-167.5 -105 q57 -18 96.5 -42t69 -59t44 -85t14.5 -117q0 -23 -1 -81.5t-1 -80.5q0 -52 4 -87t16.5 -70.5t34.5 -59t60 -47t91.5 -43t129.5 -38.5l-26 -110q-115 21 -197.5 51.5t-134.5 67t-82 87t-41.5 104t-11.5 124.5q0 16 1 80.5t1 83.5q0 65 -12.5 111.5t-41.5 80t-78.5 49.5 t-121.5 16h-55z" />
<glyph unicode="|" horiz-adv-x="651" d="M256 -275v1991h140v-1991h-140z" />
<glyph unicode="}" horiz-adv-x="1038" d="M117 -193q76 19 130 38.5t92 43t60 47t34.5 59t16.5 70t4 87.5q0 22 -1 80.5t-1 81.5q0 88 28 149.5t75.5 96.5t119.5 57q-45 15 -78.5 32.5t-62 43t-46 57.5t-27 74.5t-9.5 96.5q0 23 1 81t1 80q0 52 -4 87t-16.5 70.5t-34.5 59t-60 47.5t-92 43t-130 39l27 109 q82 -15 147.5 -35t114.5 -43t84.5 -52.5t58.5 -61t37 -71t19.5 -80t5.5 -90.5q0 -16 -1 -80.5t-1 -83.5q0 -65 12.5 -111.5t41 -80.5t77.5 -50.5t120 -16.5h56v-129h-56q-138 0 -194.5 -62.5t-56.5 -194.5q0 -19 1 -83.5t1 -80.5q0 -59 -8 -105t-27 -90.5t-53 -79t-85.5 -65 t-124.5 -54t-169 -40.5z" />
<glyph unicode="~" horiz-adv-x="1016" d="M158 538q16 62 35 104.5t44 70.5t55 40t69 12q40 0 96 -22t108.5 -44t83.5 -22q41 0 64 23.5t48 84.5l99 -28q-32 -123 -78.5 -175.5t-123.5 -52.5q-41 0 -97.5 22t-108.5 44t-82 22q-41 0 -63.5 -23t-48.5 -85z" />
<glyph unicode="&#xa1;" horiz-adv-x="582" d="M193 1280v226h199v-226h-199zM195 0v123l50 956h93l52 -956v-123h-195z" />
<glyph unicode="&#xa2;" horiz-adv-x="1248" d="M125 763q0 116 44 223t119.5 185.5t182 125.5t224.5 47h27l33 174h140l-39 -193q151 -41 283 -181l-107 -112q-108 112 -211 144l-165 -843q15 -2 45 -2q187 0 342 166l104 -97q-44 -50 -90 -88t-101.5 -68t-122 -45.5t-141.5 -15.5q-39 0 -58 2l-39 -198h-139l47 228 q-111 40 -196.5 120.5t-133.5 191.5t-48 236zM293 763q0 -134 67 -242t178 -158l161 833h-9q-110 0 -201.5 -57t-143.5 -156.5t-52 -219.5z" />
<glyph unicode="&#xa3;" horiz-adv-x="1383" d="M144 0v99l180 45v490h-180v148h180v233q0 120 35 218.5t101 164.5q129 129 340 129q83 0 153 -17.5t125.5 -50.5t98 -72.5t83.5 -91.5l-131 -103q-23 28 -43.5 49.5t-44.5 43t-50 36.5t-55.5 26.5t-64 17t-73.5 5.5q-128 0 -211 -80q-92 -89 -92 -275v-233h599v-148h-599 v-484h763v-150h-1114z" />
<glyph unicode="&#xa5;" horiz-adv-x="1474" d="M58 1506h202l480 -736l483 736h195l-550 -800h392v-134h-441v-189h441v-133h-441v-250h-163v250h-441v133h441v189h-441v134h389z" />
<glyph unicode="&#xa7;" horiz-adv-x="1358" d="M133 774q0 96 77 160t207 86q-75 38 -117 94.5t-42 126.5q0 129 108 207.5t288 78.5q98 0 189.5 -26t166.5 -70.5t137 -107.5l-109 -104q-78 77 -177 121.5t-212 44.5q-73 0 -123.5 -19t-74 -51t-23.5 -76q0 -41 31.5 -73t108.5 -63t210 -62q247 -59 347 -128t100 -182 q0 -63 -36 -114t-99 -84t-148 -47q74 -36 116.5 -93.5t42.5 -127.5q0 -130 -107.5 -208t-287.5 -78q-146 0 -272.5 54t-220.5 150l107 103q78 -77 177.5 -121t212.5 -44q108 0 164.5 40t56.5 106q0 61 -78 106.5t-272 90.5q-246 59 -347 128.5t-101 181.5zM293 788 q0 -38 26 -68.5t94.5 -61t183.5 -58.5q132 -34 236 -34q103 0 168.5 44t65.5 108q0 38 -26.5 68t-95 60.5t-184.5 58.5q-138 35 -234 35q-103 0 -168.5 -44t-65.5 -108z" />
<glyph unicode="&#xa8;" d="M252 1280v204h193v-204h-193zM630 1280v204h193v-204h-193z" />
<glyph unicode="&#xa9;" horiz-adv-x="1783" d="M114 753q0 156 61 299.5t165 248.5t249 167.5t305.5 62.5t305 -62t247.5 -166.5t163.5 -248t60.5 -301.5q0 -156 -61.5 -300t-165 -249t-248.5 -167.5t-305.5 -62.5t-305 62t-247.5 166.5t-163.5 248.5t-60.5 302zM185 749q0 -144 54 -274.5t147 -226t225 -151.5t279 -56 q149 0 281.5 57t226 153t148 228t54.5 278q0 144 -54 274.5t-147 225.5t-225 151.5t-279 56.5q-119 0 -229 -36.5t-196.5 -103t-151 -154.5t-99 -197t-34.5 -225zM501 765q0 111 52 205t145.5 150t206.5 56q101 0 172 -33t138 -96l-80 -86q-112 108 -232 108t-200.5 -89 t-80.5 -217q0 -125 82 -214t201 -89q71 0 124 26.5t112 81.5l78 -76q-68 -70 -142 -105.5t-176 -35.5q-112 0 -204 55.5t-144 150.5t-52 208z" />
<glyph unicode="&#xaa;" horiz-adv-x="837" d="M125 622v100h559v-100h-559zM131 1075q0 95 73 147.5t192 52.5q85 0 172 -23v10q0 37 -11.5 65.5t-33 48t-53 29.5t-70.5 10q-81 0 -185 -47l-32 90q61 28 112.5 41t115.5 13q61 0 109 -15.5t82.5 -46t52.5 -78.5t18 -110v-372h-105v82q-77 -94 -207 -94q-59 0 -110 20.5 t-85.5 67t-34.5 109.5zM243 1075q0 -50 39 -78.5t98 -28.5q78 0 133 42t55 108v52q-82 24 -164 24q-28 0 -55.5 -6.5t-52 -19.5t-39 -37t-14.5 -56z" />
<glyph unicode="&#xab;" horiz-adv-x="1182" d="M103 548v18l349 458l127 -72l-291 -393l291 -397l-127 -74zM583 548v18l348 458l125 -72l-291 -393l291 -397l-125 -74z" />
<glyph unicode="&#xac;" horiz-adv-x="1375" d="M191 927v161h991v-544h-160v383h-831z" />
<glyph unicode="&#xad;" horiz-adv-x="876" d="M140 559v174h597v-174h-597z" />
<glyph unicode="&#xae;" horiz-adv-x="1783" d="M114 753q0 156 61 299.5t165 248.5t249 167.5t305.5 62.5t305 -62t247.5 -166.5t163.5 -248t60.5 -301.5q0 -156 -61.5 -300t-165 -249t-248.5 -167.5t-305.5 -62.5t-305 62t-247.5 166.5t-163.5 248.5t-60.5 302zM185 749q0 -144 54 -274.5t147 -226t225 -151.5t279 -56 q149 0 281.5 57t226 153t148 228t54.5 278q0 144 -54 274.5t-147 225.5t-225 151.5t-279 56.5q-119 0 -229 -36.5t-196.5 -103t-151 -154.5t-99 -197t-34.5 -225zM587 376v798h357q74 0 135.5 -22.5t100.5 -61.5q65 -62 65 -159q0 -93 -56 -152t-151 -82l248 -321h-147 l-234 301h-199v-301h-119zM706 782h227q56 0 98.5 17t66.5 50.5t24 79.5q0 64 -48.5 101t-133.5 37h-234v-285z" />
<glyph unicode="&#xaf;" d="M197 1290v144h681v-144h-681z" />
<glyph unicode="&#xb0;" horiz-adv-x="983" d="M154 1192q0 86 47.5 162t126 120t165 44t165 -44.5t126 -121.5t47.5 -166q0 -51 -18.5 -100.5t-50.5 -89.5t-74 -71t-93 -48t-103 -17q-86 0 -164.5 45t-126 122.5t-47.5 164.5zM279 1186q0 -85 61.5 -149.5t151.5 -64.5q91 0 152.5 65.5t61.5 154.5q0 85 -61.5 149.5 t-152.5 64.5q-90 0 -151.5 -65t-61.5 -155z" />
<glyph unicode="&#xb1;" horiz-adv-x="1375" d="M150 649v155h454v362h166v-362h455v-155h-455v-361h-166v361h-454zM154 30v151h1067v-151h-1067z" />
<glyph unicode="&#xb4;" d="M390 1280l203 312l172 -80l-242 -232h-133z" />
<glyph unicode="&#xb5;" horiz-adv-x="1352" d="M185 -344v1456h166v-650q0 -146 87 -242.5t225 -96.5q144 0 241.5 99.5t97.5 253.5v636h166v-1112h-166v193q-129 -214 -374 -214q-98 0 -163.5 38.5t-113.5 107.5v-469h-166z" />
<glyph unicode="&#xb6;" horiz-adv-x="1096" d="M103 1038q0 144 72.5 250.5t200.5 162t295 55.5h228v-1506h-172v568h-23q-129 0 -238 31t-190 89.5t-127 148t-46 201.5z" />
<glyph unicode="&#xb7;" horiz-adv-x="526" d="M166 533v226h197v-226h-197z" />
<glyph unicode="&#xb8;" d="M322 -260l195 281h130l-163 -354z" />
<glyph unicode="&#xba;" horiz-adv-x="837" d="M103 1196q0 52 15.5 100t44 88t67.5 69.5t88 46t103 16.5q89 0 161 -43t112.5 -116.5t40.5 -160.5q0 -86 -41 -159.5t-114.5 -117t-162.5 -43.5t-161 43t-112.5 116.5t-40.5 160.5zM109 622v100h620v-100h-620zM219 1196q0 -90 58 -153.5t144 -63.5q58 0 103.5 29 t70.5 78.5t25 109.5q0 91 -58 154t-145 63q-88 0 -143 -62.5t-55 -154.5z" />
<glyph unicode="&#xbb;" horiz-adv-x="1182" d="M127 160l290 394l-290 396l125 74l348 -458v-18l-348 -460zM604 160l291 394l-291 396l127 74l348 -458v-18l-348 -460z" />
<glyph unicode="&#xbf;" horiz-adv-x="1153" d="M103 411q0 97 35 175.5t97.5 130.5t141 84.5t173.5 45.5l20 232h109l35 -348l-10 -11q-104 -2 -185 -24.5t-134.5 -62t-81.5 -95.5t-28 -125q0 -119 86.5 -199.5t227.5 -80.5q220 0 390 202l109 -105q-65 -79 -134 -131.5t-163.5 -85t-205.5 -32.5q-108 0 -198.5 32 t-152.5 89t-96.5 136.5t-34.5 172.5zM529 1280v226h198v-226h-198z" />
<glyph unicode="&#xc0;" horiz-adv-x="1697" d="M84 0l686 1516h159l686 -1516h-183l-176 398h-819l-179 -398h-174zM503 550h687l-343 768zM538 1871l172 80l204 -312h-134z" />
<glyph unicode="&#xc1;" horiz-adv-x="1697" d="M84 0l686 1516h159l686 -1516h-183l-176 398h-819l-179 -398h-174zM503 550h687l-343 768zM785 1639l204 312l172 -80l-243 -232h-133z" />
<glyph unicode="&#xc2;" horiz-adv-x="1697" d="M84 0l686 1516h159l686 -1516h-183l-176 398h-819l-179 -398h-174zM503 550h687l-343 768zM548 1632l228 282h147l228 -282h-142l-162 145l-161 -145h-138z" />
<glyph unicode="&#xc3;" horiz-adv-x="1697" d="M84 0l686 1516h159l686 -1516h-183l-176 398h-819l-179 -398h-174zM497 1647q32 122 79.5 174t124.5 52q41 0 97.5 -21.5t108.5 -43t82 -21.5q41 0 64 22.5t48 82.5l101 -27q-32 -121 -79.5 -173.5t-124.5 -52.5q-41 0 -97.5 21.5t-108.5 42.5t-82 21q-41 0 -64 -22.5 t-49 -82.5zM503 550h687l-343 768z" />
<glyph unicode="&#xc4;" horiz-adv-x="1697" d="M84 0l686 1516h159l686 -1516h-183l-176 398h-819l-179 -398h-174zM503 550h687l-343 768zM564 1639v204h193v-204h-193zM942 1639v204h193v-204h-193z" />
<glyph unicode="&#xc5;" horiz-adv-x="1697" d="M84 0l660 1463q-26 14 -47.5 33t-37.5 43t-24.5 53t-8.5 60q0 86 67 149.5t156 63.5q90 0 157 -64t67 -154q0 -58 -32.5 -107t-86.5 -77l661 -1463h-183l-176 398h-819l-179 -398h-174zM503 550h687l-343 768zM716 1647q0 -53 40 -92t93 -39q55 0 94.5 39.5t39.5 96.5 q0 53 -39.5 92t-94.5 39t-94 -39.5t-39 -96.5z" />
<glyph unicode="&#xc6;" horiz-adv-x="2247" d="M37 0l884 1506h1186v-156h-880v-513h784v-156h-784v-527h891v-154h-1062v398h-607l-234 -398h-178zM536 550h520v804h-52z" />
<glyph unicode="&#xc7;" horiz-adv-x="1586" d="M146 753q0 158 57 301t156.5 248t242.5 167t305 62q100 0 185 -16.5t156 -50t128.5 -74.5t117.5 -97l-115 -125q-105 99 -217.5 152.5t-256.5 53.5q-123 0 -231 -48t-185 -130.5t-122 -198t-45 -244.5t45 -244t122.5 -198t185.5 -131.5t230 -48.5q147 0 258.5 53.5 t227.5 164.5l113 -111q-60 -60 -117.5 -104.5t-127 -80t-150 -55.5t-173.5 -24l-142 -307l-162 73l166 241q-141 18 -262 85t-207 168.5t-134.5 235.5t-48.5 283z" />
<glyph unicode="&#xc8;" horiz-adv-x="1440" d="M213 0v1506h1088v-156h-918v-513h821v-156h-821v-527h928v-154h-1098zM488 1871l172 80l204 -312h-133z" />
<glyph unicode="&#xc9;" horiz-adv-x="1440" d="M213 0v1506h1088v-156h-918v-513h821v-156h-821v-527h928v-154h-1098zM638 1639l205 312l172 -80l-243 -232h-134z" />
<glyph unicode="&#xca;" horiz-adv-x="1440" d="M213 0v1506h1088v-156h-918v-513h821v-156h-821v-527h928v-154h-1098zM447 1639l228 281h146l228 -281h-142l-160 144l-162 -144h-138z" />
<glyph unicode="&#xcb;" horiz-adv-x="1440" d="M213 0v1506h1088v-156h-918v-513h821v-156h-821v-527h928v-154h-1098zM462 1639v204h194v-204h-194zM841 1639v204h193v-204h-193z" />
<glyph unicode="&#xcc;" horiz-adv-x="624" d="M4 1871l172 80l204 -312h-132zM228 0v1506h170v-1506h-170z" />
<glyph unicode="&#xcd;" horiz-adv-x="624" d="M228 0v1506h170v-1506h-170zM245 1639l204 312l173 -80l-244 -232h-133z" />
<glyph unicode="&#xce;" horiz-adv-x="624" d="M13 1639l227 281h147l228 -281h-141l-162 144l-162 -144h-137zM228 0v1506h170v-1506h-170z" />
<glyph unicode="&#xcf;" horiz-adv-x="624" d="M28 1639v204h194v-204h-194zM228 0v1506h170v-1506h-170zM406 1639v204h194v-204h-194z" />
<glyph unicode="&#xd0;" horiz-adv-x="1745" d="M117 679v156h160v671h523q175 0 324.5 -58t253.5 -158t163 -239t59 -298q0 -157 -59 -296t-163 -239.5t-254 -159t-324 -58.5h-523v679h-160zM447 158h353q140 0 257.5 45.5t197.5 125t124.5 189t44.5 235.5q0 124 -44.5 233t-124.5 189.5t-197.5 126.5t-257.5 46h-353 v-513h452v-156h-452v-521z" />
<glyph unicode="&#xd1;" horiz-adv-x="1697" d="M213 0v1506h159l948 -1207v1207h166v-1506h-136l-972 1235v-1235h-165zM497 1647q32 122 79.5 174t124.5 52q41 0 97.5 -21.5t108.5 -43t82 -21.5q41 0 64 22.5t48 82.5l101 -27q-32 -121 -79.5 -173.5t-124.5 -52.5q-41 0 -97.5 21.5t-108.5 42.5t-82 21 q-41 0 -64 -22.5t-49 -82.5z" />
<glyph unicode="&#xd2;" horiz-adv-x="1827" d="M146 753q0 88 18.5 173.5t54 162t86 144.5t116.5 122.5t142 93.5t166 60.5t187 21.5q134 0 254.5 -40.5t213 -113t160 -169.5t103 -213.5t35.5 -241.5q0 -124 -35.5 -240.5t-104 -213.5t-161.5 -170t-214 -114t-255.5 -41t-255 40.5t-212.5 113t-160 169.5t-103 214 t-35 242zM322 753q0 -127 45 -241.5t122.5 -198t188.5 -133t237.5 -49.5t237 49t187.5 132t121.5 197.5t44.5 243.5q0 101 -28.5 195.5t-82 171.5t-126 134t-164.5 88.5t-193.5 31.5t-193.5 -31t-163.5 -88t-124 -133.5t-80.5 -171t-28 -197.5zM593 1871l172 80l205 -312 h-133z" />
<glyph unicode="&#xd3;" horiz-adv-x="1827" d="M146 753q0 88 18.5 173.5t54 162t86 144.5t116.5 122.5t142 93.5t166 60.5t187 21.5q134 0 254.5 -40.5t213 -113t160 -169.5t103 -213.5t35.5 -241.5q0 -124 -35.5 -240.5t-104 -213.5t-161.5 -170t-214 -114t-255.5 -41t-255 40.5t-212.5 113t-160 169.5t-103 214 t-35 242zM322 753q0 -127 45 -241.5t122.5 -198t188.5 -133t237.5 -49.5t237 49t187.5 132t121.5 197.5t44.5 243.5q0 101 -28.5 195.5t-82 171.5t-126 134t-164.5 88.5t-193.5 31.5t-193.5 -31t-163.5 -88t-124 -133.5t-80.5 -171t-28 -197.5zM858 1639l205 312l172 -80 l-244 -232h-133z" />
<glyph unicode="&#xd4;" horiz-adv-x="1827" d="M146 753q0 88 18.5 173.5t54 162t86 144.5t116.5 122.5t142 93.5t166 60.5t187 21.5q134 0 254.5 -40.5t213 -113t160 -169.5t103 -213.5t35.5 -241.5q0 -124 -35.5 -240.5t-104 -213.5t-161.5 -170t-214 -114t-255.5 -41t-255 40.5t-212.5 113t-160 169.5t-103 214 t-35 242zM322 753q0 -127 45 -241.5t122.5 -198t188.5 -133t237.5 -49.5t237 49t187.5 132t121.5 197.5t44.5 243.5q0 101 -28.5 195.5t-82 171.5t-126 134t-164.5 88.5t-193.5 31.5t-193.5 -31t-163.5 -88t-124 -133.5t-80.5 -171t-28 -197.5zM613 1639l228 281h146 l228 -281h-142l-162 144l-160 -144h-138z" />
<glyph unicode="&#xd5;" horiz-adv-x="1827" d="M146 753q0 88 18.5 173.5t54 162t86 144.5t116.5 122.5t142 93.5t166 60.5t187 21.5q134 0 254.5 -40.5t213 -113t160 -169.5t103 -213.5t35.5 -241.5q0 -124 -35.5 -240.5t-104 -213.5t-161.5 -170t-214 -114t-255.5 -41t-255 40.5t-212.5 113t-160 169.5t-103 214 t-35 242zM322 753q0 -127 45 -241.5t122.5 -198t188.5 -133t237.5 -49.5t237 49t187.5 132t121.5 197.5t44.5 243.5q0 101 -28.5 195.5t-82 171.5t-126 134t-164.5 88.5t-193.5 31.5t-193.5 -31t-163.5 -88t-124 -133.5t-80.5 -171t-28 -197.5zM562 1647q16 62 35 104 t44 69.5t55 40t69 12.5q41 0 98 -21.5t109 -43t82 -21.5q28 0 47 10.5t33 32t32 62.5l100 -27q-32 -121 -79 -173.5t-124 -52.5q-41 0 -98 21.5t-109 42.5t-82 21q-28 0 -47 -10.5t-33 -32t-31 -62.5z" />
<glyph unicode="&#xd6;" horiz-adv-x="1827" d="M146 753q0 88 18.5 173.5t54 162t86 144.5t116.5 122.5t142 93.5t166 60.5t187 21.5q134 0 254.5 -40.5t213 -113t160 -169.5t103 -213.5t35.5 -241.5q0 -124 -35.5 -240.5t-104 -213.5t-161.5 -170t-214 -114t-255.5 -41t-255 40.5t-212.5 113t-160 169.5t-103 214 t-35 242zM322 753q0 -127 45 -241.5t122.5 -198t188.5 -133t237.5 -49.5t237 49t187.5 132t121.5 197.5t44.5 243.5q0 101 -28.5 195.5t-82 171.5t-126 134t-164.5 88.5t-193.5 31.5t-193.5 -31t-163.5 -88t-124 -133.5t-80.5 -171t-28 -197.5zM628 1639v204h193v-204h-193z M1006 1639v204h194v-204h-194z" />
<glyph unicode="&#xd8;" horiz-adv-x="1827" d="M129 -10l213 232q-47 52 -83.5 113t-61.5 128t-38 140.5t-13 149.5q0 88 18.5 173.5t54 162t86 144.5t116.5 122.5t142 93.5t166 60.5t187 21.5q275 0 471 -159l133 144h179l-213 -232q94 -105 145 -242t51 -289q0 -124 -35.5 -240.5t-104 -213.5t-161.5 -170t-214 -114 t-256 -41q-271 0 -470 157l-133 -141h-179zM322 753q0 -113 35.5 -216.5t100.5 -185.5l820 894q-74 63 -168 97.5t-199 34.5q-126 0 -236.5 -49t-187.5 -133t-121 -199t-44 -243zM550 260q74 -62 167.5 -96.5t198.5 -34.5q101 0 193 31.5t163.5 88.5t124.5 134t81 172 t28 198q0 113 -35.5 216t-100.5 186z" />
<glyph unicode="&#xd9;" horiz-adv-x="1631" d="M189 630v876h170v-866q0 -242 121.5 -374.5t338.5 -132.5q212 0 333 127.5t121 369.5v876h170v-863q0 -130 -29.5 -238t-84 -187t-131.5 -133.5t-173.5 -81.5t-209.5 -27q-140 0 -255 42.5t-197.5 124t-128 206t-45.5 281.5zM519 1861l171 78l205 -311h-134z" />
<glyph unicode="&#xda;" horiz-adv-x="1631" d="M189 630v876h170v-866q0 -242 121.5 -374.5t338.5 -132.5q212 0 333 127.5t121 369.5v876h170v-863q0 -130 -29.5 -238t-84 -187t-131.5 -133.5t-173.5 -81.5t-209.5 -27q-140 0 -255 42.5t-197.5 124t-128 206t-45.5 281.5zM737 1628l205 311l172 -78l-244 -233h-133z " />
<glyph unicode="&#xdb;" horiz-adv-x="1631" d="M189 630v876h170v-866q0 -242 121.5 -374.5t338.5 -132.5q212 0 333 127.5t121 369.5v876h170v-863q0 -130 -29.5 -238t-84 -187t-131.5 -133.5t-173.5 -81.5t-209.5 -27q-140 0 -255 42.5t-197.5 124t-128 206t-45.5 281.5zM513 1632l229 282h146l228 -282h-142 l-161 145l-161 -145h-139z" />
<glyph unicode="&#xdc;" horiz-adv-x="1631" d="M189 630v876h170v-866q0 -242 121.5 -374.5t338.5 -132.5q212 0 333 127.5t121 369.5v876h170v-863q0 -130 -29.5 -238t-84 -187t-131.5 -133.5t-173.5 -81.5t-209.5 -27q-140 0 -255 42.5t-197.5 124t-128 206t-45.5 281.5zM529 1632v204h193v-204h-193zM907 1632v204 h194v-204h-194z" />
<glyph unicode="&#xdd;" horiz-adv-x="1539" d="M58 1506h207l507 -753l512 753h198l-626 -909v-597h-172v595zM708 1628l203 311l173 -78l-243 -233h-133z" />
<glyph unicode="&#xde;" horiz-adv-x="1446" d="M213 0v1506h170v-259h393q169 0 296.5 -57.5t197.5 -167t70 -257.5q0 -95 -31 -175.5t-85.5 -138.5t-128.5 -99t-162 -61t-184 -20h-366v-271h-170zM383 426h372q187 0 300 92.5t113 244.5q0 158 -109 242.5t-296 84.5h-380v-664z" />
<glyph unicode="&#xdf;" horiz-adv-x="1332" d="M185 0v1077q0 113 34.5 207.5t97 160.5t154 102.5t202.5 36.5q100 0 183.5 -29.5t140 -82t88 -124t31.5 -154.5q0 -73 -25 -137.5t-68.5 -112.5t-94.5 -83t-111 -61q63 -14 118.5 -35.5t106.5 -55t87.5 -75t58 -98.5t21.5 -123q0 -196 -152 -306.5t-414 -110.5h-15v133 q194 5 302 78.5t108 209.5q0 126 -108.5 200.5t-301.5 94.5v123q318 116 318 351q0 112 -78 182t-203 70q-139 0 -226.5 -98t-87.5 -261v-1079h-166z" />
<glyph unicode="&#xe0;" horiz-adv-x="1244" d="M101 327q0 116 60.5 199t166.5 123.5t248 40.5q175 0 340 -47v34q0 98 -39 166t-112 102t-178 34q-92 0 -172 -20.5t-165 -59.5l-50 135q103 47 196.5 71t207.5 24q237 0 360 -123q115 -116 115 -327v-679h-163v166q-150 -190 -399 -190q-64 0 -124 14t-113 43t-93 69.5 t-63 98.5t-23 126zM269 331q0 -68 38.5 -119t101.5 -77t139 -26q102 0 186 37.5t134 106.5t50 155v103q-161 48 -325 48q-153 0 -238.5 -62t-85.5 -166zM318 1512l172 80l205 -312h-133z" />
<glyph unicode="&#xe1;" horiz-adv-x="1244" d="M101 327q0 116 60.5 199t166.5 123.5t248 40.5q175 0 340 -47v34q0 98 -39 166t-112 102t-178 34q-92 0 -172 -20.5t-165 -59.5l-50 135q103 47 196.5 71t207.5 24q237 0 360 -123q115 -116 115 -327v-679h-163v166q-150 -190 -399 -190q-64 0 -124 14t-113 43t-93 69.5 t-63 98.5t-23 126zM269 331q0 -68 38.5 -119t101.5 -77t139 -26q102 0 186 37.5t134 106.5t50 155v103q-161 48 -325 48q-153 0 -238.5 -62t-85.5 -166zM533 1280l204 312l172 -80l-242 -232h-134z" />
<glyph unicode="&#xe2;" horiz-adv-x="1244" d="M101 327q0 116 60.5 199t166.5 123.5t248 40.5q175 0 340 -47v34q0 98 -39 166t-112 102t-178 34q-92 0 -172 -20.5t-165 -59.5l-50 135q103 47 196.5 71t207.5 24q237 0 360 -123q115 -116 115 -327v-679h-163v166q-150 -190 -399 -190q-64 0 -124 14t-113 43t-93 69.5 t-63 98.5t-23 126zM269 331q0 -68 38.5 -119t101.5 -77t139 -26q102 0 186 37.5t134 106.5t50 155v103q-161 48 -325 48q-153 0 -238.5 -62t-85.5 -166zM324 1280l228 281h147l228 -281h-142l-161 144l-162 -144h-138z" />
<glyph unicode="&#xe3;" horiz-adv-x="1244" d="M101 327q0 116 60.5 199t166.5 123.5t248 40.5q175 0 340 -47v34q0 98 -39 166t-112 102t-178 34q-92 0 -172 -20.5t-165 -59.5l-50 135q103 47 196.5 71t207.5 24q237 0 360 -123q115 -116 115 -327v-679h-163v166q-150 -190 -399 -190q-64 0 -124 14t-113 43t-93 69.5 t-63 98.5t-23 126zM269 331q0 -68 38.5 -119t101.5 -77t139 -26q102 0 186 37.5t134 106.5t50 155v103q-161 48 -325 48q-153 0 -238.5 -62t-85.5 -166zM275 1288q16 62 35.5 104t44.5 69.5t55.5 40t69.5 12.5q41 0 97.5 -21.5t108.5 -43t82 -21.5q40 0 63.5 22.5t48.5 82.5 l101 -27q-33 -121 -80.5 -173.5t-124.5 -52.5q-32 0 -75 13.5t-77.5 29t-72.5 29t-63 13.5q-40 0 -63.5 -22.5t-48.5 -82.5z" />
<glyph unicode="&#xe4;" horiz-adv-x="1244" d="M101 327q0 116 60.5 199t166.5 123.5t248 40.5q175 0 340 -47v34q0 98 -39 166t-112 102t-178 34q-92 0 -172 -20.5t-165 -59.5l-50 135q103 47 196.5 71t207.5 24q237 0 360 -123q115 -116 115 -327v-679h-163v166q-150 -190 -399 -190q-64 0 -124 14t-113 43t-93 69.5 t-63 98.5t-23 126zM269 331q0 -68 38.5 -119t101.5 -77t139 -26q102 0 186 37.5t134 106.5t50 155v103q-161 48 -325 48q-153 0 -238.5 -62t-85.5 -166zM340 1280v204h193v-204h-193zM718 1280v204h193v-204h-193z" />
<glyph unicode="&#xe5;" horiz-adv-x="1244" d="M101 327q0 116 60.5 199t166.5 123.5t248 40.5q175 0 340 -47v34q0 98 -39 166t-112 102t-178 34q-92 0 -172 -20.5t-165 -59.5l-50 135q103 47 196.5 71t207.5 24q237 0 360 -123q115 -116 115 -327v-679h-163v166q-150 -190 -399 -190q-64 0 -124 14t-113 43t-93 69.5 t-63 98.5t-23 126zM269 331q0 -68 38.5 -119t101.5 -77t139 -26q102 0 186 37.5t134 106.5t50 155v103q-161 48 -325 48q-153 0 -238.5 -62t-85.5 -166zM402 1492q0 87 67 150t157 63t156.5 -64t66.5 -153q0 -87 -67 -150t-156 -63q-59 0 -110.5 28.5t-82.5 79t-31 109.5z M492 1488q0 -54 40 -92.5t94 -38.5t93.5 39.5t39.5 95.5q0 35 -18 65.5t-48.5 48t-66.5 17.5q-55 0 -94.5 -39.5t-39.5 -95.5z" />
<glyph unicode="&#xe6;" horiz-adv-x="2048" d="M101 327q0 116 60.5 199t165 123.5t241.5 40.5q91 0 163 -11.5t166 -35.5v34q0 148 -84 225t-234 77q-155 0 -329 -80l-50 135q101 46 195 70.5t200 24.5q153 0 259.5 -61.5t147.5 -179.5q67 114 179.5 180.5t246.5 66.5q120 0 218 -46t162.5 -126t100 -187t35.5 -230 q0 -32 -3 -58h-881q12 -114 68.5 -199t140 -127.5t182.5 -42.5q109 0 193.5 40t157.5 116l104 -92q-90 -102 -199.5 -155.5t-259.5 -53.5q-89 0 -171.5 26.5t-151.5 77t-118 119.5q-60 -62 -140 -111.5t-174.5 -79.5t-184.5 -30q-60 0 -118 14t-110 43t-92 69.5t-63 98.5 t-23 126zM269 331q0 -67 39 -119t100 -77.5t132 -25.5q70 0 128 14t106.5 42.5t85.5 61t80 81.5q-39 94 -45 209q-164 42 -310 42t-231 -62.5t-85 -165.5zM1060 622h717q-8 77 -33.5 143.5t-68.5 118.5t-108 81.5t-145 29.5q-142 0 -242.5 -105t-119.5 -268z" />
<glyph unicode="&#xe7;" horiz-adv-x="1227" d="M117 554q0 117 43.5 223.5t118.5 185t181.5 125.5t225.5 47q76 0 143 -15t121 -43.5t96.5 -61.5t84.5 -77l-109 -117q-77 80 -156 124t-182 44q-111 0 -202.5 -57.5t-143.5 -157.5t-52 -220q0 -118 53.5 -217t147.5 -156.5t208 -57.5q185 0 339 165l105 -99 q-88 -98 -187.5 -153t-233.5 -62l-142 -307l-161 73l168 245q-134 24 -240.5 105t-166 202.5t-59.5 261.5z" />
<glyph unicode="&#xe8;" horiz-adv-x="1272" d="M117 554q0 120 40 227t110 185t169.5 123.5t212.5 45.5q120 0 219 -46t164 -126t100.5 -187t35.5 -230q0 -32 -2 -58h-882q11 -114 68 -199t140.5 -127.5t182.5 -42.5q109 0 194 40t157 116l103 -92q-91 -102 -199.5 -155.5t-258.5 -53.5q-114 0 -215.5 42.5 t-176.5 117.5t-118.5 184t-43.5 236zM284 622h716q-8 77 -33.5 143.5t-68.5 118.5t-108 81.5t-145 29.5q-142 0 -242.5 -105t-118.5 -268zM351 1512l172 80l204 -312h-134z" />
<glyph unicode="&#xe9;" horiz-adv-x="1272" d="M117 554q0 120 40 227t110 185t169.5 123.5t212.5 45.5q120 0 219 -46t164 -126t100.5 -187t35.5 -230q0 -32 -2 -58h-882q11 -114 68 -199t140.5 -127.5t182.5 -42.5q109 0 194 40t157 116l103 -92q-91 -102 -199.5 -155.5t-258.5 -53.5q-114 0 -215.5 42.5 t-176.5 117.5t-118.5 184t-43.5 236zM284 622h716q-8 77 -33.5 143.5t-68.5 118.5t-108 81.5t-145 29.5q-142 0 -242.5 -105t-118.5 -268zM546 1280l205 312l172 -80l-244 -232h-133z" />
<glyph unicode="&#xea;" horiz-adv-x="1272" d="M117 554q0 120 40 227t110 185t169.5 123.5t212.5 45.5q120 0 219 -46t164 -126t100.5 -187t35.5 -230q0 -32 -2 -58h-882q11 -114 68 -199t140.5 -127.5t182.5 -42.5q109 0 194 40t157 116l103 -92q-91 -102 -199.5 -155.5t-258.5 -53.5q-114 0 -215.5 42.5 t-176.5 117.5t-118.5 184t-43.5 236zM284 622h716q-8 77 -33.5 143.5t-68.5 118.5t-108 81.5t-145 29.5q-142 0 -242.5 -105t-118.5 -268zM342 1280l228 281h146l228 -281h-142l-162 144l-160 -144h-138z" />
<glyph unicode="&#xeb;" horiz-adv-x="1272" d="M117 554q0 120 40 227t110 185t169.5 123.5t212.5 45.5q120 0 219 -46t164 -126t100.5 -187t35.5 -230q0 -32 -2 -58h-882q11 -114 68 -199t140.5 -127.5t182.5 -42.5q109 0 194 40t157 116l103 -92q-91 -102 -199.5 -155.5t-258.5 -53.5q-114 0 -215.5 42.5 t-176.5 117.5t-118.5 184t-43.5 236zM284 622h716q-8 77 -33.5 143.5t-68.5 118.5t-108 81.5t-145 29.5q-142 0 -242.5 -105t-118.5 -268zM357 1280v204h193v-204h-193zM735 1280v204h194v-204h-194z" />
<glyph unicode="&#xec;" horiz-adv-x="564" d="M-24 1512l172 80l205 -312h-134zM200 0v1112h165v-1112h-165z" />
<glyph unicode="&#xed;" horiz-adv-x="564" d="M200 0v1112h165v-1112h-165zM215 1280l204 312l172 -80l-242 -232h-134z" />
<glyph unicode="&#xee;" horiz-adv-x="564" d="M-19 1280l228 281h146l228 -281h-142l-162 144l-160 -144h-138zM200 0v1112h165v-1112h-165z" />
<glyph unicode="&#xef;" horiz-adv-x="564" d="M-4 1280v204h193v-204h-193zM200 0v1112h165v-1112h-165zM374 1280v204h194v-204h-194z" />
<glyph unicode="&#xf0;" horiz-adv-x="1360" d="M117 531q0 91 26 171.5t73.5 142.5t111 107.5t140 69t158.5 23.5q105 0 186 -30.5t162 -87.5l-282 396l-275 -137l-77 102l282 132l-109 150h199l56 -84l213 103l75 -101l-219 -101l217 -320q37 -53 65 -100t52 -99t39.5 -103t24 -108t8.5 -117q0 -90 -25.5 -174.5 t-75 -155.5t-118 -124t-159.5 -82.5t-194 -29.5q-118 0 -221.5 44t-176 119.5t-114.5 178t-42 215.5zM284 521q0 -77 29.5 -150t81.5 -128t127 -88.5t159 -33.5q114 0 204.5 56t139 148t48.5 202q0 78 -31 149t-85 123.5t-130 83.5t-162 31q-115 0 -202.5 -52t-133 -140.5 t-45.5 -200.5z" />
<glyph unicode="&#xf1;" horiz-adv-x="1324" d="M185 0v1112h166v-194q132 217 380 217q199 0 312.5 -122t113.5 -323v-690h-166v649q0 156 -81 246t-226 90t-239 -97t-94 -252v-636h-166zM318 1288q32 121 80 173.5t125 52.5q41 0 97.5 -21.5t108.5 -43t82 -21.5q40 0 63.5 22.5t48.5 82.5l101 -27q-32 -121 -80 -173.5 t-125 -52.5q-41 0 -97.5 21t-108.5 42.5t-82 21.5q-40 0 -63.5 -22.5t-48.5 -82.5z" />
<glyph unicode="&#xf2;" horiz-adv-x="1389" d="M117 554q0 117 44 223.5t120 185t184.5 125.5t231.5 47q122 0 230 -46t184 -124.5t120 -185.5t44 -225q0 -116 -44.5 -222.5t-121 -185.5t-185.5 -125.5t-232 -46.5q-122 0 -230 46t-183 124.5t-118.5 185t-43.5 224.5zM286 554q0 -117 53.5 -216t148 -157t209.5 -58 q118 0 212 58t145.5 156.5t51.5 216.5t-54 218t-149.5 158.5t-210.5 58.5q-117 0 -211 -59t-144.5 -158t-50.5 -218zM385 1512l171 80l205 -312h-133z" />
<glyph unicode="&#xf3;" horiz-adv-x="1389" d="M117 554q0 117 44 223.5t120 185t184.5 125.5t231.5 47q122 0 230 -46t184 -124.5t120 -185.5t44 -225q0 -116 -44.5 -222.5t-121 -185.5t-185.5 -125.5t-232 -46.5q-122 0 -230 46t-183 124.5t-118.5 185t-43.5 224.5zM286 554q0 -117 53.5 -216t148 -157t209.5 -58 q118 0 212 58t145.5 156.5t51.5 216.5t-54 218t-149.5 158.5t-210.5 58.5q-117 0 -211 -59t-144.5 -158t-50.5 -218zM630 1280l205 312l171 -80l-243 -232h-133z" />
<glyph unicode="&#xf4;" horiz-adv-x="1389" d="M117 554q0 117 44 223.5t120 185t184.5 125.5t231.5 47q122 0 230 -46t184 -124.5t120 -185.5t44 -225q0 -116 -44.5 -222.5t-121 -185.5t-185.5 -125.5t-232 -46.5q-122 0 -230 46t-183 124.5t-118.5 185t-43.5 224.5zM286 554q0 -117 53.5 -216t148 -157t209.5 -58 q118 0 212 58t145.5 156.5t51.5 216.5t-54 218t-149.5 158.5t-210.5 58.5q-117 0 -211 -59t-144.5 -158t-50.5 -218zM394 1280l228 281h146l227 -281h-141l-162 144l-161 -144h-137z" />
<glyph unicode="&#xf5;" horiz-adv-x="1389" d="M117 554q0 117 44 223.5t120 185t184.5 125.5t231.5 47q122 0 230 -46t184 -124.5t120 -185.5t44 -225q0 -116 -44.5 -222.5t-121 -185.5t-185.5 -125.5t-232 -46.5q-122 0 -230 46t-183 124.5t-118.5 185t-43.5 224.5zM286 554q0 -117 53.5 -216t148 -157t209.5 -58 q118 0 212 58t145.5 156.5t51.5 216.5t-54 218t-149.5 158.5t-210.5 58.5q-117 0 -211 -59t-144.5 -158t-50.5 -218zM342 1288q33 122 80 174t124 52q32 0 75 -13.5t78 -29.5t73 -29.5t63 -13.5q40 0 63 22.5t48 82.5l101 -27q-32 -122 -79.5 -174t-124.5 -52 q-41 0 -97.5 21t-109 42.5t-82.5 21.5q-40 0 -63 -22.5t-48 -82.5z" />
<glyph unicode="&#xf6;" horiz-adv-x="1389" d="M117 554q0 117 44 223.5t120 185t184.5 125.5t231.5 47q122 0 230 -46t184 -124.5t120 -185.5t44 -225q0 -116 -44.5 -222.5t-121 -185.5t-185.5 -125.5t-232 -46.5q-122 0 -230 46t-183 124.5t-118.5 185t-43.5 224.5zM286 554q0 -117 53.5 -216t148 -157t209.5 -58 q118 0 212 58t145.5 156.5t51.5 216.5t-54 218t-149.5 158.5t-210.5 58.5q-117 0 -211 -59t-144.5 -158t-50.5 -218zM408 1280v204h194v-204h-194zM788 1280v204h193v-204h-193z" />
<glyph unicode="&#xf7;" horiz-adv-x="1375" d="M191 681v160h993v-160h-993zM591 236v222h191v-222h-191zM591 1063v221h191v-221h-191z" />
<glyph unicode="&#xf8;" horiz-adv-x="1389" d="M84 -10l170 182q-65 77 -101 175.5t-36 206.5q0 117 44 223.5t120 185t184.5 125.5t231.5 47q200 0 346 -115l96 105h168q-148 -157 -172 -185q67 -77 103.5 -175.5t36.5 -210.5q0 -116 -44.5 -222.5t-121 -185.5t-185.5 -125.5t-232 -46.5q-194 0 -346 114l-96 -98h-166 zM284 554q0 -141 81 -261l577 608q-113 90 -250 90q-118 0 -212 -59t-145 -158.5t-51 -219.5zM449 209q105 -88 248 -88q119 0 213.5 58.5t146 157.5t51.5 217q0 146 -84 263z" />
<glyph unicode="&#xf9;" horiz-adv-x="1324" d="M168 421v691h165v-650q0 -156 81 -245.5t226 -89.5q95 0 170.5 43t119.5 123t44 183v636h163v-1112h-163v193q-136 -217 -381 -217q-198 0 -311.5 122t-113.5 323zM368 1504l172 78l204 -312h-133z" />
<glyph unicode="&#xfa;" horiz-adv-x="1324" d="M168 421v691h165v-650q0 -156 81 -245.5t226 -89.5q95 0 170.5 43t119.5 123t44 183v636h163v-1112h-163v193q-136 -217 -381 -217q-198 0 -311.5 122t-113.5 323zM572 1270l204 312l172 -78l-242 -234h-134z" />
<glyph unicode="&#xfb;" horiz-adv-x="1324" d="M168 421v691h165v-650q0 -156 81 -245.5t226 -89.5q95 0 170.5 43t119.5 123t44 183v636h163v-1112h-163v193q-136 -217 -381 -217q-198 0 -311.5 122t-113.5 323zM363 1280l228 281h146l229 -281h-143l-160 144l-162 -144h-138z" />
<glyph unicode="&#xfc;" horiz-adv-x="1324" d="M168 421v691h165v-650q0 -156 81 -245.5t226 -89.5q95 0 170.5 43t119.5 123t44 183v636h163v-1112h-163v193q-136 -217 -381 -217q-198 0 -311.5 122t-113.5 323zM378 1280v204h194v-204h-194zM757 1280v204h193v-204h-193z" />
<glyph unicode="&#xfd;" horiz-adv-x="1270" d="M74 1112h182l404 -927l357 927h177l-467 -1149q-48 -115 -101.5 -184t-118 -99.5t-150.5 -30.5q-122 0 -236 56l55 131q78 -41 175 -41q75 0 127 46.5t101 162.5zM574 1270l204 312l172 -78l-242 -234h-134z" />
<glyph unicode="&#xfe;" horiz-adv-x="1426" d="M185 -344v1914h166v-682q167 247 425 247q80 0 157.5 -24.5t145 -74t118.5 -118t80.5 -162.5t29.5 -202q0 -106 -29 -199t-80 -161.5t-118.5 -118t-145 -74.5t-158.5 -25q-262 0 -425 237v-557h-166zM344 554q0 -94 34 -175.5t90 -136.5t128.5 -86t150.5 -31 q80 0 151 29.5t124.5 83.5t84 136.5t30.5 181.5q0 96 -31.5 178t-84.5 136.5t-124 85.5t-150 31q-78 0 -150.5 -31.5t-128.5 -87t-90 -138t-34 -176.5z" />
<glyph unicode="&#xff;" horiz-adv-x="1270" d="M74 1112h182l404 -927l357 927h177l-467 -1149q-48 -115 -101.5 -184t-118 -99.5t-150.5 -30.5q-122 0 -236 56l55 131q78 -41 175 -41q75 0 127 46.5t101 162.5zM351 1280v204h193v-204h-193zM729 1280v204h194v-204h-194z" />
<glyph unicode="&#x131;" horiz-adv-x="564" d="M200 0v1112h165v-1112h-165z" />
<glyph unicode="&#x152;" horiz-adv-x="2431" d="M146 753q0 157 59 295.5t163 239.5t254 159.5t324 58.5h1346v-156h-879v-513h783v-156h-783v-527h890v-154h-1357q-174 0 -324 57.5t-254 158t-163 239.5t-59 298zM322 753q0 -124 44.5 -234t124.5 -190.5t198 -127.5t257 -47h297v1196h-297q-140 0 -257.5 -46 t-197.5 -126t-124.5 -189.5t-44.5 -235.5z" />
<glyph unicode="&#x153;" horiz-adv-x="2255" d="M117 554q0 117 44 223.5t120 185t183.5 125.5t227.5 47q160 0 288.5 -80t197.5 -214q64 135 184.5 214.5t271.5 79.5q119 0 217.5 -46t163.5 -126t100 -187t35 -230q0 -32 -2 -58h-882q12 -114 68.5 -199t140.5 -127.5t183 -42.5q109 0 193.5 40t157.5 116l103 -92 q-89 -101 -198.5 -155t-257.5 -54q-155 0 -283.5 80t-196.5 219q-70 -135 -200 -217t-290 -82q-119 0 -225 46t-181 124.5t-119 185.5t-44 224zM286 554q0 -117 53.5 -216t147.5 -157t208 -58q88 0 163.5 34t128 92t82.5 137.5t30 167.5q0 118 -53.5 218t-147.5 158.5 t-208 58.5q-117 0 -210 -59t-143.5 -158t-50.5 -218zM1266 622h716q-7 77 -32.5 143.5t-68.5 118.5t-108.5 81.5t-144.5 29.5q-143 0 -243 -105t-119 -268z" />
<glyph unicode="&#x178;" horiz-adv-x="1539" d="M58 1506h207l507 -753l512 753h198l-626 -909v-597h-172v595zM484 1632v204h193v-204h-193zM862 1632v204h194v-204h-194z" />
<glyph unicode="&#x192;" horiz-adv-x="1104" d="M88 -2v142q41 -9 95 -9q69 0 110.5 40t57.5 124l94 507h-211v144h234l51 256q31 163 110 238.5t225 75.5q100 0 174 -24v-142q-90 22 -148 22q-84 0 -129.5 -45.5t-64.5 -148.5l-43 -232h309v-144h-335l-96 -525q-19 -100 -59.5 -163.5t-105.5 -93.5t-156 -30 q-51 0 -112 8z" />
<glyph unicode="&#x2c6;" d="M236 1280l228 281h147l228 -281h-142l-161 144l-162 -144h-138z" />
<glyph unicode="&#x2c7;" d="M236 1561h142l162 -143l161 143h138l-228 -281h-147z" />
<glyph unicode="&#x2d8;" d="M219 1561h121q43 -148 197.5 -148t197.5 148h121q-10 -133 -96.5 -209.5t-222 -76.5t-222 76.5t-96.5 209.5z" />
<glyph unicode="&#x2d9;" d="M437 1280v206h201v-206h-201z" />
<glyph unicode="&#x2da;" d="M314 1492q0 87 67 150t157 63t156.5 -64t66.5 -153q0 -87 -67 -150t-156 -63q-90 0 -157 63.5t-67 153.5zM404 1488q0 -54 40 -92.5t94 -38.5t93.5 39.5t39.5 95.5q0 35 -18 65.5t-48.5 48t-66.5 17.5q-56 0 -95 -39.5t-39 -95.5z" />
<glyph unicode="&#x2db;" d="M394 -121q0 70 29 142h129q-12 -55 -12 -109q0 -83 57 -126.5t177 -50.5v-88q-184 -9 -282 55t-98 177z" />
<glyph unicode="&#x2dc;" d="M185 1288q32 121 79.5 173.5t125.5 52.5q40 0 96.5 -21.5t108.5 -43t82 -21.5q41 0 64.5 22.5t48.5 82.5l100 -27q-32 -121 -79.5 -173.5t-124.5 -52.5q-41 0 -97.5 21t-108.5 42.5t-82 21.5q-21 0 -36.5 -5.5t-28.5 -18.5t-24 -31.5t-23 -49.5z" />
<glyph unicode="&#x2dd;" d="M181 1280l204 312l161 -80l-232 -232h-133zM533 1280l204 312l162 -80l-234 -232h-132z" />
<glyph unicode="&#x3a9;" horiz-adv-x="1695" d="M168 0v142h413v164q-97 26 -175.5 83t-130 133.5t-79.5 169.5t-28 192q0 140 54.5 261t147.5 203t217.5 128t261.5 46t260.5 -46.5t216 -129t147 -202t54.5 -258.5q0 -134 -47.5 -251.5t-142 -206t-223.5 -122.5v-164h413v-142h-542v406q122 20 207 87t126 165.5 t41 221.5q0 141 -68 254.5t-185 176.5t-261 63q-142 0 -259 -63.5t-184 -177t-67 -253.5q0 -88 24.5 -168t70.5 -144.5t118.5 -107.5t161.5 -54v-406h-542z" />
<glyph unicode="&#x3c0;" d="M0 0v1506h1075v-1506h-1075zM105 207l369 546l-369 546v-1092zM174 105h729l-365 549zM174 1398l364 -549l365 549h-729zM600 753l368 -546v1092z" />
<glyph unicode="&#x401;" horiz-adv-x="1440" d="M213 0v1506h1088v-156h-918v-513h821v-156h-821v-527h928v-154h-1098zM478 1639v204h193v-204h-193zM856 1639v204h193v-204h-193z" />
<glyph unicode="&#x402;" horiz-adv-x="1896" d="M103 1350v156h1194v-156h-577v-531q113 85 232 128.5t259 43.5q110 0 202 -33.5t159 -97.5t104.5 -162t37.5 -220q0 -125 -37.5 -225t-104.5 -166t-158.5 -101t-200.5 -35q-113 0 -222 43l39 146q20 -10 38 -16t38 -10t41.5 -5.5t48.5 -1.5q49 0 96 12t92 40t78.5 69.5 t54 105t20.5 142.5q0 160 -94.5 258.5t-250.5 98.5q-141 0 -253 -45.5t-219 -140.5v-647h-172v1350h-445z" />
<glyph unicode="&#x403;" horiz-adv-x="1266" d="M213 0v1506h961v-156h-791v-1350h-170zM552 1639l205 312l172 -80l-243 -232h-134z" />
<glyph unicode="&#x404;" horiz-adv-x="1588" d="M146 753q0 158 57 301t156.5 248t242.5 167t305 62q99 0 183 -17.5t154 -53.5t124.5 -76.5t117.5 -99.5l-107 -116q-106 100 -218.5 154.5t-255.5 54.5q-113 0 -213.5 -41t-175.5 -113t-124.5 -171.5t-62.5 -214.5h757v-156h-759q12 -116 61 -218t124.5 -175.5 t177.5 -116t215 -42.5q44 0 84.5 5.5t75.5 14.5t69.5 24t65 32.5t62 41t60 48.5t61.5 56l125 -113q-63 -63 -124.5 -109t-135 -82.5t-160.5 -54.5t-187 -18q-160 0 -301 60.5t-240 164.5t-156.5 248t-57.5 306z" />
<glyph unicode="&#x405;" horiz-adv-x="1375" d="M114 219l105 125q123 -110 243.5 -161.5t272.5 -51.5q151 0 243.5 73t92.5 188q0 55 -17 94.5t-60.5 75t-120 63.5t-194.5 52q-134 30 -225.5 65.5t-156 87.5t-94 122t-29.5 164q0 117 64 211t177 147t254 53q161 0 286.5 -45.5t242.5 -139.5l-99 -131q-200 163 -434 163 q-144 0 -232.5 -70.5t-88.5 -176.5q0 -56 17.5 -96t63 -76t125 -65t203.5 -55q255 -56 372.5 -157t117.5 -274q0 -127 -66 -224t-182.5 -149t-265.5 -52q-178 0 -328 59t-287 181z" />
<glyph unicode="&#x406;" horiz-adv-x="624" d="M228 0v1506h170v-1506h-170z" />
<glyph unicode="&#x407;" horiz-adv-x="624" d="M28 1639v204h194v-204h-194zM228 0v1506h170v-1506h-170zM406 1639v204h194v-204h-194z" />
<glyph unicode="&#x408;" horiz-adv-x="1188" d="M66 245l123 106q73 -111 152 -163.5t192 -52.5q132 0 213 94t81 268v1009h173v-1007q0 -259 -138 -396q-127 -124 -331 -124q-160 0 -274.5 70.5t-190.5 195.5z" />
<glyph unicode="&#x409;" horiz-adv-x="2483" d="M-10 19l34 139q19 -9 59 -16t75 -7q22 0 41 4t44.5 17t46.5 35.5t45 64t42.5 97.5t36 139.5t29 187.5t18.5 245t7 308v273h954v-583h380q99 0 185 -15.5t160 -50t127 -85.5t83 -125.5t30 -166.5q0 -221 -151 -350.5t-408 -129.5h-576v1350h-620v-164q0 -221 -13 -398.5 t-34.5 -301.5t-55.5 -216t-70.5 -146t-84 -86.5t-91.5 -43.5t-98 -11q-46 0 -104 11.5t-91 24.5zM1422 154h402q184 0 288.5 82.5t104.5 239.5q0 144 -107 219t-298 75h-390v-616z" />
<glyph unicode="&#x40a;" horiz-adv-x="2481" d="M213 0v1506h170v-624h867v624h172v-624h421q65 0 124 -8t114 -24.5t101 -41.5t83.5 -60t64 -78t41 -97.5t14.5 -116.5q0 -138 -63.5 -241t-183.5 -159t-283 -56h-605v724h-867v-724h-170zM1422 154h412q122 0 205.5 34.5t127 102t43.5 165.5q0 135 -99 206t-285 71h-404 v-579z" />
<glyph unicode="&#x40b;" horiz-adv-x="1896" d="M103 1350v156h1192v-156h-575v-554q113 86 232 130t259 44q110 0 202 -28.5t159 -83.5t104.5 -140t37.5 -193v-525h-170v490q0 145 -94.5 233t-253.5 88q-140 0 -252.5 -47t-223.5 -147v-617h-170v1350h-447z" />
<glyph unicode="&#x40c;" horiz-adv-x="1545" d="M213 0v1506h170v-899l864 899h220l-646 -659l673 -847h-212l-578 729l-321 -325v-404h-170zM671 1639l205 312l171 -80l-243 -232h-133z" />
<glyph unicode="&#x40e;" horiz-adv-x="1566" d="M78 1506h193l554 -983l480 983h185l-595 -1190q-170 -342 -460 -342q-132 0 -254 63l67 135q45 -24 88 -34.5t103 -10.5q84 0 161.5 53.5t139.5 172.5zM519 1894l115 24q43 -151 191 -151q149 0 192 151l116 -24q-20 -116 -103.5 -190t-204 -74t-203.5 73.5t-103 190.5z " />
<glyph unicode="&#x40f;" horiz-adv-x="1612" d="M213 0v1506h170v-1352h847v1352h170v-1506h-501v-335h-170v335h-516z" />
<glyph unicode="&#x410;" horiz-adv-x="1697" d="M84 0l686 1516h159l686 -1516h-183l-176 398h-819l-179 -398h-174zM503 550h687l-343 768z" />
<glyph unicode="&#x411;" horiz-adv-x="1521" d="M213 0v1506h1080v-156h-910v-462h444q81 0 154 -11.5t137 -34.5t115.5 -59.5t89 -84.5t57.5 -111t20 -138q0 -145 -69.5 -247t-193 -152t-292.5 -50h-632zM383 154h450q397 0 397 304q0 138 -107.5 208.5t-299.5 70.5h-440v-583z" />
<glyph unicode="&#x412;" horiz-adv-x="1551" d="M213 0v1506h641q85 0 159 -15.5t133 -45.5t101 -73q97 -100 97 -245q0 -71 -20 -129.5t-55.5 -100t-75 -70t-87.5 -49.5q322 -97 322 -367q0 -128 -68 -221t-191 -141.5t-287 -48.5h-669zM380 152h506q114 0 197 32.5t128 94.5t45 147q0 124 -102.5 191t-297.5 67h-476 v-532zM380 835h445q104 0 181 30t121.5 92t44.5 151q0 113 -87 178.5t-246 65.5h-459v-517z" />
<glyph unicode="&#x413;" horiz-adv-x="1266" d="M213 0v1506h961v-156h-791v-1350h-170z" />
<glyph unicode="&#x414;" horiz-adv-x="1621" d="M21 154h155q110 176 169 452.5t59 636.5v263h985v-1352h195l-25 -489h-141v335h-1223l-29 -335h-145v489zM368 154h851v1196h-651v-195q0 -297 -54 -572.5t-146 -428.5z" />
<glyph unicode="&#x415;" horiz-adv-x="1440" d="M213 0v1506h1088v-156h-918v-513h821v-156h-821v-527h928v-154h-1098z" />
<glyph unicode="&#x416;" horiz-adv-x="2341" d="M51 0l620 860l-581 646h211l785 -889v889h170v-889l785 889h210l-580 -646l619 -860h-211l-526 733l-297 -329v-404h-170v404l-298 329l-526 -733h-211z" />
<glyph unicode="&#x417;" horiz-adv-x="1367" d="M84 217l101 118q116 -110 242.5 -162t286.5 -52q93 0 172.5 34.5t129 101.5t49.5 154q0 71 -31 125t-86.5 86.5t-128 49t-161.5 16.5h-166v139h166q165 0 266.5 76.5t101.5 208.5q0 57 -25.5 107t-70.5 85.5t-108 56t-136 20.5q-129 0 -237.5 -41t-205.5 -129l-99 118 q118 102 246 151t300 49q147 0 263.5 -52t180.5 -143.5t64 -206.5q0 -73 -23 -133.5t-63.5 -102.5t-86.5 -70.5t-102 -48.5q69 -21 125 -53t99.5 -77t67.5 -106t24 -134q0 -89 -38.5 -167.5t-107 -136t-167.5 -91t-214 -33.5q-192 0 -342.5 59.5t-285.5 183.5z" />
<glyph unicode="&#x418;" horiz-adv-x="1654" d="M213 0v1506h170v-1250l899 1250h161v-1506h-168v1250l-897 -1250h-165z" />
<glyph unicode="&#x419;" horiz-adv-x="1654" d="M213 0v1506h170v-1250l899 1250h161v-1506h-168v1250l-897 -1250h-165zM531 1894l116 24q43 -151 192 -151q148 0 191 151l117 -24q-14 -76 -55 -135.5t-107 -94t-146 -34.5q-121 0 -204.5 74t-103.5 190z" />
<glyph unicode="&#x41a;" horiz-adv-x="1545" d="M213 0v1506h170v-899l864 899h220l-646 -659l673 -847h-212l-578 729l-321 -325v-404h-170z" />
<glyph unicode="&#x41b;" horiz-adv-x="1654" d="M-10 19l34 139q19 -9 59 -16t75 -7q22 0 41 4t44.5 17t46.5 35.5t45 64t42.5 97.5t36 139.5t29 187.5t18.5 245t7 308v273h975v-1506h-170v1350h-641v-164q0 -221 -13 -398.5t-34.5 -301.5t-55.5 -216t-70.5 -146t-84 -86.5t-91.5 -43.5t-98 -11q-46 0 -104 11.5 t-91 24.5z" />
<glyph unicode="&#x41c;" horiz-adv-x="1865" d="M213 0v1506h172l548 -822l549 822h172v-1506h-170v1219l-548 -806h-9l-549 804v-1217h-165z" />
<glyph unicode="&#x41d;" horiz-adv-x="1633" d="M213 0v1506h170v-669h869v669h170v-1506h-170v677h-869v-677h-170z" />
<glyph unicode="&#x41e;" horiz-adv-x="1827" d="M146 753q0 88 18.5 173.5t54 162t86 144.5t116.5 122.5t142 93.5t166 60.5t187 21.5q134 0 254.5 -40.5t213 -113t160 -169.5t103 -213.5t35.5 -241.5q0 -124 -35.5 -240.5t-104 -213.5t-161.5 -170t-214 -114t-255.5 -41t-255 40.5t-212.5 113t-160 169.5t-103 214 t-35 242zM322 753q0 -127 45 -241.5t122.5 -198t188.5 -133t237.5 -49.5t237 49t187.5 132t121.5 197.5t44.5 243.5q0 101 -28.5 195.5t-82 171.5t-126 134t-164.5 88.5t-193.5 31.5t-193.5 -31t-163.5 -88t-124 -133.5t-80.5 -171t-28 -197.5z" />
<glyph unicode="&#x41f;" horiz-adv-x="1612" d="M213 0v1506h1187v-1506h-170v1350h-847v-1350h-170z" />
<glyph unicode="&#x420;" horiz-adv-x="1436" d="M213 0v1506h563q170 0 297 -57.5t197 -167t70 -257.5q0 -80 -21.5 -149.5t-60.5 -123t-93.5 -95.5t-120.5 -69t-140.5 -41.5t-154.5 -14.5h-366v-531h-170zM383 686h372q187 0 300 92t113 244q0 158 -109 242t-296 84h-380v-662z" />
<glyph unicode="&#x421;" horiz-adv-x="1586" d="M146 753q0 158 57 301t156.5 248t242.5 167t305 62q80 0 151.5 -12t128.5 -32t112 -52t99 -66.5t92 -80.5l-111 -120q-105 99 -217.5 152.5t-256.5 53.5q-123 0 -231 -48t-185 -130.5t-122 -198t-45 -244.5t45 -244t122.5 -198t185.5 -131.5t230 -48.5q147 0 258.5 53.5 t227.5 164.5l113 -119q-84 -84 -166.5 -138t-193 -86t-243.5 -32q-160 0 -301 60.5t-240 164.5t-156.5 248t-57.5 306z" />
<glyph unicode="&#x422;" horiz-adv-x="1393" d="M105 1350v156h1183v-156h-506v-1350h-171v1350h-506z" />
<glyph unicode="&#x423;" horiz-adv-x="1566" d="M78 1506h193l554 -983l480 983h185l-595 -1190q-170 -342 -460 -342q-132 0 -254 63l67 135q45 -24 88 -34.5t103 -10.5q84 0 161.5 53.5t139.5 172.5z" />
<glyph unicode="&#x424;" horiz-adv-x="1928" d="M119 759q0 147 51 266.5t147.5 204t240 130.5t322.5 46v149h169v-149q179 0 322.5 -46t240 -130.5t147.5 -204t51 -266.5t-51 -267t-147 -205t-239.5 -131.5t-323.5 -46.5v-165h-169v165q-180 0 -324 46.5t-239.5 131.5t-146.5 205t-51 267zM295 757q0 -239 152.5 -365.5 t432.5 -126.5v987q-139 0 -248 -33t-184 -95.5t-114 -155t-39 -211.5zM1049 265q280 0 432.5 126.5t152.5 365.5q0 158 -69 269t-200 168.5t-316 57.5v-987z" />
<glyph unicode="&#x425;" horiz-adv-x="1558" d="M99 0l578 768l-556 738h199l462 -616l459 616h197l-556 -736l579 -770h-203l-482 647l-481 -647h-196z" />
<glyph unicode="&#x426;" horiz-adv-x="1644" d="M213 0v1506h170v-1352h860v1352h170v-1352h196l-27 -489h-141v335h-1228z" />
<glyph unicode="&#x427;" horiz-adv-x="1494" d="M158 938v568h169v-540q0 -145 86.5 -228.5t242.5 -83.5q107 0 229 42t227 104v706h170v-1506h-170v643q-100 -57 -234 -102.5t-235 -45.5q-225 0 -355 113.5t-130 329.5z" />
<glyph unicode="&#x428;" horiz-adv-x="2370" d="M213 0v1506h170v-1352h718v1352h169v-1352h719v1352h170v-1506h-1946z" />
<glyph unicode="&#x429;" horiz-adv-x="2390" d="M213 0v1506h170v-1352h718v1352h169v-1352h719v1352h170v-1352h196l-26 -489h-142v335h-1974z" />
<glyph unicode="&#x42a;" horiz-adv-x="1722" d="M94 1350v156h566v-583h381q98 0 184 -15.5t160.5 -50t127 -85.5t82.5 -125.5t30 -166.5q0 -221 -150.5 -350.5t-407.5 -129.5h-577v1350h-396zM660 154h403q184 0 288 82.5t104 239.5q0 144 -106.5 219t-297.5 75h-391v-616z" />
<glyph unicode="&#x42b;" horiz-adv-x="1923" d="M213 0v1506h170v-583h380q99 0 185 -15.5t160 -50t127 -85.5t83 -125.5t30 -166.5q0 -221 -150.5 -350.5t-407.5 -129.5h-577zM383 154h402q122 0 209 35.5t135.5 108.5t48.5 178q0 144 -106.5 219t-297.5 75h-391v-616zM1541 0v1506h171v-1506h-171z" />
<glyph unicode="&#x42c;" horiz-adv-x="1444" d="M213 0v1506h170v-583h380q99 0 185 -15.5t160 -50t127 -85.5t83 -125.5t30 -166.5q0 -221 -150.5 -350.5t-407.5 -129.5h-577zM383 154h402q122 0 209 35.5t135.5 108.5t48.5 178q0 144 -106.5 219t-297.5 75h-391v-616z" />
<glyph unicode="&#x42d;" horiz-adv-x="1588" d="M80 238l125 113q58 -56 107 -93.5t106.5 -68.5t122.5 -45.5t140 -14.5q114 0 216 42.5t177.5 116t124.5 175.5t61 218h-759v156h757q-14 115 -63 214.5t-124 171.5t-176 113t-214 41q-98 0 -185.5 -28.5t-152.5 -72t-134 -108.5l-108 116q62 59 116.5 99.5t125 76.5 t154 53.5t182.5 17.5q163 0 305.5 -62t242 -167t157 -248t57.5 -301q0 -162 -57.5 -306t-157 -248t-240 -164.5t-300.5 -60.5q-100 0 -187 18t-160.5 54.5t-135 82.5t-123.5 109z" />
<glyph unicode="&#x42e;" horiz-adv-x="2257" d="M213 0v1506h170v-671h305q13 147 70.5 274.5t148.5 221t218.5 147t274.5 53.5q156 0 290 -60t226 -164t144 -247t52 -305.5t-52.5 -306t-145.5 -248.5t-227.5 -165.5t-291.5 -60.5q-147 0 -275 53.5t-218.5 148t-146.5 224t-67 279.5h-305v-679h-170zM860 753 q0 -130 40.5 -245t111 -198.5t171.5 -132t216.5 -48.5t216 48t171 131t110.5 198t40 247q0 130 -40.5 245t-112 198.5t-172.5 132t-216.5 48.5t-215.5 -48t-170 -131t-110 -198.5t-40 -246.5z" />
<glyph unicode="&#x42f;" horiz-adv-x="1558" d="M90 0l472 604q-91 16 -166 52.5t-130 92t-85.5 133t-30.5 169.5q0 89 29.5 168t85.5 133q71 72 184 113t255 41h642v-1506h-170v576h-432l-447 -576h-207zM320 1038q0 -144 109.5 -231t284.5 -87h462v632h-462q-122 0 -211.5 -38.5t-136 -109t-46.5 -166.5z" />
<glyph unicode="&#x430;" horiz-adv-x="1244" d="M101 327q0 116 60.5 199t166.5 123.5t248 40.5q175 0 340 -47v34q0 98 -39 166t-112 102t-178 34q-92 0 -172 -20.5t-165 -59.5l-50 135q103 47 196.5 71t207.5 24q237 0 360 -123q115 -116 115 -327v-679h-163v166q-150 -190 -399 -190q-64 0 -124 14t-113 43t-93 69.5 t-63 98.5t-23 126zM269 331q0 -68 38.5 -119t101.5 -77t139 -26q102 0 186 37.5t134 106.5t50 155v103q-161 48 -325 48q-153 0 -238.5 -62t-85.5 -166z" />
<glyph unicode="&#x431;" horiz-adv-x="1391" d="M144 600q0 67 1.5 118.5t6.5 115t13.5 112t24 103t37 96t52.5 83t71 72t92.5 55.5t116.5 40l619 146l33 -139l-602 -148q-86 -22 -145.5 -56t-97 -84.5t-57 -111.5t-25.5 -144q63 108 178.5 174.5t281.5 66.5q107 0 205.5 -43.5t170.5 -117.5t115 -177t43 -215 q0 -115 -43.5 -220t-118 -182.5t-181.5 -123.5t-227 -46q-126 0 -231 43.5t-178.5 123.5t-114 197.5t-40.5 261.5zM314 542q0 -69 19.5 -133t56 -115.5t85.5 -90t110 -59.5t127 -21q112 0 203 56t141 152t50 211q0 114 -52.5 210.5t-144 152.5t-201.5 56 q-113 0 -203.5 -56.5t-140.5 -152t-50 -210.5z" />
<glyph unicode="&#x432;" horiz-adv-x="1260" d="M185 0v1112h537q166 0 265 -75.5t99 -201.5q0 -179 -185 -256q52 -15 94.5 -37.5t77.5 -55t54.5 -79t19.5 -104.5q0 -139 -110 -221t-295 -82h-557zM351 142h369q120 0 188 49.5t68 137.5q0 81 -71.5 126.5t-205.5 45.5h-348v-359zM351 634h341q103 0 164.5 46.5 t61.5 132.5q0 46 -25 81.5t-75 55.5t-121 20h-346v-336z" />
<glyph unicode="&#x433;" horiz-adv-x="995" d="M185 0v1112h755v-146h-589v-966h-166z" />
<glyph unicode="&#x434;" horiz-adv-x="1291" d="M21 146h121q72 132 110 318t38 454v194h792v-966h168l-27 -423h-137v277h-899l-29 -277h-137v423zM318 146h598v820h-467v-155q0 -202 -35.5 -378t-95.5 -287z" />
<glyph unicode="&#x435;" horiz-adv-x="1272" d="M117 554q0 120 40 227t110 185t169.5 123.5t212.5 45.5q120 0 219 -46t164 -126t100.5 -187t35.5 -230q0 -32 -2 -58h-882q11 -114 68 -199t140.5 -127.5t182.5 -42.5q109 0 194 40t157 116l103 -92q-91 -102 -199.5 -155.5t-258.5 -53.5q-114 0 -215.5 42.5 t-176.5 117.5t-118.5 184t-43.5 236zM284 622h716q-8 77 -33.5 143.5t-68.5 118.5t-108 81.5t-145 29.5q-142 0 -242.5 -105t-118.5 -268z" />
<glyph unicode="&#x436;" horiz-adv-x="1829" d="M43 0l456 636l-433 476h201l566 -646v646h165v-646l565 646h200l-432 -476l456 -636h-193l-371 519l-225 -248v-271h-165v271l-226 248l-371 -519h-193z" />
<glyph unicode="&#x437;" horiz-adv-x="1100" d="M78 140l84 122q169 -143 371 -143q74 0 135.5 21.5t100.5 67.5t39 108q0 56 -31.5 97t-95 63.5t-152.5 22.5h-149v135h151q111 0 179 52.5t68 138.5q0 76 -67.5 121t-172.5 45q-57 0 -115 -11t-117.5 -37t-105.5 -63l-81 115q180 140 429 140q185 0 293.5 -82.5 t108.5 -213.5q0 -66 -25.5 -119t-64 -84.5t-88.5 -52.5q207 -73 207 -273q0 -67 -31 -128t-86.5 -107.5t-139.5 -73.5t-184 -27q-255 0 -460 166z" />
<glyph unicode="&#x438;" horiz-adv-x="1356" d="M185 0v1112h166v-880l660 880h161v-1112h-166v880l-662 -880h-159z" />
<glyph unicode="&#x439;" horiz-adv-x="1356" d="M185 0v1112h166v-880l660 880h161v-1112h-166v880l-662 -880h-159zM370 1533l114 24q43 -151 189 -151t189 151l114 -24q-20 -116 -102 -189.5t-201 -73.5t-201 73.5t-102 189.5z" />
<glyph unicode="&#x43a;" horiz-adv-x="1219" d="M185 0v1112h166v-641l608 641h204l-464 -482l477 -630h-195l-396 509l-234 -240v-269h-166z" />
<glyph unicode="&#x43b;" horiz-adv-x="1313" d="M-2 0l19 142q49 -15 80 -15q33 0 56 5.5t50.5 26t46 57t37.5 102.5t30 159.5t18 230t7 312.5v92h787v-1112h-165v966h-465v-26q0 -143 -6 -261.5t-16 -209t-26.5 -162.5t-35 -122.5t-44 -87.5t-50.5 -58.5t-58 -34t-63 -17t-69 -4.5q-64 0 -133 17z" />
<glyph unicode="&#x43c;" horiz-adv-x="1515" d="M185 0v1112h157l415 -585l415 585h159v-1112h-168v847l-410 -563l-407 563v-847h-161z" />
<glyph unicode="&#x43d;" horiz-adv-x="1340" d="M185 0v1112h166v-480h640v480h166v-1112h-166v486h-640v-486h-166z" />
<glyph unicode="&#x43e;" horiz-adv-x="1389" d="M117 554q0 117 44 223.5t120 185t184.5 125.5t231.5 47q122 0 230 -46t184 -124.5t120 -185.5t44 -225q0 -116 -44.5 -222.5t-121 -185.5t-185.5 -125.5t-232 -46.5q-122 0 -230 46t-183 124.5t-118.5 185t-43.5 224.5zM286 554q0 -117 53.5 -216t148 -157t209.5 -58 q118 0 212 58t145.5 156.5t51.5 216.5t-54 218t-149.5 158.5t-210.5 58.5q-117 0 -211 -59t-144.5 -158t-50.5 -218z" />
<glyph unicode="&#x43f;" horiz-adv-x="1332" d="M185 0v1112h964v-1112h-166v966h-632v-966h-166z" />
<glyph unicode="&#x440;" horiz-adv-x="1426" d="M185 -344v1456h166v-224q167 247 425 247q80 0 157.5 -24.5t145 -74t118.5 -118t80.5 -162.5t29.5 -202q0 -106 -29 -199t-80 -161.5t-118.5 -118t-145 -74.5t-158.5 -25q-262 0 -425 237v-557h-166zM344 554q0 -94 34 -175.5t90 -136.5t128.5 -86t150.5 -31 q80 0 151 29.5t124.5 83.5t84 136.5t30.5 181.5q0 96 -31.5 178t-84.5 136.5t-124 85.5t-150 31q-78 0 -150.5 -31.5t-128.5 -87t-90 -138t-34 -176.5z" />
<glyph unicode="&#x441;" horiz-adv-x="1227" d="M117 554q0 117 43.5 223.5t118.5 185t181.5 125.5t225.5 47q76 0 143 -15t121 -43.5t96.5 -61.5t84.5 -77l-105 -113q-74 78 -156 121t-186 43q-111 0 -202.5 -57.5t-143.5 -157.5t-52 -220q0 -118 53.5 -217t147.5 -156.5t208 -57.5q99 0 180.5 44t154.5 123l109 -101 q-92 -103 -199.5 -159t-253.5 -56q-119 0 -225.5 46.5t-181.5 125t-118.5 185t-43.5 223.5z" />
<glyph unicode="&#x442;" d="M56 966v146h964v-146h-398v-966h-168v966h-398z" />
<glyph unicode="&#x443;" horiz-adv-x="1270" d="M74 1112h182l404 -927l357 927h177l-467 -1149q-48 -115 -101.5 -184t-118 -99.5t-150.5 -30.5q-122 0 -236 56l55 131q78 -41 175 -41q75 0 127 46.5t101 162.5z" />
<glyph unicode="&#x444;" horiz-adv-x="1876" d="M125 559q0 133 33 241.5t92.5 182t143 113t182.5 39.5q60 0 113.5 -18t88 -41t76.5 -61v491h168v-491q64 58 127 89t150 31q100 0 183.5 -39.5t143.5 -113t93 -183.5t33 -245q0 -133 -33 -242t-93 -182.5t-144 -113.5t-183 -40q-49 0 -89 8.5t-75 27t-57.5 34.5t-55.5 44 v-434h-168v434q-65 -54 -129 -84t-149 -30q-99 0 -182.5 40t-143 114t-92.5 184t-33 245zM297 550q0 -205 77.5 -316t236.5 -111q141 0 243 109v646q-102 109 -243 109q-155 0 -234.5 -116t-79.5 -321zM1022 232q106 -109 244 -109q107 0 178 52t103.5 147t32.5 232 q0 203 -79.5 318t-234.5 115q-138 0 -244 -109v-646z" />
<glyph unicode="&#x445;" horiz-adv-x="1233" d="M84 0l437 566l-420 546h189l330 -431l328 431h185l-421 -542l439 -570h-192l-344 454l-346 -454h-185z" />
<glyph unicode="&#x446;" horiz-adv-x="1350" d="M185 0v1112h166v-966h623v966h165v-966h168l-25 -423h-138v277h-959z" />
<glyph unicode="&#x447;" horiz-adv-x="1240" d="M150 690v422h166v-398q0 -99 59 -156t165 -57q88 0 185 29.5t165 76.5v505h166v-1112h-166v458q-42 -24 -101.5 -46.5t-133.5 -38.5t-136 -16q-83 0 -150.5 21.5t-116.5 62.5t-75.5 104.5t-26.5 144.5z" />
<glyph unicode="&#x448;" horiz-adv-x="1951" d="M185 0v1112h166v-966h541v966h166v-966h542v966h167v-1112h-1582z" />
<glyph unicode="&#x449;" horiz-adv-x="1978" d="M185 0v1112h166v-966h541v966h166v-966h542v966h167v-966h168l-25 -423h-138v277h-1587z" />
<glyph unicode="&#x44a;" horiz-adv-x="1350" d="M43 966v146h501v-417h297q93 0 170.5 -19.5t138.5 -59t95.5 -105t34.5 -150.5q0 -165 -114.5 -263t-305.5 -98h-482v966h-335zM544 146h301q127 0 197 54t70 157q0 96 -72 145.5t-201 49.5h-295v-406z" />
<glyph unicode="&#x44b;" horiz-adv-x="1635" d="M185 0v1112h166v-417h296q61 0 116 -8.5t104.5 -26t89 -45t68.5 -63.5t45 -84.5t16 -106.5q0 -166 -114 -263.5t-305 -97.5h-482zM351 146h301q83 0 142.5 23.5t91.5 71t32 116.5q0 96 -72 145.5t-201 49.5h-294v-406zM1286 0v1112h165v-1112h-165z" />
<glyph unicode="&#x44c;" horiz-adv-x="1156" d="M185 0v1112h166v-417h296q61 0 116 -8.5t104.5 -26t89 -45t68.5 -63.5t45 -84.5t16 -106.5q0 -166 -114 -263.5t-305 -97.5h-482zM351 146h301q83 0 142.5 23.5t91.5 71t32 116.5q0 96 -72 145.5t-201 49.5h-294v-406z" />
<glyph unicode="&#x44d;" horiz-adv-x="1227" d="M86 189l109 104q75 -82 155.5 -128t180.5 -46q105 0 194.5 49t146 134t68.5 188h-507v140h505q-8 73 -42 139.5t-86.5 115.5t-123 77.5t-146.5 28.5q-107 0 -189 -43.5t-156 -122.5l-96 108q84 96 192.5 149t258.5 53q119 0 224.5 -47t179 -126.5t116 -187t42.5 -224.5 q0 -115 -44 -221t-119.5 -184t-182 -124.5t-224.5 -46.5q-152 0 -259.5 54t-196.5 161z" />
<glyph unicode="&#x44e;" horiz-adv-x="1806" d="M185 0v1112h166v-484h246q10 83 39.5 159t78.5 139.5t112.5 110t145 72.5t171.5 26q99 0 186 -30t152.5 -83.5t113.5 -126t72.5 -159.5t24.5 -182q0 -116 -39.5 -221.5t-110 -185t-175.5 -126.5t-229 -47q-114 0 -211.5 40t-166 110t-111 163.5t-53.5 200.5h-246v-488 h-166zM765 554.5q0 -120.5 46.5 -218.5t133.5 -155.5t199 -57.5q88 0 159.5 34t118.5 92.5t72.5 137t25.5 167.5q0 121 -46 219t-134 156t-201 58q-114 0 -200.5 -59t-130 -156t-43.5 -217.5z" />
<glyph unicode="&#x44f;" horiz-adv-x="1255" d="M86 0l340 430q-63 15 -116.5 44t-94 70.5t-63.5 98.5t-23 122q0 103 49 181t144.5 122t225.5 44h523v-1112h-166v404h-308q-272 -358 -307 -404h-204zM295 759q0 -100 74.5 -157.5t192.5 -57.5h343v422h-349q-82 0 -141 -25t-89.5 -71.5t-30.5 -110.5z" />
<glyph unicode="&#x451;" horiz-adv-x="1272" d="M117 554q0 120 40 227t110 185t169.5 123.5t212.5 45.5q120 0 219 -46t164 -126t100.5 -187t35.5 -230q0 -32 -2 -58h-882q11 -114 68 -199t140.5 -127.5t182.5 -42.5q109 0 194 40t157 116l103 -92q-91 -102 -199.5 -155.5t-258.5 -53.5q-114 0 -215.5 42.5 t-176.5 117.5t-118.5 184t-43.5 236zM284 622h716q-8 77 -33.5 143.5t-68.5 118.5t-108 81.5t-145 29.5q-142 0 -242.5 -105t-118.5 -268zM351 1280v204h193v-204h-193zM729 1280v204h194v-204h-194z" />
<glyph unicode="&#x452;" horiz-adv-x="1324" d="M13 1230v133h172v207h166v-207h457v-133h-457v-338q136 222 386 222q133 0 231 -57t149 -158t51 -232v-248q0 -131 -51 -231.5t-149 -157t-231 -56.5q-118 0 -218 43l31 141q71 -35 158 -35q126 0 210 93t84 244v166q0 102 -37 178t-108 118t-167 42q-145 0 -242 -99.5 t-97 -253.5v-611h-166v1230h-172z" />
<glyph unicode="&#x453;" horiz-adv-x="995" d="M185 0v1112h755v-146h-589v-966h-166zM439 1280l204 312l172 -80l-243 -232h-133z" />
<glyph unicode="&#x454;" horiz-adv-x="1227" d="M114 550q0 117 42.5 224.5t116 187t178.5 126.5t224 47q150 0 258.5 -53t193.5 -149l-97 -108q-74 79 -156 122.5t-188 43.5q-102 0 -190.5 -49t-143 -131.5t-64.5 -180.5h506v-140h-508q12 -103 68.5 -188t146 -134t194.5 -49q100 0 180 46t155 128l109 -104 q-89 -107 -196 -161t-259 -54q-119 0 -225 46.5t-181.5 124.5t-119.5 184t-44 221z" />
<glyph unicode="&#x455;" horiz-adv-x="1069" d="M92 142l84 118q190 -141 386 -141q101 0 165.5 49t64.5 131q0 27 -10 50t-31 41.5t-43 32.5t-58 27.5t-64.5 22.5t-72.5 22q-46 13 -75.5 22t-72.5 25.5t-70 32.5t-58.5 40.5t-49 51.5t-29.5 64.5t-12 81.5q0 94 49 166.5t135 112t195 39.5q67 0 138 -14.5t138 -42 t124 -65.5l-76 -125q-78 51 -163.5 79t-164.5 28q-49 0 -89.5 -12.5t-68 -34t-42.5 -52.5t-15 -67q0 -17 5.5 -32.5t12.5 -28t23 -25.5t28 -21.5t36.5 -19.5t39 -17.5t45.5 -16.5t46 -14.5t49 -15.5q44 -13 74.5 -23t71 -27t68 -34t57 -41.5t47 -52t28.5 -64.5t11 -80 q0 -103 -53 -179.5t-142 -115t-201 -38.5q-119 0 -242.5 43.5t-217.5 119.5z" />
<glyph unicode="&#x456;" horiz-adv-x="564" d="M189 1354v183h189v-183h-189zM200 0v1112h165v-1112h-165z" />
<glyph unicode="&#x457;" horiz-adv-x="564" d="M-2 1280v204h193v-204h-193zM200 0v1112h165v-1112h-165zM376 1280v204h194v-204h-194z" />
<glyph unicode="&#x458;" horiz-adv-x="564" d="M-8 -205q39 -6 82 -6q58 0 92 37t34 112v1174h165v-1176q0 -143 -70.5 -215t-200.5 -72q-56 0 -102 11v135zM189 1354v183h189v-183h-189z" />
<glyph unicode="&#x459;" horiz-adv-x="1935" d="M-2 0l19 142q49 -15 80 -15q33 0 56 5.5t50.5 26t46 57t37.5 102.5t30 159.5t18 230t7 312.5v92h787v-417h297q92 0 170 -19.5t139 -59t95.5 -105t34.5 -150.5q0 -165 -114.5 -263t-305.5 -98h-481v966h-465v-26q0 -143 -6 -261.5t-16 -209t-26.5 -162.5t-35 -122.5 t-44 -87.5t-50.5 -58.5t-58 -34t-63 -17t-69 -4.5q-64 0 -133 17zM1129 146h301q127 0 197 54t70 157q0 96 -72 145.5t-201 49.5h-295v-406z" />
<glyph unicode="&#x45a;" horiz-adv-x="1960" d="M185 0v1112h166v-426h640v426h166v-426h298q73 0 137 -12t119 -37.5t94.5 -63.5t62 -94t22.5 -124q0 -165 -113 -260t-302 -95h-484v542h-640v-542h-166zM1157 146h304q125 0 194 52.5t69 154.5q0 94 -71.5 142.5t-199.5 48.5h-296v-398z" />
<glyph unicode="&#x45b;" horiz-adv-x="1324" d="M13 1230v133h172v207h166v-207h457v-133h-457v-333q132 217 380 217q199 0 312.5 -122t113.5 -323v-669h-166v628q0 156 -81 246t-226 90t-239 -97t-94 -252v-615h-166v1230h-172z" />
<glyph unicode="&#x45c;" horiz-adv-x="1219" d="M185 0v1112h166v-641l608 641h204l-464 -482l477 -630h-195l-396 509l-234 -240v-269h-166zM550 1280l205 312l172 -80l-243 -232h-134z" />
<glyph unicode="&#x45e;" horiz-adv-x="1270" d="M74 1112h182l404 -927l357 927h177l-467 -1149q-48 -115 -101.5 -184t-118 -99.5t-150.5 -30.5q-122 0 -236 56l55 131q78 -41 175 -41q75 0 127 46.5t101 162.5zM357 1533l114 24q43 -151 189 -151t189 151l115 -24q-20 -116 -102 -189.5t-201.5 -73.5t-201.5 73.5 t-102 189.5z" />
<glyph unicode="&#x45f;" horiz-adv-x="1336" d="M185 0v1112h166v-966h636v966h166v-1112h-396v-277h-164v277h-408z" />
<glyph unicode="&#x490;" horiz-adv-x="1266" d="M213 0v1506h787v335h147l27 -491h-791v-1350h-170z" />
<glyph unicode="&#x491;" horiz-adv-x="995" d="M185 0v1112h591v277h138l26 -423h-589v-966h-166z" />
<glyph unicode="&#x2000;" horiz-adv-x="975" />
<glyph unicode="&#x2001;" horiz-adv-x="1951" />
<glyph unicode="&#x2002;" horiz-adv-x="975" />
<glyph unicode="&#x2003;" horiz-adv-x="1951" />
<glyph unicode="&#x2004;" horiz-adv-x="650" />
<glyph unicode="&#x2005;" horiz-adv-x="487" />
<glyph unicode="&#x2006;" horiz-adv-x="325" />
<glyph unicode="&#x2007;" horiz-adv-x="325" />
<glyph unicode="&#x2008;" horiz-adv-x="243" />
<glyph unicode="&#x2009;" horiz-adv-x="390" />
<glyph unicode="&#x200a;" horiz-adv-x="108" />
<glyph unicode="&#x2010;" horiz-adv-x="876" d="M140 559v174h597v-174h-597z" />
<glyph unicode="&#x2011;" horiz-adv-x="876" d="M140 559v174h597v-174h-597z" />
<glyph unicode="&#x2012;" horiz-adv-x="876" d="M140 559v174h597v-174h-597z" />
<glyph unicode="&#x2013;" horiz-adv-x="1135" d="M140 564v165h855v-165h-855z" />
<glyph unicode="&#x2014;" horiz-adv-x="1930" d="M140 564v165h1651v-165h-1651z" />
<glyph unicode="&#x2018;" horiz-adv-x="526" d="M154 1028v193q0 87 25.5 146t77.5 95t135 54l25 -75q-51 -19 -82.5 -43t-46.5 -55t-15 -73v-16h80v-226h-199z" />
<glyph unicode="&#x2019;" horiz-adv-x="526" d="M109 1092q75 28 110 67.5t35 98.5v22h-78v226h198v-195q0 -129 -57 -197.5t-182 -96.5z" />
<glyph unicode="&#x201a;" horiz-adv-x="526" d="M99 -187q74 28 109 67.5t35 98.5v21h-77v226h197v-193q0 -130 -57 -199t-181 -96z" />
<glyph unicode="&#x201c;" horiz-adv-x="956" d="M154 1028v193q0 87 25.5 146t77.5 95t135 54l25 -75q-51 -19 -82.5 -43t-46.5 -55t-15 -73v-16h80v-226h-199zM585 1028v193q0 130 56 198.5t180 96.5l26 -75q-50 -19 -81.5 -43t-46.5 -55t-15 -73v-16h76v-226h-195z" />
<glyph unicode="&#x201d;" horiz-adv-x="956" d="M109 1092q75 28 110 67.5t35 98.5v22h-78v226h198v-195q0 -129 -57 -197.5t-182 -96.5zM540 1092q74 28 109 67.5t35 98.5v22h-77v226h195v-195q0 -129 -56 -197.5t-180 -96.5z" />
<glyph unicode="&#x201e;" horiz-adv-x="956" d="M99 -187q74 28 109 67.5t35 98.5v21h-77v226h197v-193q0 -130 -57 -199t-181 -96zM529 -187q75 28 109.5 67.5t34.5 98.5v21h-78v226h197v-193q0 -130 -56.5 -199t-181.5 -96z" />
<glyph unicode="&#x2020;" horiz-adv-x="880" d="M129 1101v118l265 -17l-20 304h133l-19 -304l265 17v-118l-267 17l13 -607h-116l13 607z" />
<glyph unicode="&#x2021;" horiz-adv-x="924" d="M150 286v118l267 -17l-13 366l13 365l-267 -17v118l265 -17l-19 304h133l-20 -304l265 17v-118l-267 17l14 -365l-14 -366l267 17v-118l-265 17l20 -303h-133l19 303z" />
<glyph unicode="&#x2022;" horiz-adv-x="1026" d="M232 759q0 115 84 197t197 82q74 0 139 -37t104.5 -102.5t39.5 -143.5q0 -116 -83 -197.5t-200 -81.5q-116 0 -198.5 82t-82.5 201z" />
<glyph unicode="&#x2026;" horiz-adv-x="1554" d="M166 0v222h191v-222h-191zM681 0v222h192v-222h-192zM1198 0v222h193v-222h-193z" />
<glyph unicode="&#x202f;" horiz-adv-x="390" />
<glyph unicode="&#x2030;" horiz-adv-x="2604" d="M111 1137q0 103 42.5 190.5t122 141t180.5 53.5q98 0 176.5 -53t120 -140.5t41.5 -191.5q0 -102 -42.5 -189.5t-121.5 -141t-178.5 -53.5t-178 53t-120.5 140.5t-42 190.5zM256 1137q0 -74 26.5 -134.5t72.5 -95t101 -34.5q86 0 141 76t55 188t-59 188.5t-141 76.5 q-88 0 -142 -76.5t-54 -188.5zM267 0l1105 1506h153l-1104 -1506h-154zM1000 368q0 102 42 189.5t121.5 141.5t178.5 54t177 -53.5t119 -141t41 -190.5t-41.5 -190.5t-120.5 -141t-179 -53.5q-99 0 -177 53t-119.5 140.5t-41.5 191.5zM1141 368q0 -74 27 -135t73 -95.5 t101 -34.5q87 0 141 75.5t54 189.5q0 112 -57.5 188t-141.5 76q-86 0 -141.5 -76.5t-55.5 -187.5zM1810 368q0 102 42.5 189.5t121.5 141.5t178.5 54t177.5 -53.5t119.5 -141t41.5 -190.5t-42 -190.5t-121 -141t-180 -53.5q-98 0 -176.5 53t-120 140.5t-41.5 191.5z M1953 368q0 -113 58 -189t141 -76q88 0 142 75.5t54 189.5q0 112 -58 188t-142 76q-86 0 -140.5 -76.5t-54.5 -187.5z" />
<glyph unicode="&#x2039;" horiz-adv-x="704" d="M103 548v18l349 458l127 -72l-291 -393l291 -397l-127 -74z" />
<glyph unicode="&#x203a;" horiz-adv-x="704" d="M127 160l290 394l-290 396l125 74l348 -458v-18l-348 -460z" />
<glyph unicode="&#x2044;" horiz-adv-x="921" d="M-146 -211l1004 1841h164l-1005 -1841h-163z" />
<glyph unicode="&#x205f;" horiz-adv-x="487" />
<glyph unicode="&#x20ac;" horiz-adv-x="1547" d="M121 509v136h174q-5 43 -5 108q0 70 9 125h-178v133h201q25 90 65.5 169.5t95.5 144t121.5 110.5t145.5 71t164 25q92 0 170.5 -21.5t141.5 -62.5t112 -91.5t94 -118.5l-129 -93q-42 60 -81.5 101t-87.5 72.5t-103.5 46.5t-123.5 15q-141 0 -250.5 -101t-159.5 -267h552 v-133h-581q-8 -46 -8 -125q0 -39 4 -108h585v-136h-557q49 -175 165.5 -278.5t273.5 -103.5q50 0 95.5 11.5t83 32t74 52t67 68t63.5 83.5l122 -86q-47 -72 -96.5 -125.5t-111.5 -98t-138.5 -67.5t-164.5 -23q-113 0 -213 39t-178 109.5t-134 169t-84 217.5h-195z" />
<glyph unicode="&#x2122;" horiz-adv-x="1483" d="M56 1415v91h520v-91h-213v-572h-94v572h-213zM722 843v663h101l237 -365l235 365h98v-663h-92v507l-236 -359h-14l-234 359v-507h-95z" />
<glyph unicode="&#x2202;" d="M0 0v1506h1075v-1506h-1075zM105 207l369 546l-369 546v-1092zM174 105h729l-365 549zM174 1398l364 -549l365 549h-729zM600 753l368 -546v1092z" />
<glyph unicode="&#x2206;" horiz-adv-x="1685" d="M94 0l667 1514h164l667 -1514h-1498zM344 154h994l-495 1160z" />
<glyph unicode="&#x220f;" d="M0 0v1506h1075v-1506h-1075zM105 207l369 546l-369 546v-1092zM174 105h729l-365 549zM174 1398l364 -549l365 549h-729zM600 753l368 -546v1092z" />
<glyph unicode="&#x2211;" d="M0 0v1506h1075v-1506h-1075zM105 207l369 546l-369 546v-1092zM174 105h729l-365 549zM174 1398l364 -549l365 549h-729zM600 753l368 -546v1092z" />
<glyph unicode="&#x221a;" horiz-adv-x="1083" d="M-13 404l226 74l327 -673l449 1890h142q-100 -401 -282 -1143t-229 -935l-113 -38l-365 743l-123 -38z" />
<glyph unicode="&#x221e;" horiz-adv-x="1623" d="M88 761q0 93 37.5 169t109.5 121t165 45q35 0 69.5 -8t63 -19t61.5 -32t55.5 -37t54.5 -45.5t49 -46t48 -47.5l12 -12q17 17 57 56t61 59t59.5 49.5t69 44.5t72 26.5t85.5 11.5q142 0 230 -95t88 -240t-84.5 -236.5t-229.5 -91.5q-59 0 -116.5 19t-110.5 55.5t-93 71 t-88 84.5q-7 -6 -35.5 -32.5t-37 -34t-35 -31t-38.5 -31.5t-37.5 -26.5t-41 -26t-41 -19.5t-46 -16.5t-46 -8.5t-51.5 -4q-71 0 -130.5 25t-100 69t-63 104.5t-22.5 129.5zM228 761q0 -54 21 -96.5t61.5 -66.5t93.5 -24q136 0 316 185q-8 8 -42.5 38.5t-51.5 45t-51 40 t-58.5 38t-56.5 23t-60 10.5q-52 0 -92 -27t-60 -71t-20 -95zM905 759q28 -27 38.5 -37t39 -35t44.5 -36t44 -29t49.5 -26t49 -15t53.5 -7q81 0 128 53.5t47 133.5q0 85 -48 139t-133 54q-41 0 -85.5 -18t-88 -51.5t-72.5 -60.5t-66 -65z" />
<glyph unicode="&#x222b;" d="M0 0v1506h1075v-1506h-1075zM105 207l369 546l-369 546v-1092zM174 105h729l-365 549zM174 1398l364 -549l365 549h-729zM600 753l368 -546v1092z" />
<glyph unicode="&#x2248;" horiz-adv-x="1375" d="M117 408q7 49 20 91t35 83t51 70t71 46.5t93 17.5q62 0 148 -23.5t157.5 -52.5t151.5 -52.5t132 -23.5q71 0 115 45t58 115q32 -1 107 -10q-7 -59 -26.5 -111.5t-51.5 -96.5t-82 -69.5t-111 -25.5q-62 0 -149 23.5t-159 52.5t-152.5 53t-130.5 24q-68 0 -113.5 -48.5 t-56.5 -117.5zM117 794q7 48 20 90.5t35 83t51 69.5t71 46.5t93 17.5q62 0 147.5 -23.5t157 -52.5t152 -53t132.5 -24q71 0 115 45.5t58 116.5q32 -2 107 -11q-7 -58 -26.5 -110.5t-51.5 -96.5t-82 -70t-111 -26t-148 23.5t-160 52.5t-153.5 52.5t-129.5 23.5 q-68 0 -113.5 -48.5t-56.5 -117.5z" />
<glyph unicode="&#x2260;" horiz-adv-x="1375" d="M191 426v159h316l181 342h-497v161h579q18 35 46 86.5t53.5 100t46.5 88.5l131 -66q-22 -42 -62.5 -117.5t-48.5 -91.5h246v-161h-328l-181 -342h509v-159h-593q-90 -176 -137 -264l-132 68l103 196h-232z" />
<glyph unicode="&#x2264;" horiz-adv-x="1375" d="M154 0v150h1067v-150h-1067zM154 640v171q86 32 1067 404v-170l-881 -318q47 -17 377 -138t504 -183v-170q-980 372 -1067 404z" />
<glyph unicode="&#x2265;" horiz-adv-x="1375" d="M154 0v150h1067v-150h-1067zM158 236v170q146 53 878 321l-878 318v170q776 -297 1063 -404v-171q-287 -107 -1063 -404z" />
<glyph unicode="&#x25ca;" horiz-adv-x="1375" d="M238 765l373 841h150l376 -841l-376 -841h-150zM402 765q189 -451 286 -677q47 113 288 677q-281 659 -288 676z" />
<glyph unicode="&#xf8ff;" d="M0 0v1506h1075v-1506h-1075zM105 207l369 546l-369 546v-1092zM174 105h729l-365 549zM174 1398l364 -549l365 549h-729zM600 753l368 -546v1092z" />
</font>
</defs>
</svg>
