<?xml version="1.0" standalone="no"?>
<!DOCTYPE svg PUBLIC "-//W3C//DTD SVG 1.1//EN" "http://www.w3.org/Graphics/SVG/1.1/DTD/svg11.dtd" >
<svg xmlns="http://www.w3.org/2000/svg">
<metadata></metadata>
<defs>
<font id="gotham_pro_narrowbold" horiz-adv-x="1044" >
<font-face units-per-em="2048" ascent="1638" descent="-410" />
<missing-glyph horiz-adv-x="536" />
<glyph unicode="&#xfb01;" horiz-adv-x="1263" d="M54 869v245h113v72q0 335 326 335q101 0 186 -26v-243q-53 18 -109 18q-110 0 -110 -114v-44h217v-243h-215v-869h-295v869h-113zM829 1238v271h309v-271h-309zM835 0v1120h297v-1120h-297z" />
<glyph unicode="&#xfb02;" horiz-adv-x="1263" d="M54 869v245h113v72q0 335 326 335q101 0 186 -26v-243q-53 18 -109 18q-110 0 -110 -114v-44h217v-243h-215v-869h-295v869h-113zM835 0v1509h297v-1509h-297z" />
<glyph horiz-adv-x="0" />
<glyph horiz-adv-x="682" />
<glyph unicode=" "  horiz-adv-x="536" />
<glyph unicode="&#x09;" horiz-adv-x="536" />
<glyph unicode="&#xa0;" horiz-adv-x="536" />
<glyph unicode="!" horiz-adv-x="612" d="M132 1421v42h350v-42l-95 -937h-162zM144 0v319h324v-319h-324z" />
<glyph unicode="&#x22;" horiz-adv-x="975" d="M111 796l27 667h322v-14l-209 -653h-140zM560 796l24 667h323v-14l-207 -653h-140z" />
<glyph unicode="#" horiz-adv-x="1258" d="M58 319v255h180l47 323h-164v254h202l44 312h243l-46 -312h253l44 312h242l-46 -312h143v-254h-181l-46 -323h165v-255h-202l-47 -319h-241l46 319h-251l-48 -319h-240l46 319h-143zM480 574h253l46 323h-253z" />
<glyph unicode="$" horiz-adv-x="1158" d="M84 159l115 244q175 -125 319 -146v353q-106 43 -176 83.5t-124 93.5t-78.5 120t-24.5 154v2q0 161 103 267.5t273 130.5v133h203v-131q175 -20 327 -122l-98 -251q-145 92 -257 114v-333q122 -54 199.5 -102.5t126 -104.5t67.5 -117t19 -144v-2q0 -160 -106 -265.5 t-278 -131.5v-215h-203v211q-226 28 -407 159zM391 1082q0 -51 26.5 -82t100.5 -67v273q-64 -9 -95.5 -40.5t-31.5 -81.5v-2zM666 257q71 9 103.5 41t32.5 89v2q0 53 -29 88.5t-107 72.5v-293z" />
<glyph unicode="%" horiz-adv-x="1614" d="M82 1088v19q0 161 88 265.5t231 104.5q141 0 229.5 -104.5t88.5 -265.5v-17q0 -160 -89.5 -264.5t-230.5 -104.5t-229 103.5t-88 263.5zM223 0l951 1463h219l-952 -1463h-218zM287 1092q0 -86 31 -136.5t83 -50.5q54 0 83.5 49t29.5 136v15q0 86 -31 137t-84 51 q-55 0 -83.5 -49.5t-28.5 -136.5v-15zM897 355v17q0 162 88 266t231 104q141 0 229 -104t88 -264v-19q0 -161 -89.5 -265t-231.5 -104q-140 0 -227.5 104t-87.5 265zM1101 357q0 -87 30.5 -137.5t84.5 -50.5t83.5 49.5t29.5 136.5v14q0 87 -32 138t-85 51t-82 -49.5 t-29 -136.5v-15z" />
<glyph unicode="&#x26;" horiz-adv-x="1288" d="M56 393v6q0 262 267 412q-56 85 -82 157t-26 146v8q0 72 27.5 137.5t77.5 116t127 80t169 29.5q167 0 271.5 -100t104.5 -251v-8q0 -133 -72 -226t-206 -158l175 -212q48 86 112 233l223 -101q-69 -182 -163 -327l186 -214l-219 -149l-141 160q-82 -75 -174 -113.5 t-205 -38.5q-127 0 -229 49.5t-162.5 144.5t-60.5 219zM357 405q0 -78 52 -126.5t132 -48.5q99 0 188 79l-251 309q-60 -40 -90.5 -94t-30.5 -110v-9zM487 1105q0 -46 19 -90t62 -104q83 40 123 88t40 113v8q0 60 -33.5 95t-87.5 35q-56 0 -89.5 -38t-33.5 -98v-9z" />
<glyph unicode="'" horiz-adv-x="530" d="M111 796l27 667h324v-14l-207 -653h-144z" />
<glyph unicode="(" horiz-adv-x="837" d="M113 602q0 310 136 534.5t413 354.5l96 -200q-186 -122 -270.5 -289t-84.5 -400q0 -236 84 -403t271 -291l-96 -201q-549 257 -549 895z" />
<glyph unicode=")" horiz-adv-x="837" d="M78 -92q187 124 270.5 290.5t83.5 403.5q0 234 -84 400.5t-270 288.5l97 200q277 -130 413.5 -355t136.5 -534q0 -313 -136 -539t-414 -356z" />
<glyph unicode="*" horiz-adv-x="813" d="M84 1036l219 92l-219 92l85 148l188 -148l-36 245h172l-35 -245l188 148l87 -148l-221 -92l221 -92l-87 -149l-188 149l35 -244h-172l36 244l-188 -149z" />
<glyph unicode="+" horiz-adv-x="1208" d="M113 600v271h353v361h278v-361h352v-271h-352v-362h-278v362h-353z" />
<glyph unicode="," horiz-adv-x="554" d="M50 -215q106 13 154.5 70.5t40.5 144.5h-130v319h324v-267q0 -191 -92.5 -286t-273.5 -105z" />
<glyph unicode="-" horiz-adv-x="805" d="M96 504v288h612v-288h-612z" />
<glyph unicode="." horiz-adv-x="554" d="M115 0v319h324v-319h-324z" />
<glyph unicode="/" horiz-adv-x="966" d="M-46 -249l783 1897h251l-785 -1897h-249z" />
<glyph unicode="0" horiz-adv-x="1313" d="M94 716v28q0 221 68.5 389t196.5 260t299 92q169 0 297 -91.5t196.5 -259t68.5 -388.5v-27q0 -221 -69 -389.5t-197.5 -260.5t-297.5 -92q-171 0 -298.5 91t-195.5 258.5t-68 389.5zM401 721q0 -228 69 -350t188 -122t187 120t68 347v26q0 228 -69.5 350t-187.5 122 q-119 0 -187 -120t-68 -348v-25z" />
<glyph unicode="1" horiz-adv-x="774" d="M44 1364l361 109h207v-1473h-299v1162l-223 -59z" />
<glyph unicode="2" horiz-adv-x="1110" d="M86 0v243l413 449q117 122 162 194.5t45 147.5q0 80 -49 126t-127 46q-71 0 -132 -37.5t-135 -119.5l-157 203q64 77 126 124.5t144.5 75t185.5 27.5q206 0 327.5 -111t121.5 -300v-7q0 -61 -12.5 -113.5t-33.5 -97t-62.5 -96t-84 -96.5t-112.5 -112l-230 -277h543v-269 h-933z" />
<glyph unicode="3" horiz-adv-x="1112" d="M64 167l155 220q70 -68 140.5 -101t160.5 -33t145.5 50t55.5 136v8q0 95 -72 145.5t-204 53.5h-94l-36 191l315 357h-500v269h869v-239l-333 -361q58 -12 107 -31t95.5 -52t78.5 -76t51 -105t19 -137v-11q0 -138 -60 -245t-171 -166.5t-258 -59.5q-288 0 -464 187z" />
<glyph unicode="4" horiz-adv-x="1248" d="M54 520l677 951h266v-921h173v-249h-173v-301h-287v301h-620zM380 550h330v480z" />
<glyph unicode="5" horiz-adv-x="1129" d="M82 142l135 238q146 -123 295 -123q105 0 165 57t60 158v10q0 99 -59.5 150t-163.5 51q-101 0 -201 -43l-167 110l42 713h785v-271h-536l-17 -265q84 22 162 22q77 0 143 -16t123.5 -51.5t98.5 -88t64 -130.5t23 -174v-9q0 -231 -139 -365.5t-373 -134.5q-257 0 -440 162 z" />
<glyph unicode="6" horiz-adv-x="1198" d="M96 683v9q0 378 146.5 584.5t425.5 206.5q115 0 205 -30.5t169 -90.5l-119 -248q-66 48 -123.5 72t-129.5 24q-120 0 -189 -94.5t-78 -260.5q59 45 119.5 69.5t149.5 24.5q90 0 167.5 -28.5t138 -83t95 -143t34.5 -201.5v-13q0 -111 -37.5 -205t-102.5 -159.5 t-155.5 -102t-195.5 -36.5q-116 0 -202 32t-151 99q-84 84 -125.5 218.5t-41.5 356.5zM399 468q0 -109 56 -169.5t153 -60.5t151 61t54 169v10q0 102 -56.5 161t-148.5 59q-98 0 -153 -58q-56 -57 -56 -160v-12z" />
<glyph unicode="7" horiz-adv-x="1100" d="M108 1190v273h907v-225l-535 -1238h-327l534 1190h-579z" />
<glyph unicode="8" horiz-adv-x="1154" d="M78 403v6q0 249 217 358q-176 106 -176 315v8q0 111 57.5 200.5t162.5 141t237.5 51.5t237.5 -51.5t162.5 -141t57.5 -200.5v-8q0 -211 -175 -315q105 -58 161 -141t56 -210v-9q0 -132 -65 -229.5t-177.5 -147.5t-257.5 -50q-143 0 -256 51t-177.5 148t-64.5 224z M369 424q0 -94 55 -146.5t152.5 -52.5t152 52.5t54.5 146.5v8q0 93 -57 143.5t-149.5 50.5t-150 -50.5t-57.5 -143.5v-8zM403 1053q0 -86 47 -138t126 -52q80 0 127 50.5t47 137.5v6q0 82 -46.5 131.5t-127.5 49.5q-79 0 -126 -49t-47 -130v-6z" />
<glyph unicode="9" horiz-adv-x="1198" d="M94 963v12q0 149 62.5 265.5t174 180.5t253.5 64q118 0 202 -31.5t152 -99.5q84 -84 125.5 -218t41.5 -357v-8q0 -381 -148.5 -586t-424.5 -205q-223 0 -394 128l119 249q69 -53 134 -78.5t139 -25.5q120 0 190 92t78 253q-110 -96 -268 -96q-93 0 -171.5 28.5t-138 84.5 t-93 145t-33.5 203zM389 977q0 -105 56 -165t149 -60q89 0 150 57q58 61 58 166v13q0 115 -55.5 175.5t-152.5 60.5q-99 0 -152 -61.5t-53 -174.5v-11z" />
<glyph unicode=":" horiz-adv-x="576" d="M125 0v319h324v-319h-324zM125 800v320h324v-320h-324z" />
<glyph unicode=";" horiz-adv-x="576" d="M60 -215q106 13 154.5 70.5t40.5 144.5h-130v319h324v-267q0 -191 -92.5 -286t-272.5 -105zM125 800v320h324v-320h-324z" />
<glyph unicode="&#x3c;" horiz-adv-x="1158" d="M134 592v287l890 437v-295l-613 -284l613 -284v-298z" />
<glyph unicode="=" horiz-adv-x="1158" d="M113 335v277h934v-277h-934zM113 859v277h934v-277h-934z" />
<glyph unicode="&#x3e;" horiz-adv-x="1158" d="M136 155v294l610 284l-610 284v299l888 -437v-287z" />
<glyph unicode="?" horiz-adv-x="995" d="M42 1304q175 175 426 175q210 0 336.5 -112.5t126.5 -303.5v-8q0 -90 -27.5 -160t-78.5 -117t-113 -77.5t-142 -50.5l-22 -166h-199l-40 347l8 11q162 13 240 66t78 139v4q0 70 -50 111.5t-136 41.5q-149 0 -274 -116zM285 0v319h323v-319h-323z" />
<glyph unicode="@" horiz-adv-x="1831" d="M94 534q0 126 29 247t82.5 225.5t131 193.5t170.5 152t205.5 98t232.5 35q110 0 214.5 -29t191 -80.5t159 -123.5t122 -156.5t77 -182t27.5 -197.5q0 -173 -51 -305t-141 -202.5t-205 -70.5q-110 0 -180.5 38.5t-105.5 98.5q-116 -135 -278 -135q-66 0 -124.5 24.5 t-102 69.5t-68.5 113t-25 150q0 113 34.5 218t92 180.5t134.5 120.5t159 45q160 0 247 -138l20 113l235 -39l-97 -552q-8 -37 -8 -88q0 -55 33 -87t92 -32q106 0 177.5 134t71.5 349q0 106 -33.5 207.5t-97 186.5t-148.5 149.5t-195.5 100.5t-231.5 36q-107 0 -207.5 -32 t-183.5 -89.5t-151.5 -138.5t-115.5 -177t-72.5 -206.5t-25.5 -225.5q-1 -165 53.5 -308t151 -244.5t234 -159.5t296.5 -58q131 0 237.5 29t211.5 92l44 -69q-115 -68 -234.5 -101.5t-262.5 -33.5q-173 0 -325.5 64t-261 176.5t-171.5 272t-63 342.5zM698 512q0 -81 43 -126 t114 -45q67 0 123.5 59t78.5 154q15 72 15 131q0 77 -42.5 122.5t-110.5 45.5q-69 0 -125 -56.5t-78 -148.5q-18 -90 -18 -136z" />
<glyph unicode="A" horiz-adv-x="1403" d="M36 0l522 1471h288l522 -1471h-311l-108 317h-502l-108 -317h-303zM537 584h320l-159 477z" />
<glyph unicode="B" horiz-adv-x="1302" d="M146 0v1463h541q143 0 250 -43.5t169 -130.5t62 -209q0 -217 -199 -320q61 -25 106.5 -54.5t81.5 -71t54.5 -97.5t18.5 -126v-8q0 -130 -67 -221.5t-184.5 -136.5t-276.5 -45h-556zM441 267h269q104 0 161.5 43t57.5 127t-57 129.5t-170 45.5h-261v-345zM441 863h209 q103 0 161 41.5t58 125.5q0 82 -53 123t-152 41h-223v-331z" />
<glyph unicode="C" horiz-adv-x="1288" d="M92 721v19q0 164 49.5 303t137 235.5t210 150.5t265.5 54q151 0 256.5 -42.5t197.5 -124.5l-143 -244q-75 64 -148 97t-157 33q-158 0 -256.5 -124t-98.5 -334v-21q0 -215 98.5 -338.5t259.5 -123.5q90 0 161.5 33t149.5 101l144 -220q-99 -98 -210.5 -146.5 t-267.5 -48.5q-138 0 -257.5 53.5t-205.5 149t-135.5 235t-49.5 303.5z" />
<glyph unicode="D" horiz-adv-x="1405" d="M146 0v1463h470q155 0 285 -53t221 -147t141.5 -228.5t50.5 -292.5v-19q0 -159 -50.5 -293.5t-141.5 -229t-221 -147.5t-285 -53h-470zM447 273h177q170 0 273.5 117t103.5 331v19q0 212 -104 330t-273 118h-177v-915z" />
<glyph unicode="E" horiz-adv-x="1186" d="M146 0v1463h940v-273h-641v-319h564v-271h-564v-329h649v-271h-948z" />
<glyph unicode="F" horiz-adv-x="1152" d="M146 0v1463h938v-279h-637v-327h562v-277h-562v-580h-301z" />
<glyph unicode="G" horiz-adv-x="1399" d="M92 721v19q0 159 51.5 297.5t141.5 236.5t217 153.5t273 55.5q149 0 256.5 -37.5t204.5 -114.5l-142 -251q-78 63 -151.5 92.5t-171.5 29.5q-103 0 -187 -58t-131.5 -162.5t-47.5 -235.5v-25q0 -111 28.5 -200t79.5 -147t119.5 -88.5t148.5 -30.5q125 0 220 60v259h-266 v263h552v-676q-234 -181 -516 -181q-147 0 -272.5 52t-215.5 147t-140.5 234.5t-50.5 307.5z" />
<glyph unicode="H" horiz-adv-x="1375" d="M146 0v1463h301v-588h482v588h301v-1463h-301v596h-482v-596h-301z" />
<glyph unicode="I" horiz-adv-x="616" d="M157 0v1463h301v-1463h-301z" />
<glyph unicode="J" horiz-adv-x="1008" d="M32 140l139 236q56 -55 109.5 -83t114.5 -28q177 0 177 215v983h309v-999q0 -120 -33.5 -212.5t-95.5 -151t-147 -88.5t-191 -30q-228 0 -382 158z" />
<glyph unicode="K" horiz-adv-x="1319" d="M146 0v1463h301v-632l476 632h359l-490 -619l512 -844h-357l-365 602l-135 -172v-430h-301z" />
<glyph unicode="L" horiz-adv-x="1092" d="M146 0v1463h301v-1186h591v-277h-892z" />
<glyph unicode="M" horiz-adv-x="1572" d="M146 0v1463h318l321 -594l324 594h320v-1463h-297v933l-345 -603h-6l-342 597v-927h-293z" />
<glyph unicode="N" horiz-adv-x="1421" d="M146 0v1463h278l556 -853v853h298v-1463h-261l-576 883v-883h-295z" />
<glyph unicode="O" horiz-adv-x="1505" d="M92 716v26q0 161 49.5 299.5t136 236t210 152.5t266.5 55q142 0 264.5 -55t209 -151.5t135.5 -234.5t49 -298v-25q0 -161 -49.5 -300t-136.5 -236.5t-209.5 -152.5t-264.5 -55q-143 0 -266 54.5t-209.5 151.5t-135.5 234.5t-49 298.5zM405 721q0 -214 96.5 -340 t252.5 -126t251.5 123.5t95.5 337.5v26q0 213 -97.5 339.5t-251.5 126.5q-156 0 -251.5 -124.5t-95.5 -337.5v-25z" />
<glyph unicode="P" horiz-adv-x="1216" d="M146 0v1463h484q248 0 392 -135.5t144 -370.5q0 -123 -42.5 -221.5t-116.5 -161.5t-173.5 -96t-215.5 -33h-171v-445h-301zM447 716h177q109 0 173 64t64 171q0 118 -63 177.5t-176 59.5h-175v-472z" />
<glyph unicode="Q" horiz-adv-x="1509" d="M92 716v26q0 161 49.5 299.5t136 236t210 152.5t266.5 55q142 0 264.5 -55t209 -151.5t135.5 -234.5t49 -298v-25q0 -251 -113 -436l144 -126l-181 -199l-142 132q-159 -115 -368 -115q-143 0 -266 54.5t-209.5 151.5t-135.5 234.5t-49 298.5zM405 721q0 -220 97.5 -344 t257.5 -124q81 0 149 32l-205 179l179 200l187 -171q31 93 31 223v26q0 213 -97.5 339.5t-251.5 126.5q-156 0 -251.5 -124.5t-95.5 -337.5v-25z" />
<glyph unicode="R" horiz-adv-x="1305" d="M146 0v1463h546q243 0 382.5 -126t139.5 -360q0 -160 -72.5 -269t-199.5 -165l310 -543h-345l-267 480h-193v-480h-301zM447 748h232q108 0 169 56t61 159v8q0 111 -63 164t-174 53h-225v-440z" />
<glyph unicode="S" horiz-adv-x="1138" d="M64 165l135 238q94 -73 185 -110.5t188 -37.5q89 0 138.5 35t49.5 103q0 41 -18.5 70t-71.5 62t-156 77q-49 21 -83 36.5t-73.5 35.5t-66 37.5t-56 40t-48.5 45t-37 51t-28 59.5t-16 69t-6 81q0 125 60 221.5t165.5 148.5t240.5 52q256 0 447 -142l-116 -249 q-91 60 -170 90t-157 30q-79 0 -124 -35.5t-45 -94.5q0 -23 4 -40t17.5 -34t29 -29.5t49.5 -31t67.5 -34t93.5 -42.5q86 -38 145.5 -71t110.5 -73t80.5 -84t46 -100t16.5 -125q0 -133 -62.5 -231.5t-171 -148.5t-249.5 -50t-273.5 46t-240.5 135z" />
<glyph unicode="T" horiz-adv-x="1150" d="M58 1182v281h1032v-281h-363v-1182h-303v1182h-366z" />
<glyph unicode="U" horiz-adv-x="1365" d="M128 566v897h300v-899q0 -152 67.5 -229.5t188 -77.5t187.5 76t67 225v905h298v-891q0 -148 -39 -261t-112 -185.5t-174.5 -109t-229.5 -36.5q-127 0 -229 36.5t-174.5 108.5t-111 184t-38.5 257z" />
<glyph unicode="V" horiz-adv-x="1332" d="M36 1463h325l309 -1008l310 1008h317l-493 -1471h-278z" />
<glyph unicode="W" horiz-adv-x="2011" d="M46 1463h319l243 -961l269 963h263l268 -963l244 961h312l-416 -1471h-276l-267 929l-268 -929h-275z" />
<glyph unicode="X" horiz-adv-x="1315" d="M50 0l428 746l-411 717h344l249 -458l253 458h334l-410 -717l429 -746h-345l-267 484l-269 -484h-335z" />
<glyph unicode="Y" horiz-adv-x="1286" d="M16 1463h343l287 -576l290 576h332l-474 -883v-580h-303v576z" />
<glyph unicode="Z" horiz-adv-x="1248" d="M106 0v232l665 960h-643v271h1016v-233l-664 -961h664v-269h-1038z" />
<glyph unicode="[" horiz-adv-x="857" d="M159 -271v1734h597v-227h-317v-1282h317v-225h-597z" />
<glyph unicode="\" horiz-adv-x="966" d="M-20 1648h250l783 -1897h-250z" />
<glyph unicode="]" horiz-adv-x="857" d="M102 -46h318v1282h-318v227h598v-1734h-598v225z" />
<glyph unicode="^" d="M153 1036l263 423h212l263 -423h-208l-163 253l-163 -253h-204z" />
<glyph unicode="_" horiz-adv-x="1160" d="M-4 -102h1170v-226h-1170v226z" />
<glyph unicode="`" d="M253 1493l246 113l226 -368h-213z" />
<glyph unicode="a" horiz-adv-x="1083" d="M60 317v16q0 90 28.5 159t81 112t123 64.5t158.5 21.5q126 0 236 -44v31q0 96 -54.5 146t-160.5 50q-73 0 -135 -14.5t-136 -43.5l-57 240q88 39 174.5 58t201.5 19q228 0 341.5 -116.5t113.5 -336.5v-679h-290v119q-108 -137 -290 -137q-94 0 -169 38t-120.5 115.5 t-45.5 181.5zM347 333q0 -67 39.5 -103t104.5 -36q88 0 143.5 47.5t55.5 123.5v97q-72 35 -166 35q-83 0 -130 -38.5t-47 -111.5v-14z" />
<glyph unicode="b" horiz-adv-x="1226" d="M119 0v1509h297v-544q55 80 128 127.5t175 47.5q86 0 161.5 -35t135.5 -102.5t95 -177.5t35 -249v-33q0 -139 -34.5 -249t-94.5 -177.5t-136 -102t-162 -34.5q-54 0 -100.5 13t-83.5 37.5t-64.5 50.5t-54.5 61v-142h-297zM414 548q0 -140 61.5 -225t154.5 -85 q95 0 159 84.5t64 225.5v24q0 139 -64 224t-159 85q-93 0 -154.5 -84.5t-61.5 -224.5v-24z" />
<glyph unicode="c" horiz-adv-x="1012" d="M75 546v22q0 123 39 229t107 181t164 117.5t207 42.5q123 0 206 -34t153 -105l-134 -222q-51 49 -101 73.5t-116 24.5q-101 0 -166 -84t-65 -219v-24q0 -140 66 -223.5t175 -83.5q61 0 112 24.5t105 73.5l130 -205q-76 -78 -161 -117.5t-210 -39.5q-147 0 -263.5 72.5 t-182 202t-65.5 294.5z" />
<glyph unicode="d" horiz-adv-x="1226" d="M80 543v33q0 139 34.5 249t95 177.5t136.5 102.5t162 35q55 0 102.5 -13t84 -38t63.5 -51t53 -61v532h296v-1509h-296v155q-55 -80 -128 -127.5t-175 -47.5q-67 0 -129.5 21t-117 67t-95 111t-63.5 158.5t-23 205.5zM376 548q0 -140 62.5 -225t157.5 -85q93 0 156 85.5 t63 224.5v24q0 139 -63 224t-156 85q-95 0 -157.5 -84t-62.5 -225v-24z" />
<glyph unicode="e" horiz-adv-x="1114" d="M73 546v20q0 164 63 295t175.5 204t252.5 73q94 0 172 -29.5t134 -83t94.5 -127.5t57 -163t18.5 -189q0 -58 -4 -99h-669q20 -112 83.5 -168t159.5 -56q72 0 129.5 24.5t119.5 80.5l133 -180q-155 -171 -392 -171q-112 0 -208.5 40.5t-167 113.5t-111 180t-40.5 235z M365 646h389q-10 118 -59 184.5t-131 66.5q-81 0 -133 -65.5t-66 -185.5z" />
<glyph unicode="f" horiz-adv-x="701" d="M54 869v245h113v72q0 335 326 335q101 0 186 -26v-243q-53 18 -109 18q-110 0 -110 -114v-42h217v-245h-215v-869h-295v869h-113z" />
<glyph unicode="g" horiz-adv-x="1226" d="M80 616q0 128 34 230t92.5 165t133 96t159.5 33q55 0 102 -12.5t85 -37t66.5 -51t58.5 -62.5v143h296v-913q0 -141 -35.5 -242t-106.5 -163.5t-173 -91.5t-240 -29q-224 0 -418 92l75 235q168 -86 328 -86q139 0 208.5 66t69.5 200v71q-43 -55 -83.5 -91t-101 -60 t-131.5 -24q-86 0 -160.5 33t-133 97.5t-92 168t-33.5 233.5zM376 610q0 -124 61 -197.5t157 -73.5t158.5 74t62.5 197q0 126 -62.5 200.5t-158.5 74.5t-157 -74.5t-61 -200.5z" />
<glyph unicode="h" horiz-adv-x="1148" d="M119 0v1509h297v-540q27 38 53 65.5t61 53t79 39t95 13.5q158 0 245 -101.5t87 -275.5v-763h-296v675q0 96 -42 147t-118 51t-120 -51t-44 -147v-675h-297z" />
<glyph unicode="i" horiz-adv-x="556" d="M125 1238v271h310v-271h-310zM130 0v1120h296v-1120h-296z" />
<glyph unicode="j" horiz-adv-x="558" d="M-28 -78q19 -4 54 -4q106 0 106 118v1084h296v-1110q0 -331 -330 -331q-59 0 -126 10v233zM125 1238v271h310v-271h-310z" />
<glyph unicode="k" horiz-adv-x="1088" d="M119 0v1509h297v-803l307 414h347l-356 -445l364 -675h-336l-234 447l-92 -117v-330h-297z" />
<glyph unicode="l" horiz-adv-x="556" d="M130 0v1509h296v-1509h-296z" />
<glyph unicode="m" horiz-adv-x="1750" d="M119 0v1120h297v-151q28 39 55 67t62 53t78.5 38t94.5 13q96 0 167 -43t111 -120q136 163 318 163q154 0 244 -97t90 -278v-765h-297v675q0 96 -40 147t-113 51q-76 0 -118 -51t-42 -147v-675h-297v675q0 97 -39.5 147.5t-115.5 50.5q-73 0 -115.5 -51t-42.5 -147v-675 h-297z" />
<glyph unicode="n" horiz-adv-x="1148" d="M119 0v1120h297v-151q27 38 53 65.5t61 53t79 39t95 13.5q158 0 245 -101.5t87 -275.5v-763h-296v675q0 96 -42 147t-118 51t-120 -51t-44 -147v-675h-297z" />
<glyph unicode="o" horiz-adv-x="1206" d="M75 546v22q0 123 40.5 229t110.5 181t168.5 117.5t211.5 42.5q112 0 209.5 -42t167 -116t109.5 -180t40 -230v-22q0 -123 -40 -229.5t-110 -181.5t-168.5 -117.5t-211.5 -42.5q-112 0 -210 42t-167.5 116.5t-109.5 180.5t-40 230zM367 548q0 -137 66.5 -225.5 t172.5 -88.5t168.5 85.5t62.5 223.5v25q0 139 -65 226t-170 87q-108 0 -171.5 -85.5t-63.5 -223.5v-24z" />
<glyph unicode="p" horiz-adv-x="1226" d="M119 -315v1435h297v-155q55 80 128 127.5t175 47.5q86 0 161.5 -35t135.5 -102.5t95 -177.5t35 -249v-33q0 -139 -34.5 -249t-94.5 -177.5t-136 -102t-162 -34.5q-54 0 -100.5 13t-83.5 37.5t-64.5 50.5t-54.5 61v-457h-297zM414 548q0 -140 61.5 -225t154.5 -85 q95 0 159 84.5t64 225.5v24q0 139 -64 224t-159 85q-93 0 -154.5 -84.5t-61.5 -224.5v-24z" />
<glyph unicode="q" horiz-adv-x="1226" d="M80 543v33q0 139 34.5 249t95 177.5t136.5 102.5t162 35q55 0 102.5 -13t84 -38t63.5 -51t53 -61v143h296v-1435h-296v470q-55 -80 -128 -127.5t-175 -47.5q-67 0 -129.5 21t-117 67t-95 111t-63.5 158.5t-23 205.5zM376 548q0 -140 62.5 -225t157.5 -85q93 0 156 85.5 t63 224.5v24q0 139 -63 224t-156 85q-95 0 -157.5 -84t-62.5 -225v-24z" />
<glyph unicode="r" horiz-adv-x="768" d="M119 0v1120h297v-199q46 109 118 165q67 52 169 52h18v-321h-13q-140 0 -216 -87.5t-76 -261.5v-468h-297z" />
<glyph unicode="s" horiz-adv-x="911" d="M48 113l96 220q165 -116 309 -116q59 0 90 23.5t31 64.5q0 13 -4 24t-15 22t-21 19t-31.5 19t-36 17.5t-44.5 20t-48 22.5q-35 17 -61 30t-58.5 33.5t-55.5 39.5t-46 46t-37 55.5t-23 65.5t-9 79q0 104 51 182t137 117t194 39q90 0 180.5 -26t168.5 -74l-86 -225 q-152 88 -263 88q-52 0 -80.5 -21.5t-28.5 -58.5q0 -12 4 -22.5t15 -21t21 -18.5t31.5 -20t35.5 -19.5t44 -23t48 -24.5q40 -21 65 -34.5t59 -35.5t55 -40.5t44.5 -44.5t36 -53t21.5 -62t9 -75q0 -111 -53 -190.5t-140 -117t-200 -37.5q-103 0 -208.5 33.5t-196.5 99.5z" />
<glyph unicode="t" horiz-adv-x="757" d="M52 869v251h113v286h297v-286h223v-251h-223v-528q0 -96 92 -96q71 0 127 30v-237q-90 -54 -219 -54q-68 0 -119.5 14t-92.5 46.5t-63 91.5t-22 143v590h-113z" />
<glyph unicode="u" horiz-adv-x="1148" d="M113 357v763h296v-675q0 -96 41.5 -147t115.5 -51q77 0 121 51t44 147v675h297v-1120h-297v150q-26 -37 -52.5 -65t-61.5 -53.5t-79 -38.5t-95 -13q-157 0 -243.5 101.5t-86.5 275.5z" />
<glyph unicode="v" horiz-adv-x="1104" d="M36 1120h309l209 -742l211 742h305l-378 -1126h-278z" />
<glyph unicode="w" horiz-adv-x="1587" d="M42 1120h301l150 -662l175 664h253l175 -667l156 665h294l-301 -1126h-274l-177 662l-182 -662h-271z" />
<glyph unicode="x" horiz-adv-x="1077" d="M38 0l336 570l-324 550h313l178 -328l178 328h307l-326 -546l338 -574h-315l-189 351l-187 -351h-309z" />
<glyph unicode="y" horiz-adv-x="1104" d="M36 1120h309l211 -748l209 748h305l-376 -1130q-57 -167 -134.5 -239t-212.5 -72q-140 0 -255 64l88 221q67 -39 129 -39q36 0 61.5 16.5t43.5 56.5z" />
<glyph unicode="z" horiz-adv-x="1004" d="M82 0v209l492 668h-478v243h833v-209l-494 -668h494v-243h-847z" />
<glyph unicode="{" horiz-adv-x="905" d="M86 484v230h50q109 0 160 46.5t51 152.5q0 32 -11 97t-11 93q0 80 23.5 142t76 112.5t142 84.5t216.5 51l40 -196q-132 -33 -180.5 -81.5t-48.5 -141.5q0 -35 11 -102t11 -99q0 -212 -225 -273q225 -61 225 -275q0 -31 -11 -97.5t-11 -102.5q0 -92 48.5 -140.5 t180.5 -82.5l-40 -197q-127 18 -216.5 52t-142 84.5t-76 112.5t-23.5 142q0 27 11 93t11 98q0 106 -51 151.5t-160 45.5h-50z" />
<glyph unicode="|" horiz-adv-x="666" d="M217 -249v1897h234v-1897h-234z" />
<glyph unicode="}" horiz-adv-x="909" d="M88 -98q132 34 180.5 82.5t48.5 140.5q0 36 -11 102.5t-11 97.5q0 214 225 275q-225 61 -225 273q0 32 11 99t11 102q0 93 -48.5 141.5t-180.5 81.5l40 196q127 -17 216 -51t141.5 -84.5t75.5 -112.5t23 -142q0 -28 -10 -93t-10 -97q0 -106 51 -152.5t160 -46.5h50v-230 h-50q-110 0 -160.5 -45.5t-50.5 -151.5q0 -32 10 -98t10 -93q0 -80 -23 -142t-75.5 -112.5t-141.5 -84.5t-216 -52z" />
<glyph unicode="~" horiz-adv-x="975" d="M94 530q60 272 236 272q29 0 61 -7.5t51.5 -15.5t50.5 -21q4 -2 21.5 -10t23.5 -10.5t20 -8t21.5 -7.5t18.5 -4t20 -2q39 0 62 24.5t43 78.5l158 -48q-59 -269 -235 -269q-72 0 -164 41q-2 1 -16 7t-18 8t-16 7t-17 6.5t-15 5t-16 4.5t-14 2t-15 1q-38 0 -59.5 -23.5 t-42.5 -78.5z" />
<glyph unicode="&#xa1;" horiz-adv-x="612" d="M132 0v42l93 935h162l95 -935v-42h-350zM144 1140v323h324v-323h-324z" />
<glyph unicode="&#xa2;" horiz-adv-x="1035" d="M84 727v21q0 158 62 286.5t173.5 203.5t252.5 82l20 153h200l-23 -176q99 -30 190 -117l-132 -219q-57 54 -119 77l-88 -618q108 3 213 98l126 -199q-75 -75 -158 -117t-191 -45l-20 -169h-203l27 200q-150 57 -240 201.5t-90 337.5zM367 729q0 -198 109 -271l86 595 q-91 -15 -143 -98.5t-52 -202.5v-23z" />
<glyph unicode="&#xa3;" horiz-adv-x="1158" d="M100 0v199l143 50v315h-141v255h141v188q0 232 120 353q58 57 143 89t188 32q130 0 220 -46t158 -127l-171 -214q-46 53 -91 78t-100 25q-67 0 -112 -44q-50 -50 -50 -150v-184h392v-255h-392v-301h532v-263h-980z" />
<glyph unicode="&#xa5;" horiz-adv-x="1252" d="M26 1463h335l267 -558l273 558h327l-386 -709h252v-217h-323v-128h323v-215h-323v-194h-291v194h-321v215h321v128h-321v217h248z" />
<glyph unicode="&#xa7;" horiz-adv-x="1180" d="M90 729v2q0 91 48 152t133 92q-79 74 -79 189v2q0 147 106 231t292 84q244 0 398 -148l-119 -193q-133 114 -269 114q-63 0 -94.5 -21t-31.5 -55v-2q0 -25 18 -45t68 -42.5t142 -50.5q108 -33 177 -61.5t119 -64.5t71 -78.5t21 -100.5v-2q0 -176 -179 -242 q77 -69 77 -186v-2q0 -148 -105 -233.5t-287 -85.5q-256 0 -416 154l119 192q150 -117 285 -117q61 0 92.5 20.5t31.5 57.5v2q0 41 -43.5 65.5t-186.5 67.5q-108 33 -176.5 62t-119 64.5t-71.5 78.5t-21 100zM357 769q0 -42 46 -73t169 -72q94 -32 151 -32q43 0 71.5 29 t28.5 69v4q0 42 -45.5 72.5t-169.5 70.5q-97 34 -150 34q-43 0 -72 -29t-29 -69v-4z" />
<glyph unicode="&#xa8;" d="M173 1245v262h280v-262h-280zM592 1245v262h279v-262h-279z" />
<glyph unicode="&#xa9;" horiz-adv-x="1539" d="M92 719v21q0 155 52.5 293t143 237t216.5 157t267 58t266.5 -57.5t215.5 -156t142 -236.5t52 -293v-21q0 -155 -52.5 -293t-143.5 -237t-217 -156.5t-267 -57.5t-266.5 57t-215 155.5t-141.5 236.5t-52 293zM175 716q0 -139 45 -261t122.5 -209.5t188 -138.5t236.5 -51 q127 0 238 51.5t189 140.5t123 212t45 261v21q0 138 -44.5 260.5t-122 210.5t-188 139.5t-236.5 51.5q-127 0 -238 -51.5t-189.5 -140t-123.5 -211.5t-45 -261v-24zM426 731v11q0 182 102 296.5t261 114.5q83 0 141.5 -24t107.5 -68l-79 -138q-86 71 -165 71 q-85 0 -138.5 -67.5t-53.5 -182.5v-13q0 -116 52.5 -183.5t139.5 -67.5q46 0 85.5 19.5t83.5 56.5l81 -126q-54 -54 -116 -81.5t-147 -27.5q-154 0 -254.5 114.5t-100.5 295.5z" />
<glyph unicode="&#xaa;" horiz-adv-x="726" d="M92 596v125h522v-125h-522zM98 1021v7q0 99 58 148.5t157 49.5q65 0 130 -24v18q0 53 -30.5 81t-89.5 28q-56 0 -148 -34l-31 132q96 44 207 44q126 0 188.5 -64.5t62.5 -186.5v-372h-161v67q-60 -80 -159 -80q-80 0 -132 49.5t-52 136.5zM257 1034q0 -39 21 -59t59 -20 q47 0 77.5 26t30.5 68v54q-61 19 -92 19q-45 0 -70.5 -21.5t-25.5 -64.5v-2z" />
<glyph unicode="&#xab;" horiz-adv-x="1238" d="M75 552v16l328 468l227 -115l-256 -359l259 -359l-230 -119zM600 552v16l327 468l229 -115l-257 -359l259 -359l-231 -119z" />
<glyph unicode="&#xac;" horiz-adv-x="1158" d="M113 859v277h934v-632h-297v355h-637z" />
<glyph unicode="&#xad;" horiz-adv-x="805" d="M96 504v288h612v-288h-612z" />
<glyph unicode="&#xae;" horiz-adv-x="1539" d="M92 719v21q0 155 52.5 293t143 237t216.5 157t267 58t266.5 -57.5t215.5 -156t142 -236.5t52 -293v-21q0 -155 -52.5 -293t-143.5 -237t-217 -156.5t-267 -57.5t-266.5 57t-215 155.5t-141.5 236.5t-52 293zM175 716q0 -139 45 -261t122.5 -209.5t188 -138.5t236.5 -51 q127 0 238 51.5t189 140.5t123 212t45 261v21q0 138 -44.5 260.5t-122 210.5t-188 139.5t-236.5 51.5q-127 0 -238 -51.5t-189.5 -140t-123.5 -211.5t-45 -261v-24zM495 347v804h294q135 0 215 -68.5t80 -193.5v-4q0 -86 -41 -146.5t-110 -90.5l170 -301h-188l-148 265h-107 v-265h-165zM660 758h127q60 0 95 32.5t35 88.5v2q0 62 -36 92t-98 30h-123v-245z" />
<glyph unicode="&#xaf;" d="M175 1258v205h694v-205h-694z" />
<glyph unicode="&#xb0;" horiz-adv-x="873" d="M113 1116v6q0 95 44 176.5t118 129t159.5 47.5t160 -47.5t119 -129t44.5 -176.5v-6q0 -95 -44.5 -176t-119 -128t-160 -47t-159.5 47t-118 128t-44 176zM279 1116q0 -86 44.5 -140.5t111.5 -54.5q66 0 112.5 55t46.5 140v6q0 85 -46 139.5t-113 54.5t-111.5 -54.5 t-44.5 -139.5v-6z" />
<glyph unicode="&#xb1;" d="M0 0v1463h1044v-1463h-1044zM102 201l358 530l-358 531v-1061zM169 102h708l-355 533zM169 1358l353 -533l355 533h-708zM582 731l358 -530v1061z" />
<glyph unicode="&#xb4;" d="M311 1238l226 368l246 -113l-259 -255h-213z" />
<glyph unicode="&#xb5;" horiz-adv-x="1152" d="M119 -315v1435h297v-675q0 -96 41 -147t115 -51q77 0 121 51t44 147v675h297v-1120h-297v125q-52 -72 -98.5 -104.5t-114.5 -32.5q-56 0 -108 26v-329h-297z" />
<glyph unicode="&#xb6;" horiz-adv-x="1088" d="M58 967v2q0 119 41 213t114.5 155.5t174 93.5t220.5 32h332v-1463h-302v476h-36q-92 2 -172.5 22t-149 60t-117.5 97t-77 137t-28 175z" />
<glyph unicode="&#xb7;" horiz-adv-x="568" d="M121 487v320h324v-320h-324z" />
<glyph unicode="&#xb8;" d="M255 -241l192 269h207l-150 -369z" />
<glyph unicode="&#xba;" horiz-adv-x="726" d="M82 1146v14q0 137 80 225t201 88q123 0 203 -88t80 -225v-11q0 -139 -81 -227.5t-204 -88.5q-122 0 -200.5 87.5t-78.5 225.5zM96 596v125h534v-125h-534zM243 1146q0 -76 33 -124.5t87 -48.5q57 0 89 47.5t32 125.5v14q0 76 -33.5 124.5t-89.5 48.5q-55 0 -86.5 -47.5 t-31.5 -123.5v-16z" />
<glyph unicode="&#xbb;" horiz-adv-x="1238" d="M82 201l261 359l-259 357l227 119l331 -468v-16l-331 -468zM608 201l259 359l-259 357l227 119l331 -468v-16l-331 -468z" />
<glyph unicode="&#xbf;" horiz-adv-x="995" d="M64 399v8q0 90 27.5 160t79 117.5t113.5 78t142 50.5l23 164h199l39 -347l-8 -10q-318 -26 -318 -204v-5q0 -70 50 -111t137 -41q148 0 273 115l134 -215q-176 -175 -427 -175q-210 0 -337 112t-127 303zM389 1142v321h323v-321h-323z" />
<glyph unicode="&#xc0;" horiz-adv-x="1403" d="M36 0l522 1471h288l522 -1471h-311l-108 317h-502l-108 -317h-303zM355 1822l247 112l225 -367h-213zM537 584h320l-159 477z" />
<glyph unicode="&#xc1;" horiz-adv-x="1403" d="M36 0l522 1471h288l522 -1471h-311l-108 317h-502l-108 -317h-303zM537 584h320l-159 477zM572 1567l226 367l246 -112l-259 -255h-213z" />
<glyph unicode="&#xc2;" horiz-adv-x="1403" d="M36 0l522 1471h288l522 -1471h-311l-108 317h-502l-108 -317h-303zM341 1567l225 328h271l226 -328h-215l-148 165l-148 -165h-211zM537 584h320l-159 477z" />
<glyph unicode="&#xc3;" horiz-adv-x="1403" d="M36 0l522 1471h288l522 -1471h-311l-108 317h-502l-108 -317h-303zM305 1594q31 134 88 202t148 68q78 0 180 -48q70 -36 110 -36q39 0 60.5 23t41.5 79l159 -50q-29 -133 -86.5 -201t-148.5 -68q-33 0 -69 8.5t-56.5 16.5t-56.5 25q-3 1 -14.5 6.5t-14.5 7t-13 5.5 t-14 5.5t-12.5 4.5t-13.5 3.5t-12 1.5t-13 1q-39 0 -60 -23t-44 -79zM537 584h320l-159 477z" />
<glyph unicode="&#xc4;" horiz-adv-x="1403" d="M36 0l522 1471h288l522 -1471h-311l-108 317h-502l-108 -317h-303zM353 1573v261h280v-261h-280zM537 584h320l-159 477zM771 1573v261h280v-261h-280z" />
<glyph unicode="&#xc5;" horiz-adv-x="1403" d="M34 0l507 1425q-38 33 -60.5 82t-22.5 102v6q0 98 72.5 170t171.5 72q97 0 171 -72t74 -170v-6q0 -53 -23.5 -101.5t-62.5 -82.5l507 -1425h-311l-108 315h-504l-106 -315h-305zM537 582h320l-159 479zM582 1609q0 -49 36 -86.5t83.5 -37.5t82.5 37.5t35 86.5v4 q0 50 -34.5 87.5t-82.5 37.5q-50 0 -85 -37t-35 -88v-4z" />
<glyph unicode="&#xc6;" horiz-adv-x="1875" d="M12 0l667 1463h1095v-275h-604v-317h528v-271h-528v-329h614v-271h-913v315h-413l-143 -315h-303zM578 582h293v604h-34z" />
<glyph unicode="&#xc7;" horiz-adv-x="1288" d="M92 721v19q0 164 49.5 303t137 235.5t210 150.5t265.5 54q151 0 256.5 -42.5t197.5 -124.5l-143 -244q-75 64 -148 97t-157 33q-158 0 -256.5 -124t-98.5 -334v-21q0 -215 98.5 -338.5t259.5 -123.5q90 0 161.5 33t149.5 101l144 -220q-90 -90 -190 -138t-234 -55 l-132 -323l-248 100l170 239q-108 27 -199 90t-156 154.5t-101 214.5t-36 264z" />
<glyph unicode="&#xc8;" horiz-adv-x="1186" d="M146 0v1463h940v-273h-641v-319h564v-271h-564v-329h649v-271h-948zM299 1822l247 112l225 -367h-213z" />
<glyph unicode="&#xc9;" horiz-adv-x="1186" d="M146 0v1463h940v-273h-641v-319h564v-271h-564v-329h649v-271h-948zM455 1567l226 367l246 -112l-259 -255h-213z" />
<glyph unicode="&#xca;" horiz-adv-x="1186" d="M146 0v1463h940v-273h-641v-319h564v-271h-564v-329h649v-271h-948zM249 1567l225 328h272l225 -328h-215l-148 165l-148 -165h-211z" />
<glyph unicode="&#xcb;" horiz-adv-x="1186" d="M146 0v1463h940v-273h-641v-319h564v-271h-564v-329h649v-271h-948zM263 1573v261h280v-261h-280zM681 1573v261h280v-261h-280z" />
<glyph unicode="&#xcc;" horiz-adv-x="616" d="M-48 1822l247 112l225 -367h-213zM157 0v1463h301v-1463h-301z" />
<glyph unicode="&#xcd;" horiz-adv-x="616" d="M157 0v1463h301v-1463h-301zM186 1567l225 367l247 -112l-259 -255h-213z" />
<glyph unicode="&#xce;" horiz-adv-x="616" d="M-54 1567l225 328h272l225 -328h-215l-148 165l-148 -165h-211zM157 0v1463h301v-1463h-301z" />
<glyph unicode="&#xcf;" horiz-adv-x="616" d="M-42 1573v261h280v-261h-280zM157 0v1463h301v-1463h-301zM376 1573v261h280v-261h-280z" />
<glyph unicode="&#xd0;" horiz-adv-x="1465" d="M64 596v275h143v592h470q155 0 285 -53t220 -148t140.5 -229t50.5 -293v-17q0 -159 -50.5 -293.5t-140.5 -229t-220 -147.5t-285 -53h-470v596h-143zM504 271h179q170 0 274 118t104 332v14q0 215 -104 333t-274 118h-179v-315h259v-275h-259v-325z" />
<glyph unicode="&#xd1;" horiz-adv-x="1421" d="M146 0v1463h278l556 -853v853h298v-1463h-261l-576 883v-883h-295zM321 1594q31 134 88.5 202t148.5 68q77 0 179 -48q70 -36 111 -36q38 0 60 23.5t43 78.5l158 -50q-29 -133 -86.5 -201t-149.5 -68q-33 0 -69 8.5t-56.5 16.5t-55.5 25q-3 1 -14.5 6.5t-15 7t-13 5.5 t-14 5.5t-12.5 4.5t-13.5 3.5t-12 1.5t-13.5 1q-39 0 -60 -23t-44 -79z" />
<glyph unicode="&#xd2;" horiz-adv-x="1505" d="M92 716v26q0 161 49.5 299.5t136 236t210 152.5t266.5 55q142 0 264.5 -55t209 -151.5t135.5 -234.5t49 -298v-25q0 -161 -49.5 -300t-136.5 -236.5t-209.5 -152.5t-264.5 -55q-143 0 -266 54.5t-209.5 151.5t-135.5 234.5t-49 298.5zM382 1822l246 112l227 -367h-213z M405 721q0 -214 96.5 -340t252.5 -126t251.5 123.5t95.5 337.5v26q0 213 -97.5 339.5t-251.5 126.5q-156 0 -251.5 -124.5t-95.5 -337.5v-25z" />
<glyph unicode="&#xd3;" horiz-adv-x="1505" d="M92 716v26q0 161 49.5 299.5t136 236t210 152.5t266.5 55q142 0 264.5 -55t209 -151.5t135.5 -234.5t49 -298v-25q0 -161 -49.5 -300t-136.5 -236.5t-209.5 -152.5t-264.5 -55q-143 0 -266 54.5t-209.5 151.5t-135.5 234.5t-49 298.5zM405 721q0 -214 96.5 -340 t252.5 -126t251.5 123.5t95.5 337.5v26q0 213 -97.5 339.5t-251.5 126.5q-156 0 -251.5 -124.5t-95.5 -337.5v-25zM638 1567l225 367l246 -112l-258 -255h-213z" />
<glyph unicode="&#xd4;" horiz-adv-x="1505" d="M92 716v26q0 161 49.5 299.5t136 236t210 152.5t266.5 55q142 0 264.5 -55t209 -151.5t135.5 -234.5t49 -298v-25q0 -161 -49.5 -300t-136.5 -236.5t-209.5 -152.5t-264.5 -55q-143 0 -266 54.5t-209.5 151.5t-135.5 234.5t-49 298.5zM391 1567l225 328h271l227 -328 h-215l-149 165l-148 -165h-211zM405 721q0 -214 96.5 -340t252.5 -126t251.5 123.5t95.5 337.5v26q0 213 -97.5 339.5t-251.5 126.5q-156 0 -251.5 -124.5t-95.5 -337.5v-25z" />
<glyph unicode="&#xd5;" horiz-adv-x="1505" d="M92 716v26q0 161 49.5 299.5t136 236t210 152.5t266.5 55q142 0 264.5 -55t209 -151.5t135.5 -234.5t49 -298v-25q0 -161 -49.5 -300t-136.5 -236.5t-209.5 -152.5t-264.5 -55q-143 0 -266 54.5t-209.5 151.5t-135.5 234.5t-49 298.5zM357 1594q31 134 88.5 202t148.5 68 q77 0 179 -48q70 -36 110 -36q39 0 61 23.5t42 78.5l158 -50q-29 -133 -86.5 -201t-148.5 -68q-33 0 -69 8.5t-56.5 16.5t-56.5 25q-2 1 -14 6.5t-15 7t-13 5.5t-14 5.5t-12.5 4.5t-13.5 3.5t-12 1.5t-13 1q-39 0 -60 -23t-44 -79zM405 721q0 -214 96.5 -340t252.5 -126 t251.5 123.5t95.5 337.5v26q0 213 -97.5 339.5t-251.5 126.5q-156 0 -251.5 -124.5t-95.5 -337.5v-25z" />
<glyph unicode="&#xd6;" horiz-adv-x="1505" d="M92 716v26q0 161 49.5 299.5t136 236t210 152.5t266.5 55q142 0 264.5 -55t209 -151.5t135.5 -234.5t49 -298v-25q0 -161 -49.5 -300t-136.5 -236.5t-209.5 -152.5t-264.5 -55q-143 0 -266 54.5t-209.5 151.5t-135.5 234.5t-49 298.5zM403 1573v261h280v-261h-280z M405 721q0 -214 96.5 -340t252.5 -126t251.5 123.5t95.5 337.5v26q0 213 -97.5 339.5t-251.5 126.5q-156 0 -251.5 -124.5t-95.5 -337.5v-25zM821 1573v261h280v-261h-280z" />
<glyph unicode="&#xd8;" horiz-adv-x="1505" d="M88 -10l165 219q-77 98 -119 228t-42 279v24q0 161 49.5 300t136.5 236.5t210 153t266 55.5q191 0 345 -100l67 88h259l-171 -230q75 -95 116.5 -223.5t41.5 -277.5v-21q0 -161 -50 -300t-137 -236.5t-210 -152.5t-265 -55q-193 0 -341 92l-64 -79h-257zM399 721 q0 -125 52 -224l474 639q-72 76 -175 76q-157 0 -254 -128.5t-97 -341.5v-21zM578 313q73 -66 176 -66q156 0 253.5 128t97.5 341v24q0 116 -52 209z" />
<glyph unicode="&#xd9;" horiz-adv-x="1365" d="M128 566v897h300v-899q0 -152 67.5 -229.5t188 -77.5t187.5 76t67 225v905h298v-891q0 -148 -39 -261t-112 -185.5t-174.5 -109t-229.5 -36.5q-127 0 -229 36.5t-174.5 108.5t-111 184t-38.5 257zM333 1816l245 112l226 -367h-212z" />
<glyph unicode="&#xda;" horiz-adv-x="1365" d="M128 566v897h300v-899q0 -152 67.5 -229.5t188 -77.5t187.5 76t67 225v905h298v-891q0 -148 -39 -261t-112 -185.5t-174.5 -109t-229.5 -36.5q-127 0 -229 36.5t-174.5 108.5t-111 184t-38.5 257zM560 1561l225 367l247 -112l-259 -255h-213z" />
<glyph unicode="&#xdb;" horiz-adv-x="1365" d="M128 566v897h300v-899q0 -152 67.5 -229.5t188 -77.5t187.5 76t67 225v905h298v-891q0 -148 -39 -261t-112 -185.5t-174.5 -109t-229.5 -36.5q-127 0 -229 36.5t-174.5 108.5t-111 184t-38.5 257zM321 1567l227 328h271l225 -328h-215l-148 165l-149 -165h-211z" />
<glyph unicode="&#xdc;" horiz-adv-x="1365" d="M128 566v897h300v-899q0 -152 67.5 -229.5t188 -77.5t187.5 76t67 225v905h298v-891q0 -148 -39 -261t-112 -185.5t-174.5 -109t-229.5 -36.5q-127 0 -229 36.5t-174.5 108.5t-111 184t-38.5 257zM335 1573v261h279v-261h-279zM752 1573v261h280v-261h-280z" />
<glyph unicode="&#xdd;" horiz-adv-x="1286" d="M16 1463h343l287 -576l290 576h332l-474 -883v-580h-303v576zM526 1561l226 367l247 -112l-259 -255h-214z" />
<glyph unicode="&#xde;" horiz-adv-x="1224" d="M144 0v1463h303v-211h193q154 0 271.5 -59t185 -174t67.5 -271q0 -123 -42.5 -221.5t-116.5 -161t-172.5 -96.5t-214.5 -35h-171v-234h-303zM447 506h177q108 0 171.5 64.5t63.5 171.5q0 115 -63 175t-174 60h-175v-471z" />
<glyph unicode="&#xdf;" horiz-adv-x="1156" d="M119 0v1047q0 219 125.5 346.5t341.5 127.5q100 0 181.5 -30.5t134 -83.5t81 -123.5t28.5 -151.5v-6q0 -84 -25.5 -151t-62.5 -109.5t-92 -80.5q251 -109 251 -363v-4q0 -202 -139 -314.5t-381 -107.5v227q109 7 168 60t59 145q0 86 -61.5 142t-165.5 72v200 q161 103 161 254v5q0 77 -40.5 122t-108.5 45q-72 0 -116 -57.5t-44 -153.5v-1057h-295z" />
<glyph unicode="&#xe0;" horiz-adv-x="1083" d="M60 317v16q0 90 28.5 159t81 112t123 64.5t158.5 21.5q126 0 236 -44v31q0 96 -54.5 146t-160.5 50q-73 0 -135 -14.5t-136 -43.5l-57 240q88 39 174.5 58t201.5 19q228 0 341.5 -116.5t113.5 -336.5v-679h-290v119q-108 -137 -290 -137q-94 0 -169 38t-120.5 115.5 t-45.5 181.5zM197 1493l246 113l225 -368h-213zM347 333q0 -67 39.5 -103t104.5 -36q88 0 143.5 47.5t55.5 123.5v97q-72 35 -166 35q-83 0 -130 -38.5t-47 -111.5v-14z" />
<glyph unicode="&#xe1;" horiz-adv-x="1083" d="M60 317v16q0 90 28.5 159t81 112t123 64.5t158.5 21.5q126 0 236 -44v31q0 96 -54.5 146t-160.5 50q-73 0 -135 -14.5t-136 -43.5l-57 240q88 39 174.5 58t201.5 19q228 0 341.5 -116.5t113.5 -336.5v-679h-290v119q-108 -137 -290 -137q-94 0 -169 38t-120.5 115.5 t-45.5 181.5zM347 333q0 -67 39.5 -103t104.5 -36q88 0 143.5 47.5t55.5 123.5v97q-72 35 -166 35q-83 0 -130 -38.5t-47 -111.5v-14zM399 1238l225 368l247 -113l-259 -255h-213z" />
<glyph unicode="&#xe2;" horiz-adv-x="1083" d="M60 317v16q0 90 28.5 159t81 112t123 64.5t158.5 21.5q126 0 236 -44v31q0 96 -54.5 146t-160.5 50q-73 0 -135 -14.5t-136 -43.5l-57 240q88 39 174.5 58t201.5 19q228 0 341.5 -116.5t113.5 -336.5v-679h-290v119q-108 -137 -290 -137q-94 0 -169 38t-120.5 115.5 t-45.5 181.5zM173 1238l226 329h271l227 -329h-216l-149 166l-147 -166h-212zM347 333q0 -67 39.5 -103t104.5 -36q88 0 143.5 47.5t55.5 123.5v97q-72 35 -166 35q-83 0 -130 -38.5t-47 -111.5v-14z" />
<glyph unicode="&#xe3;" horiz-adv-x="1083" d="M60 317v16q0 90 28.5 159t81 112t123 64.5t158.5 21.5q126 0 236 -44v31q0 96 -54.5 146t-160.5 50q-73 0 -135 -14.5t-136 -43.5l-57 240q88 39 174.5 58t201.5 19q228 0 341.5 -116.5t113.5 -336.5v-679h-290v119q-108 -137 -290 -137q-94 0 -169 38t-120.5 115.5 t-45.5 181.5zM146 1266q30 133 88 201t148 68q78 0 180 -48q70 -36 110 -36q39 0 61 24t42 79l158 -50q-29 -132 -86.5 -201t-148.5 -69q-33 0 -70 9.5t-55.5 17t-56.5 24.5q-28 13 -39.5 18t-31.5 11t-36 6q-39 0 -60 -23t-44 -79zM347 333q0 -67 39.5 -103t104.5 -36 q88 0 143.5 47.5t55.5 123.5v97q-72 35 -166 35q-83 0 -130 -38.5t-47 -111.5v-14z" />
<glyph unicode="&#xe4;" horiz-adv-x="1083" d="M60 317v16q0 90 28.5 159t81 112t123 64.5t158.5 21.5q126 0 236 -44v31q0 96 -54.5 146t-160.5 50q-73 0 -135 -14.5t-136 -43.5l-57 240q88 39 174.5 58t201.5 19q228 0 341.5 -116.5t113.5 -336.5v-679h-290v119q-108 -137 -290 -137q-94 0 -169 38t-120.5 115.5 t-45.5 181.5zM186 1245v262h280v-262h-280zM347 333q0 -67 39.5 -103t104.5 -36q88 0 143.5 47.5t55.5 123.5v97q-72 35 -166 35q-83 0 -130 -38.5t-47 -111.5v-14zM604 1245v262h279v-262h-279z" />
<glyph unicode="&#xe5;" horiz-adv-x="1083" d="M60 317v16q0 90 28.5 159t81 112t123 64.5t158.5 21.5q126 0 236 -44v31q0 96 -54.5 146t-160.5 50q-73 0 -135 -14.5t-136 -43.5l-57 240q88 39 174.5 58t201.5 19q228 0 341.5 -116.5t113.5 -336.5v-679h-290v119q-108 -137 -290 -137q-94 0 -169 38t-120.5 115.5 t-45.5 181.5zM287 1467v6q0 98 72.5 170t170.5 72t170.5 -72t72.5 -170v-6q0 -97 -72.5 -169t-170.5 -72t-170.5 72t-72.5 169zM347 333q0 -67 39.5 -103t104.5 -36q88 0 143.5 47.5t55.5 123.5v97q-72 35 -166 35q-83 0 -130 -38.5t-47 -111.5v-14zM409 1469 q0 -49 37 -87.5t84 -38.5q48 0 83 38.5t35 87.5v4q0 51 -35 88t-83 37q-50 0 -85.5 -37t-35.5 -88v-4z" />
<glyph unicode="&#xe6;" horiz-adv-x="1722" d="M60 323v12q0 89 28.5 158t81 111.5t123 64t158.5 21.5q126 0 236 -44v31q0 96 -54.5 146t-160.5 50q-73 0 -135 -14.5t-136 -43.5l-57 240q88 39 174.5 58t201.5 19q234 0 339 -135q123 141 317 141q115 0 206 -45.5t148.5 -126t87.5 -187.5t30 -233l-2 -99h-671 q20 -112 83.5 -168t159.5 -56q72 0 128.5 24.5t122.5 80.5l131 -180q-155 -171 -394 -171q-118 0 -218 47t-169 135q-170 -177 -389 -177q-168 0 -269 90.5t-101 250.5zM347 339q0 -69 40 -104.5t108 -35.5q130 0 236 118q-24 66 -33 145q-82 35 -174 35q-84 0 -130.5 -37 t-46.5 -113v-8zM971 646h391q-10 118 -59 184.5t-133 66.5q-81 0 -133 -65.5t-66 -185.5z" />
<glyph unicode="&#xe7;" horiz-adv-x="1012" d="M75 546v22q0 123 39 229t107 181t164 117.5t207 42.5q123 0 206 -34t153 -105l-134 -222q-51 49 -101 73.5t-116 24.5q-101 0 -166 -84t-65 -219v-24q0 -140 66 -223.5t175 -83.5q61 0 112 24.5t105 73.5l130 -205q-67 -69 -140.5 -107.5t-174.5 -46.5l-132 -321 l-249 100l174 241q-164 48 -262 195.5t-98 350.5z" />
<glyph unicode="&#xe8;" horiz-adv-x="1114" d="M73 546v20q0 164 63 295t175.5 204t252.5 73q94 0 172 -29.5t134 -83t94.5 -127.5t57 -163t18.5 -189q0 -58 -4 -99h-669q20 -112 83.5 -168t159.5 -56q72 0 129.5 24.5t119.5 80.5l133 -180q-155 -171 -392 -171q-112 0 -208.5 40.5t-167 113.5t-111 180t-40.5 235z M199 1493l246 113l225 -368h-212zM365 646h389q-10 118 -59 184.5t-131 66.5q-81 0 -133 -65.5t-66 -185.5z" />
<glyph unicode="&#xe9;" horiz-adv-x="1114" d="M73 546v20q0 164 63 295t175.5 204t252.5 73q94 0 172 -29.5t134 -83t94.5 -127.5t57 -163t18.5 -189q0 -58 -4 -99h-669q20 -112 83.5 -168t159.5 -56q72 0 129.5 24.5t119.5 80.5l133 -180q-155 -171 -392 -171q-112 0 -208.5 40.5t-167 113.5t-111 180t-40.5 235z M365 646h389q-10 118 -59 184.5t-131 66.5q-81 0 -133 -65.5t-66 -185.5zM443 1238l225 368l247 -113l-259 -255h-213z" />
<glyph unicode="&#xea;" horiz-adv-x="1114" d="M73 546v20q0 164 63 295t175.5 204t252.5 73q94 0 172 -29.5t134 -83t94.5 -127.5t57 -163t18.5 -189q0 -58 -4 -99h-669q20 -112 83.5 -168t159.5 -56q72 0 129.5 24.5t119.5 80.5l133 -180q-155 -171 -392 -171q-112 0 -208.5 40.5t-167 113.5t-111 180t-40.5 235z M201 1238l225 329h272l225 -329h-215l-148 166l-149 -166h-210zM365 646h389q-10 118 -59 184.5t-131 66.5q-81 0 -133 -65.5t-66 -185.5z" />
<glyph unicode="&#xeb;" horiz-adv-x="1114" d="M73 546v20q0 164 63 295t175.5 204t252.5 73q94 0 172 -29.5t134 -83t94.5 -127.5t57 -163t18.5 -189q0 -58 -4 -99h-669q20 -112 83.5 -168t159.5 -56q72 0 129.5 24.5t119.5 80.5l133 -180q-155 -171 -392 -171q-112 0 -208.5 40.5t-167 113.5t-111 180t-40.5 235z M213 1245v262h280v-262h-280zM365 646h389q-10 118 -59 184.5t-131 66.5q-81 0 -133 -65.5t-66 -185.5zM630 1245v262h281v-262h-281z" />
<glyph unicode="&#xec;" horiz-adv-x="556" d="M-75 1493l246 113l226 -368h-213zM130 0v1120h296v-1120h-296z" />
<glyph unicode="&#xed;" horiz-adv-x="556" d="M130 0v1120h296v-1120h-296zM155 1238l225 368l246 -113l-259 -255h-212z" />
<glyph unicode="&#xee;" horiz-adv-x="556" d="M-82 1238l226 329h272l226 -329h-216l-149 166l-147 -166h-212zM130 0v1120h296v-1120h-296z" />
<glyph unicode="&#xef;" horiz-adv-x="556" d="M-69 1245v262h280v-262h-280zM130 0v1120h296v-1120h-296zM349 1245v262h279v-262h-279z" />
<glyph unicode="&#xf0;" horiz-adv-x="1180" d="M75 504v10q0 110 31 201t85 152.5t128.5 95.5t160.5 34q64 0 119.5 -18.5t114.5 -59.5l-158 243l-211 -94l-109 156l219 98l-118 187h319l44 -78l183 82l109 -159l-192 -84l136 -211q86 -138 125.5 -261.5t39.5 -263.5v-10q0 -158 -63.5 -282t-183 -194.5t-276.5 -70.5 q-107 0 -200.5 38.5t-160 107.5t-104.5 167.5t-38 213.5zM365 499q0 -125 62 -198.5t163 -73.5q102 0 161.5 72.5t59.5 199.5v9q0 126 -61.5 198.5t-163.5 72.5q-100 0 -160.5 -72t-60.5 -199v-9z" />
<glyph unicode="&#xf1;" horiz-adv-x="1148" d="M119 0v1120h297v-151q27 38 53 65.5t61 53t79 39t95 13.5q158 0 245 -101.5t87 -275.5v-763h-296v675q0 96 -42 147t-118 51t-120 -51t-44 -147v-675h-297zM190 1266q30 133 88 201t148 68q78 0 180 -48q69 -36 110 -36q39 0 61 24t42 79l158 -50q-29 -132 -86.5 -201 t-148.5 -69q-34 0 -70.5 9.5t-55 17t-56.5 24.5q-28 13 -39.5 18t-31.5 11t-36 6q-39 0 -60 -23t-44 -79z" />
<glyph unicode="&#xf2;" horiz-adv-x="1206" d="M75 546v22q0 123 40.5 229t110.5 181t168.5 117.5t211.5 42.5q112 0 209.5 -42t167 -116t109.5 -180t40 -230v-22q0 -123 -40 -229.5t-110 -181.5t-168.5 -117.5t-211.5 -42.5q-112 0 -210 42t-167.5 116.5t-109.5 180.5t-40 230zM243 1493l246 113l225 -368h-212z M367 548q0 -137 66.5 -225.5t172.5 -88.5t168.5 85.5t62.5 223.5v25q0 139 -65 226t-170 87q-108 0 -171.5 -85.5t-63.5 -223.5v-24z" />
<glyph unicode="&#xf3;" horiz-adv-x="1206" d="M75 546v22q0 123 40.5 229t110.5 181t168.5 117.5t211.5 42.5q112 0 209.5 -42t167 -116t109.5 -180t40 -230v-22q0 -123 -40 -229.5t-110 -181.5t-168.5 -117.5t-211.5 -42.5q-112 0 -210 42t-167.5 116.5t-109.5 180.5t-40 230zM367 548q0 -137 66.5 -225.5 t172.5 -88.5t168.5 85.5t62.5 223.5v25q0 139 -65 226t-170 87q-108 0 -171.5 -85.5t-63.5 -223.5v-24zM491 1238l225 368l247 -113l-259 -255h-213z" />
<glyph unicode="&#xf4;" horiz-adv-x="1206" d="M75 546v22q0 123 40.5 229t110.5 181t168.5 117.5t211.5 42.5q112 0 209.5 -42t167 -116t109.5 -180t40 -230v-22q0 -123 -40 -229.5t-110 -181.5t-168.5 -117.5t-211.5 -42.5q-112 0 -210 42t-167.5 116.5t-109.5 180.5t-40 230zM243 1238l225 329h272l225 -329h-215 l-148 166l-149 -166h-210zM367 548q0 -137 66.5 -225.5t172.5 -88.5t168.5 85.5t62.5 223.5v25q0 139 -65 226t-170 87q-108 0 -171.5 -85.5t-63.5 -223.5v-24z" />
<glyph unicode="&#xf5;" horiz-adv-x="1206" d="M75 546v22q0 123 40.5 229t110.5 181t168.5 117.5t211.5 42.5q112 0 209.5 -42t167 -116t109.5 -180t40 -230v-22q0 -123 -40 -229.5t-110 -181.5t-168.5 -117.5t-211.5 -42.5q-112 0 -210 42t-167.5 116.5t-109.5 180.5t-40 230zM209 1266q31 133 88 201t148 68 q77 0 179 -48q70 -36 111 -36q39 0 60.5 24t41.5 79l160 -50q-60 -270 -237 -270q-33 0 -69.5 9.5t-55.5 17t-57 24.5q-2 2 -8 4q-66 31 -98 31q-39 0 -60.5 -23t-44.5 -79zM367 548q0 -137 66.5 -225.5t172.5 -88.5t168.5 85.5t62.5 223.5v25q0 139 -65 226t-170 87 q-108 0 -171.5 -85.5t-63.5 -223.5v-24z" />
<glyph unicode="&#xf6;" horiz-adv-x="1206" d="M75 546v22q0 123 40.5 229t110.5 181t168.5 117.5t211.5 42.5q112 0 209.5 -42t167 -116t109.5 -180t40 -230v-22q0 -123 -40 -229.5t-110 -181.5t-168.5 -117.5t-211.5 -42.5q-112 0 -210 42t-167.5 116.5t-109.5 180.5t-40 230zM255 1245v262h279v-262h-279zM367 548 q0 -137 66.5 -225.5t172.5 -88.5t168.5 85.5t62.5 223.5v25q0 139 -65 226t-170 87q-108 0 -171.5 -85.5t-63.5 -223.5v-24zM672 1245v262h281v-262h-281z" />
<glyph unicode="&#xf7;" horiz-adv-x="1158" d="M113 602v277h934v-277h-934zM418 125v312h311v-312h-311zM418 1044v312h311v-312h-311z" />
<glyph unicode="&#xf8;" horiz-adv-x="1206" d="M46 -10l144 185q-56 73 -85.5 168t-29.5 203v18q0 123 40.5 230t110.5 182.5t168 118.5t210 43q144 0 265 -70l52 64h237l-147 -190q119 -154 119 -374v-20q0 -123 -40 -229.5t-110 -181.5t-168 -117.5t-210 -42.5q-147 0 -267 71l-50 -58h-239zM357 548q0 -57 25 -118 l326 418q-46 39 -106 39q-109 0 -177 -89.5t-68 -229.5v-20zM497 265q42 -40 107 -40q109 0 176.5 89t67.5 229v23q0 60 -25 121z" />
<glyph unicode="&#xf9;" horiz-adv-x="1148" d="M113 357v763h296v-675q0 -96 41.5 -147t115.5 -51q77 0 121 51t44 147v675h297v-1120h-297v150q-26 -37 -52.5 -65t-61.5 -53.5t-79 -38.5t-95 -13q-157 0 -243.5 101.5t-86.5 275.5zM230 1493l246 113l226 -368h-213z" />
<glyph unicode="&#xfa;" horiz-adv-x="1148" d="M113 357v763h296v-675q0 -96 41.5 -147t115.5 -51q77 0 121 51t44 147v675h297v-1120h-297v150q-26 -37 -52.5 -65t-61.5 -53.5t-79 -38.5t-95 -13q-157 0 -243.5 101.5t-86.5 275.5zM441 1238l225 368l247 -113l-259 -255h-213z" />
<glyph unicode="&#xfb;" horiz-adv-x="1148" d="M113 357v763h296v-675q0 -96 41.5 -147t115.5 -51q77 0 121 51t44 147v675h297v-1120h-297v150q-26 -37 -52.5 -65t-61.5 -53.5t-79 -38.5t-95 -13q-157 0 -243.5 101.5t-86.5 275.5zM211 1238l226 329h271l225 -329h-214l-149 166l-148 -166h-211z" />
<glyph unicode="&#xfc;" horiz-adv-x="1148" d="M113 357v763h296v-675q0 -96 41.5 -147t115.5 -51q77 0 121 51t44 147v675h297v-1120h-297v150q-26 -37 -52.5 -65t-61.5 -53.5t-79 -38.5t-95 -13q-157 0 -243.5 101.5t-86.5 275.5zM223 1245v262h281v-262h-281zM642 1245v262h279v-262h-279z" />
<glyph unicode="&#xfd;" horiz-adv-x="1104" d="M36 1120h309l211 -748l209 748h305l-376 -1130q-57 -167 -134.5 -239t-212.5 -72q-140 0 -255 64l88 221q67 -39 129 -39q36 0 61.5 16.5t43.5 56.5zM411 1238l227 368l245 -113l-259 -255h-213z" />
<glyph unicode="&#xfe;" horiz-adv-x="1226" d="M119 -315v1824h297v-544q123 175 303 175q67 0 129.5 -21.5t117 -67.5t94.5 -112t63 -159.5t23 -205.5v-31q0 -112 -23 -205.5t-63 -159t-94 -110.5t-116.5 -66.5t-130.5 -21.5q-179 0 -303 162v-457h-297zM411 548q0 -141 63 -225.5t156.5 -84.5t157 85t63.5 225v22 q0 140 -63.5 224.5t-157 84.5t-156.5 -84.5t-63 -224.5v-22z" />
<glyph unicode="&#xff;" horiz-adv-x="1104" d="M36 1120h309l211 -748l209 748h305l-376 -1130q-57 -167 -134.5 -239t-212.5 -72q-140 0 -255 64l88 221q67 -39 129 -39q36 0 61.5 16.5t43.5 56.5zM203 1245v262h279v-262h-279zM620 1245v262h281v-262h-281z" />
<glyph unicode="&#x131;" horiz-adv-x="556" d="M130 0v1120h296v-1120h-296z" />
<glyph unicode="&#x152;" horiz-adv-x="1919" d="M92 721v14q0 159 50.5 294.5t141 230.5t221 149t284.5 54h1029v-275h-604v-317h528v-271h-528v-329h614v-271h-1039q-154 0 -284.5 52.5t-221 147t-141 228.5t-50.5 293zM405 723q0 -214 103.5 -333t272.5 -119h132v915h-132q-169 0 -272.5 -116.5t-103.5 -329.5v-17z " />
<glyph unicode="&#x153;" horiz-adv-x="1871" d="M75 546v20q0 123 41 230t110.5 182t166 117.5t205.5 42.5q233 0 373 -179q62 86 152 132.5t201 46.5q115 0 206 -45.5t148.5 -126t87.5 -187.5t30 -233l-2 -99h-668q20 -112 82.5 -168t159.5 -56q71 0 128 24.5t121 80.5l131 -180q-155 -171 -394 -171q-122 0 -220.5 47 t-164.5 137q-68 -89 -165.5 -136.5t-213.5 -47.5q-106 0 -200.5 42t-164 116t-110 181t-40.5 230zM367 548q0 -138 64.5 -226t166.5 -88q104 0 164.5 86t60.5 226v22q0 139 -62.5 226t-164.5 87q-105 0 -167 -85.5t-62 -225.5v-22zM1122 646h389q-10 117 -59.5 184 t-131.5 67q-83 0 -133.5 -65t-64.5 -186z" />
<glyph unicode="&#x178;" horiz-adv-x="1286" d="M16 1463h343l287 -576l290 576h332l-474 -883v-580h-303v576zM295 1573v261h279v-261h-279zM712 1573v261h280v-261h-280z" />
<glyph unicode="&#x192;" horiz-adv-x="989" d="M67 0v247q36 -6 69 -6q57 0 88.5 28.5t40.5 91.5l50 368h-125v242h163l23 169q25 163 113 248t253 85q101 0 189 -24v-252q-89 19 -122 19q-129 0 -147 -138l-12 -107h217v-242h-255l-58 -414q-25 -174 -114.5 -249.5t-253.5 -75.5q-63 0 -119 10z" />
<glyph unicode="&#x2c6;" d="M161 1238l226 329h271l225 -329h-215l-148 166l-148 -166h-211z" />
<glyph unicode="&#x2c7;" d="M161 1567h215l146 -163l148 163h213l-225 -329h-271z" />
<glyph unicode="&#x2d8;" d="M167 1550h198q32 -127 157 -127t157 127h198q-12 -152 -109 -237t-245.5 -85t-246 85t-109.5 237z" />
<glyph unicode="&#x2d9;" d="M374 1226v276h296v-276h-296z" />
<glyph unicode="&#x2da;" d="M277 1467v6q0 98 73 170t172 72q98 0 170.5 -72t72.5 -170v-6q0 -97 -72.5 -169t-170.5 -72t-171.5 72t-73.5 169zM401 1469q0 -49 36.5 -87.5t84.5 -38.5t83 38.5t35 87.5v4q0 51 -35 88t-83 37q-50 0 -85.5 -37t-35.5 -88v-4z" />
<glyph unicode="&#x2db;" d="M365 -111q0 69 34 139h199q-14 -49 -14 -88q0 -64 43 -100t144 -43v-134q-198 -9 -302 49.5t-104 176.5z" />
<glyph unicode="&#x2dc;" d="M128 1266q30 133 87.5 201t147.5 68q78 0 180 -48q69 -36 111 -36q38 0 59.5 24t42.5 79l159 -50q-29 -132 -86.5 -201t-149.5 -69q-33 0 -69.5 9t-56 17t-56.5 25q-3 1 -9 4q-66 31 -97 31q-40 0 -60.5 -23t-43.5 -79z" />
<glyph unicode="&#x2dd;" d="M102 1238l221 368l243 -113l-257 -255h-207zM487 1238l223 368l245 -113l-263 -255h-205z" />
<glyph unicode="&#x3a9;" horiz-adv-x="1407" d="M111 0v263h334v56q-101 33 -178 113.5t-116.5 188t-39.5 227.5q0 146 47.5 267.5t129 202t190.5 125t232 44.5q121 0 227.5 -44t186.5 -124t126.5 -200.5t46.5 -265.5q0 -120 -38.5 -230t-116 -193t-179.5 -111v-56h334v-263h-541v435q119 30 181 134.5t62 251.5 q0 110 -31 197t-98 141.5t-160 54.5q-73 0 -130 -32t-93 -87.5t-54.5 -127t-18.5 -154.5q0 -146 60 -248t178 -130v-435h-541z" />
<glyph unicode="&#x3c0;" d="M0 0v1463h1044v-1463h-1044zM102 201l358 530l-358 531v-1061zM169 102h708l-355 533zM169 1358l353 -533l355 533h-708zM582 731l358 -530v1061z" />
<glyph unicode="&#x401;" horiz-adv-x="1186" d="M146 0v1463h940v-273h-641v-319h564v-271h-564v-329h649v-271h-948zM265 1573v261h281v-261h-281zM683 1573v261h280v-261h-280z" />
<glyph unicode="&#x402;" horiz-adv-x="1539" d="M58 1186v277h1032v-277h-426v-335q183 94 324 94q68 0 131.5 -17.5t121 -54.5t100 -90.5t67.5 -131.5t25 -171q0 -98 -26 -180t-70.5 -138.5t-104.5 -96t-127 -57.5t-140 -18q-55 0 -109.5 11t-86.5 25l44 261q5 -1 24 -4.5t32.5 -5.5t27.5 -2q39 0 77.5 12.5t71 35.5 t52.5 62.5t20 88.5q0 98 -51.5 152.5t-151.5 54.5q-74 0 -141.5 -21.5t-109.5 -55.5v-604h-303v1186h-303z" />
<glyph unicode="&#x403;" horiz-adv-x="1062" d="M146 0v1463h871v-277h-570v-1186h-301zM443 1567l225 367l247 -112l-259 -255h-213z" />
<glyph unicode="&#x404;" horiz-adv-x="1288" d="M94 719v23q0 158 47 295.5t130.5 235.5t202.5 154t257 56q157 0 264 -42t202 -123l-123 -228q-144 120 -309 120q-130 0 -223.5 -92.5t-125.5 -252.5h491v-259h-493q30 -166 127.5 -256.5t239.5 -90.5q151 0 305 126l140 -224q-95 -95 -208.5 -139.5t-273.5 -44.5 q-139 0 -259 53t-206 149t-135.5 235.5t-49.5 304.5z" />
<glyph unicode="&#x405;" horiz-adv-x="1138" d="M64 165l135 238q94 -73 185 -110.5t188 -37.5q89 0 138.5 35t49.5 103q0 41 -18.5 70t-71.5 62t-156 77q-49 21 -83 36.5t-73.5 35.5t-66 37.5t-56 40t-48.5 45t-37 51t-28 59.5t-16 69t-6 81q0 125 60 221.5t165.5 148.5t240.5 52q256 0 447 -142l-116 -249 q-91 60 -170 90t-157 30q-79 0 -124 -35.5t-45 -94.5q0 -23 4 -40t17.5 -34t29 -29.5t49.5 -31t67.5 -34t93.5 -42.5q86 -38 145.5 -71t110.5 -73t80.5 -84t46 -100t16.5 -125q0 -133 -62.5 -231.5t-171 -148.5t-249.5 -50t-273.5 46t-240.5 135z" />
<glyph unicode="&#x406;" horiz-adv-x="616" d="M157 0v1463h301v-1463h-301z" />
<glyph unicode="&#x407;" horiz-adv-x="616" d="M-40 1573v261h281v-261h-281zM157 0v1463h301v-1463h-301zM378 1573v261h280v-261h-280z" />
<glyph unicode="&#x408;" horiz-adv-x="1008" d="M32 140l139 236q56 -55 109.5 -83t114.5 -28q177 0 177 215v983h309v-999q0 -120 -33.5 -212.5t-95.5 -151t-147 -88.5t-191 -30q-228 0 -382 158z" />
<glyph unicode="&#x409;" horiz-adv-x="2013" d="M-2 4l32 255q21 -6 50 -6q34 0 58 7t49.5 28.5t43 61t33.5 106t25 162t14.5 230t5.5 308.5v307h921v-488h211q238 0 376 -129t138 -355q0 -118 -40.5 -212t-112 -154.5t-167 -92.5t-206.5 -32h-500v1186h-335v-169q0 -212 -10.5 -369.5t-33.5 -273t-56 -190t-83.5 -119 t-110 -62t-141.5 -17.5q-60 0 -161 18zM1230 271h209q100 0 157.5 58t57.5 155q0 108 -57 163t-160 55h-207v-431z" />
<glyph unicode="&#x40a;" horiz-adv-x="2051" d="M146 0v1463h301v-534h482v534h301v-534h272q227 0 359 -122.5t132 -338.5q0 -112 -39 -202t-107.5 -147.5t-159.5 -88t-198 -30.5h-560v650h-482v-650h-301zM1230 271h269q89 0 141 52t52 139q0 96 -51.5 145t-143.5 49h-267v-385z" />
<glyph unicode="&#x40b;" horiz-adv-x="1539" d="M58 1186v277h1032v-277h-426v-335q183 94 324 94q95 0 170.5 -26.5t134 -81.5t90 -147t31.5 -216v-474h-300v411q0 137 -49 203.5t-150 66.5q-74 0 -141.5 -21.5t-109.5 -55.5v-604h-303v1186h-303z" />
<glyph unicode="&#x40c;" horiz-adv-x="1319" d="M146 0v1463h301v-632l476 632h359l-490 -619l512 -844h-357l-365 602l-135 -172v-430h-301zM528 1567l226 367l247 -112l-259 -255h-214z" />
<glyph unicode="&#x40e;" horiz-adv-x="1294" d="M20 1463h331l315 -730l289 730h319l-465 -1106q-56 -134 -116 -212t-143.5 -117.5t-200.5 -39.5q-80 0 -141 20.5t-97 43.5l94 219q75 -30 128 -30q60 0 101 35t74 100zM349 1848l171 32q14 -63 52 -98.5t98 -35.5q57 0 95 35.5t54 98.5l169 -32q-18 -143 -102.5 -219.5 t-215.5 -76.5q-133 0 -217.5 76.5t-103.5 219.5z" />
<glyph unicode="&#x40f;" horiz-adv-x="1363" d="M146 0v1463h299v-1186h474v1186h299v-1463h-393v-273h-288v273h-391z" />
<glyph unicode="&#x410;" horiz-adv-x="1403" d="M36 0l522 1471h288l522 -1471h-311l-108 317h-502l-108 -317h-303zM537 584h320l-159 477z" />
<glyph unicode="&#x411;" horiz-adv-x="1282" d="M146 0v1463h963v-277h-662v-257h272q227 0 359 -122.5t132 -338.5q0 -112 -39 -202t-107.5 -147.5t-160 -88t-197.5 -30.5h-560zM447 271h269q89 0 141 52t52 139q0 96 -51.5 145t-143.5 49h-267v-385z" />
<glyph unicode="&#x412;" horiz-adv-x="1302" d="M146 0v1463h541q143 0 250 -43.5t169 -130.5t62 -209q0 -217 -199 -320q61 -25 106.5 -54.5t81.5 -71t54.5 -97.5t18.5 -126v-8q0 -130 -67 -221.5t-184.5 -136.5t-276.5 -45h-556zM441 267h269q104 0 161.5 43t57.5 127t-57 129.5t-170 45.5h-261v-345zM441 863h209 q103 0 161 41.5t58 125.5q0 82 -53 123t-152 41h-223v-331z" />
<glyph unicode="&#x413;" horiz-adv-x="1062" d="M146 0v1463h871v-277h-570v-1186h-301z" />
<glyph unicode="&#x414;" horiz-adv-x="1395" d="M14 -273v548h116q77 190 111 419.5t34 585.5v183h933v-1188h150l-38 -548h-252v273h-765l-30 -273h-259zM441 275h466v911h-341v-22q0 -306 -28.5 -510.5t-96.5 -378.5z" />
<glyph unicode="&#x415;" horiz-adv-x="1186" d="M146 0v1463h940v-273h-641v-319h564v-271h-564v-329h649v-271h-948z" />
<glyph unicode="&#x416;" horiz-adv-x="2019" d="M16 0l488 815l-472 648h355l472 -669v669h301v-669l471 669h350l-466 -648l486 -815h-353l-355 612l-133 -245v-367h-301v367l-136 245l-354 -612h-353z" />
<glyph unicode="&#x417;" horiz-adv-x="1160" d="M46 161l119 228q160 -132 343 -132q263 0 263 169q0 93 -73 141.5t-199 48.5h-121v251h117q106 0 180.5 54.5t74.5 131.5t-64 117t-170 40q-171 0 -309 -128l-119 215q98 94 215.5 139t294.5 45q130 0 232.5 -49t159.5 -136.5t57 -199.5q0 -233 -228 -333 q118 -40 187.5 -126.5t69.5 -222.5q0 -128 -63 -227t-177.5 -153t-263.5 -54q-173 0 -295.5 46.5t-230.5 134.5z" />
<glyph unicode="&#x418;" horiz-adv-x="1395" d="M146 0v1463h297v-905l526 905h281v-1463h-297v917l-529 -917h-278z" />
<glyph unicode="&#x419;" horiz-adv-x="1395" d="M146 0v1463h297v-905l526 905h281v-1463h-297v917l-529 -917h-278zM385 1848l171 32q14 -63 52 -98.5t98 -35.5q57 0 95 35.5t54 98.5l169 -32q-19 -143 -103 -219.5t-215 -76.5q-134 0 -218.5 76.5t-102.5 219.5z" />
<glyph unicode="&#x41a;" horiz-adv-x="1319" d="M146 0v1463h301v-632l476 632h359l-490 -619l512 -844h-357l-365 602l-135 -172v-430h-301z" />
<glyph unicode="&#x41b;" horiz-adv-x="1375" d="M-2 4l32 255q21 -6 50 -6q34 0 58 7t49.5 28.5t43 61t33.5 106t25 162t14.5 230t5.5 308.5v307h921v-1463h-301v1186h-335v-169q0 -212 -10.5 -369.5t-33.5 -273t-56 -190t-83.5 -119t-110 -62t-141.5 -17.5q-60 0 -161 18z" />
<glyph unicode="&#x41c;" horiz-adv-x="1572" d="M146 0v1463h318l321 -594l324 594h320v-1463h-297v933l-345 -603h-6l-342 597v-927h-293z" />
<glyph unicode="&#x41d;" horiz-adv-x="1375" d="M146 0v1463h301v-588h482v588h301v-1463h-301v596h-482v-596h-301z" />
<glyph unicode="&#x41e;" horiz-adv-x="1505" d="M92 716v26q0 161 49.5 299.5t136 236t210 152.5t266.5 55q142 0 264.5 -55t209 -151.5t135.5 -234.5t49 -298v-25q0 -161 -49.5 -300t-136.5 -236.5t-209.5 -152.5t-264.5 -55q-143 0 -266 54.5t-209.5 151.5t-135.5 234.5t-49 298.5zM405 721q0 -214 96.5 -340 t252.5 -126t251.5 123.5t95.5 337.5v26q0 213 -97.5 339.5t-251.5 126.5q-156 0 -251.5 -124.5t-95.5 -337.5v-25z" />
<glyph unicode="&#x41f;" horiz-adv-x="1363" d="M146 0v1463h1072v-1463h-301v1186h-470v-1186h-301z" />
<glyph unicode="&#x420;" horiz-adv-x="1216" d="M146 0v1463h484q248 0 392 -135.5t144 -370.5q0 -123 -42.5 -221.5t-116.5 -161.5t-173.5 -96t-215.5 -33h-171v-445h-301zM447 716h177q109 0 173 64t64 171q0 118 -63 177.5t-176 59.5h-175v-472z" />
<glyph unicode="&#x421;" horiz-adv-x="1288" d="M92 721v19q0 164 49.5 303t137 235.5t210 150.5t265.5 54q151 0 256.5 -42.5t197.5 -124.5l-143 -244q-75 64 -148 97t-157 33q-158 0 -256.5 -124t-98.5 -334v-21q0 -215 98.5 -338.5t259.5 -123.5q90 0 161.5 33t149.5 101l144 -220q-99 -98 -210.5 -146.5 t-267.5 -48.5q-138 0 -257.5 53.5t-205.5 149t-135.5 235t-49.5 303.5z" />
<glyph unicode="&#x422;" horiz-adv-x="1150" d="M58 1182v281h1032v-281h-363v-1182h-303v1182h-366z" />
<glyph unicode="&#x423;" horiz-adv-x="1294" d="M20 1463h331l315 -730l289 730h319l-465 -1106q-56 -134 -116 -212t-143.5 -117.5t-200.5 -39.5q-80 0 -141 20.5t-97 43.5l94 219q75 -30 128 -30q60 0 101 35t74 100z" />
<glyph unicode="&#x424;" horiz-adv-x="1722" d="M69 733q0 195 81 339t225.5 219t334.5 75v141h301v-141q190 0 334.5 -75t225.5 -219t81 -339q0 -133 -45 -247t-127.5 -196t-203 -128.5t-265.5 -46.5v-161h-301v161q-145 0 -265.5 46.5t-202.5 128.5t-127.5 196t-45.5 247zM378 742q0 -166 91 -260.5t241 -94.5v707 q-152 0 -242 -92t-90 -260zM1011 387q150 0 241 94.5t91 260.5q0 168 -90 260t-242 92v-707z" />
<glyph unicode="&#x425;" horiz-adv-x="1315" d="M50 0l428 746l-411 717h344l249 -458l253 458h334l-410 -717l429 -746h-345l-267 484l-269 -484h-335z" />
<glyph unicode="&#x426;" horiz-adv-x="1403" d="M144 0v1463h303v-1188h470v1188h301v-1188h146l-38 -548h-248v273h-934z" />
<glyph unicode="&#x427;" horiz-adv-x="1300" d="M104 917v546h301v-462q0 -137 48.5 -203.5t150.5 -66.5q74 0 141.5 22t109.5 56v654h301v-1463h-301v541q-183 -94 -325 -94q-94 0 -170 26.5t-134 81t-90 146.5t-32 216z" />
<glyph unicode="&#x428;" horiz-adv-x="2035" d="M146 0v1463h301v-1188h420v1188h301v-1188h422v1188h300v-1463h-1744z" />
<glyph unicode="&#x429;" horiz-adv-x="2075" d="M146 0v1463h301v-1188h420v1188h301v-1188h422v1188h300v-1188h149l-38 -548h-251v273h-1604z" />
<glyph unicode="&#x42a;" horiz-adv-x="1425" d="M50 1186v277h590v-488h213q237 0 375 -129t138 -355q0 -118 -40.5 -212t-112 -154.5t-167 -92.5t-207.5 -32h-498v1186h-291zM640 271h211q99 0 156.5 58t57.5 155q0 108 -57.5 163t-159.5 55h-208v-431z" />
<glyph unicode="&#x42b;" horiz-adv-x="1754" d="M144 0v1463h301v-488h213q237 0 375.5 -129t138.5 -355q0 -118 -40.5 -212t-112 -154.5t-167 -92.5t-206.5 -32h-502zM445 271h211q100 0 157.5 58t57.5 155q0 108 -57.5 163t-159.5 55h-209v-431zM1308 0v1463h301v-1463h-301z" />
<glyph unicode="&#x42c;" horiz-adv-x="1230" d="M144 0v1463h301v-488h213q237 0 375.5 -129t138.5 -355q0 -118 -40.5 -212t-112 -154.5t-167 -92.5t-206.5 -32h-502zM445 271h211q100 0 157.5 58t57.5 155q0 108 -57.5 163t-159.5 55h-209v-431z" />
<glyph unicode="&#x42d;" horiz-adv-x="1288" d="M62 161l141 224q154 -126 305 -126q142 0 240 90.5t127 256.5h-493v259h491q-31 160 -125 252.5t-224 92.5q-164 0 -309 -120l-123 228q96 81 202.5 123t263.5 42q138 0 257 -56t202 -154t130 -235.5t47 -295.5v-23q0 -165 -49 -304.5t-135 -235.5t-206 -149t-258 -53 q-161 0 -275 44.5t-209 139.5z" />
<glyph unicode="&#x42e;" horiz-adv-x="1931" d="M144 0v1463h303v-592h171q23 183 105.5 322.5t212.5 215.5t290 76q134 0 248 -54.5t194.5 -151.5t126 -235.5t45.5 -301.5v-23q0 -162 -45.5 -300.5t-126 -235.5t-195.5 -151.5t-249 -54.5q-246 0 -410.5 168t-197.5 453h-169v-598h-303zM919 731q0 -115 24 -207.5 t66 -151.5t97.5 -90t119.5 -31q63 0 118 31t96.5 90t65 151.5t23.5 207.5q0 114 -24.5 206t-66.5 151t-96.5 90.5t-117.5 31.5t-118 -31.5t-97 -90t-66 -150.5t-24 -207z" />
<glyph unicode="&#x42f;" horiz-adv-x="1305" d="M52 0l309 543q-126 55 -198.5 165t-72.5 276q0 216 127.5 339t350.5 133q161 7 278 7h314v-1463h-303v480h-191l-269 -480h-345zM395 963q0 -103 61 -159t168 -56h233v438h-57h-74.5t-67 -2t-64.5 -6t-55 -11.5t-50 -18.5t-38.5 -28t-31.5 -39t-17 -51.5t-7 -66.5z" />
<glyph unicode="&#x430;" horiz-adv-x="1083" d="M60 317v16q0 90 28.5 159t81 112t123 64.5t158.5 21.5q126 0 236 -44v31q0 96 -54.5 146t-160.5 50q-73 0 -135 -14.5t-136 -43.5l-57 240q88 39 174.5 58t201.5 19q228 0 341.5 -116.5t113.5 -336.5v-679h-290v119q-108 -137 -290 -137q-94 0 -169 38t-120.5 115.5 t-45.5 181.5zM347 333q0 -67 39.5 -103t104.5 -36q88 0 143.5 47.5t55.5 123.5v97q-72 35 -166 35q-83 0 -130 -38.5t-47 -111.5v-14z" />
<glyph unicode="&#x431;" horiz-adv-x="1192" d="M92 606v29q0 93 3 162t13 146.5t27.5 137t48.5 116t73 98.5q46 46 113.5 78.5t153 52.5t160.5 32.5t177.5 27.5t162.5 27l39 -245q-186 -37 -298 -54q-134 -20 -220.5 -45.5t-137.5 -62.5t-72.5 -82t-25.5 -111q15 27 42 54.5t68.5 55t103.5 44.5t133 17 q92 0 176.5 -39.5t148 -109t101.5 -172t38 -220.5v-9q0 -122 -39 -226t-107 -176.5t-163.5 -113.5t-206.5 -41q-244 0 -378 162.5t-134 466.5zM385 530q0 -128 61.5 -210t161.5 -82t158.5 79.5t58.5 208.5v26q0 129 -61 210.5t-160 81.5q-102 0 -160.5 -79.5t-58.5 -208.5 v-26z" />
<glyph unicode="&#x432;" horiz-adv-x="1106" d="M119 0v1120h497q167 0 267.5 -77t100.5 -216q0 -165 -151 -245q97 -39 148 -102t51 -171q0 -149 -109.5 -229t-294.5 -80h-509zM416 234h166q72 0 111.5 29.5t39.5 85.5q0 59 -39 90t-118 31h-160v-236zM416 666h144q70 0 109 28.5t39 86.5q0 56 -36.5 85t-103.5 29h-152 v-229z" />
<glyph unicode="&#x433;" horiz-adv-x="865" d="M119 0v1120h718v-255h-421v-865h-297z" />
<glyph unicode="&#x434;" horiz-adv-x="1190" d="M4 -236v493h111q59 132 80.5 316t21.5 430v117h817v-863h128q-5 -91 -18.5 -258.5t-17.5 -234.5h-247v236h-604l-24 -236h-247zM416 257h321v612h-240q0 -409 -81 -612z" />
<glyph unicode="&#x435;" horiz-adv-x="1114" d="M73 546v20q0 164 63 295t175.5 204t252.5 73q94 0 172 -29.5t134 -83t94.5 -127.5t57 -163t18.5 -189q0 -58 -4 -99h-669q20 -112 83.5 -168t159.5 -56q72 0 129.5 24.5t119.5 80.5l133 -180q-155 -171 -392 -171q-112 0 -208.5 40.5t-167 113.5t-111 180t-40.5 235z M365 646h389q-10 118 -59 184.5t-131 66.5q-81 0 -133 -65.5t-66 -185.5z" />
<glyph unicode="&#x436;" horiz-adv-x="1635" d="M4 0l359 633l-351 487h335l321 -476v476h297v-476l322 476h334l-351 -487l359 -633h-323l-247 460l-94 -185v-275h-297v275l-94 185l-246 -460h-324z" />
<glyph unicode="&#x437;" horiz-adv-x="943" d="M34 111l102 210q137 -98 284 -98q67 0 111.5 34t44.5 86q0 55 -49.5 90t-137.5 35h-94v192h92q75 0 122 36.5t47 88.5q0 48 -43 75t-110 27q-64 0 -129 -25.5t-115 -67.5q-26 51 -97 203q74 63 180 100t224 37q107 0 193 -36.5t136.5 -105t50.5 -157.5q0 -178 -167 -253 q188 -70 188 -265q0 -99 -53.5 -177.5t-146.5 -120.5t-209 -42q-129 0 -237.5 35t-186.5 99z" />
<glyph unicode="&#x438;" horiz-adv-x="1170" d="M119 0v1120h288v-631l362 631h282v-1120h-286v638l-364 -638h-282z" />
<glyph unicode="&#x439;" horiz-adv-x="1170" d="M119 0v1120h288v-631l362 631h282v-1120h-286v638l-364 -638h-282zM271 1515l170 28q14 -60 51 -94.5t94 -34.5t94.5 34.5t52.5 94.5l168 -28q-19 -141 -102.5 -217t-212.5 -76t-212.5 76t-102.5 217z" />
<glyph unicode="&#x43a;" horiz-adv-x="1116" d="M119 0v1120h297v-458l328 458h334l-347 -464l383 -656h-343l-241 426l-114 -147v-279h-297z" />
<glyph unicode="&#x43b;" horiz-adv-x="1182" d="M-16 16l39 241q7 -4 32 -7t39 -3q28 0 47.5 10.5t39 41t31.5 90.5t22 155.5t14.5 238.5t4.5 337h808v-1120h-296v869h-235q0 -175 -8.5 -307t-28 -230t-48 -163.5t-70 -105.5t-91.5 -56.5t-117 -16.5q-101 0 -183 26z" />
<glyph unicode="&#x43c;" horiz-adv-x="1344" d="M119 0v1120h299l252 -448l257 448h299v-1120h-297v666l-261 -443l-259 439v-662h-290z" />
<glyph unicode="&#x43d;" horiz-adv-x="1154" d="M119 0v1120h297v-435h324v435h296v-1120h-296v435h-324v-435h-297z" />
<glyph unicode="&#x43e;" horiz-adv-x="1206" d="M75 546v22q0 123 40.5 229t110.5 181t168.5 117.5t211.5 42.5q112 0 209.5 -42t167 -116t109.5 -180t40 -230v-22q0 -123 -40 -229.5t-110 -181.5t-168.5 -117.5t-211.5 -42.5q-112 0 -210 42t-167.5 116.5t-109.5 180.5t-40 230zM367 548q0 -137 66.5 -225.5 t172.5 -88.5t168.5 85.5t62.5 223.5v25q0 139 -65 226t-170 87q-108 0 -171.5 -85.5t-63.5 -223.5v-24z" />
<glyph unicode="&#x43f;" horiz-adv-x="1150" d="M119 0v1120h911v-1120h-297v869h-317v-869h-297z" />
<glyph unicode="&#x440;" horiz-adv-x="1226" d="M119 -315v1435h297v-155q55 80 128 127.5t175 47.5q86 0 161.5 -35t135.5 -102.5t95 -177.5t35 -249v-33q0 -139 -34.5 -249t-94.5 -177.5t-136 -102t-162 -34.5q-54 0 -100.5 13t-83.5 37.5t-64.5 50.5t-54.5 61v-457h-297zM414 548q0 -140 61.5 -225t154.5 -85 q95 0 159 84.5t64 225.5v24q0 139 -64 224t-159 85q-93 0 -154.5 -84.5t-61.5 -224.5v-24z" />
<glyph unicode="&#x441;" horiz-adv-x="1012" d="M75 546v22q0 123 39 229t107 181t164 117.5t207 42.5q123 0 206 -34t153 -105l-134 -222q-51 49 -101 73.5t-116 24.5q-101 0 -166 -84t-65 -219v-24q0 -140 66 -223.5t175 -83.5q61 0 112 24.5t105 73.5l130 -205q-76 -78 -161 -117.5t-210 -39.5q-147 0 -263.5 72.5 t-182 202t-65.5 294.5z" />
<glyph unicode="&#x442;" horiz-adv-x="919" d="M28 865v255h861v-255h-279v-865h-301v865h-281z" />
<glyph unicode="&#x443;" horiz-adv-x="1104" d="M36 1120h309l211 -748l209 748h305l-376 -1130q-57 -167 -134.5 -239t-212.5 -72q-140 0 -255 64l88 221q67 -39 129 -39q36 0 61.5 16.5t43.5 56.5z" />
<glyph unicode="&#x444;" horiz-adv-x="1668" d="M80 572q0 138 28.5 245.5t81 176.5t123.5 104.5t157 35.5q66 0 123 -31t92 -75v435h299v-435q34 44 91.5 75t124.5 31q86 0 157 -35.5t123 -104.5t81 -176.5t29 -245.5v-29q0 -138 -29 -245t-81 -175t-122.5 -102.5t-155.5 -34.5q-70 0 -128 26.5t-90 67.5v-395h-299v395 q-33 -42 -90.5 -68t-126.5 -26q-84 0 -154 35.5t-123 106t-82 184t-29 260.5zM376 546q0 -147 49.5 -227.5t144.5 -80.5q62 0 115 57v526q-56 56 -115 56q-94 0 -144 -82t-50 -227v-22zM984 295q27 -29 53.5 -43t61.5 -14q94 0 144 81t50 227v22q0 145 -50 227t-144 82 q-34 0 -60.5 -14t-54.5 -42v-526z" />
<glyph unicode="&#x445;" horiz-adv-x="1077" d="M38 0l336 570l-324 550h313l178 -328l178 328h307l-326 -546l338 -574h-315l-189 351l-187 -351h-309z" />
<glyph unicode="&#x446;" horiz-adv-x="1184" d="M119 0v1120h297v-863h317v863h297v-863h128l-34 -493h-249v236h-756z" />
<glyph unicode="&#x447;" horiz-adv-x="1112" d="M92 677v443h299v-355q0 -97 37.5 -139t97.5 -42q89 0 172 44v492h296v-1120h-296v391q-50 -26 -123 -44.5t-147 -18.5q-72 0 -132 21t-106 62.5t-72 109.5t-26 156z" />
<glyph unicode="&#x448;" horiz-adv-x="1720" d="M119 0v1120h297v-863h296v863h297v-863h297v863h296v-1120h-1483z" />
<glyph unicode="&#x449;" horiz-adv-x="1756" d="M119 0v1120h297v-863h296v863h297v-863h295v863h298v-863h128l-34 -493h-249v236h-1328z" />
<glyph unicode="&#x44a;" horiz-adv-x="1188" d="M28 865v255h536v-372h194q183 0 289 -99.5t106 -272.5q0 -90 -31.5 -162t-86 -118.5t-127.5 -71t-158 -24.5h-483v865h-239zM564 232h144q68 0 107.5 39.5t39.5 106.5q0 74 -39.5 111t-109.5 37h-142v-294z" />
<glyph unicode="&#x44b;" horiz-adv-x="1545" d="M119 0v1120h297v-372h194q183 0 289 -99.5t106 -272.5q0 -90 -31.5 -162t-86 -118.5t-127.5 -71t-158 -24.5h-483zM416 232h144q68 0 107 39.5t39 106.5q0 74 -39 111t-109 37h-142v-294zM1130 0v1120h297v-1120h-297z" />
<glyph unicode="&#x44c;" horiz-adv-x="1039" d="M119 0v1120h297v-372h194q183 0 289 -99.5t106 -272.5q0 -90 -31.5 -162t-86 -118.5t-127.5 -71t-158 -24.5h-483zM416 232h144q68 0 107 39.5t39 106.5q0 74 -39 111t-109 37h-142v-294z" />
<glyph unicode="&#x44d;" horiz-adv-x="1018" d="M46 125l129 205q49 -42 104.5 -65.5t107.5 -23.5q98 0 164.5 54.5t92.5 155.5h-329v215h329q-25 106 -89 159.5t-156 53.5q-118 0 -215 -83l-115 205q65 56 154.5 95.5t192.5 39.5q113 0 210.5 -42t167 -116t109 -180t39.5 -230v-18q0 -165 -65 -296t-182 -204t-265 -73 q-126 0 -218.5 38t-165.5 110z" />
<glyph unicode="&#x44e;" horiz-adv-x="1626" d="M119 0v1120h297v-435h132q33 204 169 328.5t330 124.5q145 0 260.5 -72t180 -203t64.5 -297v-18q0 -165 -64.5 -295.5t-180.5 -203t-263 -72.5q-194 0 -330 124.5t-166 330.5h-132v-432h-297zM831 558q0 -146 59.5 -236t156.5 -90q99 0 156 88.5t57 237.5q0 145 -60 234 t-156 89q-99 0 -156 -88t-57 -235z" />
<glyph unicode="&#x44f;" horiz-adv-x="1114" d="M30 0l247 422q-202 90 -202 326q0 80 22.5 144t61.5 106t94.5 70t119.5 40t139 12h485v-1120h-297v365h-132l-203 -365h-335zM372 733q0 -71 42 -110t114 -39h172v301h-52h-3q-51 0 -75 -0.5t-63 -4.5t-57.5 -13.5t-39.5 -26t-29.5 -43.5t-8.5 -64z" />
<glyph unicode="&#x451;" horiz-adv-x="1114" d="M73 546v20q0 164 63 295t175.5 204t252.5 73q94 0 172 -29.5t134 -83t94.5 -127.5t57 -163t18.5 -189q0 -58 -4 -99h-669q20 -112 83.5 -168t159.5 -56q72 0 129.5 24.5t119.5 80.5l133 -180q-155 -171 -392 -171q-112 0 -208.5 40.5t-167 113.5t-111 180t-40.5 235z M221 1245v262h281v-262h-281zM365 646h389q-10 118 -59 184.5t-131 66.5q-81 0 -133 -65.5t-66 -185.5zM640 1245v262h279v-262h-279z" />
<glyph unicode="&#x452;" horiz-adv-x="1148" d="M6 1149v224h113v136h297v-136h317v-224h-317v-242q27 37 53 65t61 53.5t79 39t95 13.5q158 0 245 -102t87 -276v-379q0 -331 -330 -331q-59 0 -126 10v234q19 -4 53 -4q107 0 107 117v265q0 96 -42 147.5t-118 51.5t-120 -51.5t-44 -147.5v-612h-297v1149h-113z" />
<glyph unicode="&#x453;" horiz-adv-x="865" d="M119 0v1120h718v-255h-421v-865h-297zM323 1238l227 368l246 -113l-259 -255h-214z" />
<glyph unicode="&#x454;" horiz-adv-x="1018" d="M78 550v18q0 124 39.5 230t109 180t167 116t210.5 42q103 0 192.5 -39.5t154.5 -95.5l-116 -205q-97 83 -215 83q-92 0 -155.5 -53.5t-88.5 -159.5h328v-215h-328q26 -101 92.5 -155.5t164.5 -54.5q52 0 107 23.5t104 65.5l129 -205q-73 -72 -165 -110t-218 -38 q-148 0 -265 73t-182 204t-65 296z" />
<glyph unicode="&#x455;" horiz-adv-x="911" d="M48 113l96 220q165 -116 309 -116q58 0 89.5 23t31.5 61v4q0 13 -4 24.5t-15 22t-21.5 18.5t-31 19t-35.5 18t-44.5 21t-48.5 23q-50 22 -86 41.5t-77.5 50.5t-67 64.5t-42.5 82t-17 104.5v4q0 104 51 182t137 117t194 39q90 0 180.5 -26t168.5 -74l-86 -225 q-152 88 -263 88q-52 0 -80.5 -21t-28.5 -55v-4q0 -12 4 -22.5t15 -21t21 -19t31 -20t36 -19.5t44 -23.5t48 -25.5q39 -20 64.5 -33.5t59 -35t55 -39.5t44.5 -44t36 -52.5t22 -60.5t9 -73v-5q0 -111 -53 -190.5t-140 -117t-200 -37.5q-103 0 -208.5 33.5t-196.5 99.5z" />
<glyph unicode="&#x456;" horiz-adv-x="556" d="M125 1238v271h310v-271h-310zM130 0v1120h296v-1120h-296z" />
<glyph unicode="&#x457;" horiz-adv-x="556" d="M-69 1245v262h280v-262h-280zM130 0v1120h296v-1120h-296zM349 1245v262h279v-262h-279z" />
<glyph unicode="&#x458;" horiz-adv-x="558" d="M-28 -78q19 -4 54 -4q106 0 106 118v1084h296v-1110q0 -331 -330 -331q-59 0 -126 10v233zM125 1238v271h310v-271h-310z" />
<glyph unicode="&#x459;" horiz-adv-x="1685" d="M-16 16l39 241q7 -4 32 -7t39 -3q28 0 47.5 10.5t39 41t31.5 90.5t22 155.5t14.5 238.5t4.5 337h808v-372h195q182 0 288 -99.5t106 -272.5q0 -90 -31 -162t-85.5 -118.5t-127.5 -71t-159 -24.5h-482v869h-235q0 -175 -8.5 -307t-28 -230t-48 -163.5t-70 -105.5 t-91.5 -56.5t-117 -16.5q-101 0 -183 26zM1061 232h145q68 0 107 39.5t39 106.5q0 74 -39 111t-109 37h-143v-294z" />
<glyph unicode="&#x45a;" horiz-adv-x="1660" d="M119 0v1120h297v-372h324v372h296v-372h194q183 0 289 -99.5t106 -272.5q0 -90 -31 -162t-86 -118.5t-128 -71t-158 -24.5h-482v497h-324v-497h-297zM1036 232h144q69 0 107.5 39.5t38.5 106.5q0 74 -39 111t-109 37h-142v-294z" />
<glyph unicode="&#x45b;" horiz-adv-x="1148" d="M6 1149v224h113v136h297v-136h317v-224h-317v-242q27 37 53 65t61 53.5t79 39t95 13.5q158 0 245 -102t87 -276v-700h-296v612q0 96 -42 147.5t-118 51.5t-120 -51.5t-44 -147.5v-612h-297v1149h-113z" />
<glyph unicode="&#x45c;" horiz-adv-x="1116" d="M119 0v1120h297v-458l328 458h334l-347 -464l383 -656h-343l-241 426l-114 -147v-279h-297zM426 1238l226 368l247 -113l-259 -255h-214z" />
<glyph unicode="&#x45e;" horiz-adv-x="1104" d="M36 1120h309l211 -748l209 748h305l-376 -1130q-57 -167 -134.5 -239t-212.5 -72q-140 0 -255 64l88 221q67 -39 129 -39q36 0 61.5 16.5t43.5 56.5zM241 1515l168 28q14 -60 51.5 -94.5t95.5 -34.5q56 0 93 34.5t53 94.5l167 -28q-19 -141 -102 -217t-211 -76 q-130 0 -213 76t-102 217z" />
<glyph unicode="&#x45f;" horiz-adv-x="1150" d="M119 0v1120h297v-863h317v863h297v-1120h-316v-236h-275v236h-320z" />
<glyph unicode="&#x490;" horiz-adv-x="1062" d="M146 0v1463h585v273h249l37 -550h-570v-1186h-301z" />
<glyph unicode="&#x491;" horiz-adv-x="865" d="M119 0v1120h437v238h248l33 -493h-421v-865h-297z" />
<glyph unicode="&#x2000;" horiz-adv-x="967" />
<glyph unicode="&#x2001;" horiz-adv-x="1934" />
<glyph unicode="&#x2002;" horiz-adv-x="967" />
<glyph unicode="&#x2003;" horiz-adv-x="1934" />
<glyph unicode="&#x2004;" horiz-adv-x="644" />
<glyph unicode="&#x2005;" horiz-adv-x="483" />
<glyph unicode="&#x2006;" horiz-adv-x="322" />
<glyph unicode="&#x2007;" horiz-adv-x="322" />
<glyph unicode="&#x2008;" horiz-adv-x="241" />
<glyph unicode="&#x2009;" horiz-adv-x="386" />
<glyph unicode="&#x200a;" horiz-adv-x="107" />
<glyph unicode="&#x2010;" horiz-adv-x="805" d="M96 504v288h612v-288h-612z" />
<glyph unicode="&#x2011;" horiz-adv-x="805" d="M96 504v288h612v-288h-612z" />
<glyph unicode="&#x2012;" horiz-adv-x="805" d="M96 504v288h612v-288h-612z" />
<glyph unicode="&#x2013;" horiz-adv-x="1056" d="M96 508v279h863v-279h-863z" />
<glyph unicode="&#x2014;" horiz-adv-x="1735" d="M96 508v279h1542v-279h-1542z" />
<glyph unicode="&#x2018;" horiz-adv-x="556" d="M108 813v267q0 193 92 288t272 103l25 -122q-106 -14 -155 -72t-41 -145h129v-319h-322z" />
<glyph unicode="&#x2019;" horiz-adv-x="556" d="M60 925q107 15 156 72.5t41 144.5h-129v321h323v-269q0 -192 -92.5 -287t-272.5 -103z" />
<glyph unicode="&#x201a;" horiz-adv-x="574" d="M56 -215q111 15 161 71.5t42 143.5h-129v319h323v-267q0 -191 -93.5 -286t-279.5 -105z" />
<glyph unicode="&#x201c;" horiz-adv-x="1048" d="M108 813v267q0 193 92 288t272 103l25 -122q-106 -14 -155 -72t-41 -145h129v-319h-322zM598 813v267q0 192 92.5 287.5t272.5 103.5l25 -122q-106 -14 -155 -72t-41 -145h129v-319h-323z" />
<glyph unicode="&#x201d;" horiz-adv-x="1048" d="M60 925q107 15 156 72.5t41 144.5h-129v321h323v-269q0 -192 -92.5 -287t-272.5 -103zM552 925q106 15 155 72.5t41 144.5h-130v321h324v-269q0 -192 -92.5 -287t-273.5 -103z" />
<glyph unicode="&#x201e;" horiz-adv-x="1071" d="M56 -215q111 15 161 71.5t42 143.5h-129v319h323v-267q0 -191 -93.5 -286t-279.5 -105zM552 -215q112 15 162 71.5t42 143.5h-130v319h325v-267q0 -191 -94 -286t-281 -105z" />
<glyph unicode="&#x2020;" horiz-adv-x="747" d="M88 1040v172l219 -24l-30 275h191l-29 -275l219 24v-172l-221 21l23 -564h-173l22 564z" />
<glyph unicode="&#x2021;" horiz-adv-x="787" d="M108 249v171l220 -23l-23 334l23 330l-220 -21v172l220 -24l-29 275h190l-29 -275l219 24v-172l-221 21l22 -330l-22 -334l221 23v-171l-219 20l29 -269h-190l29 269z" />
<glyph unicode="&#x2022;" horiz-adv-x="949" d="M188 731v13q0 131 83 218t203 87q122 0 205.5 -87t83.5 -218v-13q0 -133 -83 -220t-206 -87q-121 0 -203.5 87t-82.5 220z" />
<glyph unicode="&#x2026;" horiz-adv-x="1687" d="M121 0v315h318v-315h-318zM685 0v315h318v-315h-318zM1250 0v315h317v-315h-317z" />
<glyph unicode="&#x202f;" horiz-adv-x="386" />
<glyph unicode="&#x2030;" horiz-adv-x="2330" d="M82 1090v13q0 106 39.5 191t113 134t166.5 49q140 0 229 -104.5t89 -265.5v-15q0 -161 -90.5 -267t-231.5 -106q-140 0 -227.5 105t-87.5 266zM221 0l953 1463h219l-952 -1463h-220zM285 1092q0 -86 32 -137.5t84 -51.5q53 0 82 50.5t29 136.5v13q0 86 -31.5 138 t-83.5 52q-53 0 -82.5 -51t-29.5 -137v-13zM895 355v12q0 106 39.5 191.5t113 134.5t166.5 49q140 0 229.5 -104.5t89.5 -265.5v-15q0 -161 -90 -266t-231 -105q-140 0 -228.5 104t-88.5 265zM1099 357q0 -86 31.5 -138t83.5 -52q53 0 82.5 51t29.5 137v12q0 87 -31 139 t-83 52q-53 0 -83 -51.5t-30 -137.5v-12zM1613 355v12q0 106 39.5 191.5t113 134.5t166.5 49q140 0 229 -104.5t89 -265.5v-15q0 -161 -90.5 -266t-231.5 -105q-140 0 -227.5 104t-87.5 265zM1818 357q0 -86 31 -138t83 -52q53 0 83 51t30 137v12q0 86 -32.5 138.5 t-84.5 52.5q-53 0 -81.5 -51t-28.5 -138v-12z" />
<glyph unicode="&#x2039;" horiz-adv-x="714" d="M75 552v16l328 468l227 -115l-256 -359l259 -359l-230 -119z" />
<glyph unicode="&#x203a;" horiz-adv-x="714" d="M82 201l261 359l-259 357l227 119l331 -468v-16l-331 -468z" />
<glyph unicode="&#x2044;" horiz-adv-x="943" d="M-125 -203l888 1788h263l-888 -1788h-263z" />
<glyph unicode="&#x205f;" horiz-adv-x="483" />
<glyph unicode="&#x20ac;" horiz-adv-x="1288" d="M82 460v202h141v147h-141v202h175q57 224 201 349t349 125q97 0 175.5 -26t130.5 -66.5t103 -103.5l-169 -207q-57 67 -111.5 98.5t-126.5 31.5q-171 0 -239 -201h333v-202h-373q-2 -21 -2 -67v-19q0 -41 2 -61h373v-202h-337q66 -209 253 -209q70 0 123 31.5t117 102.5 l161 -195q-84 -105 -182.5 -159t-233.5 -54q-210 0 -353.5 126.5t-197.5 356.5h-171z" />
<glyph unicode="&#x2122;" horiz-adv-x="1278" d="M46 1333v130h460v-130h-157v-520h-144v520h-159zM620 813v650h151l142 -257l140 257h149v-650h-137v423l-150 -271h-8l-149 271v-423h-138z" />
<glyph unicode="&#x2202;" d="M0 0v1463h1044v-1463h-1044zM102 201l358 530l-358 531v-1061zM169 102h708l-355 533zM169 1358l353 -533l355 533h-708zM582 731l358 -530v1061z" />
<glyph unicode="&#x2206;" horiz-adv-x="1332" d="M36 0l492 1463h279l490 -1463h-1261zM437 271h448l-223 728z" />
<glyph unicode="&#x220f;" d="M0 0v1463h1044v-1463h-1044zM102 201l358 530l-358 531v-1061zM169 102h708l-355 533zM169 1358l353 -533l355 533h-708zM582 731l358 -530v1061z" />
<glyph unicode="&#x2211;" d="M0 0v1463h1044v-1463h-1044zM102 201l358 530l-358 531v-1061zM169 102h708l-355 533zM169 1358l353 -533l355 533h-708zM582 731l358 -530v1061z" />
<glyph unicode="&#x221a;" horiz-adv-x="1190" d="M-23 482v205h310l193 -455l539 1435h235l-750 -1934l-345 749h-182z" />
<glyph unicode="&#x221e;" d="M0 0v1463h1044v-1463h-1044zM102 201l358 530l-358 531v-1061zM169 102h708l-355 533zM169 1358l353 -533l355 533h-708zM582 731l358 -530v1061z" />
<glyph unicode="&#x222b;" d="M0 0v1463h1044v-1463h-1044zM102 201l358 530l-358 531v-1061zM169 102h708l-355 533zM169 1358l353 -533l355 533h-708zM582 731l358 -530v1061z" />
<glyph unicode="&#x2248;" horiz-adv-x="1158" d="M108 311q31 153 99.5 238.5t177.5 85.5q56 0 202.5 -40.5t172.5 -40.5q54 0 89 23t54 75l146 -44q-32 -155 -98.5 -239t-177.5 -84q-56 0 -204 40t-174 40q-47 0 -84.5 -24t-57.5 -74zM108 846q31 152 99.5 238t177.5 86q56 0 202.5 -41t172.5 -41q54 0 89 23.5t54 74.5 l146 -44q-32 -154 -98.5 -238.5t-177.5 -84.5q-56 0 -204 41t-174 41q-47 0 -84.5 -25t-57.5 -74z" />
<glyph unicode="&#x2260;" horiz-adv-x="1158" d="M96 104l140 231h-123v277h294l151 247h-445v277h616l138 226h186l-138 -226h132v-277h-303l-150 -247h453v-277h-625l-140 -231h-186z" />
<glyph unicode="&#x2264;" d="M0 0v1463h1044v-1463h-1044zM102 201l358 530l-358 531v-1061zM169 102h708l-355 533zM169 1358l353 -533l355 533h-708zM582 731l358 -530v1061z" />
<glyph unicode="&#x2265;" d="M0 0v1463h1044v-1463h-1044zM102 201l358 530l-358 531v-1061zM169 102h708l-355 533zM169 1358l353 -533l355 533h-708zM582 731l358 -530v1061z" />
<glyph unicode="&#x25ca;" horiz-adv-x="1158" d="M42 744l384 817h266l388 -817l-388 -817h-268zM343 744l217 -523l219 523l-219 520z" />
<glyph unicode="&#x25fc;" horiz-adv-x="1116" d="M0 0v1118h1118v-1118h-1118z" />
<glyph unicode="&#xf8ff;" d="M0 0v1463h1044v-1463h-1044zM102 201l358 530l-358 531v-1061zM169 102h708l-355 533zM169 1358l353 -533l355 533h-708zM582 731l358 -530v1061z" />
</font>
</defs>
</svg>
