<?xml version="1.0" standalone="no"?>
<!DOCTYPE svg PUBLIC "-//W3C//DTD SVG 1.1//EN" "http://www.w3.org/Graphics/SVG/1.1/DTD/svg11.dtd" >
<svg xmlns="http://www.w3.org/2000/svg">
<metadata></metadata>
<defs>
<font id="gotham_promedium" horiz-adv-x="1054" >
<font-face units-per-em="2048" ascent="1638" descent="-410" />
<missing-glyph horiz-adv-x="632" />
<glyph unicode="&#xfb01;" horiz-adv-x="1395" d="M76 894v213h141v81q0 185 91 276q89 88 251 88q107 0 206 -29v-215q-82 27 -149 27q-74 0 -110.5 -41t-36.5 -127v-62h294v-211h-290v-894h-256v894h-141zM958 1284v243h274v-243h-274zM968 0v1113h256v-1113h-256z" />
<glyph unicode="&#xfb02;" horiz-adv-x="1395" d="M76 894v213h141v81q0 185 91 276q89 88 251 88q107 0 206 -29v-215q-82 27 -149 27q-74 0 -110.5 -41t-36.5 -127v-62h294v-211h-290v-894h-256v894h-141zM968 0v1540h256v-1540h-256z" />
<glyph horiz-adv-x="0" />
<glyph horiz-adv-x="682" />
<glyph unicode=" "  horiz-adv-x="632" />
<glyph unicode="&#x09;" horiz-adv-x="632" />
<glyph unicode="&#xa0;" horiz-adv-x="632" />
<glyph unicode="!" horiz-adv-x="636" d="M169 1403v74h300v-74l-79 -936h-141zM179 0v289h280v-289h-280z" />
<glyph unicode="&#x22;" horiz-adv-x="1026" d="M127 846l48 631h290v-11l-205 -620h-133zM588 846l52 631h288v-11l-207 -620h-133z" />
<glyph unicode="#" horiz-adv-x="1475" d="M82 340v219h228l61 367h-210v219h248l58 332h225l-58 -332h347l55 332h226l-58 -332h189v-219h-226l-62 -367h211v-219h-249l-59 -340h-225l59 340h-347l-56 -340h-226l59 340h-190zM534 559h346l62 367h-345z" />
<glyph unicode="$" horiz-adv-x="1353" d="M103 213l135 192q63 -51 120 -86t121 -60t131 -35v413q-119 30 -201.5 68t-139.5 90t-83.5 120.5t-26.5 157.5q0 169 124 278.5t325 125.5v122h171v-126q222 -27 402 -161l-118 -199q-138 104 -286 135v-400q241 -61 349 -164t108 -275q0 -170 -125.5 -279.5 t-329.5 -127.5v-209h-171v211q-138 16 -267.5 69.5t-237.5 139.5zM407 1085q0 -35 9 -60.5t31.5 -50t62.5 -44.5t100 -38v372q-98 -8 -150.5 -56.5t-52.5 -122.5zM777 215q66 5 112.5 28.5t71 63t24.5 92.5q0 73 -44.5 118t-163.5 80v-382z" />
<glyph unicode="%" horiz-adv-x="1790" d="M101 1115q0 77 25.5 146t70.5 120.5t111.5 82t142.5 30.5q101 0 181 -51.5t122.5 -137.5t42.5 -190q0 -102 -43 -187.5t-124 -137t-183 -51.5q-101 0 -181 51t-122.5 136.5t-42.5 188.5zM251 0l1080 1477h209l-1081 -1477h-208zM289 1115q0 -91 46 -153t116 -62 q48 0 84.5 29.5t55.5 78t19 107.5q0 91 -46.5 153.5t-116.5 62.5q-72 0 -115 -62t-43 -154zM994 360q0 77 25.5 146t70.5 120.5t111.5 82t142.5 30.5q101 0 180.5 -51.5t122 -137.5t42.5 -190q0 -102 -43 -187.5t-124 -137t-183 -51.5q-101 0 -180.5 51t-122 136.5 t-42.5 188.5zM1181 360q0 -91 46.5 -153t116.5 -62q72 0 115 62t43 153t-46.5 153.5t-116.5 62.5q-72 0 -115 -62t-43 -154z" />
<glyph unicode="&#x26;" horiz-adv-x="1467" d="M82 405q0 280 315 414q-43 54 -70 103.5t-40 101t-13 107.5q0 75 29.5 142t83 118t134.5 81t177 30q115 0 205 -48t139 -130t49 -183q0 -138 -85 -231.5t-241 -152.5l254 -257q82 122 158 285l196 -103q-102 -206 -200 -338l232 -237l-192 -137l-196 201 q-205 -192 -454 -192q-136 0 -245 52t-172.5 149.5t-63.5 224.5zM344 409q0 -94 69.5 -154.5t176.5 -60.5q144 0 279 128l-329 336q-67 -28 -111.5 -68.5t-64.5 -85t-20 -95.5zM517 1115q0 -55 24.5 -102.5t86.5 -116.5q117 42 175 98.5t58 136.5q0 74 -47 120.5t-122 46.5 q-78 0 -126.5 -51t-48.5 -132z" />
<glyph unicode="'" horiz-adv-x="566" d="M127 846l48 631h294v-11l-207 -620h-135z" />
<glyph unicode="(" horiz-adv-x="928" d="M133 606q0 296 146.5 519t437.5 383l112 -171q-228 -151 -334.5 -325t-106.5 -406.5t106.5 -407t334.5 -325.5l-112 -171q-291 160 -437.5 384t-146.5 520z" />
<glyph unicode=")" horiz-adv-x="928" d="M101 -127q228 151 334.5 325.5t106.5 407.5q0 156 -48.5 285t-144.5 237t-248 209l112 171q291 -160 437.5 -383.5t146.5 -519t-147 -519t-437 -384.5z" />
<glyph unicode="*" horiz-adv-x="906" d="M123 1038l240 105l-240 105l76 129l210 -153l-29 257h147l-30 -257l212 153l76 -129l-241 -105l241 -105l-76 -129l-212 154l30 -258h-147l29 258l-210 -154z" />
<glyph unicode="+" horiz-adv-x="1349" d="M149 626v233h406v403h240v-403h405v-233h-405v-402h-240v402h-406z" />
<glyph unicode="," horiz-adv-x="566" d="M72 -199q181 36 181 175q0 4 -1 12t-1 12h-108v289h281v-245q0 -171 -80.5 -254t-244.5 -96z" />
<glyph unicode="-" horiz-adv-x="860" d="M118 521v251h625v-251h-625z" />
<glyph unicode="." horiz-adv-x="566" d="M143 0v289h281v-289h-281z" />
<glyph unicode="/" horiz-adv-x="1099" d="M-53 -270l953 1953h223l-954 -1953h-222z" />
<glyph unicode="0" horiz-adv-x="1526" d="M121 739q0 157 46.5 297t129.5 243t204.5 163t263.5 60t263 -59.5t203.5 -162t129 -243t46.5 -298.5t-47 -298t-130 -243t-204.5 -163.5t-264 -60.5t-263.5 59.5t-203 162.5t-128 243t-46 300zM388 739q0 -147 46 -267t132.5 -191.5t198.5 -71.5t198 71t131 190.5 t45 268.5q0 145 -46.5 265.5t-133.5 192t-198 71.5t-196.5 -70.5t-131 -190.5t-45.5 -268z" />
<glyph unicode="1" horiz-adv-x="835" d="M55 1361l396 126h181v-1487h-256v1224l-267 -75z" />
<glyph unicode="2" horiz-adv-x="1292" d="M103 0v205l509 432q155 131 215.5 216.5t60.5 182.5q0 106 -67 168t-171 62q-97 0 -174.5 -52.5t-167.5 -169.5l-183 144q44 62 85 108.5t90.5 86t103.5 64t120 38t144 13.5q144 0 254.5 -55t172 -156.5t61.5 -233.5q0 -58 -10 -107.5t-33 -97t-51 -87.5t-75.5 -88.5 t-94.5 -90t-120 -101.5l-303 -253h702v-228h-1068z" />
<glyph unicode="3" horiz-adv-x="1302" d="M91 234l181 169q82 -97 175 -145.5t213 -48.5q111 0 183.5 62.5t72.5 165.5q0 71 -42 123t-118.5 78t-179.5 26h-121l-42 163l399 423h-639v227h976v-195l-410 -421q72 -10 134.5 -30.5t118.5 -55.5t95.5 -81t62.5 -111t23 -142q0 -135 -65 -241t-183 -166t-269 -60 q-352 0 -565 260z" />
<glyph unicode="4" horiz-adv-x="1435" d="M76 517l820 970h222v-943h211v-212h-211v-332h-249v332h-744zM384 544h485v585z" />
<glyph unicode="5" horiz-adv-x="1311" d="M99 201l161 187q192 -177 380 -177q133 0 212.5 70.5t79.5 189.5q0 111 -85 177.5t-221 66.5q-134 0 -272 -65l-155 103l41 724h883v-231h-658l-24 -346q115 42 234 42q109 0 201.5 -29t162.5 -85.5t109.5 -147t39.5 -205.5q0 -149 -68.5 -263t-192.5 -176t-285 -62 q-310 0 -543 227z" />
<glyph unicode="6" horiz-adv-x="1383" d="M121 698q0 137 25 257.5t77 220.5t126.5 172.5t177.5 113t226 40.5q137 0 242.5 -41.5t208.5 -123.5l-139 -200q-84 66 -157 97.5t-163 31.5q-107 0 -186 -61.5t-120.5 -166t-48.5 -241.5q33 32 65 56t75 46.5t96.5 34.5t116.5 12q108 0 202 -32t164 -90t110.5 -147.5 t40.5 -199.5q0 -144 -72.5 -259.5t-198 -179.5t-278.5 -64q-255 0 -409 155q-91 91 -136 222t-45 347zM399 465q0 -115 84.5 -190.5t221.5 -75.5q135 0 215 76t80 196q0 112 -83 184.5t-219 72.5q-134 0 -216.5 -76t-82.5 -187z" />
<glyph unicode="7" horiz-adv-x="1284" d="M143 1248v229h1038v-197l-666 -1280h-291l662 1248h-743z" />
<glyph unicode="8" horiz-adv-x="1328" d="M101 405q0 130 68 218t198 142q-216 112 -216 334q0 83 39 157t106.5 127t163 84t204.5 31q146 0 263.5 -52t183.5 -144.5t66 -206.5q0 -218 -215 -330q129 -59 197.5 -144.5t68.5 -213.5q0 -129 -74 -227t-201 -149.5t-289 -51.5q-160 0 -288 52.5t-201.5 150 t-73.5 223.5zM354 418q0 -94 85 -158t225 -64q142 0 226 64.5t84 161.5q0 50 -23.5 92t-65 71t-98.5 45t-123 16q-87 0 -157.5 -27.5t-111.5 -80t-41 -120.5zM401 1071q0 -96 74.5 -157.5t189 -61.5t189 62t74.5 159q0 88 -73.5 147.5t-190.5 59.5t-190 -60t-73 -149z" />
<glyph unicode="9" horiz-adv-x="1383" d="M125 992q0 107 40 201.5t111.5 162t174.5 107t224 39.5q136 0 233 -38.5t177 -117.5q87 -87 133 -221.5t46 -345.5q0 -178 -43.5 -326.5t-124 -254.5t-200 -165t-266.5 -59q-144 0 -256 46t-215 131l141 199q57 -48 109 -78t108.5 -45.5t119.5 -15.5q106 0 186 59.5 t123.5 163.5t47.5 241q-130 -156 -346 -156q-156 0 -274.5 57.5t-183.5 165t-65 250.5zM384 1000q0 -117 83 -190.5t219 -73.5t217.5 78t81.5 192q0 39 -10 74t-28.5 65.5t-45.5 55t-61 41.5t-75.5 26.5t-87.5 9.5q-135 0 -214 -78.5t-79 -199.5z" />
<glyph unicode=":" horiz-adv-x="588" d="M154 0v289h281v-289h-281zM154 825v288h281v-288h-281z" />
<glyph unicode=";" horiz-adv-x="588" d="M82 -199q182 36 182 175q0 4 -1 12t-1 12h-108v289h281v-245q0 -171 -81 -254t-245 -96zM154 825v288h281v-288h-281z" />
<glyph unicode="&#x3c;" horiz-adv-x="1349" d="M147 628v228l1007 467v-243l-753 -335l753 -338v-244z" />
<glyph unicode="=" horiz-adv-x="1349" d="M181 360v237h988v-237h-988zM181 888v237h988v-237h-988z" />
<glyph unicode="&#x3e;" horiz-adv-x="1349" d="M196 163v242l754 336l-754 337v245l1006 -467v-228z" />
<glyph unicode="?" horiz-adv-x="1140" d="M50 1262q207 234 509 234q224 0 359 -117t135 -316q0 -78 -22 -142.5t-60 -111t-92.5 -82t-116 -57t-134.5 -33.5l-20 -170h-171l-43 341l11 11q197 7 293.5 68.5t96.5 171.5q0 59 -28.5 104.5t-83.5 71t-130 25.5q-187 0 -344 -167zM376 0v289h282v-289h-282z" />
<glyph unicode="@" horiz-adv-x="2067" d="M112 578q0 124 33 243t92 220.5t143.5 187t186 145.5t222 94t247.5 34t247.5 -32t221 -88t185 -134.5t142.5 -170.5t90.5 -197.5t32.5 -213.5q0 -128 -33 -230.5t-90 -165.5t-130 -96t-156 -33q-115 0 -193.5 41.5t-118.5 106.5q-144 -148 -327 -148q-78 0 -148 28.5 t-122 79.5t-82 126.5t-30 164.5q0 108 40.5 207t107 168.5t153.5 110.5t178 41q197 0 298 -155l25 126l205 -32l-93 -531q-11 -70 -11 -91q0 -68 44 -109t120 -41q57 0 107 27.5t89 79.5t61.5 136t22.5 189q0 83 -21 164.5t-61.5 155.5t-96 140.5t-127.5 120t-154.5 93 t-178.5 60.5t-197 21t-197.5 -22t-179.5 -63.5t-155.5 -99.5t-128.5 -131t-96.5 -156.5t-61.5 -178t-21 -192.5q0 -173 64 -327.5t175.5 -267.5t272 -179t345.5 -66q151 0 273 34.5t248 106.5l38 -62q-261 -159 -559 -159q-133 0 -257 33.5t-227 93t-188.5 144.5 t-144.5 186.5t-91.5 219.5t-32.5 243zM741 553q0 -107 61.5 -168t161.5 -61q76 0 143.5 45t108 122.5t40.5 166.5q0 101 -63 164.5t-159 63.5q-77 0 -144 -43t-108 -120.5t-41 -169.5z" />
<glyph unicode="A" horiz-adv-x="1665" d="M63 0l650 1487h241l649 -1487h-274l-150 356h-698l-152 -356h-266zM576 586h509l-256 591z" />
<glyph unicode="B" horiz-adv-x="1522" d="M190 0v1477h662q255 0 386 -131q99 -99 99 -249q0 -221 -210 -330q68 -23 119 -53t91.5 -72.5t61 -102t20.5 -134.5q0 -130 -68 -222t-190 -137.5t-288 -45.5h-683zM445 230h431q89 0 152 23t97.5 69.5t34.5 114.5q0 95 -76.5 146t-227.5 51h-411v-404zM445 854h354 q130 0 204.5 51.5t74.5 153.5q0 88 -67.5 137.5t-191.5 49.5h-374v-392z" />
<glyph unicode="C" horiz-adv-x="1556" d="M125 739q0 156 56.5 296t155.5 243t242 163.5t307 60.5q99 0 184 -16.5t155 -48.5t126 -71.5t113 -93.5l-166 -192q-63 59 -123 97.5t-135 62.5t-156 24q-139 0 -251 -70t-174 -190t-62 -265q0 -108 36.5 -204.5t100.5 -167.5t155 -112.5t195 -41.5q127 0 223.5 47 t200.5 145l167 -169q-61 -64 -121 -109.5t-132.5 -81t-158.5 -53.5t-187 -18q-159 0 -299 59.5t-239 161.5t-156 243.5t-57 300.5z" />
<glyph unicode="D" horiz-adv-x="1649" d="M190 0v1477h551q171 0 318 -56.5t249 -155t159.5 -234.5t57.5 -292q0 -155 -57.5 -291t-159.5 -234.5t-249.5 -156t-317.5 -57.5h-551zM449 236h292q114 0 210 37.5t162.5 103.5t103.5 159t37 203q0 107 -37 199.5t-103.5 159t-162.5 104.5t-210 38h-292v-1004z" />
<glyph unicode="E" horiz-adv-x="1413" d="M190 0v1477h1094v-233h-835v-383h741v-233h-741v-396h846v-232h-1105z" />
<glyph unicode="F" horiz-adv-x="1383" d="M190 0v1477h1099v-237h-840v-403h745v-235h-745v-602h-259z" />
<glyph unicode="G" horiz-adv-x="1653" d="M125 739q0 102 25.5 199.5t72.5 181.5t115.5 155t152 121t185 78t210.5 28q185 0 316.5 -49t250.5 -151l-164 -197q-95 80 -188.5 119.5t-224.5 39.5q-100 0 -189.5 -42t-153 -113t-100 -167.5t-36.5 -202.5q0 -152 61.5 -271.5t176.5 -188t263 -68.5q102 0 195 29.5 t163 81.5v277h-378v226h628v-620q-78 -67 -166 -116t-206.5 -82t-243.5 -33q-170 0 -314 58.5t-242.5 160.5t-153.5 243t-55 303z" />
<glyph unicode="H" horiz-adv-x="1602" d="M190 0v1477h259v-614h705v614h259v-1477h-259v622h-705v-622h-259z" />
<glyph unicode="I" horiz-adv-x="668" d="M205 0v1477h260v-1477h-260z" />
<glyph unicode="J" horiz-adv-x="1178" d="M44 217l171 175q69 -87 139 -130t159 -43q108 0 171 73.5t63 216.5v968h265v-975q0 -256 -136 -393q-130 -130 -359 -130q-299 0 -473 238z" />
<glyph unicode="K" horiz-adv-x="1528" d="M190 0v1477h259v-743l703 743h318l-614 -635l642 -842h-315l-504 664l-230 -236v-428h-259z" />
<glyph unicode="L" horiz-adv-x="1305" d="M190 0v1477h259v-1241h777v-236h-1036z" />
<glyph unicode="M" horiz-adv-x="1830" d="M190 0v1477h277l449 -698l449 698h276v-1477h-260v1059l-465 -696h-9l-462 692v-1055h-255z" />
<glyph unicode="N" horiz-adv-x="1665" d="M190 0v1477h241l791 -1022v1022h255v-1477h-217l-815 1051v-1051h-255z" />
<glyph unicode="O" horiz-adv-x="1792" d="M125 739q0 154 57.5 294t158 243.5t246 164.5t311.5 61q167 0 311.5 -60.5t244.5 -163.5t157.5 -243t57.5 -296q0 -124 -37 -239t-106 -210t-163 -166t-215 -110.5t-254 -39.5q-166 0 -310.5 60.5t-244.5 164t-157 243.5t-57 297zM397 739q0 -107 37.5 -203.5 t102.5 -167.5t159 -113t202 -42t201.5 41.5t158.5 112t102 167t37 205.5q0 106 -38 202.5t-103.5 167.5t-159.5 113t-202 42t-201.5 -41.5t-158 -112t-101 -167t-36.5 -204.5z" />
<glyph unicode="P" horiz-adv-x="1409" d="M190 0v1477h582q258 0 409.5 -135.5t151.5 -363.5q0 -97 -30.5 -179t-84 -141.5t-127.5 -101t-162 -61.5t-186 -20h-294v-475h-259zM449 709h302q96 0 168.5 33.5t111 94t38.5 139.5q0 128 -85 196t-233 68h-302v-531z" />
<glyph unicode="Q" horiz-adv-x="1792" d="M125 739q0 154 57.5 294t158 243.5t246 164.5t311.5 61q167 0 311.5 -60.5t244.5 -163.5t157.5 -243t57.5 -296q0 -125 -38.5 -241.5t-111.5 -213.5l168 -143l-166 -185l-177 158q-197 -140 -450 -140q-166 0 -310.5 60.5t-244.5 164t-157 243.5t-57 297zM397 739 q0 -107 37.5 -203.5t102.5 -167.5t159 -113t202 -42q141 0 254 71l-254 216l167 190l255 -233q77 119 77 282q0 106 -38 202.5t-103.5 167.5t-159.5 113t-202 42t-201.5 -41.5t-158 -112t-101 -167t-36.5 -204.5z" />
<glyph unicode="R" horiz-adv-x="1524" d="M190 0v1477h658q257 0 403 -127.5t146 -343.5q0 -175 -95 -288t-258 -159l399 -559h-306l-367 515h-321v-515h-259zM449 745h380q139 0 221.5 67.5t82.5 183.5q0 118 -80.5 181t-225.5 63h-378v-495z" />
<glyph unicode="S" horiz-adv-x="1349" d="M91 215l156 186q111 -96 222 -144t244 -48q120 0 190.5 51t70.5 139q0 55 -25.5 91.5t-98.5 70t-208 65.5q-101 24 -173 48.5t-135.5 60t-102 81t-60.5 108.5t-22 145q0 125 65 223t180 152t260 54q306 0 536 -186l-139 -197q-205 153 -401 153q-111 0 -176 -50.5 t-65 -128.5q0 -60 29 -97.5t103.5 -69.5t217.5 -66q122 -30 207 -65.5t147 -87t91.5 -121t29.5 -162.5q0 -135 -67.5 -235.5t-186 -153t-273.5 -52.5q-172 0 -328.5 59.5t-287.5 176.5z" />
<glyph unicode="T" horiz-adv-x="1366" d="M84 1236v241h1198v-241h-467v-1236h-262v1236h-469z" />
<glyph unicode="U" horiz-adv-x="1596" d="M167 626v851h259v-840q0 -204 98.5 -313t274.5 -109t274 105.5t98 305.5v851h260v-837q0 -131 -29 -238.5t-83.5 -186t-132.5 -132.5t-176.5 -80.5t-214.5 -26.5q-144 0 -260 42t-198 122.5t-126 204t-44 281.5z" />
<glyph unicode="V" horiz-adv-x="1582" d="M63 1477h287l445 -1135l443 1135h281l-614 -1487h-228z" />
<glyph unicode="W" horiz-adv-x="2353" d="M76 1477h280l353 -1095l362 1099h220l363 -1099l352 1095h272l-515 -1487h-223l-363 1061l-362 -1061h-225z" />
<glyph unicode="X" horiz-adv-x="1536" d="M78 0l538 751l-517 726h306l367 -529l369 529h298l-515 -722l536 -755h-306l-389 559l-389 -559h-298z" />
<glyph unicode="Y" horiz-adv-x="1509" d="M38 1477h306l413 -654l418 654h298l-587 -889v-588h-262v582z" />
<glyph unicode="Z" horiz-adv-x="1480" d="M137 0v192l871 1054h-843v231h1181v-193l-871 -1054h871v-230h-1209z" />
<glyph unicode="[" horiz-adv-x="956" d="M185 -274v1751h648v-201h-405v-1350h405v-200h-648z" />
<glyph unicode="\" horiz-adv-x="1099" d="M-24 1683h223l953 -1953h-222z" />
<glyph unicode="]" horiz-adv-x="956" d="M125 -74h404v1350h-404v201h650v-1751h-650v200z" />
<glyph unicode="^" d="M118 1040l319 439h181l318 -439h-195l-216 278l-215 -278h-192z" />
<glyph unicode="_" horiz-adv-x="1264" d="M-4 -139h1274v-199h-1274v199z" />
<glyph unicode="`" d="M262 1498l231 103l224 -345h-198z" />
<glyph unicode="a" horiz-adv-x="1238" d="M84 324q0 73 22.5 133t62 103t96 72.5t124.5 43.5t147 14q163 0 308 -46v20q0 116 -71 177.5t-203 61.5q-88 0 -161.5 -17.5t-157.5 -52.5l-70 205q103 46 200.5 69.5t224.5 23.5q243 0 366 -122t123 -349v-660h-253v137q-136 -161 -361 -161q-80 0 -151 23t-126 65.5 t-87.5 110t-32.5 149.5zM338 334q0 -51 29 -89t77 -57t109 -19q128 0 211.5 65t83.5 169v64q-112 44 -256 44q-120 0 -187 -46.5t-67 -130.5z" />
<glyph unicode="b" horiz-adv-x="1413" d="M161 0v1540h254v-612q148 209 378 209q80 0 155.5 -24.5t141.5 -73.5t115.5 -117.5t78 -163t28.5 -203.5q0 -107 -28.5 -201t-78 -162.5t-115 -117.5t-141.5 -73.5t-156 -24.5q-228 0 -378 197v-173h-254zM409 555q0 -78 26.5 -146t71 -113.5t104 -71t123.5 -25.5 q66 0 124 25t101 71t68.5 114t25.5 150q0 64 -16.5 120t-46 99t-69 74t-87.5 47.5t-100 16.5q-64 0 -123.5 -26.5t-104 -72.5t-71 -114t-26.5 -148z" />
<glyph unicode="c" horiz-adv-x="1204" d="M99 555q0 117 44 224t119.5 186t183.5 125.5t231 46.5q150 0 256 -49.5t190 -141.5l-159 -171q-65 68 -132 103.5t-157 35.5q-69 0 -128.5 -28.5t-101.5 -76.5t-66.5 -114t-24.5 -140q0 -99 42.5 -181t119 -130t172.5 -48q44 0 84 10t75.5 29.5t66.5 43.5t62 57l155 -153 q-59 -66 -119 -109.5t-146.5 -71.5t-190.5 -28q-122 0 -229.5 46t-183.5 124.5t-119.5 185.5t-43.5 225z" />
<glyph unicode="d" horiz-adv-x="1413" d="M103 559q0 108 28 201.5t77.5 162t115 117.5t141 73t155.5 24q227 0 380 -197v600h256v-1540h-256v185q-148 -209 -380 -209q-79 0 -154 24.5t-141 74t-115.5 118t-78 163.5t-28.5 203zM360 555q0 -79 26 -146t70 -113t102.5 -71.5t123.5 -25.5q64 0 122.5 26t103 72 t70.5 114.5t26 147.5t-26 146.5t-70.5 113t-103 71.5t-122.5 26q-66 0 -124.5 -25t-102 -70.5t-69.5 -114t-26 -151.5z" />
<glyph unicode="e" horiz-adv-x="1273" d="M99 557q0 118 40.5 224.5t112 185t173.5 124.5t219 46q86 0 162 -22t134 -62t103.5 -95.5t74.5 -122.5t44 -142t15 -155q0 -47 -4 -71h-819q21 -134 108 -209t213 -75q90 0 161 33t140 100l151 -133q-174 -209 -456 -209q-120 0 -225.5 42.5t-182 118t-120.5 185 t-44 237.5zM352 634h572q-6 63 -27.5 116t-56.5 93t-86 62.5t-112 22.5q-77 0 -139 -37.5t-100.5 -103.5t-50.5 -153z" />
<glyph unicode="f" horiz-adv-x="793" d="M76 894v213h141v81q0 185 91 276q89 88 251 88q107 0 206 -29v-215q-82 27 -149 27q-74 0 -110.5 -41t-36.5 -127v-62h294v-211h-290v-894h-256v894h-141z" />
<glyph unicode="g" horiz-adv-x="1413" d="M103 614q0 80 19.5 152.5t54 129.5t82.5 102.5t104 76t119 46.5t128 16q130 0 223 -50.5t167 -138.5v165h256v-885q0 -277 -143 -420q-150 -150 -457 -150q-278 0 -497 133l94 193q190 -119 397 -119q171 0 261.5 87.5t90.5 254.5v87q-76 -99 -169.5 -152t-222.5 -53 q-99 0 -190 36t-161.5 101.5t-113 166t-42.5 221.5zM360 612q0 -135 91.5 -221.5t225.5 -86.5q37 0 73.5 7.5t68.5 22t60.5 34.5t51.5 47t39.5 57.5t25 66.5t8.5 75q0 67 -26 125t-71 98t-104.5 62.5t-125.5 22.5q-89 0 -160.5 -38t-114 -109.5t-42.5 -162.5z" />
<glyph unicode="h" horiz-adv-x="1307" d="M161 0v1540h254v-600q29 43 61 76t74.5 61.5t96.5 44t116 15.5q93 0 168 -30.5t125 -86.5t77 -135t27 -176v-709h-255v632q0 86 -28 147.5t-81.5 93.5t-129.5 32q-112 0 -181.5 -74.5t-69.5 -202.5v-628h-254z" />
<glyph unicode="i" horiz-adv-x="602" d="M165 1284v243h274v-243h-274zM175 0v1113h256v-1113h-256z" />
<glyph unicode="j" horiz-adv-x="602" d="M-16 -129q38 -6 71 -6q120 0 120 135v1113h256v-1127q0 -330 -326 -330q-55 0 -121 10v205zM165 1284v243h274v-243h-274z" />
<glyph unicode="k" horiz-adv-x="1226" d="M161 0v1540h254v-920l463 493h310l-443 -453l457 -660h-295l-335 481l-157 -163v-318h-254z" />
<glyph unicode="l" horiz-adv-x="602" d="M175 0v1540h256v-1540h-256z" />
<glyph unicode="m" horiz-adv-x="2003" d="M161 0v1113h254v-167q30 41 60.5 72t71.5 60t94 44t114 15q117 0 201.5 -52.5t130.5 -144.5q150 197 377 197q183 0 286.5 -112t103.5 -314v-711h-255v632q0 66 -15.5 117.5t-44 86t-70.5 52t-96 17.5q-107 0 -172.5 -72.5t-65.5 -204.5v-628h-255v634q0 130 -60 200.5 t-166 70.5q-107 0 -173 -75t-66 -204v-626h-254z" />
<glyph unicode="n" horiz-adv-x="1307" d="M161 0v1113h254v-173q29 43 61 76t74.5 61.5t96.5 44t116 15.5q93 0 168 -30.5t125 -86.5t77 -135t27 -176v-709h-255v632q0 86 -28 147.5t-81.5 93.5t-129.5 32q-112 0 -181.5 -74.5t-69.5 -202.5v-628h-254z" />
<glyph unicode="o" horiz-adv-x="1385" d="M99 555q0 118 45.5 225t123.5 185.5t189.5 125t237 46.5t236 -46t188.5 -124t122.5 -185t44.5 -227q0 -117 -45 -223.5t-123 -185.5t-190 -125.5t-238 -46.5q-125 0 -235.5 46t-188 124t-122.5 185.5t-45 225.5zM354 555q0 -96 43 -178t121.5 -131.5t175.5 -49.5 q101 0 178.5 49t118 130.5t40.5 179.5t-43 179.5t-121.5 130.5t-176.5 49q-100 0 -177 -48.5t-118 -129.5t-41 -181z" />
<glyph unicode="p" horiz-adv-x="1413" d="M161 -338v1451h254v-185q148 209 378 209q80 0 155.5 -24.5t141.5 -73.5t115.5 -117.5t78 -163t28.5 -203.5q0 -107 -28.5 -201t-78 -162.5t-115 -117.5t-141.5 -73.5t-156 -24.5q-228 0 -378 197v-511h-254zM409 555q0 -78 26.5 -146t71 -113.5t104 -71t123.5 -25.5 q66 0 124 25t101 71t68.5 114t25.5 150q0 64 -16.5 120t-46 99t-69 74t-87.5 47.5t-100 16.5q-64 0 -123.5 -26.5t-104 -72.5t-71 -114t-26.5 -148z" />
<glyph unicode="q" horiz-adv-x="1413" d="M103 559q0 108 28 201.5t77.5 162t115 117.5t141 73t155.5 24q227 0 380 -197v173h256v-1451h-256v523q-148 -209 -380 -209q-79 0 -154 24.5t-141 74t-115.5 118t-78 163.5t-28.5 203zM360 555q0 -79 26 -146t70 -113t102.5 -71.5t123.5 -25.5q64 0 122.5 26t103 72 t70.5 114.5t26 147.5t-26 146.5t-70.5 113t-103 71.5t-122.5 26q-66 0 -124.5 -25t-102 -70.5t-69.5 -114t-26 -151.5z" />
<glyph unicode="r" horiz-adv-x="870" d="M161 0v1113h254v-250q55 132 155 205q92 67 219 67h21v-270h-15q-173 0 -276.5 -112.5t-103.5 -328.5v-424h-254z" />
<glyph unicode="s" d="M70 145l113 173q90 -67 184 -102t181 -35q82 0 127.5 33t45.5 92q0 23 -13 42.5t-29 32.5t-50 27t-57 21t-70 21q-7 2 -11 3q-2 1 -8.5 3t-9.5 3q-42 13 -72 23t-69 26.5t-66 34t-55.5 43t-46 55t-28.5 68.5t-11 84q0 103 53 181t142.5 118.5t200.5 40.5 q104 0 211.5 -33.5t197.5 -93.5l-101 -181q-173 105 -314 105q-73 0 -115 -31t-42 -84q0 -19 7.5 -34.5t25.5 -29.5t34 -24t47.5 -22t51 -19t59.5 -20q3 -1 5 -2q3 -1 7 -2l8 -2t7 -2q40 -12 70.5 -23t68.5 -28t65.5 -35t55.5 -43.5t46 -54t29 -66t11 -79.5 q0 -86 -32 -153.5t-88.5 -110t-131 -64.5t-162.5 -22q-122 0 -246 43t-226 123z" />
<glyph unicode="t" horiz-adv-x="864" d="M72 894v219h141v306h256v-306h298v-219h-298v-546q0 -139 137 -139q83 0 157 38v-209q-99 -57 -229 -57q-74 0 -130.5 17t-100 54t-67 101.5t-23.5 154.5v586h-141z" />
<glyph unicode="u" horiz-adv-x="1307" d="M147 405v708h256v-632q0 -130 62.5 -201t176.5 -71q112 0 181 74t69 202v628h255v-1113h-255v173q-29 -43 -61 -76t-74.5 -61.5t-96.5 -44t-116 -15.5q-187 0 -292 116t-105 313z" />
<glyph unicode="v" horiz-adv-x="1254" d="M55 1113h274l299 -817l302 817h268l-455 -1121h-230z" />
<glyph unicode="w" horiz-adv-x="1815" d="M68 1113h261l224 -763l246 768h218l249 -768l228 763h255l-366 -1121h-227l-249 761l-251 -761h-228z" />
<glyph unicode="x" horiz-adv-x="1222" d="M63 0l410 565l-395 548h278l258 -366l257 366h272l-394 -541l411 -572h-278l-274 390l-272 -390h-273z" />
<glyph unicode="y" horiz-adv-x="1256" d="M55 1113h272l317 -826l288 826h266l-443 -1145q-66 -171 -149 -241.5t-218 -70.5q-137 0 -263 68l86 189q76 -42 149 -42q56 0 92 29t67 100z" />
<glyph unicode="z" horiz-adv-x="1180" d="M109 0v175l644 730h-620v208h945v-175l-643 -729h643v-209h-969z" />
<glyph unicode="{" horiz-adv-x="1026" d="M109 509v193h56q130 0 184 53.5t54 178.5q0 19 -2 78t-2 75q0 56 8.5 101.5t29.5 88t57 76t88.5 63t126 52.5t169.5 40l44 -169q-64 -18 -109.5 -35t-78 -37t-51.5 -40t-30 -48.5t-15 -57.5t-4 -70q0 -21 3 -78t3 -79q0 -119 -55 -186t-165 -102q74 -24 120.5 -59 t73 -92.5t26.5 -138.5q0 -22 -3 -78t-3 -77q0 -42 4 -71t15 -57.5t30 -48.5t51.5 -40.5t78 -37.5t109.5 -35l-44 -169q-114 21 -197.5 50.5t-137.5 65.5t-86.5 84.5t-45 101t-12.5 121.5q0 15 2 74t2 77q0 125 -54 179t-184 54h-56z" />
<glyph unicode="|" horiz-adv-x="697" d="M247 -270v1953h204v-1953h-204z" />
<glyph unicode="}" horiz-adv-x="1026" d="M105 -129q55 15 96 30.5t72 30.5t51.5 34t34.5 38t21 44.5t9.5 51t2.5 61.5q0 21 -2 77t-2 78q0 119 55 187t165 103q-74 24 -120.5 58.5t-73 91.5t-26.5 138q0 22 2 79t2 78q0 41 -3.5 70t-14.5 57.5t-30.5 48.5t-51.5 40t-77.5 37t-109.5 35l44 169 q114 -21 197.5 -50.5t137.5 -65.5t86.5 -84t45 -100.5t12.5 -120.5q0 -16 -2 -75t-2 -78q0 -124 54.5 -178t184.5 -54h55v-193h-55q-88 0 -140 -24.5t-75.5 -74.5t-23.5 -134q0 -18 2 -77t2 -74q0 -69 -12.5 -121.5t-45 -101t-86.5 -84.5t-137.5 -65.5t-197.5 -50.5z" />
<glyph unicode="~" horiz-adv-x="1043" d="M125 527q36 135 89.5 198.5t145.5 63.5q50 0 110 -21t111.5 -42t80.5 -21q44 0 68.5 23.5t48.5 81.5l141 -43q-37 -135 -90.5 -199t-145.5 -64q-50 0 -109.5 21t-111 42t-81.5 21q-43 0 -67.5 -24t-48.5 -81z" />
<glyph unicode="&#xa1;" horiz-adv-x="636" d="M169 0v74l80 936h141l79 -936v-74h-300zM179 1188v289h280v-289h-280z" />
<glyph unicode="&#xa2;" horiz-adv-x="1224" d="M109 749q0 59 11.5 116t32.5 108.5t51.5 98.5t68.5 86t84.5 71t98 54t110.5 34t120 12h19l31 160h186l-38 -187q137 -43 249 -165l-155 -165q-73 74 -145 106l-137 -688q153 3 291 137l148 -145q-89 -101 -199.5 -157t-258.5 -56h-13l-36 -181h-185l42 215 q-168 59 -272 208.5t-104 337.5zM358 749q0 -106 48 -192.5t132 -130.5l133 681q-134 -3 -223.5 -106t-89.5 -252z" />
<glyph unicode="&#xa3;" horiz-adv-x="1357" d="M133 0v165l167 50v371h-167v219h167v195q0 231 128 364.5t357 133.5q85 0 156 -17.5t127 -51.5t99 -74t83 -93l-197 -159q-63 79 -122.5 117t-143.5 38q-104 0 -165 -71t-61 -193v-189h526v-219h-526v-360h685v-226h-1113z" />
<glyph unicode="&#xa5;" horiz-adv-x="1446" d="M40 1477h302l386 -618l385 618h294l-489 -732h338v-188h-408v-154h408v-188h-408v-215h-249v215h-407v188h407v154h-407v188h335z" />
<glyph unicode="&#xa7;" horiz-adv-x="1332" d="M123 741q0 97 60.5 156.5t164.5 87.5q-116 74 -116 205q0 141 111 224.5t303 83.5q297 0 487 -200l-146 -144q-161 150 -339 150q-83 0 -127 -29t-44 -79q0 -30 21.5 -52t83 -46t173.5 -49q249 -57 352.5 -126t103.5 -187q0 -96 -61.5 -156.5t-164.5 -88.5 q36 -22 62.5 -53.5t40 -70t13.5 -80.5q0 -140 -110 -224t-303 -84q-297 0 -487 200l145 143q160 -149 340 -149q84 0 127 29t43 78q0 47 -59.5 80t-218.5 68q-167 38 -264.5 80t-144 98t-46.5 135zM352 772q0 -30 24.5 -55t79 -48t143.5 -45q147 -38 220 -38q47 0 83.5 15 t57.5 42t21 62q0 46 -56.5 80t-190.5 67q-146 38 -219 38q-71 0 -117 -32.5t-46 -85.5z" />
<glyph unicode="&#xa8;" d="M187 1256v248h260v-248h-260zM608 1256v248h259v-248h-259z" />
<glyph unicode="&#xa9;" horiz-adv-x="1749" d="M112 739q0 153 60 293.5t161.5 243.5t244 164.5t300 61.5t299 -60.5t242.5 -163t160.5 -243.5t59.5 -296q0 -154 -60 -294.5t-161.5 -244t-244 -165t-300 -61.5t-299 61t-242.5 163.5t-160.5 243.5t-59.5 297zM192 734q0 -111 33 -215.5t95 -188.5t145.5 -147t188.5 -98 t219 -35q144 0 271.5 55t218 148t143 220.5t52.5 269.5q0 139 -52 265.5t-142 218t-217 145.5t-269 54q-116 0 -221.5 -35t-189.5 -99t-146 -149t-95.5 -190.5t-33.5 -218.5zM479 749q0 112 52 206.5t146.5 150.5t210.5 56q54 0 100.5 -8.5t84.5 -25.5t68.5 -38.5 t60.5 -51.5l-99 -114q-105 95 -215 95q-107 0 -177.5 -79t-70.5 -193q0 -111 71 -189.5t177 -78.5q66 0 116 24.5t103 74.5l102 -99q-68 -72 -143.5 -107.5t-181.5 -35.5q-114 0 -207 54.5t-145.5 149t-52.5 209.5z" />
<glyph unicode="&#xaa;" horiz-adv-x="821" d="M112 595v122h570v-122h-570zM118 1044q0 96 69 146t184 50q76 0 160 -23v11q0 62 -38 95.5t-109 33.5q-75 0 -175 -41l-40 115q58 27 110.5 39.5t123.5 12.5q136 0 203 -67t67 -190v-363h-144v71q-74 -84 -193 -84q-93 0 -155.5 51t-62.5 143zM264 1046q0 -40 30.5 -64 t78.5 -24q68 0 113 35.5t45 91.5v38q-66 22 -132 22q-64 0 -99.5 -26t-35.5 -73z" />
<glyph unicode="&#xab;" horiz-adv-x="1278" d="M93 548v17l350 464l194 -99l-279 -371l279 -374l-194 -98zM624 548v17l348 464l195 -99l-279 -371l279 -374l-195 -98z" />
<glyph unicode="&#xac;" horiz-adv-x="1349" d="M173 884v234h998v-599h-241v365h-757z" />
<glyph unicode="&#xad;" horiz-adv-x="860" d="M118 521v251h625v-251h-625z" />
<glyph unicode="&#xae;" horiz-adv-x="1749" d="M112 739q0 153 60 293.5t161.5 243.5t244 164.5t300 61.5t299 -60.5t242.5 -163t160.5 -243.5t59.5 -296q0 -154 -60 -294.5t-161.5 -244t-244 -165t-300 -61.5t-299 61t-242.5 163.5t-160.5 243.5t-59.5 297zM192 734q0 -111 33 -215.5t95 -188.5t145.5 -147t188.5 -98 t219 -35q144 0 271.5 55t218 148t143 220.5t52.5 269.5q0 139 -52 265.5t-142 218t-217 145.5t-269 54q-116 0 -221.5 -35t-189.5 -99t-146 -149t-95.5 -190.5t-33.5 -218.5zM568 360v800h356q156 0 243 -87q65 -61 65 -170q0 -62 -24 -112t-65 -81t-97 -48l216 -302h-182 l-198 277h-163v-277h-151zM719 770h199q49 0 84.5 15.5t54 44t18.5 68.5q0 60 -41.5 92.5t-115.5 32.5h-199v-253z" />
<glyph unicode="&#xaf;" d="M167 1266v187h721v-187h-721z" />
<glyph unicode="&#xb0;" horiz-adv-x="992" d="M145 1145v4q0 90 49 169t130 125t171 46q92 0 173.5 -46t130.5 -125t49 -169v-4q0 -89 -49 -168.5t-130.5 -126.5t-173.5 -47q-90 0 -171 47t-130 126.5t-49 168.5zM298 1145q0 -82 56.5 -142.5t140.5 -60.5q86 0 143.5 60.5t57.5 142.5v4q0 82 -57.5 141.5t-143.5 59.5 q-84 0 -140.5 -59.5t-56.5 -141.5v-4z" />
<glyph unicode="&#xb1;" horiz-adv-x="1349" d="M145 694v230h410v320h240v-320h405v-230h-405v-323h-240v323h-410zM159 34v219h1033v-219h-1033z" />
<glyph unicode="&#xb4;" d="M338 1256l223 345l232 -103l-257 -242h-198z" />
<glyph unicode="&#xb5;" horiz-adv-x="1324" d="M159 -338v1451h254v-636q0 -116 67.5 -196t171.5 -80q114 0 185.5 78.5t71.5 207.5v626h255v-1113h-255v175q-51 -84 -132.5 -135.5t-188.5 -51.5q-64 0 -108 21t-67 54v-401h-254z" />
<glyph unicode="&#xb6;" horiz-adv-x="1174" d="M84 998q0 147 72.5 256.5t201.5 166t298 56.5h336v-1477h-262v515h-38q-131 0 -241 31t-192 90.5t-128.5 152t-46.5 209.5z" />
<glyph unicode="&#xb7;" horiz-adv-x="566" d="M143 502v289h281v-289h-281z" />
<glyph unicode="&#xb8;" d="M276 -255l191 276h191l-158 -369z" />
<glyph unicode="&#xba;" horiz-adv-x="821" d="M93 1169q0 87 41.5 160t115 115.5t163.5 42.5q67 0 126 -25t101 -67.5t66 -102t24 -125.5q0 -87 -41.5 -160t-115.5 -116t-164 -43q-67 0 -126 25t-100.5 68t-65.5 102.5t-24 125.5zM107 595v122h608v-122h-608zM240 1167q0 -77 49.5 -133t123.5 -56q76 0 122.5 55 t46.5 136q0 77 -49.5 132.5t-123.5 55.5q-76 0 -122.5 -54.5t-46.5 -135.5z" />
<glyph unicode="&#xbb;" horiz-adv-x="1278" d="M112 183l278 372l-278 373l194 101l348 -464v-17l-348 -461zM642 183l278 372l-278 373l193 101l351 -464v-17l-351 -461z" />
<glyph unicode="&#xbf;" horiz-adv-x="1140" d="M89 413q0 65 15 121t43 99t66 77.5t86.5 59.5t101 42t112.5 27l21 171h171l42 -342l-11 -10q-197 -7 -293.5 -68.5t-96.5 -171.5q0 -90 65 -145.5t177 -55.5q187 0 344 167l159 -169q-206 -234 -509 -234q-147 0 -258.5 52t-173 150t-61.5 230zM483 1188v289h282v-289 h-282z" />
<glyph unicode="&#xc0;" horiz-adv-x="1665" d="M63 0l650 1487h241l649 -1487h-274l-150 356h-698l-152 -356h-266zM483 1842l232 103l223 -346h-197zM576 586h509l-256 591z" />
<glyph unicode="&#xc1;" horiz-adv-x="1665" d="M63 0l650 1487h241l649 -1487h-274l-150 356h-698l-152 -356h-266zM576 586h509l-256 591zM728 1599l224 346l231 -103l-257 -243h-198z" />
<glyph unicode="&#xc2;" horiz-adv-x="1665" d="M63 0l650 1487h241l649 -1487h-274l-150 356h-698l-152 -356h-266zM471 1596l244 308h237l244 -308h-202l-163 143l-163 -143h-197zM576 586h509l-256 591z" />
<glyph unicode="&#xc3;" horiz-adv-x="1665" d="M63 0l650 1487h241l649 -1487h-274l-150 356h-698l-152 -356h-266zM435 1620q18 67 38.5 114t48 82t64.5 51.5t85 16.5q49 0 109 -21t112 -42.5t82 -21.5q44 0 67.5 23.5t49.5 81.5l141 -44q-18 -66 -38.5 -112.5t-48.5 -81t-64.5 -51t-84.5 -16.5q-50 0 -109.5 21 t-111.5 42t-83 21q-22 0 -39 -6t-30.5 -20t-23.5 -32t-23 -47zM576 586h509l-256 591z" />
<glyph unicode="&#xc4;" horiz-adv-x="1665" d="M63 0l650 1487h241l649 -1487h-274l-150 356h-698l-152 -356h-266zM493 1599v249h260v-249h-260zM576 586h509l-256 591zM914 1599v249h259v-249h-259z" />
<glyph unicode="&#xc5;" horiz-adv-x="1665" d="M63 0l629 1443q-45 34 -72.5 82t-27.5 105q0 93 73 161.5t168 68.5q96 0 168 -69t72 -165q0 -54 -27 -102t-72 -81l629 -1443h-274l-150 356h-698l-152 -356h-266zM576 586h509l-256 591zM702 1626q0 -34 17.5 -63.5t48 -47t66 -17.5t65.5 17.5t47.5 48t17.5 66.5 q0 53 -38.5 91t-92.5 38q-35 0 -65 -17.5t-48 -48t-18 -67.5z" />
<glyph unicode="&#xc6;" horiz-adv-x="2204" d="M26 0l824 1477h1225v-233h-789v-383h695v-233h-695v-396h800v-232h-1059v356h-538l-195 -356h-268zM614 586h413v664h-42z" />
<glyph unicode="&#xc7;" horiz-adv-x="1556" d="M125 739q0 156 56.5 296t155.5 243t242 163.5t307 60.5q99 0 184 -16.5t155 -48.5t126 -71.5t113 -93.5l-166 -192q-63 59 -123 97.5t-135 62.5t-156 24q-139 0 -251 -70t-174 -190t-62 -265q0 -108 36.5 -204.5t100.5 -167.5t155 -112.5t195 -41.5q127 0 223.5 47 t200.5 145l167 -169q-57 -59 -112.5 -102.5t-122.5 -79t-146.5 -55t-171.5 -23.5l-139 -324l-222 93l167 245q-131 24 -243.5 91.5t-191.5 165t-123.5 225t-44.5 267.5z" />
<glyph unicode="&#xc8;" horiz-adv-x="1413" d="M190 0v1477h1094v-233h-835v-383h741v-233h-741v-396h846v-232h-1105zM433 1842l231 103l224 -346h-198z" />
<glyph unicode="&#xc9;" horiz-adv-x="1413" d="M190 0v1477h1094v-233h-835v-383h741v-233h-741v-396h846v-232h-1105zM584 1599l224 346l232 -103l-257 -243h-199z" />
<glyph unicode="&#xca;" horiz-adv-x="1413" d="M190 0v1477h1094v-233h-835v-383h741v-233h-741v-396h846v-232h-1105zM369 1599l245 308h236l245 -308h-203l-162 142l-162 -142h-199z" />
<glyph unicode="&#xcb;" horiz-adv-x="1413" d="M190 0v1477h1094v-233h-835v-383h741v-233h-741v-396h846v-232h-1105zM392 1599v249h260v-249h-260zM812 1599v249h259v-249h-259z" />
<glyph unicode="&#xcc;" horiz-adv-x="668" d="M-12 1842l231 103l224 -346h-198zM205 0v1477h260v-1477h-260z" />
<glyph unicode="&#xcd;" horiz-adv-x="668" d="M205 0v1477h260v-1477h-260zM228 1599l223 346l233 -103l-258 -243h-198z" />
<glyph unicode="&#xce;" horiz-adv-x="668" d="M-28 1599l245 308h236l245 -308h-203l-161 142l-163 -142h-199zM205 0v1477h260v-1477h-260z" />
<glyph unicode="&#xcf;" horiz-adv-x="668" d="M-4 1599v249h259v-249h-259zM205 0v1477h260v-1477h-260zM415 1599v249h260v-249h-260z" />
<glyph unicode="&#xd0;" horiz-adv-x="1711" d="M95 626v233h158v618h550q172 0 318.5 -56.5t249 -155t160 -234.5t57.5 -292q0 -155 -57.5 -291t-159.5 -234.5t-249.5 -156t-318.5 -57.5h-550v626h-158zM511 236h292q115 0 211 37.5t162.5 103.5t103 159t36.5 203q0 107 -36.5 199.5t-103 159t-162.5 104.5t-211 38 h-292v-381h371v-233h-371v-390z" />
<glyph unicode="&#xd1;" horiz-adv-x="1665" d="M190 0v1477h241l791 -1022v1022h255v-1477h-217l-815 1051v-1051h-255zM435 1620q18 67 38.5 114t48 82t64.5 51.5t85 16.5q49 0 109 -21t112 -42.5t82 -21.5q44 0 67.5 23.5t49.5 81.5l141 -44q-18 -66 -38.5 -112.5t-48.5 -81t-64.5 -51t-84.5 -16.5q-50 0 -109.5 21 t-111.5 42t-83 21q-22 0 -39 -6t-30.5 -20t-23.5 -32t-23 -47z" />
<glyph unicode="&#xd2;" horiz-adv-x="1792" d="M125 739q0 154 57.5 294t158 243.5t246 164.5t311.5 61q167 0 311.5 -60.5t244.5 -163.5t157.5 -243t57.5 -296q0 -124 -37 -239t-106 -210t-163 -166t-215 -110.5t-254 -39.5q-166 0 -310.5 60.5t-244.5 164t-157 243.5t-57 297zM397 739q0 -107 37.5 -203.5 t102.5 -167.5t159 -113t202 -42t201.5 41.5t158.5 112t102 167t37 205.5q0 106 -38 202.5t-103.5 167.5t-159.5 113t-202 42t-201.5 -41.5t-158 -112t-101 -167t-36.5 -204.5zM531 1842l232 103l224 -346h-198z" />
<glyph unicode="&#xd3;" horiz-adv-x="1792" d="M125 739q0 154 57.5 294t158 243.5t246 164.5t311.5 61q167 0 311.5 -60.5t244.5 -163.5t157.5 -243t57.5 -296q0 -124 -37 -239t-106 -210t-163 -166t-215 -110.5t-254 -39.5q-166 0 -310.5 60.5t-244.5 164t-157 243.5t-57 297zM397 739q0 -107 37.5 -203.5 t102.5 -167.5t159 -113t202 -42t201.5 41.5t158.5 112t102 167t37 205.5q0 106 -38 202.5t-103.5 167.5t-159.5 113t-202 42t-201.5 -41.5t-158 -112t-101 -167t-36.5 -204.5zM805 1599l224 346l233 -103l-258 -243h-199z" />
<glyph unicode="&#xd4;" horiz-adv-x="1792" d="M125 739q0 154 57.5 294t158 243.5t246 164.5t311.5 61q167 0 311.5 -60.5t244.5 -163.5t157.5 -243t57.5 -296q0 -124 -37 -239t-106 -210t-163 -166t-215 -110.5t-254 -39.5q-166 0 -310.5 60.5t-244.5 164t-157 243.5t-57 297zM397 739q0 -107 37.5 -203.5 t102.5 -167.5t159 -113t202 -42t201.5 41.5t158.5 112t102 167t37 205.5q0 106 -38 202.5t-103.5 167.5t-159.5 113t-202 42t-201.5 -41.5t-158 -112t-101 -167t-36.5 -204.5zM534 1599l245 308h236l245 -308h-203l-163 142l-162 -142h-198z" />
<glyph unicode="&#xd5;" horiz-adv-x="1792" d="M125 739q0 154 57.5 294t158 243.5t246 164.5t311.5 61q167 0 311.5 -60.5t244.5 -163.5t157.5 -243t57.5 -296q0 -124 -37 -239t-106 -210t-163 -166t-215 -110.5t-254 -39.5q-166 0 -310.5 60.5t-244.5 164t-157 243.5t-57 297zM397 739q0 -107 37.5 -203.5 t102.5 -167.5t159 -113t202 -42t201.5 41.5t158.5 112t102 167t37 205.5q0 106 -38 202.5t-103.5 167.5t-159.5 113t-202 42t-201.5 -41.5t-158 -112t-101 -167t-36.5 -204.5zM497 1620q19 67 39.5 114t48.5 81.5t65 51.5t84 17q50 0 110 -21t112 -42.5t82 -21.5t50.5 12.5 t34 33t31.5 59.5l141 -44q-18 -66 -38.5 -112.5t-48.5 -81t-65 -51t-84 -16.5q-50 0 -109.5 21t-111.5 42t-83 21q-43 0 -66 -23t-49 -82z" />
<glyph unicode="&#xd6;" horiz-adv-x="1792" d="M125 739q0 154 57.5 294t158 243.5t246 164.5t311.5 61q167 0 311.5 -60.5t244.5 -163.5t157.5 -243t57.5 -296q0 -124 -37 -239t-106 -210t-163 -166t-215 -110.5t-254 -39.5q-166 0 -310.5 60.5t-244.5 164t-157 243.5t-57 297zM397 739q0 -107 37.5 -203.5 t102.5 -167.5t159 -113t202 -42t201.5 41.5t158.5 112t102 167t37 205.5q0 106 -38 202.5t-103.5 167.5t-159.5 113t-202 42t-201.5 -41.5t-158 -112t-101 -167t-36.5 -204.5zM557 1599v249h260v-249h-260zM976 1599v249h260v-249h-260z" />
<glyph unicode="&#xd8;" horiz-adv-x="1792" d="M107 -10l209 234q-92 101 -141.5 233.5t-49.5 281.5q0 154 57.5 294t158 243.5t246 164.5t311.5 61q241 0 431 -127l102 112h254l-208 -237q92 -100 142 -231.5t50 -279.5q0 -124 -37 -239t-106 -210t-163 -166t-215 -110.5t-254 -39.5q-239 0 -429 127l-102 -111h-256z M392 739q0 -178 97 -315l675 759q-119 85 -270 85q-108 0 -202 -41.5t-159.5 -113t-103 -169t-37.5 -205.5zM628 294q120 -85 270 -85q108 0 202 41.5t160 113t103.5 169t37.5 206.5q0 177 -97 314z" />
<glyph unicode="&#xd9;" horiz-adv-x="1596" d="M167 626v851h259v-840q0 -204 98.5 -313t274.5 -109t274 105.5t98 305.5v851h260v-837q0 -131 -29 -238.5t-83.5 -186t-132.5 -132.5t-176.5 -80.5t-214.5 -26.5q-144 0 -260 42t-198 122.5t-126 204t-44 281.5zM462 1831l232 103l224 -346h-199z" />
<glyph unicode="&#xda;" horiz-adv-x="1596" d="M167 626v851h259v-840q0 -204 98.5 -313t274.5 -109t274 105.5t98 305.5v851h260v-837q0 -131 -29 -238.5t-83.5 -186t-132.5 -132.5t-176.5 -80.5t-214.5 -26.5q-144 0 -260 42t-198 122.5t-126 204t-44 281.5zM679 1588l224 346l232 -103l-257 -243h-199z" />
<glyph unicode="&#xdb;" horiz-adv-x="1596" d="M167 626v851h259v-840q0 -204 98.5 -313t274.5 -109t274 105.5t98 305.5v851h260v-837q0 -131 -29 -238.5t-83.5 -186t-132.5 -132.5t-176.5 -80.5t-214.5 -26.5q-144 0 -260 42t-198 122.5t-126 204t-44 281.5zM437 1596l245 308h236l244 -308h-202l-163 143l-163 -143 h-197z" />
<glyph unicode="&#xdc;" horiz-adv-x="1596" d="M167 626v851h259v-840q0 -204 98.5 -313t274.5 -109t274 105.5t98 305.5v851h260v-837q0 -131 -29 -238.5t-83.5 -186t-132.5 -132.5t-176.5 -80.5t-214.5 -26.5q-144 0 -260 42t-198 122.5t-126 204t-44 281.5zM459 1596v250h260v-250h-260zM880 1596v250h259v-250h-259 z" />
<glyph unicode="&#xdd;" horiz-adv-x="1509" d="M38 1477h306l413 -654l418 654h298l-587 -889v-588h-262v582zM656 1588l224 346l231 -103l-257 -243h-198z" />
<glyph unicode="&#xde;" horiz-adv-x="1419" d="M190 0v1477h259v-233h323q258 0 409.5 -135t151.5 -360q0 -98 -30.5 -180.5t-84 -141.5t-128 -100.5t-162 -61.5t-185.5 -20h-294v-245h-259zM449 477h302q145 0 231.5 74.5t86.5 195.5q0 127 -85 195t-233 68h-302v-533z" />
<glyph unicode="&#xdf;" horiz-adv-x="1307" d="M161 0v1059q0 229 135 362t366 133q106 0 192 -30.5t143 -85t87.5 -127.5t30.5 -157q0 -69 -18 -126.5t-52 -100.5t-72.5 -74.5t-88.5 -59.5q66 -22 120 -53t101 -76t73 -109t26 -142q0 -196 -146 -306.5t-400 -110.5h-34v196q156 4 241 63.5t85 168.5q0 100 -88 161 t-238 79v173q112 54 175.5 126t63.5 172q0 92 -58 147t-155 55q-105 0 -171 -73.5t-66 -196.5v-1067h-252z" />
<glyph unicode="&#xe0;" horiz-adv-x="1238" d="M84 324q0 73 22.5 133t62 103t96 72.5t124.5 43.5t147 14q163 0 308 -46v20q0 116 -71 177.5t-203 61.5q-88 0 -161.5 -17.5t-157.5 -52.5l-70 205q103 46 200.5 69.5t224.5 23.5q243 0 366 -122t123 -349v-660h-253v137q-136 -161 -361 -161q-80 0 -151 23t-126 65.5 t-87.5 110t-32.5 149.5zM284 1498l233 103l224 -345h-199zM338 334q0 -51 29 -89t77 -57t109 -19q128 0 211.5 65t83.5 169v64q-112 44 -256 44q-120 0 -187 -46.5t-67 -130.5z" />
<glyph unicode="&#xe1;" horiz-adv-x="1238" d="M84 324q0 73 22.5 133t62 103t96 72.5t124.5 43.5t147 14q163 0 308 -46v20q0 116 -71 177.5t-203 61.5q-88 0 -161.5 -17.5t-157.5 -52.5l-70 205q103 46 200.5 69.5t224.5 23.5q243 0 366 -122t123 -349v-660h-253v137q-136 -161 -361 -161q-80 0 -151 23t-126 65.5 t-87.5 110t-32.5 149.5zM338 334q0 -51 29 -89t77 -57t109 -19q128 0 211.5 65t83.5 169v64q-112 44 -256 44q-120 0 -187 -46.5t-67 -130.5zM495 1256l224 345l233 -103l-258 -242h-199z" />
<glyph unicode="&#xe2;" horiz-adv-x="1238" d="M84 324q0 73 22.5 133t62 103t96 72.5t124.5 43.5t147 14q163 0 308 -46v20q0 116 -71 177.5t-203 61.5q-88 0 -161.5 -17.5t-157.5 -52.5l-70 205q103 46 200.5 69.5t224.5 23.5q243 0 366 -122t123 -349v-660h-253v137q-136 -161 -361 -161q-80 0 -151 23t-126 65.5 t-87.5 110t-32.5 149.5zM255 1256l245 308h236l245 -308h-202l-163 141l-163 -141h-198zM338 334q0 -51 29 -89t77 -57t109 -19q128 0 211.5 65t83.5 169v64q-112 44 -256 44q-120 0 -187 -46.5t-67 -130.5z" />
<glyph unicode="&#xe3;" horiz-adv-x="1238" d="M84 324q0 73 22.5 133t62 103t96 72.5t124.5 43.5t147 14q163 0 308 -46v20q0 116 -71 177.5t-203 61.5q-88 0 -161.5 -17.5t-157.5 -52.5l-70 205q103 46 200.5 69.5t224.5 23.5q243 0 366 -122t123 -349v-660h-253v137q-136 -161 -361 -161q-80 0 -151 23t-126 65.5 t-87.5 110t-32.5 149.5zM221 1276q37 136 90.5 200t145.5 64q50 0 110 -21t112 -42.5t82 -21.5q43 0 67 24t50 82l141 -44q-15 -52 -30.5 -92t-36 -73t-44.5 -53.5t-55.5 -31.5t-69.5 -11q-39 0 -85.5 13t-81.5 28.5t-73.5 28.5t-63.5 13q-30 0 -50.5 -12t-34.5 -33t-31 -60 zM338 334q0 -51 29 -89t77 -57t109 -19q128 0 211.5 65t83.5 169v64q-112 44 -256 44q-120 0 -187 -46.5t-67 -130.5z" />
<glyph unicode="&#xe4;" horiz-adv-x="1238" d="M84 324q0 73 22.5 133t62 103t96 72.5t124.5 43.5t147 14q163 0 308 -46v20q0 116 -71 177.5t-203 61.5q-88 0 -161.5 -17.5t-157.5 -52.5l-70 205q103 46 200.5 69.5t224.5 23.5q243 0 366 -122t123 -349v-660h-253v137q-136 -161 -361 -161q-80 0 -151 23t-126 65.5 t-87.5 110t-32.5 149.5zM278 1256v248h260v-248h-260zM338 334q0 -51 29 -89t77 -57t109 -19q128 0 211.5 65t83.5 169v64q-112 44 -256 44q-120 0 -187 -46.5t-67 -130.5zM698 1256v248h260v-248h-260z" />
<glyph unicode="&#xe5;" horiz-adv-x="1238" d="M84 324q0 73 22.5 133t62 103t96 72.5t124.5 43.5t147 14q163 0 308 -46v20q0 116 -71 177.5t-203 61.5q-88 0 -161.5 -17.5t-157.5 -52.5l-70 205q103 46 200.5 69.5t224.5 23.5q243 0 366 -122t123 -349v-660h-253v137q-136 -161 -361 -161q-80 0 -151 23t-126 65.5 t-87.5 110t-32.5 149.5zM338 334q0 -51 29 -89t77 -57t109 -19q128 0 211.5 65t83.5 169v64q-112 44 -256 44q-120 0 -187 -46.5t-67 -130.5zM378 1485q0 93 72 161.5t168 68.5t168.5 -69t72.5 -165q0 -93 -72.5 -162t-168.5 -69t-168 70t-72 165zM487 1481q0 -34 17.5 -64 t48 -47.5t66 -17.5t65.5 18t47.5 48.5t17.5 66.5q0 35 -17.5 64.5t-48 47t-66 17.5t-65.5 -17.5t-47.5 -48t-17.5 -67.5z" />
<glyph unicode="&#xe6;" horiz-adv-x="2007" d="M84 324q0 91 34 161.5t94.5 115t141 67t177.5 22.5t165 -11.5t141 -34.5v20q0 239 -272 239q-84 0 -157 -17.5t-157 -52.5l-70 205q103 46 200 69.5t221 23.5q136 0 237.5 -47.5t152.5 -135.5q68 89 168 139t221 50q102 0 188.5 -31.5t148 -87t105 -131.5t65 -164 t21.5 -185q0 -46 -2 -71h-818q22 -134 108 -209t210 -75q92 0 163.5 33t140.5 100l149 -133q-177 -209 -457 -209q-129 0 -241.5 50.5t-189.5 140.5q-228 -189 -465 -189q-88 0 -164 23t-134 65.5t-91.5 109.5t-33.5 150zM338 334q0 -51 28 -89t75 -57t107 -19 q177 0 330 143q-33 84 -41 161q-104 38 -249 38q-118 0 -184 -46.5t-66 -130.5zM1085 634h573q-13 130 -87 212t-196 82q-78 0 -140 -37.5t-100.5 -103.5t-49.5 -153z" />
<glyph unicode="&#xe7;" horiz-adv-x="1204" d="M99 555q0 117 44 224t119.5 186t183.5 125.5t231 46.5q150 0 256 -49.5t190 -141.5l-159 -171q-65 68 -132 103.5t-157 35.5q-69 0 -128.5 -28.5t-101.5 -76.5t-66.5 -114t-24.5 -140q0 -99 42.5 -181t119 -130t172.5 -48q44 0 84 10t75.5 29.5t66.5 43.5t62 57l155 -153 q-56 -61 -110.5 -102t-132 -70.5t-169.5 -34.5l-137 -324l-224 93l169 249q-190 47 -309 202.5t-119 358.5z" />
<glyph unicode="&#xe8;" horiz-adv-x="1273" d="M99 557q0 118 40.5 224.5t112 185t173.5 124.5t219 46q86 0 162 -22t134 -62t103.5 -95.5t74.5 -122.5t44 -142t15 -155q0 -47 -4 -71h-819q21 -134 108 -209t213 -75q90 0 161 33t140 100l151 -133q-174 -209 -456 -209q-120 0 -225.5 42.5t-182 118t-120.5 185 t-44 237.5zM294 1498l231 103l224 -345h-198zM352 634h572q-6 63 -27.5 116t-56.5 93t-86 62.5t-112 22.5q-77 0 -139 -37.5t-100.5 -103.5t-50.5 -153z" />
<glyph unicode="&#xe9;" horiz-adv-x="1273" d="M99 557q0 118 40.5 224.5t112 185t173.5 124.5t219 46q86 0 162 -22t134 -62t103.5 -95.5t74.5 -122.5t44 -142t15 -155q0 -47 -4 -71h-819q21 -134 108 -209t213 -75q90 0 161 33t140 100l151 -133q-174 -209 -456 -209q-120 0 -225.5 42.5t-182 118t-120.5 185 t-44 237.5zM352 634h572q-6 63 -27.5 116t-56.5 93t-86 62.5t-112 22.5q-77 0 -139 -37.5t-100.5 -103.5t-50.5 -153zM525 1256l224 345l232 -103l-258 -242h-198z" />
<glyph unicode="&#xea;" horiz-adv-x="1273" d="M99 557q0 118 40.5 224.5t112 185t173.5 124.5t219 46q86 0 162 -22t134 -62t103.5 -95.5t74.5 -122.5t44 -142t15 -155q0 -47 -4 -71h-819q21 -134 108 -209t213 -75q90 0 161 33t140 100l151 -133q-174 -209 -456 -209q-120 0 -225.5 42.5t-182 118t-120.5 185 t-44 237.5zM276 1256l245 308h236l245 -308h-203l-162 141l-162 -141h-199zM352 634h572q-6 63 -27.5 116t-56.5 93t-86 62.5t-112 22.5q-77 0 -139 -37.5t-100.5 -103.5t-50.5 -153z" />
<glyph unicode="&#xeb;" horiz-adv-x="1273" d="M99 557q0 118 40.5 224.5t112 185t173.5 124.5t219 46q86 0 162 -22t134 -62t103.5 -95.5t74.5 -122.5t44 -142t15 -155q0 -47 -4 -71h-819q21 -134 108 -209t213 -75q90 0 161 33t140 100l151 -133q-174 -209 -456 -209q-120 0 -225.5 42.5t-182 118t-120.5 185 t-44 237.5zM300 1256v248h259v-248h-259zM352 634h572q-6 63 -27.5 116t-56.5 93t-86 62.5t-112 22.5q-77 0 -139 -37.5t-100.5 -103.5t-50.5 -153zM719 1256v248h259v-248h-259z" />
<glyph unicode="&#xec;" horiz-adv-x="602" d="M-44 1498l231 103l224 -345h-198zM175 0v1113h256v-1113h-256z" />
<glyph unicode="&#xed;" horiz-adv-x="602" d="M175 0v1113h256v-1113h-256zM192 1256l223 345l233 -103l-258 -242h-198z" />
<glyph unicode="&#xee;" horiz-adv-x="602" d="M-61 1256l244 308h237l244 -308h-202l-162 141l-163 -141h-198zM175 0v1113h256v-1113h-256z" />
<glyph unicode="&#xef;" horiz-adv-x="602" d="M-38 1256v248h259v-248h-259zM175 0v1113h256v-1113h-256zM382 1256v248h260v-248h-260z" />
<glyph unicode="&#xf0;" horiz-adv-x="1353" d="M99 527q0 145 64.5 259.5t176 176.5t248.5 62q86 0 153.5 -21.5t140.5 -65.5l-222 302l-251 -111l-101 133l255 111l-122 167h293l51 -74l209 90l99 -133l-215 -92l187 -272q65 -93 104 -172t60 -165t21 -180q0 -114 -40.5 -217t-114 -181t-185 -124t-244.5 -46 q-120 0 -226 43.5t-180.5 117.5t-117.5 176t-43 216zM350 517q0 -87 41 -161.5t116.5 -119t169.5 -44.5q95 0 169.5 44.5t114 119t39.5 165.5q0 134 -93.5 225t-238.5 91q-94 0 -167 -41.5t-112 -114t-39 -164.5z" />
<glyph unicode="&#xf1;" horiz-adv-x="1307" d="M161 0v1113h254v-173q29 43 61 76t74.5 61.5t96.5 44t116 15.5q93 0 168 -30.5t125 -86.5t77 -135t27 -176v-709h-255v632q0 86 -28 147.5t-81.5 93.5t-129.5 32q-112 0 -181.5 -74.5t-69.5 -202.5v-628h-254zM264 1276q36 136 89.5 200t146.5 64q39 0 85.5 -13.5 t81.5 -29t73 -29t63 -13.5q43 0 67 24t50 82l141 -44q-18 -66 -38.5 -112.5t-48.5 -81t-64.5 -51t-84.5 -16.5q-50 0 -109.5 20.5t-111.5 41.5t-83 21q-43 0 -66.5 -23.5t-49.5 -81.5z" />
<glyph unicode="&#xf2;" horiz-adv-x="1385" d="M99 555q0 118 45.5 225t123.5 185.5t189.5 125t237 46.5t236 -46t188.5 -124t122.5 -185t44.5 -227q0 -117 -45 -223.5t-123 -185.5t-190 -125.5t-238 -46.5q-125 0 -235.5 46t-188 124t-122.5 185.5t-45 225.5zM336 1498l232 103l223 -345h-199zM354 555q0 -96 43 -178 t121.5 -131.5t175.5 -49.5q101 0 178.5 49t118 130.5t40.5 179.5t-43 179.5t-121.5 130.5t-176.5 49q-100 0 -177 -48.5t-118 -129.5t-41 -181z" />
<glyph unicode="&#xf3;" horiz-adv-x="1385" d="M99 555q0 118 45.5 225t123.5 185.5t189.5 125t237 46.5t236 -46t188.5 -124t122.5 -185t44.5 -227q0 -117 -45 -223.5t-123 -185.5t-190 -125.5t-238 -46.5q-125 0 -235.5 46t-188 124t-122.5 185.5t-45 225.5zM354 555q0 -96 43 -178t121.5 -131.5t175.5 -49.5 q101 0 178.5 49t118 130.5t40.5 179.5t-43 179.5t-121.5 130.5t-176.5 49q-100 0 -177 -48.5t-118 -129.5t-41 -181zM592 1256l225 345l232 -103l-258 -242h-199z" />
<glyph unicode="&#xf4;" horiz-adv-x="1385" d="M99 555q0 118 45.5 225t123.5 185.5t189.5 125t237 46.5t236 -46t188.5 -124t122.5 -185t44.5 -227q0 -117 -45 -223.5t-123 -185.5t-190 -125.5t-238 -46.5q-125 0 -235.5 46t-188 124t-122.5 185.5t-45 225.5zM329 1256l245 308h236l245 -308h-203l-162 141l-163 -141 h-198zM354 555q0 -96 43 -178t121.5 -131.5t175.5 -49.5q101 0 178.5 49t118 130.5t40.5 179.5t-43 179.5t-121.5 130.5t-176.5 49q-100 0 -177 -48.5t-118 -129.5t-41 -181z" />
<glyph unicode="&#xf5;" horiz-adv-x="1385" d="M99 555q0 118 45.5 225t123.5 185.5t189.5 125t237 46.5t236 -46t188.5 -124t122.5 -185t44.5 -227q0 -117 -45 -223.5t-123 -185.5t-190 -125.5t-238 -46.5q-125 0 -235.5 46t-188 124t-122.5 185.5t-45 225.5zM294 1276q36 136 89.5 200t145.5 64q50 0 110 -21 t112 -42.5t82 -21.5q43 0 67 24t50 82l141 -44q-37 -134 -91 -197.5t-146 -63.5q-39 0 -85.5 13t-81 28.5t-73 28.5t-63.5 13q-43 0 -67 -23.5t-49 -81.5zM354 555q0 -96 43 -178t121.5 -131.5t175.5 -49.5q101 0 178.5 49t118 130.5t40.5 179.5t-43 179.5t-121.5 130.5 t-176.5 49q-100 0 -177 -48.5t-118 -129.5t-41 -181z" />
<glyph unicode="&#xf6;" horiz-adv-x="1385" d="M99 555q0 118 45.5 225t123.5 185.5t189.5 125t237 46.5t236 -46t188.5 -124t122.5 -185t44.5 -227q0 -117 -45 -223.5t-123 -185.5t-190 -125.5t-238 -46.5q-125 0 -235.5 46t-188 124t-122.5 185.5t-45 225.5zM352 1256v248h260v-248h-260zM354 555q0 -96 43 -178 t121.5 -131.5t175.5 -49.5q101 0 178.5 49t118 130.5t40.5 179.5t-43 179.5t-121.5 130.5t-176.5 49q-100 0 -177 -48.5t-118 -129.5t-41 -181zM772 1256v248h259v-248h-259z" />
<glyph unicode="&#xf7;" horiz-adv-x="1349" d="M175 630v235h998v-235h-998zM540 169v276h261v-276h-261zM540 1049v276h261v-276h-261z" />
<glyph unicode="&#xf8;" horiz-adv-x="1385" d="M68 -10l168 187q-66 77 -101.5 174t-35.5 204q0 118 45.5 225t123.5 185.5t189.5 125t236.5 46.5q177 0 318 -91l75 81h231q-108 -121 -171 -193q139 -155 139 -379q0 -117 -45 -223.5t-123 -185.5t-190 -125.5t-238 -46.5q-174 0 -319 91l-71 -75h-232zM348 555 q0 -108 53 -192l460 506q-76 51 -171 51q-77 0 -141.5 -29t-108 -78.5t-68 -116t-24.5 -141.5zM523 240q74 -48 171 -48q103 0 182.5 49.5t120.5 131.5t41 182q0 102 -53 194z" />
<glyph unicode="&#xf9;" horiz-adv-x="1307" d="M147 405v708h256v-632q0 -130 62.5 -201t176.5 -71q112 0 181 74t69 202v628h255v-1113h-255v173q-29 -43 -61 -76t-74.5 -61.5t-96.5 -44t-116 -15.5q-187 0 -292 116t-105 313zM322 1496l233 103l224 -345h-199z" />
<glyph unicode="&#xfa;" horiz-adv-x="1307" d="M147 405v708h256v-632q0 -130 62.5 -201t176.5 -71q112 0 181 74t69 202v628h255v-1113h-255v173q-29 -43 -61 -76t-74.5 -61.5t-96.5 -44t-116 -15.5q-187 0 -292 116t-105 313zM525 1254l224 345l232 -103l-258 -242h-198z" />
<glyph unicode="&#xfb;" horiz-adv-x="1307" d="M147 405v708h256v-632q0 -130 62.5 -201t176.5 -71q112 0 181 74t69 202v628h255v-1113h-255v173q-29 -43 -61 -76t-74.5 -61.5t-96.5 -44t-116 -15.5q-187 0 -292 116t-105 313zM291 1256l245 308h236l245 -308h-202l-163 141l-163 -141h-198z" />
<glyph unicode="&#xfc;" horiz-adv-x="1307" d="M147 405v708h256v-632q0 -130 62.5 -201t176.5 -71q112 0 181 74t69 202v628h255v-1113h-255v173q-29 -43 -61 -76t-74.5 -61.5t-96.5 -44t-116 -15.5q-187 0 -292 116t-105 313zM314 1256v248h260v-248h-260zM734 1256v248h260v-248h-260z" />
<glyph unicode="&#xfd;" horiz-adv-x="1256" d="M55 1113h272l317 -826l288 826h266l-443 -1145q-66 -171 -149 -241.5t-218 -70.5q-137 0 -263 68l86 189q76 -42 149 -42q56 0 92 29t67 100zM515 1254l224 345l231 -103l-257 -242h-198z" />
<glyph unicode="&#xfe;" horiz-adv-x="1413" d="M161 -338v1878h254v-612q148 209 378 209q80 0 155.5 -24.5t141.5 -73.5t115.5 -117.5t78 -163t28.5 -203.5q0 -107 -28.5 -201t-78 -162.5t-115 -117.5t-141.5 -73.5t-156 -24.5q-228 0 -378 197v-511h-254zM409 555q0 -78 26.5 -146t71 -113.5t104 -71t123.5 -25.5 q66 0 124 25t101 71t68.5 114t25.5 150q0 64 -16.5 120t-46 99t-69 74t-87.5 47.5t-100 16.5q-64 0 -123.5 -26.5t-104 -72.5t-71 -114t-26.5 -148z" />
<glyph unicode="&#xff;" horiz-adv-x="1256" d="M55 1113h272l317 -826l288 826h266l-443 -1145q-66 -171 -149 -241.5t-218 -70.5q-137 0 -263 68l86 189q76 -42 149 -42q56 0 92 29t67 100zM289 1256v248h259v-248h-259zM709 1256v248h259v-248h-259z" />
<glyph unicode="&#x131;" horiz-adv-x="602" d="M175 0v1113h256v-1113h-256z" />
<glyph unicode="&#x152;" horiz-adv-x="2315" d="M125 739q0 154 57.5 290t159.5 234.5t249.5 156t317.5 57.5h1279v-233h-789v-383h694v-233h-694v-396h799v-232h-1289q-171 0 -318 56.5t-249 155t-159.5 235t-57.5 292.5zM397 739q0 -108 36.5 -201t103 -159.5t162.5 -104.5t210 -38h230v1004h-230q-114 0 -210 -37 t-162.5 -103.5t-103 -159t-36.5 -201.5z" />
<glyph unicode="&#x153;" horiz-adv-x="2192" d="M99 555q0 118 46 225t124 185.5t187.5 125t231.5 46.5q139 0 255.5 -62t189.5 -168q71 107 183.5 168.5t247.5 61.5q103 0 190 -31.5t149 -87t106 -131.5t65 -164t21 -185q0 -30 -4 -71h-819q22 -134 109 -209t211 -75q92 0 163.5 33t140.5 100l151 -133 q-177 -209 -457 -209q-143 0 -263.5 62.5t-195.5 172.5q-74 -108 -193.5 -171.5t-260.5 -63.5q-118 0 -225 46t-184.5 124t-123 185.5t-45.5 225.5zM354 555q0 -72 25.5 -137.5t69 -114.5t106 -78t133.5 -29q98 0 173.5 49t115.5 130.5t40 179.5q0 97 -42.5 179t-119 131 t-171.5 49q-98 0 -174 -49.5t-116 -131t-40 -178.5zM1270 634h574q-4 36 -12.5 68.5t-22 62t-31.5 54.5t-40.5 45.5t-49.5 34.5t-59 21.5t-68 7.5q-117 0 -195 -81t-96 -213z" />
<glyph unicode="&#x178;" horiz-adv-x="1509" d="M38 1477h306l413 -654l418 654h298l-587 -889v-588h-262v582zM415 1596v250h260v-250h-260zM835 1596v250h260v-250h-260z" />
<glyph unicode="&#x192;" horiz-adv-x="1111" d="M87 0v209q37 -8 84 -8q67 0 103.5 34t49.5 109l75 407h-169v213h205l38 196q31 166 117 246.5t252 80.5q112 0 194 -25v-212q-88 22 -146 22q-74 0 -115 -39t-56 -126l-25 -143h268v-213h-306l-80 -445q-12 -68 -33.5 -119.5t-53 -89t-73.5 -61.5t-94 -35t-117 -11 q-76 0 -118 10z" />
<glyph unicode="&#x2c6;" d="M165 1256l244 308h237l244 -308h-202l-163 141l-162 -141h-198z" />
<glyph unicode="&#x2c7;" d="M165 1564h202l162 -141l163 141h198l-244 -308h-237z" />
<glyph unicode="&#x2d8;" d="M167 1564h175q21 -65 65 -99t120.5 -34t120.5 34t65 99h175q-11 -148 -108.5 -231t-252 -83t-252 83t-108.5 231z" />
<glyph unicode="&#x2d9;" d="M394 1256v250h266v-250h-266z" />
<glyph unicode="&#x2da;" d="M287 1485q0 93 72.5 161.5t167.5 68.5q96 0 168 -69t72 -165q0 -61 -33 -114.5t-88.5 -85t-118.5 -31.5q-95 0 -167.5 70t-72.5 165zM397 1481q0 -53 38 -91t92 -38q27 0 51 10.5t41.5 28.5t28 42.5t10.5 51.5q0 35 -17.5 64.5t-47.5 47t-66 17.5q-54 0 -92 -38.5 t-38 -94.5z" />
<glyph unicode="&#x2db;" d="M371 -118q0 61 32 139h181q-12 -48 -12 -93q0 -73 47.5 -111.5t152.5 -44.5v-118q-192 -12 -296.5 48.5t-104.5 179.5z" />
<glyph unicode="&#x2dc;" d="M129 1276q36 136 89.5 200t146.5 64q49 0 109 -21t112 -42.5t82 -21.5t51 12.5t34.5 33.5t31.5 60l141 -44q-37 -134 -90.5 -197.5t-145.5 -63.5q-50 0 -109.5 20.5t-111.5 41.5t-83 21q-43 0 -66.5 -23.5t-49.5 -81.5z" />
<glyph unicode="&#x2dd;" d="M118 1256l220 345l223 -103l-253 -242h-190zM502 1256l224 345l224 -103l-258 -242h-190z" />
<glyph unicode="&#x3a9;" horiz-adv-x="1657" d="M143 0v211h384v101q-121 33 -209 116.5t-131.5 195t-43.5 237.5q0 115 35.5 216t99.5 177t150 131.5t189.5 84t215.5 28.5q138 0 261.5 -45.5t215.5 -126t146 -201t54 -262.5q0 -94 -24.5 -182t-71 -162.5t-120.5 -129t-165 -77.5v-101h381v-211h-576v422 q105 20 178 80.5t107.5 146.5t34.5 193q0 121 -53 220t-150 156.5t-220 57.5q-93 0 -173 -34t-135.5 -93t-86.5 -139.5t-31 -172.5q0 -104 34 -190.5t107 -147t175 -77.5v-422h-578z" />
<glyph unicode="&#x3c0;" d="M0 0v1477h1055v-1477h-1055zM103 203l362 536l-362 535v-1071zM171 103h715l-359 539zM171 1371l356 -538l359 538h-715zM588 739l362 -536v1071z" />
<glyph unicode="&#x401;" horiz-adv-x="1413" d="M190 0v1477h1094v-233h-835v-383h741v-233h-741v-396h846v-232h-1105zM397 1599v249h259v-249h-259zM817 1599v249h258v-249h-258z" />
<glyph unicode="&#x402;" horiz-adv-x="1842" d="M80 1242v235h1218v-235h-543v-413q199 141 435 141q109 0 200 -32.5t158 -94t104 -155.5t37 -211q0 -125 -37 -223t-104 -160.5t-158 -95t-200 -32.5q-112 0 -224 38l49 228q57 -19 122 -19q58 0 107 14t90 43t64 80t23 121q0 80 -34.5 136.5t-99 85t-154.5 28.5 q-219 0 -378 -143v-578h-260v1242h-415z" />
<glyph unicode="&#x403;" horiz-adv-x="1252" d="M190 0v1477h993v-235h-736v-1242h-257zM491 1599l224 346l233 -103l-258 -243h-199z" />
<glyph unicode="&#x404;" horiz-adv-x="1552" d="M125 739q0 155 56.5 295t155.5 243t241 164t306 61q97 0 180 -17t152 -50.5t122.5 -72t110.5 -92.5l-147 -177q-96 85 -197.5 130t-222.5 45q-182 0 -314 -116.5t-165 -297.5h662v-222h-664q20 -122 86 -218.5t169 -151.5t226 -55q45 0 86.5 6t79 17.5t71.5 27.5 t67.5 38.5t63.5 46.5t64 56l167 -171q-119 -127 -263 -190.5t-345 -63.5q-158 0 -297.5 59.5t-238 161.5t-155.5 243.5t-57 300.5z" />
<glyph unicode="&#x405;" horiz-adv-x="1349" d="M91 215l156 186q111 -96 222 -144t244 -48q120 0 190.5 51t70.5 139q0 55 -25.5 91.5t-98.5 70t-208 65.5q-101 24 -173 48.5t-135.5 60t-102 81t-60.5 108.5t-22 145q0 125 65 223t180 152t260 54q306 0 536 -186l-139 -197q-205 153 -401 153q-111 0 -176 -50.5 t-65 -128.5q0 -60 29 -97.5t103.5 -69.5t217.5 -66q122 -30 207 -65.5t147 -87t91.5 -121t29.5 -162.5q0 -135 -67.5 -235.5t-186 -153t-273.5 -52.5q-172 0 -328.5 59.5t-287.5 176.5z" />
<glyph unicode="&#x406;" horiz-adv-x="668" d="M205 0v1477h260v-1477h-260z" />
<glyph unicode="&#x407;" horiz-adv-x="668" d="M-4 1599v249h259v-249h-259zM205 0v1477h260v-1477h-260zM415 1599v249h260v-249h-260z" />
<glyph unicode="&#x408;" horiz-adv-x="1178" d="M44 217l171 175q69 -87 139 -130t159 -43q108 0 171 73.5t63 216.5v968h265v-975q0 -256 -136 -393q-130 -130 -359 -130q-299 0 -473 238z" />
<glyph unicode="&#x409;" horiz-adv-x="2387" d="M10 6l26 213q37 -12 85 -12q35 0 62.5 7.5t59 32t54.5 67t45 116t36 175t22.5 249t8.5 332.5v291h1004v-531h340q167 0 290.5 -53t192.5 -158.5t69 -251.5q0 -223 -149 -353t-405 -130h-597v1242h-502v-133q0 -196 -10.5 -353.5t-30 -274.5t-50 -203.5t-67 -142.5 t-86 -90t-101.5 -47.5t-117 -13.5q-40 0 -93.5 7t-86.5 15zM1413 232h334q145 0 223.5 64.5t78.5 188.5q0 113 -80.5 173.5t-227.5 60.5h-328v-487z" />
<glyph unicode="&#x40a;" horiz-adv-x="2385" d="M190 0v1477h257v-579h705v579h259v-579h370q240 0 381 -116t141 -325q0 -216 -142 -336.5t-394 -120.5h-615v677h-705v-677h-257zM1411 232h346q288 0 288 235q0 69 -33 117t-98.5 73t-160.5 25h-342v-450z" />
<glyph unicode="&#x40b;" horiz-adv-x="1842" d="M80 1242v235h1218v-235h-543v-421q203 141 435 141q109 0 200 -29.5t158 -86t104 -143t37 -194.5v-509h-256v413q0 93 -33.5 160t-99 103.5t-157.5 36.5q-116 0 -209.5 -35.5t-178.5 -112.5v-565h-258v1242h-417z" />
<glyph unicode="&#x40c;" horiz-adv-x="1528" d="M190 0v1477h259v-743l703 743h318l-614 -635l642 -842h-315l-504 664l-230 -236v-428h-259zM646 1599l223 346l232 -103l-257 -243h-198z" />
<glyph unicode="&#x40e;" horiz-adv-x="1543" d="M53 1477h291l459 -859l406 859h280l-575 -1155q-91 -183 -206 -264.5t-263 -81.5q-150 0 -288 74l98 195q81 -46 182 -46q56 0 118 38t113 121zM469 1888l157 30q42 -144 175 -144q130 0 175 144l157 -30q-21 -137 -109.5 -216.5t-222.5 -79.5q-133 0 -221.5 79.5 t-110.5 216.5z" />
<glyph unicode="&#x40f;" horiz-adv-x="1584" d="M187 0v1477h258v-1243h690v1243h258v-1477h-475v-316h-252v316h-479z" />
<glyph unicode="&#x410;" horiz-adv-x="1665" d="M63 0l650 1487h241l649 -1487h-274l-150 356h-698l-152 -356h-266zM576 586h509l-256 591z" />
<glyph unicode="&#x411;" horiz-adv-x="1497" d="M190 0v1477h1101v-235h-844v-339h412q246 0 391 -118.5t145 -329.5q0 -219 -146.5 -337t-402.5 -118h-656zM447 232h342q176 0 261 52t85 183q0 106 -77.5 161.5t-222.5 55.5h-388v-452z" />
<glyph unicode="&#x412;" horiz-adv-x="1522" d="M190 0v1477h662q255 0 386 -131q99 -99 99 -249q0 -221 -210 -330q68 -23 119 -53t91.5 -72.5t61 -102t20.5 -134.5q0 -130 -68 -222t-190 -137.5t-288 -45.5h-683zM445 230h431q89 0 152 23t97.5 69.5t34.5 114.5q0 95 -76.5 146t-227.5 51h-411v-404zM445 854h354 q130 0 204.5 51.5t74.5 153.5q0 88 -67.5 137.5t-191.5 49.5h-374v-392z" />
<glyph unicode="&#x413;" horiz-adv-x="1252" d="M190 0v1477h993v-235h-736v-1242h-257z" />
<glyph unicode="&#x414;" horiz-adv-x="1606" d="M21 232h144q63 125 103.5 267.5t62 334t21.5 434.5v209h1029v-1245h185l-36 -548h-216v316h-1040l-25 -316h-228v548zM441 232h682v1010h-521v-169q0 -253 -42 -469t-119 -372z" />
<glyph unicode="&#x415;" horiz-adv-x="1413" d="M190 0v1477h1094v-233h-835v-383h741v-233h-741v-396h846v-232h-1105z" />
<glyph unicode="&#x416;" horiz-adv-x="2290" d="M32 0l582 848l-553 629h310l646 -768v768h257v-768l646 768h310l-555 -629l584 -848h-312l-441 656l-232 -264v-392h-257v392l-232 264l-441 -656h-312z" />
<glyph unicode="&#x417;" horiz-adv-x="1362" d="M68 217l141 180q205 -196 491 -196q80 0 145 26t105 77t40 118q0 56 -25.5 97.5t-72 67t-106.5 38t-134 12.5h-167v215h165q142 0 223 56t81 159q0 93 -77.5 150t-201.5 57q-128 0 -227.5 -41t-185.5 -124l-139 169q114 109 248.5 166.5t320.5 57.5q113 0 210 -30 t165 -82.5t106 -126t38 -158.5q0 -239 -251 -344q64 -19 115 -50t90.5 -74t61 -101.5t21.5 -128.5q0 -92 -38.5 -171.5t-108.5 -137t-172 -91t-222 -33.5q-209 0 -360 60t-279 183z" />
<glyph unicode="&#x418;" horiz-adv-x="1626" d="M190 0v1477h255v-1078l747 1078h243v-1477h-256v1075l-744 -1075h-245z" />
<glyph unicode="&#x419;" horiz-adv-x="1626" d="M190 0v1477h255v-1078l747 1078h243v-1477h-256v1075l-744 -1075h-245zM487 1888l159 30q42 -144 175 -144q130 0 175 144l156 -30q-21 -137 -109 -216.5t-222 -79.5q-67 0 -123.5 21t-99.5 59t-71.5 93t-39.5 123z" />
<glyph unicode="&#x41a;" horiz-adv-x="1528" d="M190 0v1477h259v-743l703 743h318l-614 -635l642 -842h-315l-504 664l-230 -236v-428h-259z" />
<glyph unicode="&#x41b;" horiz-adv-x="1612" d="M10 6l26 213q37 -12 85 -12q35 0 62.5 7.5t59 32t54.5 67t45 116t36 175t22.5 249t8.5 332.5v291h1012v-1477h-259v1242h-510v-133q0 -199 -10.5 -357.5t-30 -276t-50 -203.5t-67 -141t-86 -88t-101.5 -46t-117 -13q-40 0 -93.5 7t-86.5 15z" />
<glyph unicode="&#x41c;" horiz-adv-x="1830" d="M190 0v1477h277l449 -698l449 698h276v-1477h-260v1059l-465 -696h-9l-462 692v-1055h-255z" />
<glyph unicode="&#x41d;" horiz-adv-x="1602" d="M190 0v1477h259v-614h705v614h259v-1477h-259v622h-705v-622h-259z" />
<glyph unicode="&#x41e;" horiz-adv-x="1792" d="M125 739q0 154 57.5 294t158 243.5t246 164.5t311.5 61q167 0 311.5 -60.5t244.5 -163.5t157.5 -243t57.5 -296q0 -124 -37 -239t-106 -210t-163 -166t-215 -110.5t-254 -39.5q-166 0 -310.5 60.5t-244.5 164t-157 243.5t-57 297zM397 739q0 -107 37.5 -203.5 t102.5 -167.5t159 -113t202 -42t201.5 41.5t158.5 112t102 167t37 205.5q0 106 -38 202.5t-103.5 167.5t-159.5 113t-202 42t-201.5 -41.5t-158 -112t-101 -167t-36.5 -204.5z" />
<glyph unicode="&#x41f;" horiz-adv-x="1584" d="M190 0v1477h1205v-1477h-260v1242h-686v-1242h-259z" />
<glyph unicode="&#x420;" horiz-adv-x="1409" d="M190 0v1477h582q258 0 409.5 -135.5t151.5 -363.5q0 -97 -30.5 -179t-84 -141.5t-127.5 -101t-162 -61.5t-186 -20h-294v-475h-259zM449 709h302q96 0 168.5 33.5t111 94t38.5 139.5q0 128 -85 196t-233 68h-302v-531z" />
<glyph unicode="&#x421;" horiz-adv-x="1556" d="M125 739q0 156 56.5 296t155.5 243t242 163.5t307 60.5q99 0 184 -16.5t155 -48.5t126 -71.5t113 -93.5l-166 -192q-63 59 -123 97.5t-135 62.5t-156 24q-139 0 -251 -70t-174 -190t-62 -265q0 -108 36.5 -204.5t100.5 -167.5t155 -112.5t195 -41.5q127 0 223.5 47 t200.5 145l167 -169q-61 -64 -121 -109.5t-132.5 -81t-158.5 -53.5t-187 -18q-159 0 -299 59.5t-239 161.5t-156 243.5t-57 300.5z" />
<glyph unicode="&#x422;" horiz-adv-x="1366" d="M84 1236v241h1198v-241h-467v-1236h-262v1236h-469z" />
<glyph unicode="&#x423;" horiz-adv-x="1543" d="M53 1477h291l459 -859l406 859h280l-575 -1155q-91 -183 -206 -264.5t-263 -81.5q-150 0 -288 74l98 195q81 -46 182 -46q56 0 118 38t113 121z" />
<glyph unicode="&#x424;" horiz-adv-x="1934" d="M99 751q0 140 51 258t144.5 202.5t233 131.5t309.5 47v140h258v-140q171 0 310 -47t233 -131.5t144.5 -203t50.5 -259.5q0 -113 -31.5 -212t-94 -178.5t-151 -136.5t-206 -88t-255.5 -31v-160h-258v160q-171 0 -310.5 48t-233 134t-144 205t-50.5 261zM365 747 q0 -195 126 -304t346 -109v824q-219 0 -345.5 -109.5t-126.5 -301.5zM1095 334q221 0 347 108.5t126 304.5q0 192 -126 301.5t-347 109.5v-824z" />
<glyph unicode="&#x425;" horiz-adv-x="1536" d="M78 0l538 751l-517 726h306l367 -529l369 529h298l-515 -722l536 -755h-306l-389 559l-389 -559h-298z" />
<glyph unicode="&#x426;" horiz-adv-x="1623" d="M190 0v1477h259v-1243h692v1243h258v-1243h183l-36 -550h-215v316h-1141z" />
<glyph unicode="&#x427;" horiz-adv-x="1505" d="M149 930v547h260v-481q0 -70 17.5 -124.5t51.5 -92.5t86 -58.5t120 -20.5q97 0 198 34t175 83v660h259v-1477h-259v584q-98 -51 -209.5 -88t-210.5 -37q-110 0 -199 29.5t-153.5 86.5t-100 147.5t-35.5 207.5z" />
<glyph unicode="&#x428;" horiz-adv-x="2313" d="M190 0v1477h257v-1245h580v1245h259v-1245h580v1245h258v-1477h-1934z" />
<glyph unicode="&#x429;" horiz-adv-x="2349" d="M190 0v1477h259v-1243h580v1243h257v-1243h580v1243h260v-1243h182l-36 -550h-213v316h-1869z" />
<glyph unicode="&#x42a;" horiz-adv-x="1676" d="M74 1242v235h626v-531h340q125 0 227 -31t175 -89t112.5 -145.5t39.5 -197.5q0 -148 -67.5 -257t-193 -167.5t-295.5 -58.5h-595v1242h-369zM700 232h334q145 0 224 64.5t79 188.5q0 113 -80.5 173.5t-229.5 60.5h-327v-487z" />
<glyph unicode="&#x42b;" horiz-adv-x="1963" d="M190 0v1477h257v-531h340q167 0 291 -53t194 -158.5t70 -251.5q0 -223 -150 -353t-407 -130h-595zM447 232h334q145 0 224.5 64.5t79.5 188.5q0 113 -80.5 173.5t-227.5 60.5h-330v-487zM1517 0v1477h257v-1477h-257z" />
<glyph unicode="&#x42c;" horiz-adv-x="1423" d="M190 0v1477h257v-531h340q167 0 291 -53t194 -158.5t70 -251.5q0 -223 -150 -353t-407 -130h-595zM447 232h334q145 0 224.5 64.5t79.5 188.5q0 113 -80.5 173.5t-227.5 60.5h-330v-487z" />
<glyph unicode="&#x42d;" horiz-adv-x="1548" d="M68 228l166 171q106 -98 204 -145t228 -47q93 0 175.5 32t144.5 88.5t104 135t57 169.5h-662v222h660q-33 181 -165 297.5t-314 116.5q-121 0 -222 -45t-197 -130l-148 177q57 53 111 92t123 72.5t152 50.5t179 17q164 0 306.5 -61t241 -164t155 -243t56.5 -295 q0 -159 -56.5 -300.5t-155.5 -243.5t-238.5 -161.5t-297.5 -59.5q-201 0 -344.5 63.5t-262.5 190.5z" />
<glyph unicode="&#x42e;" horiz-adv-x="2230" d="M190 0v1477h259v-618h245q18 136 77.5 254t150 204t214 135.5t263.5 49.5q103 0 198 -27t172.5 -76t141 -118.5t106.5 -153.5t66.5 -183t23.5 -205q0 -158 -52.5 -298.5t-145 -243.5t-226 -163t-288.5 -60q-142 0 -265.5 49.5t-213.5 136.5t-148.5 207t-75.5 259h-243 v-626h-259zM954 739q0 -110 33 -207.5t91 -168.5t141.5 -112.5t179.5 -41.5q128 0 229.5 69.5t157.5 190.5t56 270q0 146 -57 266.5t-159.5 190.5t-231 70t-229.5 -69t-156 -189.5t-55 -268.5z" />
<glyph unicode="&#x42f;" horiz-adv-x="1522" d="M76 0l403 555q-79 22 -142.5 60.5t-111 94t-73 131t-25.5 165.5q0 217 147 344t403 127h656v-1477h-258v511h-326l-367 -511h-306zM388 990q0 -116 83.5 -185t222.5 -69h381v506h-377q-146 0 -228 -66t-82 -186z" />
<glyph unicode="&#x430;" horiz-adv-x="1238" d="M84 324q0 73 22.5 133t62 103t96 72.5t124.5 43.5t147 14q163 0 308 -46v20q0 116 -71 177.5t-203 61.5q-88 0 -161.5 -17.5t-157.5 -52.5l-70 205q103 46 200.5 69.5t224.5 23.5q243 0 366 -122t123 -349v-660h-253v137q-136 -161 -361 -161q-80 0 -151 23t-126 65.5 t-87.5 110t-32.5 149.5zM338 334q0 -51 29 -89t77 -57t109 -19q128 0 211.5 65t83.5 169v64q-112 44 -256 44q-120 0 -187 -46.5t-67 -130.5z" />
<glyph unicode="&#x431;" horiz-adv-x="1379" d="M127 624q0 64 1.5 115.5t7.5 112.5t16 109.5t27 101.5t40.5 94.5t57 82.5t75.5 71t97.5 54t122.5 38l607 127l43 -205l-608 -133q-63 -14 -112 -37t-81 -52t-54 -66.5t-32.5 -76t-14.5 -84.5q23 38 59.5 73.5t88.5 66.5t125 50t156 19q106 0 204 -42.5t170 -114.5 t114.5 -173t42.5 -213q0 -114 -43.5 -218.5t-119.5 -181.5t-184.5 -122.5t-232.5 -45.5q-270 0 -421.5 171t-151.5 479zM382 538q0 -94 42 -172.5t116.5 -124t164.5 -45.5q93 0 167 46t113.5 123.5t39.5 172.5q0 93 -42 172t-117 125.5t-166 46.5t-164.5 -46t-113.5 -124.5 t-40 -173.5z" />
<glyph unicode="&#x432;" horiz-adv-x="1244" d="M161 0v1113h571q167 0 267 -75t100 -203q0 -175 -179 -255q229 -65 229 -278q0 -141 -110 -221.5t-300 -80.5h-578zM411 203h289q92 0 141 38.5t49 104.5q0 62 -51 98.5t-151 36.5h-277v-278zM411 654h262q78 0 122 37.5t44 99.5q0 37 -16 65t-53.5 45t-92.5 17h-266 v-264z" />
<glyph unicode="&#x433;" horiz-adv-x="990" d="M161 0v1113h789v-219h-535v-894h-254z" />
<glyph unicode="&#x434;" horiz-adv-x="1349" d="M32 219h119q125 250 125 757v137h863v-894h159l-34 -487h-213v268h-781l-25 -268h-213v487zM413 219h471v675h-367v-147q0 -150 -27.5 -286.5t-76.5 -241.5z" />
<glyph unicode="&#x435;" horiz-adv-x="1273" d="M99 557q0 118 40.5 224.5t112 185t173.5 124.5t219 46q86 0 162 -22t134 -62t103.5 -95.5t74.5 -122.5t44 -142t15 -155q0 -47 -4 -71h-819q21 -134 108 -209t213 -75q90 0 161 33t140 100l151 -133q-174 -209 -456 -209q-120 0 -225.5 42.5t-182 118t-120.5 185 t-44 237.5zM352 634h572q-6 63 -27.5 116t-56.5 93t-86 62.5t-112 22.5q-77 0 -139 -37.5t-100.5 -103.5t-50.5 -153z" />
<glyph unicode="&#x436;" horiz-adv-x="1845" d="M19 0l436 646l-419 467h298l461 -545v545h256v-545l463 545h298l-419 -467l434 -646h-287l-318 475l-171 -195v-280h-256v280l-171 195l-318 -475h-287z" />
<glyph unicode="&#x437;" horiz-adv-x="1091" d="M53 145l120 169q49 -42 106 -71.5t119 -45.5t125 -16q89 0 150 43.5t61 111.5q0 63 -59 101t-166 38h-138v183h138q89 0 142.5 40.5t53.5 104.5q0 57 -52 92t-132 35q-88 0 -170.5 -29t-145.5 -84l-114 159q88 76 204 118.5t249 42.5q183 0 299.5 -84.5t116.5 -215.5 q0 -177 -175 -253q202 -71 202 -270q0 -70 -32.5 -132t-90 -108t-141.5 -73t-183 -27q-288 0 -487 171z" />
<glyph unicode="&#x438;" horiz-adv-x="1336" d="M161 0v1113h248v-746q288 409 527 746h241v-1113h-247v743l-529 -743h-240z" />
<glyph unicode="&#x439;" horiz-adv-x="1336" d="M161 0v1113h248v-746q288 409 527 746h241v-1113h-247v743l-529 -743h-240zM340 1536l155 30q46 -145 175.5 -145t175.5 145l154 -30q-21 -136 -108.5 -215t-220.5 -79q-67 0 -123.5 21t-99 59t-70.5 92.5t-38 121.5z" />
<glyph unicode="&#x43a;" horiz-adv-x="1250" d="M161 0v1113h252v-533l485 533h300l-433 -467l469 -646h-302l-337 459l-182 -191v-268h-252z" />
<glyph unicode="&#x43b;" horiz-adv-x="1313" d="M2 2l19 209q33 -8 74 -8q31 0 52.5 6t46.5 26.5t41 58.5t32 105t25 163t14.5 234.5t5.5 316.5h842v-1113h-256v894h-347q0 -133 -5.5 -243.5t-16 -196.5t-27.5 -153.5t-36 -116.5t-46.5 -84t-54.5 -56.5t-63.5 -34t-71 -17t-79.5 -4.5q-60 0 -149 14z" />
<glyph unicode="&#x43c;" horiz-adv-x="1524" d="M161 0v1113h252l348 -516l350 516h254v-1113h-258v743l-350 -500l-348 496v-739h-248z" />
<glyph unicode="&#x43d;" horiz-adv-x="1322" d="M161 0v1113h254v-451h492v451h255v-1113h-255v449h-492v-449h-254z" />
<glyph unicode="&#x43e;" horiz-adv-x="1385" d="M99 555q0 118 45.5 225t123.5 185.5t189.5 125t237 46.5t236 -46t188.5 -124t122.5 -185t44.5 -227q0 -117 -45 -223.5t-123 -185.5t-190 -125.5t-238 -46.5q-125 0 -235.5 46t-188 124t-122.5 185.5t-45 225.5zM354 555q0 -96 43 -178t121.5 -131.5t175.5 -49.5 q101 0 178.5 49t118 130.5t40.5 179.5t-43 179.5t-121.5 130.5t-176.5 49q-100 0 -177 -48.5t-118 -129.5t-41 -181z" />
<glyph unicode="&#x43f;" horiz-adv-x="1313" d="M161 0v1113h993v-1113h-256v894h-483v-894h-254z" />
<glyph unicode="&#x440;" horiz-adv-x="1413" d="M161 -338v1451h254v-185q148 209 378 209q80 0 155.5 -24.5t141.5 -73.5t115.5 -117.5t78 -163t28.5 -203.5q0 -107 -28.5 -201t-78 -162.5t-115 -117.5t-141.5 -73.5t-156 -24.5q-228 0 -378 197v-511h-254zM409 555q0 -78 26.5 -146t71 -113.5t104 -71t123.5 -25.5 q66 0 124 25t101 71t68.5 114t25.5 150q0 64 -16.5 120t-46 99t-69 74t-87.5 47.5t-100 16.5q-64 0 -123.5 -26.5t-104 -72.5t-71 -114t-26.5 -148z" />
<glyph unicode="&#x441;" horiz-adv-x="1193" d="M99 551v4q0 117 44 224t119.5 186t183.5 125.5t231 46.5q150 0 256 -49.5t190 -141.5l-159 -171q-65 68 -132 103.5t-157 35.5q-91 0 -165 -48.5t-115 -129.5t-41 -177v-4q0 -99 42.5 -181t119 -130t172.5 -48q44 0 84 10t75.5 29.5t66.5 43.5t62 57l155 -153 q-59 -66 -119 -109.5t-146.5 -71.5t-190.5 -28q-122 0 -229.5 46t-183.5 124t-119.5 184t-43.5 223z" />
<glyph unicode="&#x442;" horiz-adv-x="1056" d="M40 894v219h975v-219h-359v-894h-257v894h-359z" />
<glyph unicode="&#x443;" horiz-adv-x="1256" d="M55 1113h272l317 -826l288 826h266l-443 -1145q-66 -171 -149 -241.5t-218 -70.5q-137 0 -263 68l86 189q76 -42 149 -42q56 0 92 29t67 100z" />
<glyph unicode="&#x444;" horiz-adv-x="1874" d="M103 557q0 132 33.5 240.5t93.5 181.5t144 112.5t183 39.5q144 0 253 -112v458h255v-458q22 22 47.5 41t57 35.5t70 26t78.5 9.5q100 0 183.5 -39.5t143.5 -112.5t93.5 -182t33.5 -242t-33.5 -241.5t-93.5 -180.5t-143 -110.5t-182 -38.5q-154 0 -255 96v-418h-255v418 q-45 -43 -110.5 -69.5t-144.5 -26.5q-99 0 -182 38.5t-143 110.5t-93.5 181t-33.5 243zM360 553q0 -169 68.5 -263t201.5 -94q53 0 95.5 18.5t84.5 55.5v565q-43 39 -85 59t-95 20q-130 0 -200 -97t-70 -264zM1065 270q84 -74 181 -74q134 0 201 94t67 265q0 166 -69 262.5 t-199 96.5q-88 0 -181 -79v-565z" />
<glyph unicode="&#x445;" horiz-adv-x="1222" d="M63 0l410 565l-395 548h278l258 -366l257 366h272l-394 -541l411 -572h-278l-274 390l-272 -390h-273z" />
<glyph unicode="&#x446;" horiz-adv-x="1359" d="M161 0v1113h252v-894h481v894h253v-894h161l-34 -487h-213v268h-900z" />
<glyph unicode="&#x447;" horiz-adv-x="1252" d="M127 682v431h255v-370q0 -80 50.5 -137.5t132.5 -57.5q142 0 272 74v491h256v-1113h-256v415q-66 -34 -156 -58.5t-174 -24.5q-171 0 -275.5 91.5t-104.5 258.5z" />
<glyph unicode="&#x448;" horiz-adv-x="1906" d="M161 0v1113h254v-894h412v894h253v-894h411v894h256v-1113h-1586z" />
<glyph unicode="&#x449;" horiz-adv-x="1957" d="M161 0v1113h254v-894h412v894h253v-894h411v894h256v-894h157l-30 -487h-214v268h-1499z" />
<glyph unicode="&#x44a;" horiz-adv-x="1359" d="M36 896v217h561v-390h257q96 0 175.5 -21t140 -63.5t94.5 -110.5t34 -157q0 -172 -114.5 -271.5t-312.5 -99.5h-527v896h-308zM597 207h242q98 0 149.5 42t51.5 122q0 74 -53 114t-152 40h-238v-318z" />
<glyph unicode="&#x44b;" horiz-adv-x="1676" d="M161 0v1113h254v-390h235q96 0 175.5 -21t140 -63.5t94 -110.5t33.5 -157q0 -172 -114 -271.5t-311 -99.5h-507zM415 207h219q98 0 150.5 42t52.5 122q0 74 -54 114t-153 40h-215v-318zM1262 0v1113h255v-1113h-255z" />
<glyph unicode="&#x44c;" horiz-adv-x="1176" d="M161 0v1113h254v-390h256q96 0 175.5 -21t139.5 -63.5t93.5 -110.5t33.5 -157q0 -172 -113.5 -271.5t-309.5 -99.5h-529zM415 207h241q97 0 150 42t53 122q0 74 -54.5 114t-152.5 40h-237v-318z" />
<glyph unicode="&#x44d;" horiz-adv-x="1193" d="M57 181l152 151q44 -46 86.5 -76t97 -49.5t114.5 -19.5q124 0 214 79t114 201h-436v183h434q-23 116 -110.5 193t-205.5 77q-95 0 -166 -33t-136 -98l-137 159q180 187 441 187q83 0 159.5 -21t139.5 -59.5t115 -92t87.5 -118t55 -139t19.5 -152.5q0 -118 -44 -224.5 t-120 -184.5t-183.5 -124t-228.5 -46q-155 0 -264.5 53t-197.5 154z" />
<glyph unicode="&#x44e;" horiz-adv-x="1807" d="M161 0v1113h252v-451h193q13 80 45 151.5t81.5 130t112.5 101.5t142 66.5t167 23.5q123 0 227.5 -45.5t176 -124t111.5 -184.5t40 -226q0 -94 -25.5 -181.5t-74.5 -159.5t-116.5 -126t-155.5 -84t-188 -30q-109 0 -204 36.5t-164.5 100.5t-114.5 151t-60 189h-193v-451 h-252zM850 555q0 -73 20.5 -138.5t59 -114.5t96.5 -77.5t128 -28.5q72 0 130 28.5t95 78t56.5 114t19.5 138.5q0 99 -35.5 179.5t-106.5 130t-164 49.5q-96 0 -165 -49t-101.5 -128.5t-32.5 -181.5z" />
<glyph unicode="&#x44f;" horiz-adv-x="1264" d="M59 0l308 418q-119 37 -189.5 121.5t-70.5 211.5q0 164 116 263t323 99h559v-1113h-255v376h-228l-264 -376h-299zM363 739q0 -53 27.5 -92t77 -59t114.5 -20h268v339h-270q-101 0 -159 -45t-58 -123z" />
<glyph unicode="&#x451;" horiz-adv-x="1273" d="M99 557q0 118 40.5 224.5t112 185t173.5 124.5t219 46q86 0 162 -22t134 -62t103.5 -95.5t74.5 -122.5t44 -142t15 -155q0 -47 -4 -71h-819q21 -134 108 -209t213 -75q90 0 161 33t140 100l151 -133q-174 -209 -456 -209q-120 0 -225.5 42.5t-182 118t-120.5 185 t-44 237.5zM296 1256v248h259v-248h-259zM352 634h572q-6 63 -27.5 116t-56.5 93t-86 62.5t-112 22.5q-77 0 -139 -37.5t-100.5 -103.5t-50.5 -153zM715 1256v248h259v-248h-259z" />
<glyph unicode="&#x452;" horiz-adv-x="1307" d="M6 1179v186h153v175h254v-175h380v-186h-380v-299q30 43 62.5 76t75 62t96.5 44.5t116 15.5q188 0 294.5 -116t106.5 -312v-243q0 -196 -111.5 -311t-299.5 -115q-51 0 -94.5 6t-64 12t-53.5 16q-6 3 -10 4l45 200q40 -16 90 -16q108 0 175.5 75t67.5 201v95 q0 129 -63.5 200.5t-177 71.5t-184.5 -75.5t-71 -202.5v-568h-254v1179h-153z" />
<glyph unicode="&#x453;" horiz-adv-x="990" d="M161 0v1113h789v-219h-535v-894h-254zM380 1256l224 345l231 -103l-257 -242h-198z" />
<glyph unicode="&#x454;" horiz-adv-x="1210" d="M99 553q0 118 43 224.5t118 185.5t183.5 125.5t231.5 46.5q261 0 440 -187l-137 -159q-64 65 -135.5 98t-165.5 33q-118 0 -206 -77t-113 -193h437v-183h-439q17 -80 63 -143t116 -100t153 -37q88 0 158.5 37.5t138.5 107.5l152 -151q-88 -101 -197.5 -154t-264.5 -53 q-121 0 -228.5 46t-183.5 124t-120 184.5t-44 224.5z" />
<glyph unicode="&#x455;" d="M70 145l113 173q90 -67 184 -102t181 -35q82 0 127.5 33t45.5 92q0 23 -13 42.5t-29 32.5t-50 27t-57 21t-70 21q-7 2 -11 3q-2 1 -8.5 3t-9.5 3q-42 13 -72 23t-69 26.5t-66 34t-55.5 43t-46 55t-28.5 68.5t-11 84q0 103 53 181t142.5 118.5t200.5 40.5 q104 0 211.5 -33.5t197.5 -93.5l-101 -181q-173 105 -314 105q-73 0 -115 -31t-42 -84q0 -19 7.5 -34.5t25.5 -29.5t34 -24t47.5 -22t51 -19t59.5 -20q3 -1 5 -2q3 -1 7 -2l8 -2t7 -2q40 -12 70.5 -23t68.5 -28t65.5 -35t55.5 -43.5t46 -54t29 -66t11 -79.5 q0 -86 -32 -153.5t-88.5 -110t-131 -64.5t-162.5 -22q-122 0 -246 43t-226 123z" />
<glyph unicode="&#x456;" horiz-adv-x="602" d="M165 1284v243h274v-243h-274zM175 0v1113h256v-1113h-256z" />
<glyph unicode="&#x457;" horiz-adv-x="602" d="M-36 1256v248h260v-248h-260zM175 0v1113h256v-1113h-256zM384 1256v248h260v-248h-260z" />
<glyph unicode="&#x458;" horiz-adv-x="602" d="M-16 -129q38 -6 71 -6q120 0 120 135v1113h256v-1127q0 -330 -326 -330q-55 0 -121 10v205zM165 1284v243h274v-243h-274z" />
<glyph unicode="&#x459;" horiz-adv-x="1914" d="M2 2l19 209q33 -8 74 -8q32 0 54 6.5t46.5 28t41 61t32 107t24 163t14 232t5.5 312.5h842v-390h255q96 0 175.5 -21t140 -63.5t94 -110.5t33.5 -157q0 -114 -51.5 -198t-147.5 -128.5t-225 -44.5h-530v894h-347q0 -133 -6 -243.5t-16 -196.5t-27 -154t-36.5 -116.5 t-46.5 -83.5t-54.5 -56.5t-64 -34t-71 -17t-78.5 -4.5q-70 0 -149 14zM1154 207h241q97 0 149 42t52 122q0 74 -53.5 114t-152.5 40h-236v-318z" />
<glyph unicode="&#x45a;" horiz-adv-x="1920" d="M159 0v1113h254v-402h492v402h255v-402h257q96 0 174.5 -21t139 -62.5t94 -109.5t33.5 -158q0 -112 -51 -193.5t-146.5 -124t-225.5 -42.5h-530v511h-492v-511h-254zM1160 207h243q200 0 200 156q0 48 -24 81.5t-69.5 51t-110.5 17.5h-239v-306z" />
<glyph unicode="&#x45b;" horiz-adv-x="1307" d="M6 1179v186h153v175h254v-175h380v-186h-380v-297q29 42 61 75t74.5 62t96.5 44t116 15q187 0 293 -115.5t106 -312.5v-650h-255v574q0 129 -62.5 200.5t-176.5 71.5q-74 0 -131 -33t-89.5 -95.5t-32.5 -147.5v-570h-254v1179h-153z" />
<glyph unicode="&#x45c;" horiz-adv-x="1250" d="M161 0v1113h252v-533l485 533h300l-433 -467l469 -646h-302l-337 459l-182 -191v-268h-252zM509 1256l223 345l232 -103l-257 -242h-198z" />
<glyph unicode="&#x45e;" horiz-adv-x="1256" d="M55 1113h272l317 -826l288 826h266l-443 -1145q-66 -171 -149 -241.5t-218 -70.5q-137 0 -263 68l86 189q76 -42 149 -42q56 0 92 29t67 100zM310 1536l157 30q45 -145 175 -145t175 145l153 -30q-21 -136 -108 -215t-220 -79q-134 0 -222.5 79t-109.5 215z" />
<glyph unicode="&#x45f;" horiz-adv-x="1313" d="M161 0v1113h252v-894h487v894h254v-1113h-371v-268h-243v268h-379z" />
<glyph unicode="&#x490;" horiz-adv-x="1252" d="M190 0v1477h740v316h217l36 -551h-736v-1242h-257z" />
<glyph unicode="&#x491;" horiz-adv-x="990" d="M161 0v1113h544v268h213l32 -487h-535v-894h-254z" />
<glyph unicode="&#x2000;" horiz-adv-x="972" />
<glyph unicode="&#x2001;" horiz-adv-x="1945" />
<glyph unicode="&#x2002;" horiz-adv-x="972" />
<glyph unicode="&#x2003;" horiz-adv-x="1945" />
<glyph unicode="&#x2004;" horiz-adv-x="648" />
<glyph unicode="&#x2005;" horiz-adv-x="486" />
<glyph unicode="&#x2006;" horiz-adv-x="324" />
<glyph unicode="&#x2007;" horiz-adv-x="324" />
<glyph unicode="&#x2008;" horiz-adv-x="243" />
<glyph unicode="&#x2009;" horiz-adv-x="389" />
<glyph unicode="&#x200a;" horiz-adv-x="108" />
<glyph unicode="&#x2010;" horiz-adv-x="860" d="M118 521v251h625v-251h-625z" />
<glyph unicode="&#x2011;" horiz-adv-x="860" d="M118 521v251h625v-251h-625z" />
<glyph unicode="&#x2012;" horiz-adv-x="860" d="M118 521v251h625v-251h-625z" />
<glyph unicode="&#x2013;" horiz-adv-x="1113" d="M118 525v242h878v-242h-878z" />
<glyph unicode="&#x2014;" horiz-adv-x="1894" d="M118 525v242h1658v-242h-1658z" />
<glyph unicode="&#x2018;" horiz-adv-x="566" d="M133 890v247q0 172 80 255t244 95l28 -110q-181 -31 -181 -173q0 -4 1 -11t1 -12h107v-291h-280z" />
<glyph unicode="&#x2019;" horiz-adv-x="566" d="M82 990q182 31 182 174q0 4 -1 11.5t-1 12.5h-108v289h281v-247q0 -172 -81 -255t-245 -95z" />
<glyph unicode="&#x201a;" horiz-adv-x="566" d="M72 -199q195 39 179 199h-108v289h281v-245q0 -171 -80.5 -254t-244.5 -96z" />
<glyph unicode="&#x201c;" horiz-adv-x="1056" d="M133 890v247q0 172 80 255t244 95l28 -110q-181 -31 -181 -173q0 -4 1 -11t1 -12h107v-291h-280zM622 890v247q0 116 37.5 191.5t108.5 113t180 45.5l26 -110q-181 -31 -181 -177v-19h110v-291h-281z" />
<glyph unicode="&#x201d;" horiz-adv-x="1056" d="M82 990q182 31 182 174q0 4 -1 11.5t-1 12.5h-108v289h281v-247q0 -172 -81 -255t-245 -95zM572 990q181 31 181 174q0 4 -1 11.5t-1 12.5h-107v289h280v-247q0 -172 -80.5 -255t-244.5 -95z" />
<glyph unicode="&#x201e;" horiz-adv-x="1056" d="M72 -199q181 36 181 175q0 4 -1 12t-1 12h-108v289h281v-245q0 -171 -80.5 -254t-244.5 -96zM561 -199q182 36 182 175q0 4 -1 12t-1 12h-109v289h282v-245q0 -171 -81 -254t-245 -96z" />
<glyph unicode="&#x2020;" horiz-adv-x="864" d="M118 1063v150l255 -19l-25 283h169l-26 -283l256 19v-150l-258 20l20 -581h-153l20 581z" />
<glyph unicode="&#x2021;" horiz-adv-x="906" d="M139 264v149l255 -19l-16 345l16 344l-255 -20v150l255 -19l-25 283h169l-25 -283l254 19v-150l-254 20l16 -344l-16 -345l254 19v-149l-254 18l25 -282h-169l25 282z" />
<glyph unicode="&#x2022;" horiz-adv-x="1035" d="M219 745q0 80 41 148.5t109.5 107.5t147.5 39q123 0 211.5 -87t88.5 -212q0 -124 -88 -210t-212 -86q-80 0 -148.5 39.5t-109 108.5t-40.5 152z" />
<glyph unicode="&#x2026;" horiz-adv-x="1670" d="M143 0v282h275v-282h-275zM698 0v282h274v-282h-274zM1254 0v282h273v-282h-273z" />
<glyph unicode="&#x202f;" horiz-adv-x="389" />
<glyph unicode="&#x2030;" horiz-adv-x="2589" d="M101 1115q0 77 25.5 146t70.5 120.5t111.5 82t142.5 30.5q101 0 181 -51.5t122.5 -137.5t42.5 -190q0 -102 -43 -187.5t-124 -137t-183 -51.5q-101 0 -181 51t-122.5 136.5t-42.5 188.5zM251 0l1080 1477h209l-1081 -1477h-208zM289 1115q0 -91 46 -153t116 -62 q48 0 84.5 29.5t55.5 78t19 107.5q0 91 -46.5 153.5t-116.5 62.5q-72 0 -115 -62t-43 -154zM994 360q0 77 25.5 146t70.5 120.5t111.5 82t142.5 30.5q101 0 180.5 -51.5t122 -137.5t42.5 -190q0 -102 -43 -187.5t-124 -137t-183 -51.5q-101 0 -180.5 51t-122 136.5 t-42.5 188.5zM1181 360q0 -91 46.5 -153t116.5 -62q72 0 115 62t43 153t-46.5 153.5t-116.5 62.5q-72 0 -115 -62t-43 -154zM1793 360q0 62 16 118.5t47 103.5t73 82t97 55t117 20q101 0 181 -51.5t123 -137.5t43 -190q0 -102 -43.5 -187.5t-124.5 -137t-183 -51.5 t-181.5 51t-122 136.5t-42.5 188.5zM1981 360q0 -91 46 -153t116 -62q48 0 84.5 29.5t55 78t18.5 107.5q0 91 -46 153.5t-116 62.5q-72 0 -115 -62t-43 -154z" />
<glyph unicode="&#x2039;" horiz-adv-x="745" d="M93 548v17l350 464l194 -99l-279 -371l279 -374l-194 -98z" />
<glyph unicode="&#x203a;" horiz-adv-x="745" d="M112 183l278 372l-278 373l194 101l348 -464v-17l-348 -461z" />
<glyph unicode="&#x2044;" horiz-adv-x="968" d="M-147 -207l984 1806h232l-985 -1806h-231z" />
<glyph unicode="&#x205f;" horiz-adv-x="486" />
<glyph unicode="&#x20ac;" horiz-adv-x="1518" d="M109 475v179h163q-2 28 -2 85q0 64 4 94h-165v179h199q32 108 88 197t131.5 154.5t173 102t206.5 36.5q94 0 172.5 -20.5t140.5 -59.5t109 -86.5t92 -111.5l-195 -146q-72 99 -146 145.5t-180 46.5q-110 0 -195 -68.5t-129 -189.5h453v-179h-493q-5 -55 -5 -94 q0 -29 5 -85h493v-179h-455q43 -126 132.5 -197t211.5 -71q52 0 95.5 13t82.5 40t72 61.5t72 85.5l186 -135q-48 -69 -98 -121t-112 -93t-137.5 -62.5t-162.5 -21.5q-230 0 -391.5 136t-222.5 365h-193z" />
<glyph unicode="&#x2122;" horiz-adv-x="1455" d="M55 1363v114h525v-114h-200v-536h-125v536h-200zM719 827v650h133l197 -308l195 308h129v-650h-119v462l-201 -313h-13l-201 313v-462h-120z" />
<glyph unicode="&#x2202;" d="M0 0v1477h1055v-1477h-1055zM103 203l362 536l-362 535v-1071zM171 103h715l-359 539zM171 1371l356 -538l359 538h-715zM588 739l362 -536v1071z" />
<glyph unicode="&#x2206;" horiz-adv-x="1391" d="M59 0l629 1479h242l631 -1479h-1502zM435 230h753l-376 919z" />
<glyph unicode="&#x220f;" d="M0 0v1477h1055v-1477h-1055zM103 203l362 536l-362 535v-1071zM171 103h715l-359 539zM171 1371l356 -538l359 538h-715zM588 739l362 -536v1071z" />
<glyph unicode="&#x2211;" d="M0 0v1477h1055v-1477h-1055zM103 203l362 536l-362 535v-1071zM171 103h715l-359 539zM171 1371l356 -538l359 538h-715zM588 739l362 -536v1071z" />
<glyph unicode="&#x221a;" horiz-adv-x="1187" d="M-36 568l298 31l272 -544l537 1618h197l-684 -2002h-50l-375 742l-180 -14z" />
<glyph unicode="&#x221e;" horiz-adv-x="1725" d="M91 747q0 109 43 196t126 138.5t193 51.5q53 0 103 -14.5t88.5 -36t80.5 -57.5t70.5 -67t67.5 -76l7 7q32 36 48.5 54t47 49t51.5 47t53 37t60.5 31.5t65 18t74.5 7.5q110 0 194 -51t127.5 -138t43.5 -197q0 -111 -42.5 -198.5t-126 -140t-196.5 -52.5q-61 0 -119 19.5 t-109.5 55.5t-92.5 74.5t-86 89.5q-42 -46 -68.5 -73t-69.5 -62.5t-79.5 -55t-85.5 -34t-101 -14.5q-67 0 -125.5 19.5t-102.5 54.5t-76 83.5t-48 108t-16 125.5zM294 745q0 -78 44 -127.5t121 -49.5q128 0 277 175q-32 35 -59 60.5t-65 56t-78.5 47.5t-78.5 17 q-73 0 -117 -52.5t-44 -126.5zM990 743q33 -37 59.5 -62.5t63.5 -54.5t77.5 -43.5t81.5 -14.5q75 0 119 50.5t44 126.5q0 50 -20 90.5t-59 64.5t-90 24q-38 0 -78.5 -17t-77 -46t-65 -57.5t-55.5 -60.5z" />
<glyph unicode="&#x222b;" d="M0 0v1477h1055v-1477h-1055zM103 203l362 536l-362 535v-1071zM171 103h715l-359 539zM171 1371l356 -538l359 538h-715zM588 739l362 -536v1071z" />
<glyph unicode="&#x2248;" horiz-adv-x="1349" d="M139 354q13 69 36 124t57 98.5t84 67.5t112 24q61 0 160 -27t191 -54.5t135 -27.5q124 0 161 125l140 -32q-13 -68 -36 -122.5t-57.5 -98t-85 -67.5t-112.5 -24q-60 0 -160 27t-192.5 54.5t-134.5 27.5q-57 0 -100 -33.5t-61 -91.5zM139 823q13 69 36 124.5t57 99.5 t84 68t112 24q60 0 159.5 -28t191.5 -56t135 -28q123 0 161 125l140 -29q-13 -69 -36 -124t-57.5 -99t-85 -68t-112.5 -24q-60 0 -160 28t-192.5 56t-134.5 28q-57 0 -100 -34.5t-61 -92.5z" />
<glyph unicode="&#x2260;" horiz-adv-x="1349" d="M175 365v232h314l173 289h-487v232h628l145 241l170 -28l-128 -213h181v-232h-325l-173 -289h498v-232h-640l-143 -240l-171 26l129 214h-171z" />
<glyph unicode="&#x2264;" horiz-adv-x="1349" d="M161 19v221h1031v-221h-1031zM161 690v240l1031 372v-249l-779 -243l779 -242v-250z" />
<glyph unicode="&#x2265;" horiz-adv-x="1349" d="M161 19v221h1031v-221h-1031zM163 318v250l775 242l-775 243v249l1029 -372v-240z" />
<glyph unicode="&#x25ca;" horiz-adv-x="1349" d="M179 751l384 825h218l388 -825l-388 -825h-218zM422 751l253 -586l251 586q-151 346 -251 582z" />
<glyph unicode="&#x25fc;" horiz-adv-x="1117" d="M0 0v1118h1118v-1118h-1118z" />
<glyph unicode="&#xf8ff;" d="M0 0v1477h1055v-1477h-1055zM103 203l362 536l-362 535v-1071zM171 103h715l-359 539zM171 1371l356 -538l359 538h-715zM588 739l362 -536v1071z" />
</font>
</defs>
</svg>
